<?xml version="1.0" standalone="no"?>
<!DOCTYPE svg PUBLIC "-//W3C//DTD SVG 1.1//EN" "http://www.w3.org/Graphics/SVG/1.1/DTD/svg11.dtd" >
<svg xmlns="http://www.w3.org/2000/svg">
<metadata></metadata>
<defs>
<font id="caprica_script_upr_personalRg" horiz-adv-x="1871" >
<font-face units-per-em="2048" ascent="1638" descent="-410" />
<missing-glyph horiz-adv-x="565" />
<glyph unicode="&#xfb01;" horiz-adv-x="1302" d="M-111.5 -187.5q-5.5 48.5 3 84t28 52t43.5 -1.5q31 -27 34 39.5t3 216.5v899q0 111 31.5 184.5t84 118.5t121 63.5t142.5 18.5q135 0 201.5 -62.5t69.5 -175t-54 -270.5t-168 -348q-8 -80 32 -123t91 -46t95 33.5t44 118.5v121q0 147 59.5 210t188.5 63q49 0 85 -7.5 t57.5 -29t31.5 -60.5t10 -100v-313q2 -127 15.5 -176.5t56.5 -51.5q25 0 45.5 14.5t34.5 53.5t21.5 106.5t7.5 169.5q0 61 22.5 86t48 22t48 -31.5t22.5 -76.5q0 -305 -93.5 -456.5t-310.5 -157.5q-125 0 -196.5 40t-106.5 99q-23 37 -32 81t-13 91q-39 -23 -80 -30 t-77.5 -2.5t-65.5 17.5t-43 36l4 -234q0 -139 -17.5 -231t-55.5 -147.5t-96 -78t-140 -22.5q-78 0 -127 29.5t-74.5 72.5t-31 91.5zM426 918q23 70 43 133t29.5 111t4.5 77t-34 29q-16 0 -25.5 -18.5t-13.5 -45t-4 -55.5v-47v-184zM690 1282q0 86 54.5 145.5t160.5 59.5 q111 0 164 -59.5t53 -145.5q0 -84 -53 -143.5t-164 -59.5q-106 0 -160.5 59.5t-54.5 143.5z" />
<glyph unicode="&#xfb02;" horiz-adv-x="1304" d="M-111.5 -187.5q-5.5 48.5 3 84t28 52t43.5 -1.5q31 -27 34 39.5t3 216.5v899q0 111 31.5 184.5t84 118.5t121 63.5t142.5 18.5q135 0 201.5 -62.5t69.5 -175t-54 -270.5t-168 -348q-8 -80 32 -123t91 -46t95 33.5t44 118.5v721q0 23 3 49.5t18.5 49t50.5 38t98 15.5 q125 0 193.5 -68.5t68.5 -201.5v-719q2 -127 15.5 -176.5t56.5 -51.5q25 0 45.5 14.5t34.5 53.5t22.5 106.5t8.5 169.5q0 61 22.5 86t48 22t48 -31.5t22.5 -76.5q0 -305 -94.5 -456.5t-311.5 -157.5q-125 0 -196.5 40t-106.5 99q-23 37 -32 81t-13 91q-39 -23 -80 -30 t-77.5 -2.5t-65.5 17.5t-43 36l4 -234q0 -139 -17.5 -231t-55.5 -147.5t-96 -78t-140 -22.5q-78 0 -127 29.5t-74.5 72.5t-31 91.5zM426 918q23 70 43 133t29.5 111t4.5 77t-34 29q-16 0 -25.5 -18.5t-13.5 -45t-4 -55.5v-47v-184z" />
<glyph unicode="&#xfb03;" horiz-adv-x="1875" d="M-48 -187.5q-5 48.5 3 84t27.5 52t44.5 -1.5q31 -27 33.5 39.5t2.5 216.5l-4 579h-6q-41 0 -55 36t-16 77q0 41 14 77t57 36h6v94q6 111 26.5 184.5t58.5 118.5t93.5 63.5t129.5 18.5q78 0 128 -30t75.5 -73t31.5 -91t-2 -83.5t-28.5 -53t-45.5 2.5q-35 25 -37 -57v-94 h205v94q6 111 26.5 184.5t58.5 118.5t93.5 63.5t128.5 18.5q80 0 129.5 -30t75 -73t31.5 -91t-2 -83.5t-28.5 -53t-45.5 2.5q-35 25 -37 -57v-94h424q4 0 7.5 -1t7.5 -1q72 -8 102.5 -48t30.5 -147v-313q2 -127 15 -176.5t56 -51.5q25 0 45.5 14.5t35 53.5t21.5 106.5 t7 169.5q0 61 22.5 86t48 22t48 -31.5t22.5 -76.5q0 -305 -93 -456.5t-310 -157.5q-125 0 -196.5 40t-106.5 99t-41 132t-6 141v370h-140l4 -684q0 -139 -17 -231t-55 -147.5t-96.5 -78t-140.5 -22.5q-78 0 -127 29.5t-74.5 72.5t-31.5 91.5t2 84t28.5 52t45.5 -1.5 q31 -27 33.5 39.5t2.5 216.5l-4 579h-205l5 -684q0 -139 -17.5 -231t-55.5 -147.5t-96.5 -78t-140.5 -22.5q-78 0 -127 29.5t-74.5 72.5t-30.5 91.5zM1264 1282q0 86 54 145.5t161 59.5q111 0 164 -59.5t53 -145.5q0 -84 -53.5 -143.5t-163.5 -59.5q-106 0 -160.5 59.5 t-54.5 143.5z" />
<glyph unicode="&#xfb04;" horiz-adv-x="1792" d="M-111.5 -187.5q-5.5 48.5 3 84t28 52t43.5 -1.5q31 -27 34 39.5t3 216.5l-2 674q-41 0 -56.5 35.5t-15.5 76.5q-2 41 12.5 77t57.5 38q6 111 26.5 183.5t58.5 117.5t93 63.5t129 18.5q80 0 129 -30t74.5 -73t32 -91t-2 -83.5t-29 -53t-44.5 2.5q-33 25 -37 -55h145 q6 111 26.5 183.5t58.5 117.5t93.5 63.5t129.5 18.5q78 0 128 -30t75.5 -73t31.5 -91t-2 -83.5t-28.5 -53t-45.5 2.5q-33 25 -37 -55h50q39 0 52 -36t13 -79q0 -41 -12 -76.5t-53 -35.5h-50l5 -779q0 -139 -17.5 -231t-55.5 -147.5t-96.5 -78t-140.5 -22.5q-78 0 -127 29.5 t-74.5 72.5t-31.5 91.5t2 84t28.5 52t45.5 -1.5q31 -27 33.5 39.5t2.5 216.5l-4 674h-145l4 -779q0 -139 -17.5 -231t-55.5 -147.5t-96 -78t-140 -22.5q-78 0 -127 29.5t-74.5 72.5t-31 91.5zM1178 412v923q0 23 3 49.5t18 49t50 38t99 15.5q125 0 193.5 -68.5t68.5 -201.5 v-719q2 -127 15 -176.5t56 -51.5q25 0 45.5 14.5t35 53.5t22.5 106.5t8 169.5q0 61 22.5 86t48 22t48 -31.5t22.5 -76.5q0 -305 -94 -456.5t-311 -157.5q-125 0 -196.5 40t-106.5 99t-41 132t-6 141z" />
<glyph horiz-adv-x="0" />
<glyph unicode="&#xd;" horiz-adv-x="565" />
<glyph horiz-adv-x="0" />
<glyph horiz-adv-x="0" />
<glyph unicode=" "  horiz-adv-x="565" />
<glyph unicode="&#x09;" horiz-adv-x="565" />
<glyph unicode="&#xa0;" horiz-adv-x="565" />
<glyph unicode="!" horiz-adv-x="718" d="M205 1284q0 98 44 127t124 29q139 2 201.5 -64.5t62.5 -185.5q0 -57 -9.5 -138t-23.5 -163t-31.5 -157t-35.5 -120q-20 -49 -51 -74.5t-63 -25.5t-61.5 26.5t-48.5 79.5q-10 33 -28.5 104t-36 162t-30.5 194.5t-13 205.5zM207 203q0 86 53 144.5t162 58.5 q111 0 163 -58.5t52 -144.5q0 -84 -52.5 -143.5t-160.5 -59.5q-109 0 -163 59.5t-54 143.5z" />
<glyph unicode="&#x22;" horiz-adv-x="845" d="M1 1276q-3 43 3 72q8 41 33.5 69.5t61.5 46t79 20.5t86 -5q70 -12 113 -49q39 37 96.5 49t118.5 0q90 -16 137 -73.5t31 -139.5q-6 -31 -20.5 -71t-35 -85t-49 -91t-61.5 -85q-27 -31 -57.5 -41t-59 -2t-52.5 30.5t-34 55.5q-8 25 -16 50.5t-15 51.5q-39 -80 -94 -145 q-27 -31 -57.5 -41t-59 -2t-52 30.5t-34.5 55.5q-16 49 -29.5 102.5t-21.5 103.5t-11 93z" />
<glyph unicode="#" horiz-adv-x="1155" d="M20 496q0 20 3.5 39.5t17.5 37t45 33t84 25.5q6 33 14.5 64.5t14.5 64.5q-35 12 -55.5 25.5t-31 29.5t-12.5 33.5t-2 36.5q0 20 3 40.5t18.5 38t48.5 33t90 25.5q20 82 46 126t52.5 65.5t56 25.5t60.5 4t56.5 -8t44 -29.5t24.5 -60.5t-2 -101h57q20 74 45 114t51.5 58.5 t55.5 22.5t57 4q31 0 58.5 -9t46 -33.5t23.5 -70t-9 -116.5q39 -10 62.5 -24.5t33.5 -31t13.5 -34t3.5 -35.5q0 -23 -4.5 -44.5t-20.5 -40t-50 -32.5t-95 -24l-25 -121q41 -10 64.5 -24.5t35 -31t14.5 -35t3 -36.5q0 -23 -4 -44.5t-20.5 -40t-52.5 -33.5t-97 -26 q-2 -10 -4 -17t-2 -11q-27 -111 -76 -148t-109 -37q-35 0 -65.5 7.5t-54 29t-34 59t-1.5 99.5h-47q-2 -4 -3 -10q-27 -111 -75.5 -148t-108.5 -37q-35 0 -68.5 8.5t-56 33t-31 68.5t6.5 114q0 4 2 8q-66 23 -80.5 53.5t-14.5 67.5zM516 655h49l15 72h-50q-4 -18 -7 -35.5 t-7 -36.5z" />
<glyph unicode="$" horiz-adv-x="1906" d="M35 1018q70 37 137.5 67.5t144.5 53.5q4 0 8.5 20.5t8.5 45t8 48t8 31.5q23 35 68 53.5t78 34.5q88 35 179 61.5t183 51.5q94 23 188.5 39t190.5 24q33 4 80 8.5t95 3.5t92 -12.5t71 -38.5q2 -4 -2 -28.5t-6 -32.5l-6 -98q0 -4 4 -4q78 -23 152.5 -59t123.5 -103v-2 q-16 4 -36.5 -3.5t-41 -20.5t-38 -27.5t-27.5 -26.5q31 -16 50 -47t27.5 -67t6.5 -72.5t-13 -67.5q-16 43 -49.5 66.5t-74.5 35t-85 14.5t-83 5q-45 4 -94.5 2t-92.5 14q-16 6 -22 25.5t-7 43t2 46l5 37.5q-184 -14 -363.5 -56.5t-351.5 -101.5q-8 -2 -8 -6q2 -10 8 -33.5 t10 -50.5t6 -49.5t-6 -28.5q-23 -18 -58.5 -21.5t-64.5 -7.5q-39 -6 -78.5 -12t-78.5 -12q-35 -8 -67 -17.5t-62 -21.5q-14 -8 -28.5 -13.5t-29.5 -15.5q-8 -8 -18 -20.5t-17 -16.5q10 35 24.5 68t27.5 63q2 6 13 25.5t21.5 41t18.5 39t6 21.5q-25 35 -58.5 68t-78.5 37z M86 72h47q4 -41 7 -83t12 -83q4 41 10 83t14 83h37l25 -166q4 41 9 83t9 83h43l-43 -224h-43q-6 37 -11 74t-9 74q-4 -37 -11.5 -74t-13.5 -74h-43zM90 1024q68 -37 109 -109q2 -2 -4.5 -15t-14.5 -28.5t-15 -29t-9 -19.5q-25 -45 -41 -94q51 27 104 39t108.5 20.5t110 15.5 t107.5 23q-18 18 -47 25.5t-62 8.5t-65.5 -2t-55.5 -5v131t4 131q-59 -16 -116.5 -39.5t-112.5 -52.5zM305 72h45q4 -41 8 -83t11 -83q4 41 10 83t14 83h39l23 -166q4 41 9 83t9 83h43l-43 -224h-41q-8 37 -13 74t-9 74q-4 -37 -10.5 -74t-12.5 -74h-45zM342 913 q8 0 22.5 6.5t29 15.5t27.5 18.5t23 13.5q37 16 75 29.5t77 27.5q78 23 155.5 43t159.5 39q78 16 155 31.5t157 21.5q72 8 154.5 11.5t152.5 -29.5q6 55 6 112.5t4 110.5q0 29 2 57.5t6 57.5q2 14 -6 22t-20.5 13.5t-26.5 7.5t-27 4q-119 18 -245.5 0.5t-245.5 -41.5 q-129 -27 -255 -60.5t-249 -87.5q-23 -12 -46.5 -24.5t-43.5 -28.5t-24.5 -49t-8.5 -55q-8 -66 -8 -132.5v-134.5zM367 1030q0 23 15 38t36 19q6 2 15 -2t5 -14q-12 -8 -22 -8q-12 -4 -16.5 -16.5t1.5 -22.5q4 -4 8.5 -5t8.5 -3q20 -2 33.5 11t22.5 33.5t13.5 41t8.5 35.5 q-27 -27 -62 -35q-27 -4 -43 12q-16 8 -16 37q0 27 12 51q27 61 86 98q12 6 25.5 12.5t27.5 10.5q10 4 21.5 12t21.5 11q12 -1 6 -13q12 0 21 -2q16 -2 27.5 -15t13.5 -32q6 -43 -23.5 -83t-66.5 -62q-18 -12 -27.5 -32t-18.5 -39t-20.5 -37.5t-34.5 -29.5q-23 -16 -53 -10 q-12 4 -20 14.5t-6 24.5zM405.5 1141.5q2.5 -15.5 22.5 -15.5q31 0 49.5 19.5t30.5 47.5t18.5 59t10.5 51q-29 -6 -52.5 -23.5t-44.5 -38.5q-6 -6 -15 -25.5t-15.5 -39t-4 -35zM522 72h45q4 -41 9.5 -83t9.5 -83q4 41 10 83t14 83h39l25 -166q2 41 7 83t11 83h41l-41 -224 h-43q-8 37 -12 74t-10 74q-4 -37 -10.5 -74t-12.5 -74h-43zM530 1155q14 4 29.5 19.5t26 35t14.5 40t0 34.5q-6 23 -33 23q-14 -37 -20.5 -75t-16.5 -77zM582 343q2 34 2 60q0 20 -1 39t1 39q0 49 26.5 67.5t73.5 18.5q37 0 54.5 -20.5t23.5 -50t4 -63.5t-2 -60v-80 q0 -47 -26.5 -66.5t-71.5 -17.5q-39 0 -56.5 20.5t-23.5 50t-4 63.5zM628 1157.5q-5 20.5 6 46t31.5 46t43.5 22.5q12 0 16 -10q8 -12 2 -29q-6 -23 -27.5 -40t-44.5 -22q2 -12 10.5 -13t17.5 3t17.5 10.5t12.5 10.5q25 20 36 45.5t21 52.5q2 2 -1 9t-8 15.5t-8 17.5t-1 15 q10 27 34 23q12 0 17 -12q4 -10 2 -22.5t-2 -25.5q20 2 28.5 -1t-4.5 -27q-8 -16 -17 -33.5t-11 -36.5q0 -10 6 -10q20 0 34.5 20.5t26 46t22.5 51t25 33.5q8 2 17 -2q2 -4 2 -12q-4 -12 -10.5 -21.5t-1.5 -23.5q6 -12 13 -25.5t5 -27.5h2q20 25 32.5 60.5t45.5 51.5 q37 14 49 -20q10 -14 6 -25.5t-2 -27.5q8 2 14 10q16 12 18.5 34.5t8.5 41.5q4 4 11 5t12 -1q10 -2 8 -12v-2q10 10 24 16q10 6 17.5 2t11.5 -14q4 -12 1 -22.5t-8 -22t-10 -22.5t-3 -23q14 12 24 26t18.5 29.5t17.5 29t26 23.5q20 10 51 0q4 6 17 8t9 -14q-4 -18 -14 -38.5 t-10 -41.5q0 -14 8 -2q20 20 30.5 48t19.5 55.5t23.5 53t43.5 42.5q14 8 24 -9q12 -23 4 -48t-24 -42q-14 -18 -43 -43.5t-25 -52.5q4 -16 23 -12q14 6 21 19.5t16 25.5q4 2 12 2t8 -10l-4 -13q-16 -39 -53 -53q-25 -14 -43 14q-4 5 -4 11q-10 -8 -16.5 -15.5t-18.5 -11.5 q-10 -4 -16.5 0t-12.5 8q-4 -4 -12 -8t-16 -6q-31 -6 -43 20v2q-8 -10 -17.5 -17t-23.5 -11q-14 -8 -25 12q-6 12 -3 23.5t8 21.5t9 21.5t2 23.5q-18 -8 -25 -19.5t-11.5 -25.5t-6.5 -28.5t-8 -28.5q-6 -16 -24 -8q-8 2 -9 10q0 4 1 9t1 7q-14 -4 -19 -4t-15 -10 t-24.5 -18.5t-31.5 -8.5q-10 2 -16 8.5t-10 14.5q-16 -16 -40 -32.5t-50 -12.5q-16 2 -25 18q-25 -29 -51 -37q-29 -12 -33 21q-4 27 8.5 44t22.5 38q2 4 -3 5t-7 -3q-8 -20 -18.5 -44t-26 -45.5t-36 -34.5t-46.5 -11q-31 2 -36 22.5zM638 367.5q-1 -37.5 1 -74.5 q0 -16 9 -26.5t21.5 -14.5t24 1t15.5 23q2 12 2 27.5v30.5v147q0 16 -10.5 27.5t-22.5 15.5t-23.5 -2t-15.5 -22q-2 -14 -1 -29.5t1 -28.5q0 -37 -1 -74.5zM653 621q12 14 15.5 36.5t2.5 48t-4 49t-3 42.5v125q0 16 1 30.5t-12 28.5h76q-14 -12 -12 -32.5t2 -37.5v-141 q0 -16 -2 -49t10 -47q14 -23 37.5 -8.5t28.5 32.5q8 27 2.5 54.5t-9.5 54.5q-4 14 -10 37.5t-8 48.5t2 46.5t21 33.5q10 10 31.5 10t29.5 -16q6 -16 -2 -21.5t-18.5 -4.5t-17.5 8t1 16q-16 -8 -17 -29t6 -44.5t17 -46t15 -34.5q12 -37 17 -87t-22 -85q-10 -14 -33.5 -19.5 t-50 -5.5t-53 3.5t-41.5 3.5zM655 1192q12 -2 28.5 15.5t18.5 27.5q4 8 -2 12t-12 -2q-10 -10 -18.5 -24.5t-14.5 -28.5zM715 -123q0 14 9 22.5t21.5 8.5t21.5 -8.5t9 -22.5q0 -16 -9 -23.5t-21.5 -7.5t-21.5 7.5t-9 23.5zM776 1329q-2 -8 4 -20h4q0 8 1 13t-1 13 q-6 0 -8 -6zM780 209q10 14 13.5 34.5t2.5 44t-4.5 46t-3.5 39.5v172q0 10 -8 22h58q29 -12 51 -50t35 -66q0 25 2 59.5t-13 56.5h74q-12 -10 -11 -24.5t1 -28.5v-246q0 -14 -1 -31.5t11 -27.5h-207zM797 -152l59 224h64l59 -224h-51l-15 52h-53l-10 -52h-53zM844 252 q0 -14 11 -23.5t25.5 -11.5t28 3.5t15.5 19.5q-4 63 -21.5 127.5t-58.5 115.5v-231zM865 711.5q-3 19.5 7 31.5t33 13.5t27 -21.5q0 -10 -7 -15t-15.5 -5t-14.5 4t-6 14q-12 -4 -12 -14t7 -20.5t17 -19.5t17 -11q14 -4 34.5 -4t30.5 10q20 20 16 40.5t-19 38t-35.5 32 t-31.5 24.5q-18 16 -30.5 42t-12.5 52.5t13.5 48t44.5 27.5q27 6 54.5 4t51.5 -2l-6 -10q0 -14 7 -29.5t13.5 -31t5.5 -30t-16 -26.5q-14 -10 -33.5 -9t-21.5 21q0 12 7 17.5t15.5 5.5t14.5 -5t4 -14q14 2 14 12.5t-8 21.5t-18.5 20.5t-18.5 11.5q-14 4 -32.5 1t-24.5 -19 q-12 -25 -4 -43.5t24.5 -33t37 -27.5t32.5 -28q14 -20 22.5 -46.5t4.5 -52t-20.5 -44t-47.5 -22.5q-27 -2 -53.5 -1t-54.5 1q8 4 5 19t-8.5 33.5t-8.5 38zM866 -61h41q-4 23 -9 46t-11 46zM874 1219q4 -12 16.5 -10.5t14.5 14.5q2 18 -10 43q-6 -8 -14.5 -22.5t-6.5 -24.5z M991 1264l4 -15q10 -14 25 -6q16 4 23.5 21.5t3.5 33.5q-2 10 -9.5 16.5t-21.5 -3.5q-20 -14 -25 -47zM997 209q12 14 15.5 36.5t2.5 47t-4 48.5t-3 40v127q0 16 1 29.5t-12 29.5h76q-10 -10 -13 -30.5t-2 -42t3 -43t2 -35.5v-166h104q23 0 55.5 -3t55.5 13q-4 -8 -7 -29.5 t-14 -21.5h-260zM1006 70q29 4 64.5 6t62.5 -15q31 -23 22.5 -57.5t-37.5 -48.5q14 -6 21.5 -19.5t10.5 -29t5 -30.5t8 -28h-51q-6 12 -8 27.5t-6 29t-12.5 23t-26.5 6.5v-86h-53v222zM1057 8.5q2 -24.5 2 -35.5h12q18 0 26.5 10.5t6.5 22.5t-11.5 21.5t-27.5 7.5 q-10 -2 -8 -26.5zM1065 621q10 12 11 25t1 28v248q0 14 -1 30.5t-11 28.5h127q25 -25 25.5 -59.5t-9.5 -67.5q-4 -8 -15 -29.5t-20.5 -45t-11.5 -45t10 -27.5q-6 12 4.5 13t21.5 -4t14 -14.5t-17 -17.5q-25 -10 -35 9.5t-8 35.5q0 16 6 32.5t8 31t-4 22.5t-28 6v-155 q16 0 41.5 -3.5t44.5 11.5q-6 -14 -8.5 -26.5t-6.5 -26.5h-139zM1098 567h78q-12 -29 2 -65.5t26 -61.5q12 29 22.5 63t0.5 64h80q-23 -12 -27 -38.5t-10 -47.5q-6 -20 -23.5 -47.5t-17.5 -48.5q0 -23 -3 -56.5t13 -52.5h-76q18 18 14.5 54t-3.5 59q-12 23 -21.5 46.5 t-17.5 45.5q-10 23 -14.5 46.5t-22.5 39.5zM1133 866q20 0 45.5 2t27.5 33q0 16 -7 23.5t-18.5 10.5t-24.5 3h-23v-72zM1192 72h53v-224h-53v224zM1245 1296q-4 -10 1 -27.5t22 -2.5q12 12 21 32.5t11 38.5q-2 8 -4 13.5t-12 1.5q-16 -8 -25.5 -23.5t-13.5 -32.5zM1274 -123 q0 14 9 22.5t21.5 8.5t21.5 -8.5t9 -22.5q0 -16 -9 -23.5t-21.5 -7.5t-21.5 7.5t-9 23.5zM1294 1018q-8 -6 4 -8q27 -10 57.5 -13.5t62.5 -3.5h62.5t59.5 -2t57.5 -5t57.5 -13q29 -8 51.5 -23.5t48.5 -27.5q0 61 -21.5 106t-80.5 68q35 31 69.5 58.5t75.5 43.5 q-49 47 -110.5 77t-126.5 46q-2 -57 -3.5 -112.5t-5.5 -112.5l-2 2v-6q-27 -2 -64.5 -4.5t-74.5 -9.5t-68.5 -21.5t-48.5 -38.5zM1364 72h57l68 -152q-4 39 -4 77v75h47v-224h-51q-20 39 -37 79t-35 77q2 -39 2 -78v-78h-47v224zM1393 1362q16 20 31.5 39.5t19.5 46.5h-2 q-37 -37 -49 -86zM1562.5 -63.5q-8.5 36.5 14.5 79.5q12 29 40 43.5t62 14.5h10.5t17.5 -2t16.5 -4t7.5 -5l-9 -40q-27 12 -48 8t-36.5 -18.5t-20.5 -37t3 -47.5q16 -47 61 -41q10 2 8.5 21.5t-1.5 28.5h-27v40h76v-120q-41 -16 -79 -9t-62.5 29.5t-33 59z" />
<glyph unicode="%" d="M35 1018q70 37 137.5 67.5t144.5 53.5q4 0 8.5 20.5t8.5 45t8 48t8 31.5q23 35 68 53.5t78 34.5q88 35 179 61.5t183 51.5q94 23 188.5 39t190.5 24q33 4 80 8.5t95 3.5t92 -12.5t71 -38.5q2 -4 -2 -28.5t-6 -32.5l-6 -98q0 -4 4 -4q78 -23 152.5 -59t123.5 -103v-2 q-16 4 -36.5 -3.5t-41 -20.5t-38 -27.5t-27.5 -26.5q31 -16 50 -47t27.5 -67t6.5 -72.5t-13 -67.5q-16 43 -49.5 66.5t-74.5 35t-85 14.5t-83 5q-45 4 -94.5 2t-92.5 14q-16 6 -22 25.5t-7 43t2 46l5 37.5q-184 -14 -363.5 -56.5t-351.5 -101.5q-8 -2 -8 -6q2 -10 8 -33.5 t10 -50.5t6 -49.5t-6 -28.5q-23 -18 -58.5 -21.5t-64.5 -7.5q-39 -6 -78.5 -12t-78.5 -12q-35 -8 -67 -17.5t-62 -21.5q-14 -8 -28.5 -13.5t-29.5 -15.5q-8 -8 -18 -20.5t-17 -16.5q10 35 24.5 68t27.5 63q2 6 13 25.5t21.5 41t18.5 39t6 21.5q-25 35 -58.5 68t-78.5 37z M86 72h47q4 -41 7 -83t12 -83q4 41 10 83t14 83h37l25 -166q4 41 9 83t9 83h43l-43 -224h-43q-6 37 -11 74t-9 74q-4 -37 -11.5 -74t-13.5 -74h-43zM90 1024q68 -37 109 -109q2 -2 -4.5 -15t-14.5 -28.5t-15 -29t-9 -19.5q-25 -45 -41 -94q51 27 104 39t108.5 20.5t110 15.5 t107.5 23q-18 18 -47 25.5t-62 8.5t-65.5 -2t-55.5 -5v131t4 131q-59 -16 -116.5 -39.5t-112.5 -52.5zM305 72h45q4 -41 8 -83t11 -83q4 41 10 83t14 83h39l23 -166q4 41 9 83t9 83h43l-43 -224h-41q-8 37 -13 74t-9 74q-4 -37 -10.5 -74t-12.5 -74h-45zM342 913 q8 0 22.5 6.5t29 15.5t27.5 18.5t23 13.5q37 16 75 29.5t77 27.5q78 23 155.5 43t159.5 39q78 16 155 31.5t157 21.5q72 8 154.5 11.5t152.5 -29.5q6 55 6 112.5t4 110.5q0 29 2 57.5t6 57.5q2 14 -6 22t-20.5 13.5t-26.5 7.5t-27 4q-119 18 -245.5 0.5t-245.5 -41.5 q-129 -27 -255 -60.5t-249 -87.5q-23 -12 -46.5 -24.5t-43.5 -28.5t-24.5 -49t-8.5 -55q-8 -66 -8 -132.5v-134.5zM367 1030q0 23 15 38t36 19q6 2 15 -2t5 -14q-12 -8 -22 -8q-12 -4 -16.5 -16.5t1.5 -22.5q4 -4 8.5 -5t8.5 -3q20 -2 33.5 11t22.5 33.5t13.5 41t8.5 35.5 q-27 -27 -62 -35q-27 -4 -43 12q-16 8 -16 37q0 27 12 51q27 61 86 98q12 6 25.5 12.5t27.5 10.5q10 4 21.5 12t21.5 11q12 -1 6 -13q12 0 21 -2q16 -2 27.5 -15t13.5 -32q6 -43 -23.5 -83t-66.5 -62q-18 -12 -27.5 -32t-18.5 -39t-20.5 -37.5t-34.5 -29.5q-23 -16 -53 -10 q-12 4 -20 14.5t-6 24.5zM405.5 1141.5q2.5 -15.5 22.5 -15.5q31 0 49.5 19.5t30.5 47.5t18.5 59t10.5 51q-29 -6 -52.5 -23.5t-44.5 -38.5q-6 -6 -15 -25.5t-15.5 -39t-4 -35zM522 72h45q4 -41 9.5 -83t9.5 -83q4 41 10 83t14 83h39l25 -166q2 41 7 83t11 83h41l-41 -224 h-43q-8 37 -12 74t-10 74q-4 -37 -10.5 -74t-12.5 -74h-43zM530 1155q14 4 29.5 19.5t26 35t14.5 40t0 34.5q-6 23 -33 23q-14 -37 -20.5 -75t-16.5 -77zM582 343q2 34 2 60q0 20 -1 39t1 39q0 49 26.5 67.5t73.5 18.5q37 0 54.5 -20.5t23.5 -50t4 -63.5t-2 -60v-80 q0 -47 -26.5 -66.5t-71.5 -17.5q-39 0 -56.5 20.5t-23.5 50t-4 63.5zM628 1157.5q-5 20.5 6 46t31.5 46t43.5 22.5q12 0 16 -10q8 -12 2 -29q-6 -23 -27.5 -40t-44.5 -22q2 -12 10.5 -13t17.5 3t17.5 10.5t12.5 10.5q25 20 36 45.5t21 52.5q2 2 -1 9t-8 15.5t-8 17.5t-1 15 q10 27 34 23q12 0 17 -12q4 -10 2 -22.5t-2 -25.5q20 2 28.5 -1t-4.5 -27q-8 -16 -17 -33.5t-11 -36.5q0 -10 6 -10q20 0 34.5 20.5t26 46t22.5 51t25 33.5q8 2 17 -2q2 -4 2 -12q-4 -12 -10.5 -21.5t-1.5 -23.5q6 -12 13 -25.5t5 -27.5h2q20 25 32.5 60.5t45.5 51.5 q37 14 49 -20q10 -14 6 -25.5t-2 -27.5q8 2 14 10q16 12 18.5 34.5t8.5 41.5q4 4 11 5t12 -1q10 -2 8 -12v-2q10 10 24 16q10 6 17.5 2t11.5 -14q4 -12 1 -22.5t-8 -22t-10 -22.5t-3 -23q14 12 24 26t18.5 29.5t17.5 29t26 23.5q20 10 51 0q4 6 17 8t9 -14q-4 -18 -14 -38.5 t-10 -41.5q0 -14 8 -2q20 20 30.5 48t19.5 55.5t23.5 53t43.5 42.5q14 8 24 -9q12 -23 4 -48t-24 -42q-14 -18 -43 -43.5t-25 -52.5q4 -16 23 -12q14 6 21 19.5t16 25.5q4 2 12 2t8 -10l-4 -13q-16 -39 -53 -53q-25 -14 -43 14q-4 5 -4 11q-10 -8 -16.5 -15.5t-18.5 -11.5 q-10 -4 -16.5 0t-12.5 8q-4 -4 -12 -8t-16 -6q-31 -6 -43 20v2q-8 -10 -17.5 -17t-23.5 -11q-14 -8 -25 12q-6 12 -3 23.5t8 21.5t9 21.5t2 23.5q-18 -8 -25 -19.5t-11.5 -25.5t-6.5 -28.5t-8 -28.5q-6 -16 -24 -8q-8 2 -9 10q0 4 1 9t1 7q-14 -4 -19 -4t-15 -10 t-24.5 -18.5t-31.5 -8.5q-10 2 -16 8.5t-10 14.5q-16 -16 -40 -32.5t-50 -12.5q-16 2 -25 18q-25 -29 -51 -37q-29 -12 -33 21q-4 27 8.5 44t22.5 38q2 4 -3 5t-7 -3q-8 -20 -18.5 -44t-26 -45.5t-36 -34.5t-46.5 -11q-31 2 -36 22.5zM638 367.5q-1 -37.5 1 -74.5 q0 -16 9 -26.5t21.5 -14.5t24 1t15.5 23q2 12 2 27.5v30.5v147q0 16 -10.5 27.5t-22.5 15.5t-23.5 -2t-15.5 -22q-2 -14 -1 -29.5t1 -28.5q0 -37 -1 -74.5zM653 621q12 14 15.5 36.5t2.5 48t-4 49t-3 42.5v125q0 16 1 30.5t-12 28.5h76q-14 -12 -12 -32.5t2 -37.5v-141 q0 -16 -2 -49t10 -47q14 -23 37.5 -8.5t28.5 32.5q8 27 2.5 54.5t-9.5 54.5q-4 14 -10 37.5t-8 48.5t2 46.5t21 33.5q10 10 31.5 10t29.5 -16q6 -16 -2 -21.5t-18.5 -4.5t-17.5 8t1 16q-16 -8 -17 -29t6 -44.5t17 -46t15 -34.5q12 -37 17 -87t-22 -85q-10 -14 -33.5 -19.5 t-50 -5.5t-53 3.5t-41.5 3.5zM655 1192q12 -2 28.5 15.5t18.5 27.5q4 8 -2 12t-12 -2q-10 -10 -18.5 -24.5t-14.5 -28.5zM715 -123q0 14 9 22.5t21.5 8.5t21.5 -8.5t9 -22.5q0 -16 -9 -23.5t-21.5 -7.5t-21.5 7.5t-9 23.5zM776 1329q-2 -8 4 -20h4q0 8 1 13t-1 13 q-6 0 -8 -6zM780 209q10 14 13.5 34.5t2.5 44t-4.5 46t-3.5 39.5v172q0 10 -8 22h58q29 -12 51 -50t35 -66q0 25 2 59.5t-13 56.5h74q-12 -10 -11 -24.5t1 -28.5v-246q0 -14 -1 -31.5t11 -27.5h-207zM797 -152l59 224h64l59 -224h-51l-15 52h-53l-10 -52h-53zM844 252 q0 -14 11 -23.5t25.5 -11.5t28 3.5t15.5 19.5q-4 63 -21.5 127.5t-58.5 115.5v-231zM865 711.5q-3 19.5 7 31.5t33 13.5t27 -21.5q0 -10 -7 -15t-15.5 -5t-14.5 4t-6 14q-12 -4 -12 -14t7 -20.5t17 -19.5t17 -11q14 -4 34.5 -4t30.5 10q20 20 16 40.5t-19 38t-35.5 32 t-31.5 24.5q-18 16 -30.5 42t-12.5 52.5t13.5 48t44.5 27.5q27 6 54.5 4t51.5 -2l-6 -10q0 -14 7 -29.5t13.5 -31t5.5 -30t-16 -26.5q-14 -10 -33.5 -9t-21.5 21q0 12 7 17.5t15.5 5.5t14.5 -5t4 -14q14 2 14 12.5t-8 21.5t-18.5 20.5t-18.5 11.5q-14 4 -32.5 1t-24.5 -19 q-12 -25 -4 -43.5t24.5 -33t37 -27.5t32.5 -28q14 -20 22.5 -46.5t4.5 -52t-20.5 -44t-47.5 -22.5q-27 -2 -53.5 -1t-54.5 1q8 4 5 19t-8.5 33.5t-8.5 38zM866 -61h41q-4 23 -9 46t-11 46zM874 1219q4 -12 16.5 -10.5t14.5 14.5q2 18 -10 43q-6 -8 -14.5 -22.5t-6.5 -24.5z M991 1264l4 -15q10 -14 25 -6q16 4 23.5 21.5t3.5 33.5q-2 10 -9.5 16.5t-21.5 -3.5q-20 -14 -25 -47zM997 209q12 14 15.5 36.5t2.5 47t-4 48.5t-3 40v127q0 16 1 29.5t-12 29.5h76q-10 -10 -13 -30.5t-2 -42t3 -43t2 -35.5v-166h104q23 0 55.5 -3t55.5 13q-4 -8 -7 -29.5 t-14 -21.5h-260zM1006 70q29 4 64.5 6t62.5 -15q31 -23 22.5 -57.5t-37.5 -48.5q14 -6 21.5 -19.5t10.5 -29t5 -30.5t8 -28h-51q-6 12 -8 27.5t-6 29t-12.5 23t-26.5 6.5v-86h-53v222zM1057 8.5q2 -24.5 2 -35.5h12q18 0 26.5 10.5t6.5 22.5t-11.5 21.5t-27.5 7.5 q-10 -2 -8 -26.5zM1065 621q10 12 11 25t1 28v248q0 14 -1 30.5t-11 28.5h127q25 -25 25.5 -59.5t-9.5 -67.5q-4 -8 -15 -29.5t-20.5 -45t-11.5 -45t10 -27.5q-6 12 4.5 13t21.5 -4t14 -14.5t-17 -17.5q-25 -10 -35 9.5t-8 35.5q0 16 6 32.5t8 31t-4 22.5t-28 6v-155 q16 0 41.5 -3.5t44.5 11.5q-6 -14 -8.5 -26.5t-6.5 -26.5h-139zM1098 567h78q-12 -29 2 -65.5t26 -61.5q12 29 22.5 63t0.5 64h80q-23 -12 -27 -38.5t-10 -47.5q-6 -20 -23.5 -47.5t-17.5 -48.5q0 -23 -3 -56.5t13 -52.5h-76q18 18 14.5 54t-3.5 59q-12 23 -21.5 46.5 t-17.5 45.5q-10 23 -14.5 46.5t-22.5 39.5zM1133 866q20 0 45.5 2t27.5 33q0 16 -7 23.5t-18.5 10.5t-24.5 3h-23v-72zM1192 72h53v-224h-53v224zM1245 1296q-4 -10 1 -27.5t22 -2.5q12 12 21 32.5t11 38.5q-2 8 -4 13.5t-12 1.5q-16 -8 -25.5 -23.5t-13.5 -32.5zM1274 -123 q0 14 9 22.5t21.5 8.5t21.5 -8.5t9 -22.5q0 -16 -9 -23.5t-21.5 -7.5t-21.5 7.5t-9 23.5zM1294 1018q-8 -6 4 -8q27 -10 57.5 -13.5t62.5 -3.5h62.5t59.5 -2t57.5 -5t57.5 -13q29 -8 51.5 -23.5t48.5 -27.5q0 61 -21.5 106t-80.5 68q35 31 69.5 58.5t75.5 43.5 q-49 47 -110.5 77t-126.5 46q-2 -57 -3.5 -112.5t-5.5 -112.5l-2 2v-6q-27 -2 -64.5 -4.5t-74.5 -9.5t-68.5 -21.5t-48.5 -38.5zM1364 72h57l68 -152q-4 39 -4 77v75h47v-224h-51q-20 39 -37 79t-35 77q2 -39 2 -78v-78h-47v224zM1393 1362q16 20 31.5 39.5t19.5 46.5h-2 q-37 -37 -49 -86zM1562.5 -63.5q-8.5 36.5 14.5 79.5q12 29 40 43.5t62 14.5h10.5t17.5 -2t16.5 -4t7.5 -5l-9 -40q-27 12 -48 8t-36.5 -18.5t-20.5 -37t3 -47.5q16 -47 61 -41q10 2 8.5 21.5t-1.5 28.5h-27v40h76v-120q-41 -16 -79 -9t-62.5 29.5t-33 59z" />
<glyph unicode="&#x26;" horiz-adv-x="1132" d="M0 377q0 49 16.5 101t49 98.5t83 82t117.5 52.5q-63 2 -112.5 27.5t-83 67.5t-52 94t-18.5 112q0 102 39 182t106.5 134t156.5 82t192 28q100 0 188 -21.5t152.5 -65.5t102.5 -113t38 -161q0 -63 -33 -109t-81 -76t-104.5 -39t-102.5 1t-75.5 42t-25.5 89q6 55 -8.5 86 t-52.5 31q-41 0 -60.5 -45t-19.5 -107q0 -31 10 -60.5t35.5 -53t68.5 -38t111 -14.5q82 0 137 13.5t109 52.5q31 23 59.5 16.5t51 -31t36.5 -60.5t18.5 -73.5t-4 -71.5t-30.5 -52q-29 -25 -81 -23t-106 16q59 -47 94 -120.5t25 -165.5q-8 -68 -35.5 -128.5t-82 -105.5 t-136.5 -71.5t-198 -26.5q-102 0 -191.5 28.5t-157 82t-106.5 132t-39 181.5zM428 391q-10 -47 10 -74.5t49 -27.5q33 0 60.5 27.5t43 67.5t14.5 87t-21 84q-33 -2 -58.5 -18.5t-46 -40t-33 -52t-18.5 -53.5z" />
<glyph unicode="'" horiz-adv-x="387" d="M-26 1276q-3 43 3 72q8 41 34 69.5t62 46t79 20.5t86 -5q90 -16 137 -73.5t31 -139.5q-6 -31 -20.5 -71t-35 -85t-49.5 -91t-61 -85q-27 -31 -57.5 -41t-59.5 -2t-52.5 30.5t-33.5 55.5q-16 49 -29.5 102.5t-22 103.5t-11.5 93z" />
<glyph unicode="(" horiz-adv-x="702" d="M3 542.5q-5 143.5 35 278.5t123 255t212 208q84 57 141 61.5t84 -26.5t20.5 -90.5t-47.5 -126.5q-39 -61 -63.5 -149.5t-35.5 -191t-10 -211t14 -211.5t39 -195.5t65 -157.5q31 -55 31.5 -104.5t-24 -78t-69.5 -30.5t-104 37q-131 84 -221.5 202.5t-137.5 252.5 t-52 277.5z" />
<glyph unicode=")" horiz-adv-x="702" d="M3 1229q-5 59 20.5 90t83 26.5t141.5 -61.5q129 -88 213 -208t124 -255t35.5 -278.5t-52.5 -277.5t-138 -252.5t-223 -202.5q-59 -39 -104.5 -37t-69 30.5t-23.5 77.5t31 105q39 66 64.5 158t39 195t14.5 211.5t-10.5 211t-37 190.5t-62.5 150q-41 68 -46 127z" />
<glyph unicode="*" horiz-adv-x="983" d="M2 1080q2 40 19.5 78t44 63.5t61.5 35t74 -9.5q8 -6 28.5 -30.5t45 -56.5t48 -62.5t37.5 -46.5q35 -41 49.5 -34t-12.5 56q-10 16 -31.5 44t-45 58.5t-41 59.5t-17.5 47q0 43 27.5 71.5t69.5 43t91.5 14.5t91.5 -14.5t69.5 -43t27.5 -71.5q0 -18 -17.5 -47t-41 -59.5 t-45 -58t-29.5 -44.5q-29 -49 -14.5 -56t49.5 34q14 16 37.5 46.5t48 62.5t45 56.5t30.5 30.5q37 18 72 9t62.5 -34.5t44 -63.5t19.5 -78t-13.5 -74.5t-52.5 -53.5q-12 -6 -41 -8t-66 -1t-76 2t-67 1q-55 0 -57 -19.5t57 -19.5q29 0 67.5 1t75.5 1t65.5 -2t41.5 -8 q37 -18 53 -53t13 -74t-19.5 -77t-44 -64.5t-62.5 -35.5t-72 11q-10 4 -30.5 30t-45 56.5t-48 62t-37.5 48.5q-35 41 -49.5 33.5t14.5 -56.5q8 -16 29.5 -44.5t45 -59.5t41 -59.5t17.5 -47.5q0 -43 -27.5 -71.5t-69.5 -43t-91.5 -14.5t-91.5 14.5t-69.5 43t-27.5 71.5 q0 18 17.5 47t41 60t45 59.5t31.5 44.5q27 49 12.5 56.5t-49.5 -33.5q-14 -16 -37.5 -48t-48 -62.5t-45 -56.5t-28.5 -30q-57 -29 -106.5 2t-74 86.5t-16.5 115.5t64 89q12 6 41.5 8t66.5 2t76 -1t67 -1q59 0 57.5 19.5t-57.5 19.5q-29 0 -67.5 -1t-75.5 -2t-66.5 1t-41.5 8 q-37 18 -52.5 53t-13.5 75z" />
<glyph unicode="+" horiz-adv-x="722" d="M0 551q0 47 36 86t138 55q16 104 55 141t88 37t88 -36.5t56 -141.5q106 -16 143 -55t37 -86q0 -49 -37 -89t-143 -56q-16 -104 -55 -140.5t-89 -36.5q-47 0 -85.5 37t-55.5 142q-104 16 -140 55t-36 88z" />
<glyph unicode="," horiz-adv-x="724" d="M207 194q-2 42 4 70q16 86 92 118.5t166 16.5t137 -73.5t31 -143.5q-6 -29 -19.5 -68.5t-35 -83.5t-50 -90t-61.5 -87q-27 -31 -57.5 -40.5t-59 -2t-52 31t-34.5 56.5q-16 49 -29.5 102t-21.5 102.5t-10 91.5z" />
<glyph unicode="-" horiz-adv-x="839" d="M215 551q0 33 11.5 62.5t42 52t84 36t134.5 13.5q82 0 134.5 -13.5t83 -36t42 -52t11.5 -62.5q0 -35 -11.5 -64.5t-42 -52t-83 -36t-134.5 -13.5t-135 13.5t-83.5 36t-42 52t-11.5 64.5z" />
<glyph unicode="." horiz-adv-x="716" d="M205 203q0 86 53 144.5t162 58.5q111 0 163 -58.5t52 -144.5q0 -84 -52.5 -143.5t-160.5 -59.5q-109 0 -163 59.5t-54 143.5z" />
<glyph unicode="/" horiz-adv-x="985" d="M4 143.5q2 57.5 41 149.5q6 16 35 80.5t66.5 151.5t80.5 185.5t83 186.5t69 153.5t39 86.5q53 111 99 171t89 88.5t82 34t80 5.5t75 -12.5t49 -46.5t7 -94t-49 -157q-10 -23 -40 -93t-71 -164.5t-86 -200t-84 -196.5t-66.5 -155.5t-33.5 -76.5q-35 -72 -69.5 -119 t-71.5 -74t-76 -37t-78 -10q-45 0 -86 11.5t-63.5 43t-20.5 89z" />
<glyph unicode="0" d="M35 1018q70 37 137.5 67.5t144.5 53.5q4 0 8.5 20.5t8.5 45t8 48t8 31.5q23 35 68 53.5t78 34.5q88 35 179 61.5t183 51.5q94 23 188.5 39t190.5 24q33 4 80 8.5t95 3.5t92 -12.5t71 -38.5q2 -4 -2 -28.5t-6 -32.5l-6 -98q0 -4 4 -4q78 -23 152.5 -59t123.5 -103v-2 q-16 4 -36.5 -3.5t-41 -20.5t-38 -27.5t-27.5 -26.5q31 -16 50 -47t27.5 -67t6.5 -72.5t-13 -67.5q-16 43 -49.5 66.5t-74.5 35t-85 14.5t-83 5q-45 4 -94.5 2t-92.5 14q-16 6 -22 25.5t-7 43t2 46l5 37.5q-184 -14 -363.5 -56.5t-351.5 -101.5q-8 -2 -8 -6q2 -10 8 -33.5 t10 -50.5t6 -49.5t-6 -28.5q-23 -18 -58.5 -21.5t-64.5 -7.5q-39 -6 -78.5 -12t-78.5 -12q-35 -8 -67 -17.5t-62 -21.5q-14 -8 -28.5 -13.5t-29.5 -15.5q-8 -8 -18 -20.5t-17 -16.5q10 35 24.5 68t27.5 63q2 6 13 25.5t21.5 41t18.5 39t6 21.5q-25 35 -58.5 68t-78.5 37z M86 72h47q4 -41 7 -83t12 -83q4 41 10 83t14 83h37l25 -166q4 41 9 83t9 83h43l-43 -224h-43q-6 37 -11 74t-9 74q-4 -37 -11.5 -74t-13.5 -74h-43zM90 1024q68 -37 109 -109q2 -2 -4.5 -15t-14.5 -28.5t-15 -29t-9 -19.5q-25 -45 -41 -94q51 27 104 39t108.5 20.5t110 15.5 t107.5 23q-18 18 -47 25.5t-62 8.5t-65.5 -2t-55.5 -5v131t4 131q-59 -16 -116.5 -39.5t-112.5 -52.5zM305 72h45q4 -41 8 -83t11 -83q4 41 10 83t14 83h39l23 -166q4 41 9 83t9 83h43l-43 -224h-41q-8 37 -13 74t-9 74q-4 -37 -10.5 -74t-12.5 -74h-45zM342 913 q8 0 22.5 6.5t29 15.5t27.5 18.5t23 13.5q37 16 75 29.5t77 27.5q78 23 155.5 43t159.5 39q78 16 155 31.5t157 21.5q72 8 154.5 11.5t152.5 -29.5q6 55 6 112.5t4 110.5q0 29 2 57.5t6 57.5q2 14 -6 22t-20.5 13.5t-26.5 7.5t-27 4q-119 18 -245.5 0.5t-245.5 -41.5 q-129 -27 -255 -60.5t-249 -87.5q-23 -12 -46.5 -24.5t-43.5 -28.5t-24.5 -49t-8.5 -55q-8 -66 -8 -132.5v-134.5zM367 1030q0 23 15 38t36 19q6 2 15 -2t5 -14q-12 -8 -22 -8q-12 -4 -16.5 -16.5t1.5 -22.5q4 -4 8.5 -5t8.5 -3q20 -2 33.5 11t22.5 33.5t13.5 41t8.5 35.5 q-27 -27 -62 -35q-27 -4 -43 12q-16 8 -16 37q0 27 12 51q27 61 86 98q12 6 25.5 12.5t27.5 10.5q10 4 21.5 12t21.5 11q12 -1 6 -13q12 0 21 -2q16 -2 27.5 -15t13.5 -32q6 -43 -23.5 -83t-66.5 -62q-18 -12 -27.5 -32t-18.5 -39t-20.5 -37.5t-34.5 -29.5q-23 -16 -53 -10 q-12 4 -20 14.5t-6 24.5zM405.5 1141.5q2.5 -15.5 22.5 -15.5q31 0 49.5 19.5t30.5 47.5t18.5 59t10.5 51q-29 -6 -52.5 -23.5t-44.5 -38.5q-6 -6 -15 -25.5t-15.5 -39t-4 -35zM522 72h45q4 -41 9.5 -83t9.5 -83q4 41 10 83t14 83h39l25 -166q2 41 7 83t11 83h41l-41 -224 h-43q-8 37 -12 74t-10 74q-4 -37 -10.5 -74t-12.5 -74h-43zM530 1155q14 4 29.5 19.5t26 35t14.5 40t0 34.5q-6 23 -33 23q-14 -37 -20.5 -75t-16.5 -77zM582 343q2 34 2 60q0 20 -1 39t1 39q0 49 26.5 67.5t73.5 18.5q37 0 54.5 -20.5t23.5 -50t4 -63.5t-2 -60v-80 q0 -47 -26.5 -66.5t-71.5 -17.5q-39 0 -56.5 20.5t-23.5 50t-4 63.5zM628 1157.5q-5 20.5 6 46t31.5 46t43.5 22.5q12 0 16 -10q8 -12 2 -29q-6 -23 -27.5 -40t-44.5 -22q2 -12 10.5 -13t17.5 3t17.5 10.5t12.5 10.5q25 20 36 45.5t21 52.5q2 2 -1 9t-8 15.5t-8 17.5t-1 15 q10 27 34 23q12 0 17 -12q4 -10 2 -22.5t-2 -25.5q20 2 28.5 -1t-4.5 -27q-8 -16 -17 -33.5t-11 -36.5q0 -10 6 -10q20 0 34.5 20.5t26 46t22.5 51t25 33.5q8 2 17 -2q2 -4 2 -12q-4 -12 -10.5 -21.5t-1.5 -23.5q6 -12 13 -25.5t5 -27.5h2q20 25 32.5 60.5t45.5 51.5 q37 14 49 -20q10 -14 6 -25.5t-2 -27.5q8 2 14 10q16 12 18.5 34.5t8.5 41.5q4 4 11 5t12 -1q10 -2 8 -12v-2q10 10 24 16q10 6 17.5 2t11.5 -14q4 -12 1 -22.5t-8 -22t-10 -22.5t-3 -23q14 12 24 26t18.5 29.5t17.5 29t26 23.5q20 10 51 0q4 6 17 8t9 -14q-4 -18 -14 -38.5 t-10 -41.5q0 -14 8 -2q20 20 30.5 48t19.5 55.5t23.5 53t43.5 42.5q14 8 24 -9q12 -23 4 -48t-24 -42q-14 -18 -43 -43.5t-25 -52.5q4 -16 23 -12q14 6 21 19.5t16 25.5q4 2 12 2t8 -10l-4 -13q-16 -39 -53 -53q-25 -14 -43 14q-4 5 -4 11q-10 -8 -16.5 -15.5t-18.5 -11.5 q-10 -4 -16.5 0t-12.5 8q-4 -4 -12 -8t-16 -6q-31 -6 -43 20v2q-8 -10 -17.5 -17t-23.5 -11q-14 -8 -25 12q-6 12 -3 23.5t8 21.5t9 21.5t2 23.5q-18 -8 -25 -19.5t-11.5 -25.5t-6.5 -28.5t-8 -28.5q-6 -16 -24 -8q-8 2 -9 10q0 4 1 9t1 7q-14 -4 -19 -4t-15 -10 t-24.5 -18.5t-31.5 -8.5q-10 2 -16 8.5t-10 14.5q-16 -16 -40 -32.5t-50 -12.5q-16 2 -25 18q-25 -29 -51 -37q-29 -12 -33 21q-4 27 8.5 44t22.5 38q2 4 -3 5t-7 -3q-8 -20 -18.5 -44t-26 -45.5t-36 -34.5t-46.5 -11q-31 2 -36 22.5zM638 367.5q-1 -37.5 1 -74.5 q0 -16 9 -26.5t21.5 -14.5t24 1t15.5 23q2 12 2 27.5v30.5v147q0 16 -10.5 27.5t-22.5 15.5t-23.5 -2t-15.5 -22q-2 -14 -1 -29.5t1 -28.5q0 -37 -1 -74.5zM653 621q12 14 15.5 36.5t2.5 48t-4 49t-3 42.5v125q0 16 1 30.5t-12 28.5h76q-14 -12 -12 -32.5t2 -37.5v-141 q0 -16 -2 -49t10 -47q14 -23 37.5 -8.5t28.5 32.5q8 27 2.5 54.5t-9.5 54.5q-4 14 -10 37.5t-8 48.5t2 46.5t21 33.5q10 10 31.5 10t29.5 -16q6 -16 -2 -21.5t-18.5 -4.5t-17.5 8t1 16q-16 -8 -17 -29t6 -44.5t17 -46t15 -34.5q12 -37 17 -87t-22 -85q-10 -14 -33.5 -19.5 t-50 -5.5t-53 3.5t-41.5 3.5zM655 1192q12 -2 28.5 15.5t18.5 27.5q4 8 -2 12t-12 -2q-10 -10 -18.5 -24.5t-14.5 -28.5zM715 -123q0 14 9 22.5t21.5 8.5t21.5 -8.5t9 -22.5q0 -16 -9 -23.5t-21.5 -7.5t-21.5 7.5t-9 23.5zM776 1329q-2 -8 4 -20h4q0 8 1 13t-1 13 q-6 0 -8 -6zM780 209q10 14 13.5 34.5t2.5 44t-4.5 46t-3.5 39.5v172q0 10 -8 22h58q29 -12 51 -50t35 -66q0 25 2 59.5t-13 56.5h74q-12 -10 -11 -24.5t1 -28.5v-246q0 -14 -1 -31.5t11 -27.5h-207zM797 -152l59 224h64l59 -224h-51l-15 52h-53l-10 -52h-53zM844 252 q0 -14 11 -23.5t25.5 -11.5t28 3.5t15.5 19.5q-4 63 -21.5 127.5t-58.5 115.5v-231zM865 711.5q-3 19.5 7 31.5t33 13.5t27 -21.5q0 -10 -7 -15t-15.5 -5t-14.5 4t-6 14q-12 -4 -12 -14t7 -20.5t17 -19.5t17 -11q14 -4 34.5 -4t30.5 10q20 20 16 40.5t-19 38t-35.5 32 t-31.5 24.5q-18 16 -30.5 42t-12.5 52.5t13.5 48t44.5 27.5q27 6 54.5 4t51.5 -2l-6 -10q0 -14 7 -29.5t13.5 -31t5.5 -30t-16 -26.5q-14 -10 -33.5 -9t-21.5 21q0 12 7 17.5t15.5 5.5t14.5 -5t4 -14q14 2 14 12.5t-8 21.5t-18.5 20.5t-18.5 11.5q-14 4 -32.5 1t-24.5 -19 q-12 -25 -4 -43.5t24.5 -33t37 -27.5t32.5 -28q14 -20 22.5 -46.5t4.5 -52t-20.5 -44t-47.5 -22.5q-27 -2 -53.5 -1t-54.5 1q8 4 5 19t-8.5 33.5t-8.5 38zM866 -61h41q-4 23 -9 46t-11 46zM874 1219q4 -12 16.5 -10.5t14.5 14.5q2 18 -10 43q-6 -8 -14.5 -22.5t-6.5 -24.5z M991 1264l4 -15q10 -14 25 -6q16 4 23.5 21.5t3.5 33.5q-2 10 -9.5 16.5t-21.5 -3.5q-20 -14 -25 -47zM997 209q12 14 15.5 36.5t2.5 47t-4 48.5t-3 40v127q0 16 1 29.5t-12 29.5h76q-10 -10 -13 -30.5t-2 -42t3 -43t2 -35.5v-166h104q23 0 55.5 -3t55.5 13q-4 -8 -7 -29.5 t-14 -21.5h-260zM1006 70q29 4 64.5 6t62.5 -15q31 -23 22.5 -57.5t-37.5 -48.5q14 -6 21.5 -19.5t10.5 -29t5 -30.5t8 -28h-51q-6 12 -8 27.5t-6 29t-12.5 23t-26.5 6.5v-86h-53v222zM1057 8.5q2 -24.5 2 -35.5h12q18 0 26.5 10.5t6.5 22.5t-11.5 21.5t-27.5 7.5 q-10 -2 -8 -26.5zM1065 621q10 12 11 25t1 28v248q0 14 -1 30.5t-11 28.5h127q25 -25 25.5 -59.5t-9.5 -67.5q-4 -8 -15 -29.5t-20.5 -45t-11.5 -45t10 -27.5q-6 12 4.5 13t21.5 -4t14 -14.5t-17 -17.5q-25 -10 -35 9.5t-8 35.5q0 16 6 32.5t8 31t-4 22.5t-28 6v-155 q16 0 41.5 -3.5t44.5 11.5q-6 -14 -8.5 -26.5t-6.5 -26.5h-139zM1098 567h78q-12 -29 2 -65.5t26 -61.5q12 29 22.5 63t0.5 64h80q-23 -12 -27 -38.5t-10 -47.5q-6 -20 -23.5 -47.5t-17.5 -48.5q0 -23 -3 -56.5t13 -52.5h-76q18 18 14.5 54t-3.5 59q-12 23 -21.5 46.5 t-17.5 45.5q-10 23 -14.5 46.5t-22.5 39.5zM1133 866q20 0 45.5 2t27.5 33q0 16 -7 23.5t-18.5 10.5t-24.5 3h-23v-72zM1192 72h53v-224h-53v224zM1245 1296q-4 -10 1 -27.5t22 -2.5q12 12 21 32.5t11 38.5q-2 8 -4 13.5t-12 1.5q-16 -8 -25.5 -23.5t-13.5 -32.5zM1274 -123 q0 14 9 22.5t21.5 8.5t21.5 -8.5t9 -22.5q0 -16 -9 -23.5t-21.5 -7.5t-21.5 7.5t-9 23.5zM1294 1018q-8 -6 4 -8q27 -10 57.5 -13.5t62.5 -3.5h62.5t59.5 -2t57.5 -5t57.5 -13q29 -8 51.5 -23.5t48.5 -27.5q0 61 -21.5 106t-80.5 68q35 31 69.5 58.5t75.5 43.5 q-49 47 -110.5 77t-126.5 46q-2 -57 -3.5 -112.5t-5.5 -112.5l-2 2v-6q-27 -2 -64.5 -4.5t-74.5 -9.5t-68.5 -21.5t-48.5 -38.5zM1364 72h57l68 -152q-4 39 -4 77v75h47v-224h-51q-20 39 -37 79t-35 77q2 -39 2 -78v-78h-47v224zM1393 1362q16 20 31.5 39.5t19.5 46.5h-2 q-37 -37 -49 -86zM1562.5 -63.5q-8.5 36.5 14.5 79.5q12 29 40 43.5t62 14.5h10.5t17.5 -2t16.5 -4t7.5 -5l-9 -40q-27 12 -48 8t-36.5 -18.5t-20.5 -37t3 -47.5q16 -47 61 -41q10 2 8.5 21.5t-1.5 28.5h-27v40h76v-120q-41 -16 -79 -9t-62.5 29.5t-33 59z" />
<glyph unicode="1" d="M35 1018q70 37 137.5 67.5t144.5 53.5q4 0 8.5 20.5t8.5 45t8 48t8 31.5q23 35 68 53.5t78 34.5q88 35 179 61.5t183 51.5q94 23 188.5 39t190.5 24q33 4 80 8.5t95 3.5t92 -12.5t71 -38.5q2 -4 -2 -28.5t-6 -32.5l-6 -98q0 -4 4 -4q78 -23 152.5 -59t123.5 -103v-2 q-16 4 -36.5 -3.5t-41 -20.5t-38 -27.5t-27.5 -26.5q31 -16 50 -47t27.5 -67t6.5 -72.5t-13 -67.5q-16 43 -49.5 66.5t-74.5 35t-85 14.5t-83 5q-45 4 -94.5 2t-92.5 14q-16 6 -22 25.5t-7 43t2 46l5 37.5q-184 -14 -363.5 -56.5t-351.5 -101.5q-8 -2 -8 -6q2 -10 8 -33.5 t10 -50.5t6 -49.5t-6 -28.5q-23 -18 -58.5 -21.5t-64.5 -7.5q-39 -6 -78.5 -12t-78.5 -12q-35 -8 -67 -17.5t-62 -21.5q-14 -8 -28.5 -13.5t-29.5 -15.5q-8 -8 -18 -20.5t-17 -16.5q10 35 24.5 68t27.5 63q2 6 13 25.5t21.5 41t18.5 39t6 21.5q-25 35 -58.5 68t-78.5 37z M86 72h47q4 -41 7 -83t12 -83q4 41 10 83t14 83h37l25 -166q4 41 9 83t9 83h43l-43 -224h-43q-6 37 -11 74t-9 74q-4 -37 -11.5 -74t-13.5 -74h-43zM90 1024q68 -37 109 -109q2 -2 -4.5 -15t-14.5 -28.5t-15 -29t-9 -19.5q-25 -45 -41 -94q51 27 104 39t108.5 20.5t110 15.5 t107.5 23q-18 18 -47 25.5t-62 8.5t-65.5 -2t-55.5 -5v131t4 131q-59 -16 -116.5 -39.5t-112.5 -52.5zM305 72h45q4 -41 8 -83t11 -83q4 41 10 83t14 83h39l23 -166q4 41 9 83t9 83h43l-43 -224h-41q-8 37 -13 74t-9 74q-4 -37 -10.5 -74t-12.5 -74h-45zM342 913 q8 0 22.5 6.5t29 15.5t27.5 18.5t23 13.5q37 16 75 29.5t77 27.5q78 23 155.5 43t159.5 39q78 16 155 31.5t157 21.5q72 8 154.5 11.5t152.5 -29.5q6 55 6 112.5t4 110.5q0 29 2 57.5t6 57.5q2 14 -6 22t-20.5 13.5t-26.5 7.5t-27 4q-119 18 -245.5 0.5t-245.5 -41.5 q-129 -27 -255 -60.5t-249 -87.5q-23 -12 -46.5 -24.5t-43.5 -28.5t-24.5 -49t-8.5 -55q-8 -66 -8 -132.5v-134.5zM367 1030q0 23 15 38t36 19q6 2 15 -2t5 -14q-12 -8 -22 -8q-12 -4 -16.5 -16.5t1.5 -22.5q4 -4 8.5 -5t8.5 -3q20 -2 33.5 11t22.5 33.5t13.5 41t8.5 35.5 q-27 -27 -62 -35q-27 -4 -43 12q-16 8 -16 37q0 27 12 51q27 61 86 98q12 6 25.5 12.5t27.5 10.5q10 4 21.5 12t21.5 11q12 -1 6 -13q12 0 21 -2q16 -2 27.5 -15t13.5 -32q6 -43 -23.5 -83t-66.5 -62q-18 -12 -27.5 -32t-18.5 -39t-20.5 -37.5t-34.5 -29.5q-23 -16 -53 -10 q-12 4 -20 14.5t-6 24.5zM405.5 1141.5q2.5 -15.5 22.5 -15.5q31 0 49.5 19.5t30.5 47.5t18.5 59t10.5 51q-29 -6 -52.5 -23.5t-44.5 -38.5q-6 -6 -15 -25.5t-15.5 -39t-4 -35zM522 72h45q4 -41 9.5 -83t9.5 -83q4 41 10 83t14 83h39l25 -166q2 41 7 83t11 83h41l-41 -224 h-43q-8 37 -12 74t-10 74q-4 -37 -10.5 -74t-12.5 -74h-43zM530 1155q14 4 29.5 19.5t26 35t14.5 40t0 34.5q-6 23 -33 23q-14 -37 -20.5 -75t-16.5 -77zM582 343q2 34 2 60q0 20 -1 39t1 39q0 49 26.5 67.5t73.5 18.5q37 0 54.5 -20.5t23.5 -50t4 -63.5t-2 -60v-80 q0 -47 -26.5 -66.5t-71.5 -17.5q-39 0 -56.5 20.5t-23.5 50t-4 63.5zM628 1157.5q-5 20.5 6 46t31.5 46t43.5 22.5q12 0 16 -10q8 -12 2 -29q-6 -23 -27.5 -40t-44.5 -22q2 -12 10.5 -13t17.5 3t17.5 10.5t12.5 10.5q25 20 36 45.5t21 52.5q2 2 -1 9t-8 15.5t-8 17.5t-1 15 q10 27 34 23q12 0 17 -12q4 -10 2 -22.5t-2 -25.5q20 2 28.5 -1t-4.5 -27q-8 -16 -17 -33.5t-11 -36.5q0 -10 6 -10q20 0 34.5 20.5t26 46t22.5 51t25 33.5q8 2 17 -2q2 -4 2 -12q-4 -12 -10.5 -21.5t-1.5 -23.5q6 -12 13 -25.5t5 -27.5h2q20 25 32.5 60.5t45.5 51.5 q37 14 49 -20q10 -14 6 -25.5t-2 -27.5q8 2 14 10q16 12 18.5 34.5t8.5 41.5q4 4 11 5t12 -1q10 -2 8 -12v-2q10 10 24 16q10 6 17.5 2t11.5 -14q4 -12 1 -22.5t-8 -22t-10 -22.5t-3 -23q14 12 24 26t18.5 29.5t17.5 29t26 23.5q20 10 51 0q4 6 17 8t9 -14q-4 -18 -14 -38.5 t-10 -41.5q0 -14 8 -2q20 20 30.5 48t19.5 55.5t23.5 53t43.5 42.5q14 8 24 -9q12 -23 4 -48t-24 -42q-14 -18 -43 -43.5t-25 -52.5q4 -16 23 -12q14 6 21 19.5t16 25.5q4 2 12 2t8 -10l-4 -13q-16 -39 -53 -53q-25 -14 -43 14q-4 5 -4 11q-10 -8 -16.5 -15.5t-18.5 -11.5 q-10 -4 -16.5 0t-12.5 8q-4 -4 -12 -8t-16 -6q-31 -6 -43 20v2q-8 -10 -17.5 -17t-23.5 -11q-14 -8 -25 12q-6 12 -3 23.5t8 21.5t9 21.5t2 23.5q-18 -8 -25 -19.5t-11.5 -25.5t-6.5 -28.5t-8 -28.5q-6 -16 -24 -8q-8 2 -9 10q0 4 1 9t1 7q-14 -4 -19 -4t-15 -10 t-24.5 -18.5t-31.5 -8.5q-10 2 -16 8.5t-10 14.5q-16 -16 -40 -32.5t-50 -12.5q-16 2 -25 18q-25 -29 -51 -37q-29 -12 -33 21q-4 27 8.5 44t22.5 38q2 4 -3 5t-7 -3q-8 -20 -18.5 -44t-26 -45.5t-36 -34.5t-46.5 -11q-31 2 -36 22.5zM638 367.5q-1 -37.5 1 -74.5 q0 -16 9 -26.5t21.5 -14.5t24 1t15.5 23q2 12 2 27.5v30.5v147q0 16 -10.5 27.5t-22.5 15.5t-23.5 -2t-15.5 -22q-2 -14 -1 -29.5t1 -28.5q0 -37 -1 -74.5zM653 621q12 14 15.5 36.5t2.5 48t-4 49t-3 42.5v125q0 16 1 30.5t-12 28.5h76q-14 -12 -12 -32.5t2 -37.5v-141 q0 -16 -2 -49t10 -47q14 -23 37.5 -8.5t28.5 32.5q8 27 2.5 54.5t-9.5 54.5q-4 14 -10 37.5t-8 48.5t2 46.5t21 33.5q10 10 31.5 10t29.5 -16q6 -16 -2 -21.5t-18.5 -4.5t-17.5 8t1 16q-16 -8 -17 -29t6 -44.5t17 -46t15 -34.5q12 -37 17 -87t-22 -85q-10 -14 -33.5 -19.5 t-50 -5.5t-53 3.5t-41.5 3.5zM655 1192q12 -2 28.5 15.5t18.5 27.5q4 8 -2 12t-12 -2q-10 -10 -18.5 -24.5t-14.5 -28.5zM715 -123q0 14 9 22.5t21.5 8.5t21.5 -8.5t9 -22.5q0 -16 -9 -23.5t-21.5 -7.5t-21.5 7.5t-9 23.5zM776 1329q-2 -8 4 -20h4q0 8 1 13t-1 13 q-6 0 -8 -6zM780 209q10 14 13.5 34.5t2.5 44t-4.5 46t-3.5 39.5v172q0 10 -8 22h58q29 -12 51 -50t35 -66q0 25 2 59.5t-13 56.5h74q-12 -10 -11 -24.5t1 -28.5v-246q0 -14 -1 -31.5t11 -27.5h-207zM797 -152l59 224h64l59 -224h-51l-15 52h-53l-10 -52h-53zM844 252 q0 -14 11 -23.5t25.5 -11.5t28 3.5t15.5 19.5q-4 63 -21.5 127.5t-58.5 115.5v-231zM865 711.5q-3 19.5 7 31.5t33 13.5t27 -21.5q0 -10 -7 -15t-15.5 -5t-14.5 4t-6 14q-12 -4 -12 -14t7 -20.5t17 -19.5t17 -11q14 -4 34.5 -4t30.5 10q20 20 16 40.5t-19 38t-35.5 32 t-31.5 24.5q-18 16 -30.5 42t-12.5 52.5t13.5 48t44.5 27.5q27 6 54.5 4t51.5 -2l-6 -10q0 -14 7 -29.5t13.5 -31t5.5 -30t-16 -26.5q-14 -10 -33.5 -9t-21.5 21q0 12 7 17.5t15.5 5.5t14.5 -5t4 -14q14 2 14 12.5t-8 21.5t-18.5 20.5t-18.5 11.5q-14 4 -32.5 1t-24.5 -19 q-12 -25 -4 -43.5t24.5 -33t37 -27.5t32.5 -28q14 -20 22.5 -46.5t4.5 -52t-20.5 -44t-47.5 -22.5q-27 -2 -53.5 -1t-54.5 1q8 4 5 19t-8.5 33.5t-8.5 38zM866 -61h41q-4 23 -9 46t-11 46zM874 1219q4 -12 16.5 -10.5t14.5 14.5q2 18 -10 43q-6 -8 -14.5 -22.5t-6.5 -24.5z M991 1264l4 -15q10 -14 25 -6q16 4 23.5 21.5t3.5 33.5q-2 10 -9.5 16.5t-21.5 -3.5q-20 -14 -25 -47zM997 209q12 14 15.5 36.5t2.5 47t-4 48.5t-3 40v127q0 16 1 29.5t-12 29.5h76q-10 -10 -13 -30.5t-2 -42t3 -43t2 -35.5v-166h104q23 0 55.5 -3t55.5 13q-4 -8 -7 -29.5 t-14 -21.5h-260zM1006 70q29 4 64.5 6t62.5 -15q31 -23 22.5 -57.5t-37.5 -48.5q14 -6 21.5 -19.5t10.5 -29t5 -30.5t8 -28h-51q-6 12 -8 27.5t-6 29t-12.5 23t-26.5 6.5v-86h-53v222zM1057 8.5q2 -24.5 2 -35.5h12q18 0 26.5 10.5t6.5 22.5t-11.5 21.5t-27.5 7.5 q-10 -2 -8 -26.5zM1065 621q10 12 11 25t1 28v248q0 14 -1 30.5t-11 28.5h127q25 -25 25.5 -59.5t-9.5 -67.5q-4 -8 -15 -29.5t-20.5 -45t-11.5 -45t10 -27.5q-6 12 4.5 13t21.5 -4t14 -14.5t-17 -17.5q-25 -10 -35 9.5t-8 35.5q0 16 6 32.5t8 31t-4 22.5t-28 6v-155 q16 0 41.5 -3.5t44.5 11.5q-6 -14 -8.5 -26.5t-6.5 -26.5h-139zM1098 567h78q-12 -29 2 -65.5t26 -61.5q12 29 22.5 63t0.5 64h80q-23 -12 -27 -38.5t-10 -47.5q-6 -20 -23.5 -47.5t-17.5 -48.5q0 -23 -3 -56.5t13 -52.5h-76q18 18 14.5 54t-3.5 59q-12 23 -21.5 46.5 t-17.5 45.5q-10 23 -14.5 46.5t-22.5 39.5zM1133 866q20 0 45.5 2t27.5 33q0 16 -7 23.5t-18.5 10.5t-24.5 3h-23v-72zM1192 72h53v-224h-53v224zM1245 1296q-4 -10 1 -27.5t22 -2.5q12 12 21 32.5t11 38.5q-2 8 -4 13.5t-12 1.5q-16 -8 -25.5 -23.5t-13.5 -32.5zM1274 -123 q0 14 9 22.5t21.5 8.5t21.5 -8.5t9 -22.5q0 -16 -9 -23.5t-21.5 -7.5t-21.5 7.5t-9 23.5zM1294 1018q-8 -6 4 -8q27 -10 57.5 -13.5t62.5 -3.5h62.5t59.5 -2t57.5 -5t57.5 -13q29 -8 51.5 -23.5t48.5 -27.5q0 61 -21.5 106t-80.5 68q35 31 69.5 58.5t75.5 43.5 q-49 47 -110.5 77t-126.5 46q-2 -57 -3.5 -112.5t-5.5 -112.5l-2 2v-6q-27 -2 -64.5 -4.5t-74.5 -9.5t-68.5 -21.5t-48.5 -38.5zM1364 72h57l68 -152q-4 39 -4 77v75h47v-224h-51q-20 39 -37 79t-35 77q2 -39 2 -78v-78h-47v224zM1393 1362q16 20 31.5 39.5t19.5 46.5h-2 q-37 -37 -49 -86zM1562.5 -63.5q-8.5 36.5 14.5 79.5q12 29 40 43.5t62 14.5h10.5t17.5 -2t16.5 -4t7.5 -5l-9 -40q-27 12 -48 8t-36.5 -18.5t-20.5 -37t3 -47.5q16 -47 61 -41q10 2 8.5 21.5t-1.5 28.5h-27v40h76v-120q-41 -16 -79 -9t-62.5 29.5t-33 59z" />
<glyph unicode="2" d="M35 1018q70 37 137.5 67.5t144.5 53.5q4 0 8.5 20.5t8.5 45t8 48t8 31.5q23 35 68 53.5t78 34.5q88 35 179 61.5t183 51.5q94 23 188.5 39t190.5 24q33 4 80 8.5t95 3.5t92 -12.5t71 -38.5q2 -4 -2 -28.5t-6 -32.5l-6 -98q0 -4 4 -4q78 -23 152.5 -59t123.5 -103v-2 q-16 4 -36.5 -3.5t-41 -20.5t-38 -27.5t-27.5 -26.5q31 -16 50 -47t27.5 -67t6.5 -72.5t-13 -67.5q-16 43 -49.5 66.5t-74.5 35t-85 14.5t-83 5q-45 4 -94.5 2t-92.5 14q-16 6 -22 25.5t-7 43t2 46l5 37.5q-184 -14 -363.5 -56.5t-351.5 -101.5q-8 -2 -8 -6q2 -10 8 -33.5 t10 -50.5t6 -49.5t-6 -28.5q-23 -18 -58.5 -21.5t-64.5 -7.5q-39 -6 -78.5 -12t-78.5 -12q-35 -8 -67 -17.5t-62 -21.5q-14 -8 -28.5 -13.5t-29.5 -15.5q-8 -8 -18 -20.5t-17 -16.5q10 35 24.5 68t27.5 63q2 6 13 25.5t21.5 41t18.5 39t6 21.5q-25 35 -58.5 68t-78.5 37z M86 72h47q4 -41 7 -83t12 -83q4 41 10 83t14 83h37l25 -166q4 41 9 83t9 83h43l-43 -224h-43q-6 37 -11 74t-9 74q-4 -37 -11.5 -74t-13.5 -74h-43zM90 1024q68 -37 109 -109q2 -2 -4.5 -15t-14.5 -28.5t-15 -29t-9 -19.5q-25 -45 -41 -94q51 27 104 39t108.5 20.5t110 15.5 t107.5 23q-18 18 -47 25.5t-62 8.5t-65.5 -2t-55.5 -5v131t4 131q-59 -16 -116.5 -39.5t-112.5 -52.5zM305 72h45q4 -41 8 -83t11 -83q4 41 10 83t14 83h39l23 -166q4 41 9 83t9 83h43l-43 -224h-41q-8 37 -13 74t-9 74q-4 -37 -10.5 -74t-12.5 -74h-45zM342 913 q8 0 22.5 6.5t29 15.5t27.5 18.5t23 13.5q37 16 75 29.5t77 27.5q78 23 155.5 43t159.5 39q78 16 155 31.5t157 21.5q72 8 154.5 11.5t152.5 -29.5q6 55 6 112.5t4 110.5q0 29 2 57.5t6 57.5q2 14 -6 22t-20.5 13.5t-26.5 7.5t-27 4q-119 18 -245.5 0.5t-245.5 -41.5 q-129 -27 -255 -60.5t-249 -87.5q-23 -12 -46.5 -24.5t-43.5 -28.5t-24.5 -49t-8.5 -55q-8 -66 -8 -132.5v-134.5zM367 1030q0 23 15 38t36 19q6 2 15 -2t5 -14q-12 -8 -22 -8q-12 -4 -16.5 -16.5t1.5 -22.5q4 -4 8.5 -5t8.5 -3q20 -2 33.5 11t22.5 33.5t13.5 41t8.5 35.5 q-27 -27 -62 -35q-27 -4 -43 12q-16 8 -16 37q0 27 12 51q27 61 86 98q12 6 25.5 12.5t27.5 10.5q10 4 21.5 12t21.5 11q12 -1 6 -13q12 0 21 -2q16 -2 27.5 -15t13.5 -32q6 -43 -23.5 -83t-66.5 -62q-18 -12 -27.5 -32t-18.5 -39t-20.5 -37.5t-34.5 -29.5q-23 -16 -53 -10 q-12 4 -20 14.5t-6 24.5zM405.5 1141.5q2.5 -15.5 22.5 -15.5q31 0 49.5 19.5t30.5 47.5t18.5 59t10.5 51q-29 -6 -52.5 -23.5t-44.5 -38.5q-6 -6 -15 -25.5t-15.5 -39t-4 -35zM522 72h45q4 -41 9.5 -83t9.5 -83q4 41 10 83t14 83h39l25 -166q2 41 7 83t11 83h41l-41 -224 h-43q-8 37 -12 74t-10 74q-4 -37 -10.5 -74t-12.5 -74h-43zM530 1155q14 4 29.5 19.5t26 35t14.5 40t0 34.5q-6 23 -33 23q-14 -37 -20.5 -75t-16.5 -77zM582 343q2 34 2 60q0 20 -1 39t1 39q0 49 26.5 67.5t73.5 18.5q37 0 54.5 -20.5t23.5 -50t4 -63.5t-2 -60v-80 q0 -47 -26.5 -66.5t-71.5 -17.5q-39 0 -56.5 20.5t-23.5 50t-4 63.5zM628 1157.5q-5 20.5 6 46t31.5 46t43.5 22.5q12 0 16 -10q8 -12 2 -29q-6 -23 -27.5 -40t-44.5 -22q2 -12 10.5 -13t17.5 3t17.5 10.5t12.5 10.5q25 20 36 45.5t21 52.5q2 2 -1 9t-8 15.5t-8 17.5t-1 15 q10 27 34 23q12 0 17 -12q4 -10 2 -22.5t-2 -25.5q20 2 28.5 -1t-4.5 -27q-8 -16 -17 -33.5t-11 -36.5q0 -10 6 -10q20 0 34.5 20.5t26 46t22.5 51t25 33.5q8 2 17 -2q2 -4 2 -12q-4 -12 -10.5 -21.5t-1.5 -23.5q6 -12 13 -25.5t5 -27.5h2q20 25 32.5 60.5t45.5 51.5 q37 14 49 -20q10 -14 6 -25.5t-2 -27.5q8 2 14 10q16 12 18.5 34.5t8.5 41.5q4 4 11 5t12 -1q10 -2 8 -12v-2q10 10 24 16q10 6 17.5 2t11.5 -14q4 -12 1 -22.5t-8 -22t-10 -22.5t-3 -23q14 12 24 26t18.5 29.5t17.5 29t26 23.5q20 10 51 0q4 6 17 8t9 -14q-4 -18 -14 -38.5 t-10 -41.5q0 -14 8 -2q20 20 30.5 48t19.5 55.5t23.5 53t43.5 42.5q14 8 24 -9q12 -23 4 -48t-24 -42q-14 -18 -43 -43.5t-25 -52.5q4 -16 23 -12q14 6 21 19.5t16 25.5q4 2 12 2t8 -10l-4 -13q-16 -39 -53 -53q-25 -14 -43 14q-4 5 -4 11q-10 -8 -16.5 -15.5t-18.5 -11.5 q-10 -4 -16.5 0t-12.5 8q-4 -4 -12 -8t-16 -6q-31 -6 -43 20v2q-8 -10 -17.5 -17t-23.5 -11q-14 -8 -25 12q-6 12 -3 23.5t8 21.5t9 21.5t2 23.5q-18 -8 -25 -19.5t-11.5 -25.5t-6.5 -28.5t-8 -28.5q-6 -16 -24 -8q-8 2 -9 10q0 4 1 9t1 7q-14 -4 -19 -4t-15 -10 t-24.5 -18.5t-31.5 -8.5q-10 2 -16 8.5t-10 14.5q-16 -16 -40 -32.5t-50 -12.5q-16 2 -25 18q-25 -29 -51 -37q-29 -12 -33 21q-4 27 8.5 44t22.5 38q2 4 -3 5t-7 -3q-8 -20 -18.5 -44t-26 -45.5t-36 -34.5t-46.5 -11q-31 2 -36 22.5zM638 367.5q-1 -37.5 1 -74.5 q0 -16 9 -26.5t21.5 -14.5t24 1t15.5 23q2 12 2 27.5v30.5v147q0 16 -10.5 27.5t-22.5 15.5t-23.5 -2t-15.5 -22q-2 -14 -1 -29.5t1 -28.5q0 -37 -1 -74.5zM653 621q12 14 15.5 36.5t2.5 48t-4 49t-3 42.5v125q0 16 1 30.5t-12 28.5h76q-14 -12 -12 -32.5t2 -37.5v-141 q0 -16 -2 -49t10 -47q14 -23 37.5 -8.5t28.5 32.5q8 27 2.5 54.5t-9.5 54.5q-4 14 -10 37.5t-8 48.5t2 46.5t21 33.5q10 10 31.5 10t29.5 -16q6 -16 -2 -21.5t-18.5 -4.5t-17.5 8t1 16q-16 -8 -17 -29t6 -44.5t17 -46t15 -34.5q12 -37 17 -87t-22 -85q-10 -14 -33.5 -19.5 t-50 -5.5t-53 3.5t-41.5 3.5zM655 1192q12 -2 28.5 15.5t18.5 27.5q4 8 -2 12t-12 -2q-10 -10 -18.5 -24.5t-14.5 -28.5zM715 -123q0 14 9 22.5t21.5 8.5t21.5 -8.5t9 -22.5q0 -16 -9 -23.5t-21.5 -7.5t-21.5 7.5t-9 23.5zM776 1329q-2 -8 4 -20h4q0 8 1 13t-1 13 q-6 0 -8 -6zM780 209q10 14 13.5 34.5t2.5 44t-4.5 46t-3.5 39.5v172q0 10 -8 22h58q29 -12 51 -50t35 -66q0 25 2 59.5t-13 56.5h74q-12 -10 -11 -24.5t1 -28.5v-246q0 -14 -1 -31.5t11 -27.5h-207zM797 -152l59 224h64l59 -224h-51l-15 52h-53l-10 -52h-53zM844 252 q0 -14 11 -23.5t25.5 -11.5t28 3.5t15.5 19.5q-4 63 -21.5 127.5t-58.5 115.5v-231zM865 711.5q-3 19.5 7 31.5t33 13.5t27 -21.5q0 -10 -7 -15t-15.5 -5t-14.5 4t-6 14q-12 -4 -12 -14t7 -20.5t17 -19.5t17 -11q14 -4 34.5 -4t30.5 10q20 20 16 40.5t-19 38t-35.5 32 t-31.5 24.5q-18 16 -30.5 42t-12.5 52.5t13.5 48t44.5 27.5q27 6 54.5 4t51.5 -2l-6 -10q0 -14 7 -29.5t13.5 -31t5.5 -30t-16 -26.5q-14 -10 -33.5 -9t-21.5 21q0 12 7 17.5t15.5 5.5t14.5 -5t4 -14q14 2 14 12.5t-8 21.5t-18.5 20.5t-18.5 11.5q-14 4 -32.5 1t-24.5 -19 q-12 -25 -4 -43.5t24.5 -33t37 -27.5t32.5 -28q14 -20 22.5 -46.5t4.5 -52t-20.5 -44t-47.5 -22.5q-27 -2 -53.5 -1t-54.5 1q8 4 5 19t-8.5 33.5t-8.5 38zM866 -61h41q-4 23 -9 46t-11 46zM874 1219q4 -12 16.5 -10.5t14.5 14.5q2 18 -10 43q-6 -8 -14.5 -22.5t-6.5 -24.5z M991 1264l4 -15q10 -14 25 -6q16 4 23.5 21.5t3.5 33.5q-2 10 -9.5 16.5t-21.5 -3.5q-20 -14 -25 -47zM997 209q12 14 15.5 36.5t2.5 47t-4 48.5t-3 40v127q0 16 1 29.5t-12 29.5h76q-10 -10 -13 -30.5t-2 -42t3 -43t2 -35.5v-166h104q23 0 55.5 -3t55.5 13q-4 -8 -7 -29.5 t-14 -21.5h-260zM1006 70q29 4 64.5 6t62.5 -15q31 -23 22.5 -57.5t-37.5 -48.5q14 -6 21.5 -19.5t10.5 -29t5 -30.5t8 -28h-51q-6 12 -8 27.5t-6 29t-12.5 23t-26.5 6.5v-86h-53v222zM1057 8.5q2 -24.5 2 -35.5h12q18 0 26.5 10.5t6.5 22.5t-11.5 21.5t-27.5 7.5 q-10 -2 -8 -26.5zM1065 621q10 12 11 25t1 28v248q0 14 -1 30.5t-11 28.5h127q25 -25 25.5 -59.5t-9.5 -67.5q-4 -8 -15 -29.5t-20.5 -45t-11.5 -45t10 -27.5q-6 12 4.5 13t21.5 -4t14 -14.5t-17 -17.5q-25 -10 -35 9.5t-8 35.5q0 16 6 32.5t8 31t-4 22.5t-28 6v-155 q16 0 41.5 -3.5t44.5 11.5q-6 -14 -8.5 -26.5t-6.5 -26.5h-139zM1098 567h78q-12 -29 2 -65.5t26 -61.5q12 29 22.5 63t0.5 64h80q-23 -12 -27 -38.5t-10 -47.5q-6 -20 -23.5 -47.5t-17.5 -48.5q0 -23 -3 -56.5t13 -52.5h-76q18 18 14.5 54t-3.5 59q-12 23 -21.5 46.5 t-17.5 45.5q-10 23 -14.5 46.5t-22.5 39.5zM1133 866q20 0 45.5 2t27.5 33q0 16 -7 23.5t-18.5 10.5t-24.5 3h-23v-72zM1192 72h53v-224h-53v224zM1245 1296q-4 -10 1 -27.5t22 -2.5q12 12 21 32.5t11 38.5q-2 8 -4 13.5t-12 1.5q-16 -8 -25.5 -23.5t-13.5 -32.5zM1274 -123 q0 14 9 22.5t21.5 8.5t21.5 -8.5t9 -22.5q0 -16 -9 -23.5t-21.5 -7.5t-21.5 7.5t-9 23.5zM1294 1018q-8 -6 4 -8q27 -10 57.5 -13.5t62.5 -3.5h62.5t59.5 -2t57.5 -5t57.5 -13q29 -8 51.5 -23.5t48.5 -27.5q0 61 -21.5 106t-80.5 68q35 31 69.5 58.5t75.5 43.5 q-49 47 -110.5 77t-126.5 46q-2 -57 -3.5 -112.5t-5.5 -112.5l-2 2v-6q-27 -2 -64.5 -4.5t-74.5 -9.5t-68.5 -21.5t-48.5 -38.5zM1364 72h57l68 -152q-4 39 -4 77v75h47v-224h-51q-20 39 -37 79t-35 77q2 -39 2 -78v-78h-47v224zM1393 1362q16 20 31.5 39.5t19.5 46.5h-2 q-37 -37 -49 -86zM1562.5 -63.5q-8.5 36.5 14.5 79.5q12 29 40 43.5t62 14.5h10.5t17.5 -2t16.5 -4t7.5 -5l-9 -40q-27 12 -48 8t-36.5 -18.5t-20.5 -37t3 -47.5q16 -47 61 -41q10 2 8.5 21.5t-1.5 28.5h-27v40h76v-120q-41 -16 -79 -9t-62.5 29.5t-33 59z" />
<glyph unicode="3" d="M35 1018q70 37 137.5 67.5t144.5 53.5q4 0 8.5 20.5t8.5 45t8 48t8 31.5q23 35 68 53.5t78 34.5q88 35 179 61.5t183 51.5q94 23 188.5 39t190.5 24q33 4 80 8.5t95 3.5t92 -12.5t71 -38.5q2 -4 -2 -28.5t-6 -32.5l-6 -98q0 -4 4 -4q78 -23 152.5 -59t123.5 -103v-2 q-16 4 -36.5 -3.5t-41 -20.5t-38 -27.5t-27.5 -26.5q31 -16 50 -47t27.5 -67t6.5 -72.5t-13 -67.5q-16 43 -49.5 66.5t-74.5 35t-85 14.5t-83 5q-45 4 -94.5 2t-92.5 14q-16 6 -22 25.5t-7 43t2 46l5 37.5q-184 -14 -363.5 -56.5t-351.5 -101.5q-8 -2 -8 -6q2 -10 8 -33.5 t10 -50.5t6 -49.5t-6 -28.5q-23 -18 -58.5 -21.5t-64.5 -7.5q-39 -6 -78.5 -12t-78.5 -12q-35 -8 -67 -17.5t-62 -21.5q-14 -8 -28.5 -13.5t-29.5 -15.5q-8 -8 -18 -20.5t-17 -16.5q10 35 24.5 68t27.5 63q2 6 13 25.5t21.5 41t18.5 39t6 21.5q-25 35 -58.5 68t-78.5 37z M86 72h47q4 -41 7 -83t12 -83q4 41 10 83t14 83h37l25 -166q4 41 9 83t9 83h43l-43 -224h-43q-6 37 -11 74t-9 74q-4 -37 -11.5 -74t-13.5 -74h-43zM90 1024q68 -37 109 -109q2 -2 -4.5 -15t-14.5 -28.5t-15 -29t-9 -19.5q-25 -45 -41 -94q51 27 104 39t108.5 20.5t110 15.5 t107.5 23q-18 18 -47 25.5t-62 8.5t-65.5 -2t-55.5 -5v131t4 131q-59 -16 -116.5 -39.5t-112.5 -52.5zM305 72h45q4 -41 8 -83t11 -83q4 41 10 83t14 83h39l23 -166q4 41 9 83t9 83h43l-43 -224h-41q-8 37 -13 74t-9 74q-4 -37 -10.5 -74t-12.5 -74h-45zM342 913 q8 0 22.5 6.5t29 15.5t27.5 18.5t23 13.5q37 16 75 29.5t77 27.5q78 23 155.5 43t159.5 39q78 16 155 31.5t157 21.5q72 8 154.5 11.5t152.5 -29.5q6 55 6 112.5t4 110.5q0 29 2 57.5t6 57.5q2 14 -6 22t-20.5 13.5t-26.5 7.5t-27 4q-119 18 -245.5 0.5t-245.5 -41.5 q-129 -27 -255 -60.5t-249 -87.5q-23 -12 -46.5 -24.5t-43.5 -28.5t-24.5 -49t-8.5 -55q-8 -66 -8 -132.5v-134.5zM367 1030q0 23 15 38t36 19q6 2 15 -2t5 -14q-12 -8 -22 -8q-12 -4 -16.5 -16.5t1.5 -22.5q4 -4 8.5 -5t8.5 -3q20 -2 33.5 11t22.5 33.5t13.5 41t8.5 35.5 q-27 -27 -62 -35q-27 -4 -43 12q-16 8 -16 37q0 27 12 51q27 61 86 98q12 6 25.5 12.5t27.5 10.5q10 4 21.5 12t21.5 11q12 -1 6 -13q12 0 21 -2q16 -2 27.5 -15t13.5 -32q6 -43 -23.5 -83t-66.5 -62q-18 -12 -27.5 -32t-18.5 -39t-20.5 -37.5t-34.5 -29.5q-23 -16 -53 -10 q-12 4 -20 14.5t-6 24.5zM405.5 1141.5q2.5 -15.5 22.5 -15.5q31 0 49.5 19.5t30.5 47.5t18.5 59t10.5 51q-29 -6 -52.5 -23.5t-44.5 -38.5q-6 -6 -15 -25.5t-15.5 -39t-4 -35zM522 72h45q4 -41 9.5 -83t9.5 -83q4 41 10 83t14 83h39l25 -166q2 41 7 83t11 83h41l-41 -224 h-43q-8 37 -12 74t-10 74q-4 -37 -10.5 -74t-12.5 -74h-43zM530 1155q14 4 29.5 19.5t26 35t14.5 40t0 34.5q-6 23 -33 23q-14 -37 -20.5 -75t-16.5 -77zM582 343q2 34 2 60q0 20 -1 39t1 39q0 49 26.5 67.5t73.5 18.5q37 0 54.5 -20.5t23.5 -50t4 -63.5t-2 -60v-80 q0 -47 -26.5 -66.5t-71.5 -17.5q-39 0 -56.5 20.5t-23.5 50t-4 63.5zM628 1157.5q-5 20.5 6 46t31.5 46t43.5 22.5q12 0 16 -10q8 -12 2 -29q-6 -23 -27.5 -40t-44.5 -22q2 -12 10.5 -13t17.5 3t17.5 10.5t12.5 10.5q25 20 36 45.5t21 52.5q2 2 -1 9t-8 15.5t-8 17.5t-1 15 q10 27 34 23q12 0 17 -12q4 -10 2 -22.5t-2 -25.5q20 2 28.5 -1t-4.5 -27q-8 -16 -17 -33.5t-11 -36.5q0 -10 6 -10q20 0 34.5 20.5t26 46t22.5 51t25 33.5q8 2 17 -2q2 -4 2 -12q-4 -12 -10.5 -21.5t-1.5 -23.5q6 -12 13 -25.5t5 -27.5h2q20 25 32.5 60.5t45.5 51.5 q37 14 49 -20q10 -14 6 -25.5t-2 -27.5q8 2 14 10q16 12 18.5 34.5t8.5 41.5q4 4 11 5t12 -1q10 -2 8 -12v-2q10 10 24 16q10 6 17.5 2t11.5 -14q4 -12 1 -22.5t-8 -22t-10 -22.5t-3 -23q14 12 24 26t18.5 29.5t17.5 29t26 23.5q20 10 51 0q4 6 17 8t9 -14q-4 -18 -14 -38.5 t-10 -41.5q0 -14 8 -2q20 20 30.5 48t19.5 55.5t23.5 53t43.5 42.5q14 8 24 -9q12 -23 4 -48t-24 -42q-14 -18 -43 -43.5t-25 -52.5q4 -16 23 -12q14 6 21 19.5t16 25.5q4 2 12 2t8 -10l-4 -13q-16 -39 -53 -53q-25 -14 -43 14q-4 5 -4 11q-10 -8 -16.5 -15.5t-18.5 -11.5 q-10 -4 -16.5 0t-12.5 8q-4 -4 -12 -8t-16 -6q-31 -6 -43 20v2q-8 -10 -17.5 -17t-23.5 -11q-14 -8 -25 12q-6 12 -3 23.5t8 21.5t9 21.5t2 23.5q-18 -8 -25 -19.5t-11.5 -25.5t-6.5 -28.5t-8 -28.5q-6 -16 -24 -8q-8 2 -9 10q0 4 1 9t1 7q-14 -4 -19 -4t-15 -10 t-24.5 -18.5t-31.5 -8.5q-10 2 -16 8.5t-10 14.5q-16 -16 -40 -32.5t-50 -12.5q-16 2 -25 18q-25 -29 -51 -37q-29 -12 -33 21q-4 27 8.5 44t22.5 38q2 4 -3 5t-7 -3q-8 -20 -18.5 -44t-26 -45.5t-36 -34.5t-46.5 -11q-31 2 -36 22.5zM638 367.5q-1 -37.5 1 -74.5 q0 -16 9 -26.5t21.5 -14.5t24 1t15.5 23q2 12 2 27.5v30.5v147q0 16 -10.5 27.5t-22.5 15.5t-23.5 -2t-15.5 -22q-2 -14 -1 -29.5t1 -28.5q0 -37 -1 -74.5zM653 621q12 14 15.5 36.5t2.5 48t-4 49t-3 42.5v125q0 16 1 30.5t-12 28.5h76q-14 -12 -12 -32.5t2 -37.5v-141 q0 -16 -2 -49t10 -47q14 -23 37.5 -8.5t28.5 32.5q8 27 2.5 54.5t-9.5 54.5q-4 14 -10 37.5t-8 48.5t2 46.5t21 33.5q10 10 31.5 10t29.5 -16q6 -16 -2 -21.5t-18.5 -4.5t-17.5 8t1 16q-16 -8 -17 -29t6 -44.5t17 -46t15 -34.5q12 -37 17 -87t-22 -85q-10 -14 -33.5 -19.5 t-50 -5.5t-53 3.5t-41.5 3.5zM655 1192q12 -2 28.5 15.5t18.5 27.5q4 8 -2 12t-12 -2q-10 -10 -18.5 -24.5t-14.5 -28.5zM715 -123q0 14 9 22.5t21.5 8.5t21.5 -8.5t9 -22.5q0 -16 -9 -23.5t-21.5 -7.5t-21.5 7.5t-9 23.5zM776 1329q-2 -8 4 -20h4q0 8 1 13t-1 13 q-6 0 -8 -6zM780 209q10 14 13.5 34.5t2.5 44t-4.5 46t-3.5 39.5v172q0 10 -8 22h58q29 -12 51 -50t35 -66q0 25 2 59.5t-13 56.5h74q-12 -10 -11 -24.5t1 -28.5v-246q0 -14 -1 -31.5t11 -27.5h-207zM797 -152l59 224h64l59 -224h-51l-15 52h-53l-10 -52h-53zM844 252 q0 -14 11 -23.5t25.5 -11.5t28 3.5t15.5 19.5q-4 63 -21.5 127.5t-58.5 115.5v-231zM865 711.5q-3 19.5 7 31.5t33 13.5t27 -21.5q0 -10 -7 -15t-15.5 -5t-14.5 4t-6 14q-12 -4 -12 -14t7 -20.5t17 -19.5t17 -11q14 -4 34.5 -4t30.5 10q20 20 16 40.5t-19 38t-35.5 32 t-31.5 24.5q-18 16 -30.5 42t-12.5 52.5t13.5 48t44.5 27.5q27 6 54.5 4t51.5 -2l-6 -10q0 -14 7 -29.5t13.5 -31t5.5 -30t-16 -26.5q-14 -10 -33.5 -9t-21.5 21q0 12 7 17.5t15.5 5.5t14.5 -5t4 -14q14 2 14 12.5t-8 21.5t-18.5 20.5t-18.5 11.5q-14 4 -32.5 1t-24.5 -19 q-12 -25 -4 -43.5t24.5 -33t37 -27.5t32.5 -28q14 -20 22.5 -46.5t4.5 -52t-20.5 -44t-47.5 -22.5q-27 -2 -53.5 -1t-54.5 1q8 4 5 19t-8.5 33.5t-8.5 38zM866 -61h41q-4 23 -9 46t-11 46zM874 1219q4 -12 16.5 -10.5t14.5 14.5q2 18 -10 43q-6 -8 -14.5 -22.5t-6.5 -24.5z M991 1264l4 -15q10 -14 25 -6q16 4 23.5 21.5t3.5 33.5q-2 10 -9.5 16.5t-21.5 -3.5q-20 -14 -25 -47zM997 209q12 14 15.5 36.5t2.5 47t-4 48.5t-3 40v127q0 16 1 29.5t-12 29.5h76q-10 -10 -13 -30.5t-2 -42t3 -43t2 -35.5v-166h104q23 0 55.5 -3t55.5 13q-4 -8 -7 -29.5 t-14 -21.5h-260zM1006 70q29 4 64.5 6t62.5 -15q31 -23 22.5 -57.5t-37.5 -48.5q14 -6 21.5 -19.5t10.5 -29t5 -30.5t8 -28h-51q-6 12 -8 27.5t-6 29t-12.5 23t-26.5 6.5v-86h-53v222zM1057 8.5q2 -24.5 2 -35.5h12q18 0 26.5 10.5t6.5 22.5t-11.5 21.5t-27.5 7.5 q-10 -2 -8 -26.5zM1065 621q10 12 11 25t1 28v248q0 14 -1 30.5t-11 28.5h127q25 -25 25.5 -59.5t-9.5 -67.5q-4 -8 -15 -29.5t-20.5 -45t-11.5 -45t10 -27.5q-6 12 4.5 13t21.5 -4t14 -14.5t-17 -17.5q-25 -10 -35 9.5t-8 35.5q0 16 6 32.5t8 31t-4 22.5t-28 6v-155 q16 0 41.5 -3.5t44.5 11.5q-6 -14 -8.5 -26.5t-6.5 -26.5h-139zM1098 567h78q-12 -29 2 -65.5t26 -61.5q12 29 22.5 63t0.5 64h80q-23 -12 -27 -38.5t-10 -47.5q-6 -20 -23.5 -47.5t-17.5 -48.5q0 -23 -3 -56.5t13 -52.5h-76q18 18 14.5 54t-3.5 59q-12 23 -21.5 46.5 t-17.5 45.5q-10 23 -14.5 46.5t-22.5 39.5zM1133 866q20 0 45.5 2t27.5 33q0 16 -7 23.5t-18.5 10.5t-24.5 3h-23v-72zM1192 72h53v-224h-53v224zM1245 1296q-4 -10 1 -27.5t22 -2.5q12 12 21 32.5t11 38.5q-2 8 -4 13.5t-12 1.5q-16 -8 -25.5 -23.5t-13.5 -32.5zM1274 -123 q0 14 9 22.5t21.5 8.5t21.5 -8.5t9 -22.5q0 -16 -9 -23.5t-21.5 -7.5t-21.5 7.5t-9 23.5zM1294 1018q-8 -6 4 -8q27 -10 57.5 -13.5t62.5 -3.5h62.5t59.5 -2t57.5 -5t57.5 -13q29 -8 51.5 -23.5t48.5 -27.5q0 61 -21.5 106t-80.5 68q35 31 69.5 58.5t75.5 43.5 q-49 47 -110.5 77t-126.5 46q-2 -57 -3.5 -112.5t-5.5 -112.5l-2 2v-6q-27 -2 -64.5 -4.5t-74.5 -9.5t-68.5 -21.5t-48.5 -38.5zM1364 72h57l68 -152q-4 39 -4 77v75h47v-224h-51q-20 39 -37 79t-35 77q2 -39 2 -78v-78h-47v224zM1393 1362q16 20 31.5 39.5t19.5 46.5h-2 q-37 -37 -49 -86zM1562.5 -63.5q-8.5 36.5 14.5 79.5q12 29 40 43.5t62 14.5h10.5t17.5 -2t16.5 -4t7.5 -5l-9 -40q-27 12 -48 8t-36.5 -18.5t-20.5 -37t3 -47.5q16 -47 61 -41q10 2 8.5 21.5t-1.5 28.5h-27v40h76v-120q-41 -16 -79 -9t-62.5 29.5t-33 59z" />
<glyph unicode="4" d="M35 1018q70 37 137.5 67.5t144.5 53.5q4 0 8.5 20.5t8.5 45t8 48t8 31.5q23 35 68 53.5t78 34.5q88 35 179 61.5t183 51.5q94 23 188.5 39t190.5 24q33 4 80 8.5t95 3.5t92 -12.5t71 -38.5q2 -4 -2 -28.5t-6 -32.5l-6 -98q0 -4 4 -4q78 -23 152.5 -59t123.5 -103v-2 q-16 4 -36.5 -3.5t-41 -20.5t-38 -27.5t-27.5 -26.5q31 -16 50 -47t27.5 -67t6.5 -72.5t-13 -67.5q-16 43 -49.5 66.5t-74.5 35t-85 14.5t-83 5q-45 4 -94.5 2t-92.5 14q-16 6 -22 25.5t-7 43t2 46l5 37.5q-184 -14 -363.5 -56.5t-351.5 -101.5q-8 -2 -8 -6q2 -10 8 -33.5 t10 -50.5t6 -49.5t-6 -28.5q-23 -18 -58.5 -21.5t-64.5 -7.5q-39 -6 -78.5 -12t-78.5 -12q-35 -8 -67 -17.5t-62 -21.5q-14 -8 -28.5 -13.5t-29.5 -15.5q-8 -8 -18 -20.5t-17 -16.5q10 35 24.5 68t27.5 63q2 6 13 25.5t21.5 41t18.5 39t6 21.5q-25 35 -58.5 68t-78.5 37z M86 72h47q4 -41 7 -83t12 -83q4 41 10 83t14 83h37l25 -166q4 41 9 83t9 83h43l-43 -224h-43q-6 37 -11 74t-9 74q-4 -37 -11.5 -74t-13.5 -74h-43zM90 1024q68 -37 109 -109q2 -2 -4.5 -15t-14.5 -28.5t-15 -29t-9 -19.5q-25 -45 -41 -94q51 27 104 39t108.5 20.5t110 15.5 t107.5 23q-18 18 -47 25.5t-62 8.5t-65.5 -2t-55.5 -5v131t4 131q-59 -16 -116.5 -39.5t-112.5 -52.5zM305 72h45q4 -41 8 -83t11 -83q4 41 10 83t14 83h39l23 -166q4 41 9 83t9 83h43l-43 -224h-41q-8 37 -13 74t-9 74q-4 -37 -10.5 -74t-12.5 -74h-45zM342 913 q8 0 22.5 6.5t29 15.5t27.5 18.5t23 13.5q37 16 75 29.5t77 27.5q78 23 155.5 43t159.5 39q78 16 155 31.5t157 21.5q72 8 154.5 11.5t152.5 -29.5q6 55 6 112.5t4 110.5q0 29 2 57.5t6 57.5q2 14 -6 22t-20.5 13.5t-26.5 7.5t-27 4q-119 18 -245.5 0.5t-245.5 -41.5 q-129 -27 -255 -60.5t-249 -87.5q-23 -12 -46.5 -24.5t-43.5 -28.5t-24.5 -49t-8.5 -55q-8 -66 -8 -132.5v-134.5zM367 1030q0 23 15 38t36 19q6 2 15 -2t5 -14q-12 -8 -22 -8q-12 -4 -16.5 -16.5t1.5 -22.5q4 -4 8.5 -5t8.5 -3q20 -2 33.5 11t22.5 33.5t13.5 41t8.5 35.5 q-27 -27 -62 -35q-27 -4 -43 12q-16 8 -16 37q0 27 12 51q27 61 86 98q12 6 25.5 12.5t27.5 10.5q10 4 21.5 12t21.5 11q12 -1 6 -13q12 0 21 -2q16 -2 27.5 -15t13.5 -32q6 -43 -23.5 -83t-66.5 -62q-18 -12 -27.5 -32t-18.5 -39t-20.5 -37.5t-34.5 -29.5q-23 -16 -53 -10 q-12 4 -20 14.5t-6 24.5zM405.5 1141.5q2.5 -15.5 22.5 -15.5q31 0 49.5 19.5t30.5 47.5t18.5 59t10.5 51q-29 -6 -52.5 -23.5t-44.5 -38.5q-6 -6 -15 -25.5t-15.5 -39t-4 -35zM522 72h45q4 -41 9.5 -83t9.5 -83q4 41 10 83t14 83h39l25 -166q2 41 7 83t11 83h41l-41 -224 h-43q-8 37 -12 74t-10 74q-4 -37 -10.5 -74t-12.5 -74h-43zM530 1155q14 4 29.5 19.5t26 35t14.5 40t0 34.5q-6 23 -33 23q-14 -37 -20.5 -75t-16.5 -77zM582 343q2 34 2 60q0 20 -1 39t1 39q0 49 26.5 67.5t73.5 18.5q37 0 54.5 -20.5t23.5 -50t4 -63.5t-2 -60v-80 q0 -47 -26.5 -66.5t-71.5 -17.5q-39 0 -56.5 20.5t-23.5 50t-4 63.5zM628 1157.5q-5 20.5 6 46t31.5 46t43.5 22.5q12 0 16 -10q8 -12 2 -29q-6 -23 -27.5 -40t-44.5 -22q2 -12 10.5 -13t17.5 3t17.5 10.5t12.5 10.5q25 20 36 45.5t21 52.5q2 2 -1 9t-8 15.5t-8 17.5t-1 15 q10 27 34 23q12 0 17 -12q4 -10 2 -22.5t-2 -25.5q20 2 28.5 -1t-4.5 -27q-8 -16 -17 -33.5t-11 -36.5q0 -10 6 -10q20 0 34.5 20.5t26 46t22.5 51t25 33.5q8 2 17 -2q2 -4 2 -12q-4 -12 -10.5 -21.5t-1.5 -23.5q6 -12 13 -25.5t5 -27.5h2q20 25 32.5 60.5t45.5 51.5 q37 14 49 -20q10 -14 6 -25.5t-2 -27.5q8 2 14 10q16 12 18.5 34.5t8.5 41.5q4 4 11 5t12 -1q10 -2 8 -12v-2q10 10 24 16q10 6 17.5 2t11.5 -14q4 -12 1 -22.5t-8 -22t-10 -22.5t-3 -23q14 12 24 26t18.5 29.5t17.5 29t26 23.5q20 10 51 0q4 6 17 8t9 -14q-4 -18 -14 -38.5 t-10 -41.5q0 -14 8 -2q20 20 30.5 48t19.5 55.5t23.5 53t43.5 42.5q14 8 24 -9q12 -23 4 -48t-24 -42q-14 -18 -43 -43.5t-25 -52.5q4 -16 23 -12q14 6 21 19.5t16 25.5q4 2 12 2t8 -10l-4 -13q-16 -39 -53 -53q-25 -14 -43 14q-4 5 -4 11q-10 -8 -16.5 -15.5t-18.5 -11.5 q-10 -4 -16.5 0t-12.5 8q-4 -4 -12 -8t-16 -6q-31 -6 -43 20v2q-8 -10 -17.5 -17t-23.5 -11q-14 -8 -25 12q-6 12 -3 23.5t8 21.5t9 21.5t2 23.5q-18 -8 -25 -19.5t-11.5 -25.5t-6.5 -28.5t-8 -28.5q-6 -16 -24 -8q-8 2 -9 10q0 4 1 9t1 7q-14 -4 -19 -4t-15 -10 t-24.5 -18.5t-31.5 -8.5q-10 2 -16 8.5t-10 14.5q-16 -16 -40 -32.5t-50 -12.5q-16 2 -25 18q-25 -29 -51 -37q-29 -12 -33 21q-4 27 8.5 44t22.5 38q2 4 -3 5t-7 -3q-8 -20 -18.5 -44t-26 -45.5t-36 -34.5t-46.5 -11q-31 2 -36 22.5zM638 367.5q-1 -37.5 1 -74.5 q0 -16 9 -26.5t21.5 -14.5t24 1t15.5 23q2 12 2 27.5v30.5v147q0 16 -10.5 27.5t-22.5 15.5t-23.5 -2t-15.5 -22q-2 -14 -1 -29.5t1 -28.5q0 -37 -1 -74.5zM653 621q12 14 15.5 36.5t2.5 48t-4 49t-3 42.5v125q0 16 1 30.5t-12 28.5h76q-14 -12 -12 -32.5t2 -37.5v-141 q0 -16 -2 -49t10 -47q14 -23 37.5 -8.5t28.5 32.5q8 27 2.5 54.5t-9.5 54.5q-4 14 -10 37.5t-8 48.5t2 46.5t21 33.5q10 10 31.5 10t29.5 -16q6 -16 -2 -21.5t-18.5 -4.5t-17.5 8t1 16q-16 -8 -17 -29t6 -44.5t17 -46t15 -34.5q12 -37 17 -87t-22 -85q-10 -14 -33.5 -19.5 t-50 -5.5t-53 3.5t-41.5 3.5zM655 1192q12 -2 28.5 15.5t18.5 27.5q4 8 -2 12t-12 -2q-10 -10 -18.5 -24.5t-14.5 -28.5zM715 -123q0 14 9 22.5t21.5 8.5t21.5 -8.5t9 -22.5q0 -16 -9 -23.5t-21.5 -7.5t-21.5 7.5t-9 23.5zM776 1329q-2 -8 4 -20h4q0 8 1 13t-1 13 q-6 0 -8 -6zM780 209q10 14 13.5 34.5t2.5 44t-4.5 46t-3.5 39.5v172q0 10 -8 22h58q29 -12 51 -50t35 -66q0 25 2 59.5t-13 56.5h74q-12 -10 -11 -24.5t1 -28.5v-246q0 -14 -1 -31.5t11 -27.5h-207zM797 -152l59 224h64l59 -224h-51l-15 52h-53l-10 -52h-53zM844 252 q0 -14 11 -23.5t25.5 -11.5t28 3.5t15.5 19.5q-4 63 -21.5 127.5t-58.5 115.5v-231zM865 711.5q-3 19.5 7 31.5t33 13.5t27 -21.5q0 -10 -7 -15t-15.5 -5t-14.5 4t-6 14q-12 -4 -12 -14t7 -20.5t17 -19.5t17 -11q14 -4 34.5 -4t30.5 10q20 20 16 40.5t-19 38t-35.5 32 t-31.5 24.5q-18 16 -30.5 42t-12.5 52.5t13.5 48t44.5 27.5q27 6 54.5 4t51.5 -2l-6 -10q0 -14 7 -29.5t13.5 -31t5.5 -30t-16 -26.5q-14 -10 -33.5 -9t-21.5 21q0 12 7 17.5t15.5 5.5t14.5 -5t4 -14q14 2 14 12.5t-8 21.5t-18.5 20.5t-18.5 11.5q-14 4 -32.5 1t-24.5 -19 q-12 -25 -4 -43.5t24.5 -33t37 -27.5t32.5 -28q14 -20 22.5 -46.5t4.5 -52t-20.5 -44t-47.5 -22.5q-27 -2 -53.5 -1t-54.5 1q8 4 5 19t-8.5 33.5t-8.5 38zM866 -61h41q-4 23 -9 46t-11 46zM874 1219q4 -12 16.5 -10.5t14.5 14.5q2 18 -10 43q-6 -8 -14.5 -22.5t-6.5 -24.5z M991 1264l4 -15q10 -14 25 -6q16 4 23.5 21.5t3.5 33.5q-2 10 -9.5 16.5t-21.5 -3.5q-20 -14 -25 -47zM997 209q12 14 15.5 36.5t2.5 47t-4 48.5t-3 40v127q0 16 1 29.5t-12 29.5h76q-10 -10 -13 -30.5t-2 -42t3 -43t2 -35.5v-166h104q23 0 55.5 -3t55.5 13q-4 -8 -7 -29.5 t-14 -21.5h-260zM1006 70q29 4 64.5 6t62.5 -15q31 -23 22.5 -57.5t-37.5 -48.5q14 -6 21.5 -19.5t10.5 -29t5 -30.5t8 -28h-51q-6 12 -8 27.5t-6 29t-12.5 23t-26.5 6.5v-86h-53v222zM1057 8.5q2 -24.5 2 -35.5h12q18 0 26.5 10.5t6.5 22.5t-11.5 21.5t-27.5 7.5 q-10 -2 -8 -26.5zM1065 621q10 12 11 25t1 28v248q0 14 -1 30.5t-11 28.5h127q25 -25 25.5 -59.5t-9.5 -67.5q-4 -8 -15 -29.5t-20.5 -45t-11.5 -45t10 -27.5q-6 12 4.5 13t21.5 -4t14 -14.5t-17 -17.5q-25 -10 -35 9.5t-8 35.5q0 16 6 32.5t8 31t-4 22.5t-28 6v-155 q16 0 41.5 -3.5t44.5 11.5q-6 -14 -8.5 -26.5t-6.5 -26.5h-139zM1098 567h78q-12 -29 2 -65.5t26 -61.5q12 29 22.5 63t0.5 64h80q-23 -12 -27 -38.5t-10 -47.5q-6 -20 -23.5 -47.5t-17.5 -48.5q0 -23 -3 -56.5t13 -52.5h-76q18 18 14.5 54t-3.5 59q-12 23 -21.5 46.5 t-17.5 45.5q-10 23 -14.5 46.5t-22.5 39.5zM1133 866q20 0 45.5 2t27.5 33q0 16 -7 23.5t-18.5 10.5t-24.5 3h-23v-72zM1192 72h53v-224h-53v224zM1245 1296q-4 -10 1 -27.5t22 -2.5q12 12 21 32.5t11 38.5q-2 8 -4 13.5t-12 1.5q-16 -8 -25.5 -23.5t-13.5 -32.5zM1274 -123 q0 14 9 22.5t21.5 8.5t21.5 -8.5t9 -22.5q0 -16 -9 -23.5t-21.5 -7.5t-21.5 7.5t-9 23.5zM1294 1018q-8 -6 4 -8q27 -10 57.5 -13.5t62.5 -3.5h62.5t59.5 -2t57.5 -5t57.5 -13q29 -8 51.5 -23.5t48.5 -27.5q0 61 -21.5 106t-80.5 68q35 31 69.5 58.5t75.5 43.5 q-49 47 -110.5 77t-126.5 46q-2 -57 -3.5 -112.5t-5.5 -112.5l-2 2v-6q-27 -2 -64.5 -4.5t-74.5 -9.5t-68.5 -21.5t-48.5 -38.5zM1364 72h57l68 -152q-4 39 -4 77v75h47v-224h-51q-20 39 -37 79t-35 77q2 -39 2 -78v-78h-47v224zM1393 1362q16 20 31.5 39.5t19.5 46.5h-2 q-37 -37 -49 -86zM1562.5 -63.5q-8.5 36.5 14.5 79.5q12 29 40 43.5t62 14.5h10.5t17.5 -2t16.5 -4t7.5 -5l-9 -40q-27 12 -48 8t-36.5 -18.5t-20.5 -37t3 -47.5q16 -47 61 -41q10 2 8.5 21.5t-1.5 28.5h-27v40h76v-120q-41 -16 -79 -9t-62.5 29.5t-33 59z" />
<glyph unicode="5" d="M35 1018q70 37 137.5 67.5t144.5 53.5q4 0 8.5 20.5t8.5 45t8 48t8 31.5q23 35 68 53.5t78 34.5q88 35 179 61.5t183 51.5q94 23 188.5 39t190.5 24q33 4 80 8.5t95 3.5t92 -12.5t71 -38.5q2 -4 -2 -28.5t-6 -32.5l-6 -98q0 -4 4 -4q78 -23 152.5 -59t123.5 -103v-2 q-16 4 -36.5 -3.5t-41 -20.5t-38 -27.5t-27.5 -26.5q31 -16 50 -47t27.5 -67t6.5 -72.5t-13 -67.5q-16 43 -49.5 66.5t-74.5 35t-85 14.5t-83 5q-45 4 -94.5 2t-92.5 14q-16 6 -22 25.5t-7 43t2 46l5 37.5q-184 -14 -363.5 -56.5t-351.5 -101.5q-8 -2 -8 -6q2 -10 8 -33.5 t10 -50.5t6 -49.5t-6 -28.5q-23 -18 -58.5 -21.5t-64.5 -7.5q-39 -6 -78.5 -12t-78.5 -12q-35 -8 -67 -17.5t-62 -21.5q-14 -8 -28.5 -13.5t-29.5 -15.5q-8 -8 -18 -20.5t-17 -16.5q10 35 24.5 68t27.5 63q2 6 13 25.5t21.5 41t18.5 39t6 21.5q-25 35 -58.5 68t-78.5 37z M86 72h47q4 -41 7 -83t12 -83q4 41 10 83t14 83h37l25 -166q4 41 9 83t9 83h43l-43 -224h-43q-6 37 -11 74t-9 74q-4 -37 -11.5 -74t-13.5 -74h-43zM90 1024q68 -37 109 -109q2 -2 -4.5 -15t-14.5 -28.5t-15 -29t-9 -19.5q-25 -45 -41 -94q51 27 104 39t108.5 20.5t110 15.5 t107.5 23q-18 18 -47 25.5t-62 8.5t-65.5 -2t-55.5 -5v131t4 131q-59 -16 -116.5 -39.5t-112.5 -52.5zM305 72h45q4 -41 8 -83t11 -83q4 41 10 83t14 83h39l23 -166q4 41 9 83t9 83h43l-43 -224h-41q-8 37 -13 74t-9 74q-4 -37 -10.5 -74t-12.5 -74h-45zM342 913 q8 0 22.5 6.5t29 15.5t27.5 18.5t23 13.5q37 16 75 29.5t77 27.5q78 23 155.5 43t159.5 39q78 16 155 31.5t157 21.5q72 8 154.5 11.5t152.5 -29.5q6 55 6 112.5t4 110.5q0 29 2 57.5t6 57.5q2 14 -6 22t-20.5 13.5t-26.5 7.5t-27 4q-119 18 -245.5 0.5t-245.5 -41.5 q-129 -27 -255 -60.5t-249 -87.5q-23 -12 -46.5 -24.5t-43.5 -28.5t-24.5 -49t-8.5 -55q-8 -66 -8 -132.5v-134.5zM367 1030q0 23 15 38t36 19q6 2 15 -2t5 -14q-12 -8 -22 -8q-12 -4 -16.5 -16.5t1.5 -22.5q4 -4 8.5 -5t8.5 -3q20 -2 33.5 11t22.5 33.5t13.5 41t8.5 35.5 q-27 -27 -62 -35q-27 -4 -43 12q-16 8 -16 37q0 27 12 51q27 61 86 98q12 6 25.5 12.5t27.5 10.5q10 4 21.5 12t21.5 11q12 -1 6 -13q12 0 21 -2q16 -2 27.5 -15t13.5 -32q6 -43 -23.5 -83t-66.5 -62q-18 -12 -27.5 -32t-18.5 -39t-20.5 -37.5t-34.5 -29.5q-23 -16 -53 -10 q-12 4 -20 14.5t-6 24.5zM405.5 1141.5q2.5 -15.5 22.5 -15.5q31 0 49.5 19.5t30.5 47.5t18.5 59t10.5 51q-29 -6 -52.5 -23.5t-44.5 -38.5q-6 -6 -15 -25.5t-15.5 -39t-4 -35zM522 72h45q4 -41 9.5 -83t9.5 -83q4 41 10 83t14 83h39l25 -166q2 41 7 83t11 83h41l-41 -224 h-43q-8 37 -12 74t-10 74q-4 -37 -10.5 -74t-12.5 -74h-43zM530 1155q14 4 29.5 19.5t26 35t14.5 40t0 34.5q-6 23 -33 23q-14 -37 -20.5 -75t-16.5 -77zM582 343q2 34 2 60q0 20 -1 39t1 39q0 49 26.5 67.5t73.5 18.5q37 0 54.5 -20.5t23.5 -50t4 -63.5t-2 -60v-80 q0 -47 -26.5 -66.5t-71.5 -17.5q-39 0 -56.5 20.5t-23.5 50t-4 63.5zM628 1157.5q-5 20.5 6 46t31.5 46t43.5 22.5q12 0 16 -10q8 -12 2 -29q-6 -23 -27.5 -40t-44.5 -22q2 -12 10.5 -13t17.5 3t17.5 10.5t12.5 10.5q25 20 36 45.5t21 52.5q2 2 -1 9t-8 15.5t-8 17.5t-1 15 q10 27 34 23q12 0 17 -12q4 -10 2 -22.5t-2 -25.5q20 2 28.5 -1t-4.5 -27q-8 -16 -17 -33.5t-11 -36.5q0 -10 6 -10q20 0 34.5 20.5t26 46t22.5 51t25 33.5q8 2 17 -2q2 -4 2 -12q-4 -12 -10.5 -21.5t-1.5 -23.5q6 -12 13 -25.5t5 -27.5h2q20 25 32.5 60.5t45.5 51.5 q37 14 49 -20q10 -14 6 -25.5t-2 -27.5q8 2 14 10q16 12 18.5 34.5t8.5 41.5q4 4 11 5t12 -1q10 -2 8 -12v-2q10 10 24 16q10 6 17.5 2t11.5 -14q4 -12 1 -22.5t-8 -22t-10 -22.5t-3 -23q14 12 24 26t18.5 29.5t17.5 29t26 23.5q20 10 51 0q4 6 17 8t9 -14q-4 -18 -14 -38.5 t-10 -41.5q0 -14 8 -2q20 20 30.5 48t19.5 55.5t23.5 53t43.5 42.5q14 8 24 -9q12 -23 4 -48t-24 -42q-14 -18 -43 -43.5t-25 -52.5q4 -16 23 -12q14 6 21 19.5t16 25.5q4 2 12 2t8 -10l-4 -13q-16 -39 -53 -53q-25 -14 -43 14q-4 5 -4 11q-10 -8 -16.5 -15.5t-18.5 -11.5 q-10 -4 -16.5 0t-12.5 8q-4 -4 -12 -8t-16 -6q-31 -6 -43 20v2q-8 -10 -17.5 -17t-23.5 -11q-14 -8 -25 12q-6 12 -3 23.5t8 21.5t9 21.5t2 23.5q-18 -8 -25 -19.5t-11.5 -25.5t-6.5 -28.5t-8 -28.5q-6 -16 -24 -8q-8 2 -9 10q0 4 1 9t1 7q-14 -4 -19 -4t-15 -10 t-24.5 -18.5t-31.5 -8.5q-10 2 -16 8.5t-10 14.5q-16 -16 -40 -32.5t-50 -12.5q-16 2 -25 18q-25 -29 -51 -37q-29 -12 -33 21q-4 27 8.5 44t22.5 38q2 4 -3 5t-7 -3q-8 -20 -18.5 -44t-26 -45.5t-36 -34.5t-46.5 -11q-31 2 -36 22.5zM638 367.5q-1 -37.5 1 -74.5 q0 -16 9 -26.5t21.5 -14.5t24 1t15.5 23q2 12 2 27.5v30.5v147q0 16 -10.5 27.5t-22.5 15.5t-23.5 -2t-15.5 -22q-2 -14 -1 -29.5t1 -28.5q0 -37 -1 -74.5zM653 621q12 14 15.5 36.5t2.5 48t-4 49t-3 42.5v125q0 16 1 30.5t-12 28.5h76q-14 -12 -12 -32.5t2 -37.5v-141 q0 -16 -2 -49t10 -47q14 -23 37.5 -8.5t28.5 32.5q8 27 2.5 54.5t-9.5 54.5q-4 14 -10 37.5t-8 48.5t2 46.5t21 33.5q10 10 31.5 10t29.5 -16q6 -16 -2 -21.5t-18.5 -4.5t-17.5 8t1 16q-16 -8 -17 -29t6 -44.5t17 -46t15 -34.5q12 -37 17 -87t-22 -85q-10 -14 -33.5 -19.5 t-50 -5.5t-53 3.5t-41.5 3.5zM655 1192q12 -2 28.5 15.5t18.5 27.5q4 8 -2 12t-12 -2q-10 -10 -18.5 -24.5t-14.5 -28.5zM715 -123q0 14 9 22.5t21.5 8.5t21.5 -8.5t9 -22.5q0 -16 -9 -23.5t-21.5 -7.5t-21.5 7.5t-9 23.5zM776 1329q-2 -8 4 -20h4q0 8 1 13t-1 13 q-6 0 -8 -6zM780 209q10 14 13.5 34.5t2.5 44t-4.5 46t-3.5 39.5v172q0 10 -8 22h58q29 -12 51 -50t35 -66q0 25 2 59.5t-13 56.5h74q-12 -10 -11 -24.5t1 -28.5v-246q0 -14 -1 -31.5t11 -27.5h-207zM797 -152l59 224h64l59 -224h-51l-15 52h-53l-10 -52h-53zM844 252 q0 -14 11 -23.5t25.5 -11.5t28 3.5t15.5 19.5q-4 63 -21.5 127.5t-58.5 115.5v-231zM865 711.5q-3 19.5 7 31.5t33 13.5t27 -21.5q0 -10 -7 -15t-15.5 -5t-14.5 4t-6 14q-12 -4 -12 -14t7 -20.5t17 -19.5t17 -11q14 -4 34.5 -4t30.5 10q20 20 16 40.5t-19 38t-35.5 32 t-31.5 24.5q-18 16 -30.5 42t-12.5 52.5t13.5 48t44.5 27.5q27 6 54.5 4t51.5 -2l-6 -10q0 -14 7 -29.5t13.5 -31t5.5 -30t-16 -26.5q-14 -10 -33.5 -9t-21.5 21q0 12 7 17.5t15.5 5.5t14.5 -5t4 -14q14 2 14 12.5t-8 21.5t-18.5 20.5t-18.5 11.5q-14 4 -32.5 1t-24.5 -19 q-12 -25 -4 -43.5t24.5 -33t37 -27.5t32.5 -28q14 -20 22.5 -46.5t4.5 -52t-20.5 -44t-47.5 -22.5q-27 -2 -53.5 -1t-54.5 1q8 4 5 19t-8.5 33.5t-8.5 38zM866 -61h41q-4 23 -9 46t-11 46zM874 1219q4 -12 16.5 -10.5t14.5 14.5q2 18 -10 43q-6 -8 -14.5 -22.5t-6.5 -24.5z M991 1264l4 -15q10 -14 25 -6q16 4 23.5 21.5t3.5 33.5q-2 10 -9.5 16.5t-21.5 -3.5q-20 -14 -25 -47zM997 209q12 14 15.5 36.5t2.5 47t-4 48.5t-3 40v127q0 16 1 29.5t-12 29.5h76q-10 -10 -13 -30.5t-2 -42t3 -43t2 -35.5v-166h104q23 0 55.5 -3t55.5 13q-4 -8 -7 -29.5 t-14 -21.5h-260zM1006 70q29 4 64.5 6t62.5 -15q31 -23 22.5 -57.5t-37.5 -48.5q14 -6 21.5 -19.5t10.5 -29t5 -30.5t8 -28h-51q-6 12 -8 27.5t-6 29t-12.5 23t-26.5 6.5v-86h-53v222zM1057 8.5q2 -24.5 2 -35.5h12q18 0 26.5 10.5t6.5 22.5t-11.5 21.5t-27.5 7.5 q-10 -2 -8 -26.5zM1065 621q10 12 11 25t1 28v248q0 14 -1 30.5t-11 28.5h127q25 -25 25.5 -59.5t-9.5 -67.5q-4 -8 -15 -29.5t-20.5 -45t-11.5 -45t10 -27.5q-6 12 4.5 13t21.5 -4t14 -14.5t-17 -17.5q-25 -10 -35 9.5t-8 35.5q0 16 6 32.5t8 31t-4 22.5t-28 6v-155 q16 0 41.5 -3.5t44.5 11.5q-6 -14 -8.5 -26.5t-6.5 -26.5h-139zM1098 567h78q-12 -29 2 -65.5t26 -61.5q12 29 22.5 63t0.5 64h80q-23 -12 -27 -38.5t-10 -47.5q-6 -20 -23.5 -47.5t-17.5 -48.5q0 -23 -3 -56.5t13 -52.5h-76q18 18 14.5 54t-3.5 59q-12 23 -21.5 46.5 t-17.5 45.5q-10 23 -14.5 46.5t-22.5 39.5zM1133 866q20 0 45.5 2t27.5 33q0 16 -7 23.5t-18.5 10.5t-24.5 3h-23v-72zM1192 72h53v-224h-53v224zM1245 1296q-4 -10 1 -27.5t22 -2.5q12 12 21 32.5t11 38.5q-2 8 -4 13.5t-12 1.5q-16 -8 -25.5 -23.5t-13.5 -32.5zM1274 -123 q0 14 9 22.5t21.5 8.5t21.5 -8.5t9 -22.5q0 -16 -9 -23.5t-21.5 -7.5t-21.5 7.5t-9 23.5zM1294 1018q-8 -6 4 -8q27 -10 57.5 -13.5t62.5 -3.5h62.5t59.5 -2t57.5 -5t57.5 -13q29 -8 51.5 -23.5t48.5 -27.5q0 61 -21.5 106t-80.5 68q35 31 69.5 58.5t75.5 43.5 q-49 47 -110.5 77t-126.5 46q-2 -57 -3.5 -112.5t-5.5 -112.5l-2 2v-6q-27 -2 -64.5 -4.5t-74.5 -9.5t-68.5 -21.5t-48.5 -38.5zM1364 72h57l68 -152q-4 39 -4 77v75h47v-224h-51q-20 39 -37 79t-35 77q2 -39 2 -78v-78h-47v224zM1393 1362q16 20 31.5 39.5t19.5 46.5h-2 q-37 -37 -49 -86zM1562.5 -63.5q-8.5 36.5 14.5 79.5q12 29 40 43.5t62 14.5h10.5t17.5 -2t16.5 -4t7.5 -5l-9 -40q-27 12 -48 8t-36.5 -18.5t-20.5 -37t3 -47.5q16 -47 61 -41q10 2 8.5 21.5t-1.5 28.5h-27v40h76v-120q-41 -16 -79 -9t-62.5 29.5t-33 59z" />
<glyph unicode="6" d="M35 1018q70 37 137.5 67.5t144.5 53.5q4 0 8.5 20.5t8.5 45t8 48t8 31.5q23 35 68 53.5t78 34.5q88 35 179 61.5t183 51.5q94 23 188.5 39t190.5 24q33 4 80 8.5t95 3.5t92 -12.5t71 -38.5q2 -4 -2 -28.5t-6 -32.5l-6 -98q0 -4 4 -4q78 -23 152.5 -59t123.5 -103v-2 q-16 4 -36.5 -3.5t-41 -20.5t-38 -27.5t-27.5 -26.5q31 -16 50 -47t27.5 -67t6.5 -72.5t-13 -67.5q-16 43 -49.5 66.5t-74.5 35t-85 14.5t-83 5q-45 4 -94.5 2t-92.5 14q-16 6 -22 25.5t-7 43t2 46l5 37.5q-184 -14 -363.5 -56.5t-351.5 -101.5q-8 -2 -8 -6q2 -10 8 -33.5 t10 -50.5t6 -49.5t-6 -28.5q-23 -18 -58.5 -21.5t-64.5 -7.5q-39 -6 -78.5 -12t-78.5 -12q-35 -8 -67 -17.5t-62 -21.5q-14 -8 -28.5 -13.5t-29.5 -15.5q-8 -8 -18 -20.5t-17 -16.5q10 35 24.5 68t27.5 63q2 6 13 25.5t21.5 41t18.5 39t6 21.5q-25 35 -58.5 68t-78.5 37z M86 72h47q4 -41 7 -83t12 -83q4 41 10 83t14 83h37l25 -166q4 41 9 83t9 83h43l-43 -224h-43q-6 37 -11 74t-9 74q-4 -37 -11.5 -74t-13.5 -74h-43zM90 1024q68 -37 109 -109q2 -2 -4.5 -15t-14.5 -28.5t-15 -29t-9 -19.5q-25 -45 -41 -94q51 27 104 39t108.5 20.5t110 15.5 t107.5 23q-18 18 -47 25.5t-62 8.5t-65.5 -2t-55.5 -5v131t4 131q-59 -16 -116.5 -39.5t-112.5 -52.5zM305 72h45q4 -41 8 -83t11 -83q4 41 10 83t14 83h39l23 -166q4 41 9 83t9 83h43l-43 -224h-41q-8 37 -13 74t-9 74q-4 -37 -10.5 -74t-12.5 -74h-45zM342 913 q8 0 22.5 6.5t29 15.5t27.5 18.5t23 13.5q37 16 75 29.5t77 27.5q78 23 155.5 43t159.5 39q78 16 155 31.5t157 21.5q72 8 154.5 11.5t152.5 -29.5q6 55 6 112.5t4 110.5q0 29 2 57.5t6 57.5q2 14 -6 22t-20.5 13.5t-26.5 7.5t-27 4q-119 18 -245.5 0.5t-245.5 -41.5 q-129 -27 -255 -60.5t-249 -87.5q-23 -12 -46.5 -24.5t-43.5 -28.5t-24.5 -49t-8.5 -55q-8 -66 -8 -132.5v-134.5zM367 1030q0 23 15 38t36 19q6 2 15 -2t5 -14q-12 -8 -22 -8q-12 -4 -16.5 -16.5t1.5 -22.5q4 -4 8.5 -5t8.5 -3q20 -2 33.5 11t22.5 33.5t13.5 41t8.5 35.5 q-27 -27 -62 -35q-27 -4 -43 12q-16 8 -16 37q0 27 12 51q27 61 86 98q12 6 25.5 12.5t27.5 10.5q10 4 21.5 12t21.5 11q12 -1 6 -13q12 0 21 -2q16 -2 27.5 -15t13.5 -32q6 -43 -23.5 -83t-66.5 -62q-18 -12 -27.5 -32t-18.5 -39t-20.5 -37.5t-34.5 -29.5q-23 -16 -53 -10 q-12 4 -20 14.5t-6 24.5zM405.5 1141.5q2.5 -15.5 22.5 -15.5q31 0 49.5 19.5t30.5 47.5t18.5 59t10.5 51q-29 -6 -52.5 -23.5t-44.5 -38.5q-6 -6 -15 -25.5t-15.5 -39t-4 -35zM522 72h45q4 -41 9.5 -83t9.5 -83q4 41 10 83t14 83h39l25 -166q2 41 7 83t11 83h41l-41 -224 h-43q-8 37 -12 74t-10 74q-4 -37 -10.5 -74t-12.5 -74h-43zM530 1155q14 4 29.5 19.5t26 35t14.5 40t0 34.5q-6 23 -33 23q-14 -37 -20.5 -75t-16.5 -77zM582 343q2 34 2 60q0 20 -1 39t1 39q0 49 26.5 67.5t73.5 18.5q37 0 54.5 -20.5t23.5 -50t4 -63.5t-2 -60v-80 q0 -47 -26.5 -66.5t-71.5 -17.5q-39 0 -56.5 20.5t-23.5 50t-4 63.5zM628 1157.5q-5 20.5 6 46t31.5 46t43.5 22.5q12 0 16 -10q8 -12 2 -29q-6 -23 -27.5 -40t-44.5 -22q2 -12 10.5 -13t17.5 3t17.5 10.5t12.5 10.5q25 20 36 45.5t21 52.5q2 2 -1 9t-8 15.5t-8 17.5t-1 15 q10 27 34 23q12 0 17 -12q4 -10 2 -22.5t-2 -25.5q20 2 28.5 -1t-4.5 -27q-8 -16 -17 -33.5t-11 -36.5q0 -10 6 -10q20 0 34.5 20.5t26 46t22.5 51t25 33.5q8 2 17 -2q2 -4 2 -12q-4 -12 -10.5 -21.5t-1.5 -23.5q6 -12 13 -25.5t5 -27.5h2q20 25 32.5 60.5t45.5 51.5 q37 14 49 -20q10 -14 6 -25.5t-2 -27.5q8 2 14 10q16 12 18.5 34.5t8.5 41.5q4 4 11 5t12 -1q10 -2 8 -12v-2q10 10 24 16q10 6 17.5 2t11.5 -14q4 -12 1 -22.5t-8 -22t-10 -22.5t-3 -23q14 12 24 26t18.5 29.5t17.5 29t26 23.5q20 10 51 0q4 6 17 8t9 -14q-4 -18 -14 -38.5 t-10 -41.5q0 -14 8 -2q20 20 30.5 48t19.5 55.5t23.5 53t43.5 42.5q14 8 24 -9q12 -23 4 -48t-24 -42q-14 -18 -43 -43.5t-25 -52.5q4 -16 23 -12q14 6 21 19.5t16 25.5q4 2 12 2t8 -10l-4 -13q-16 -39 -53 -53q-25 -14 -43 14q-4 5 -4 11q-10 -8 -16.5 -15.5t-18.5 -11.5 q-10 -4 -16.5 0t-12.5 8q-4 -4 -12 -8t-16 -6q-31 -6 -43 20v2q-8 -10 -17.5 -17t-23.5 -11q-14 -8 -25 12q-6 12 -3 23.5t8 21.5t9 21.5t2 23.5q-18 -8 -25 -19.5t-11.5 -25.5t-6.5 -28.5t-8 -28.5q-6 -16 -24 -8q-8 2 -9 10q0 4 1 9t1 7q-14 -4 -19 -4t-15 -10 t-24.5 -18.5t-31.5 -8.5q-10 2 -16 8.5t-10 14.5q-16 -16 -40 -32.5t-50 -12.5q-16 2 -25 18q-25 -29 -51 -37q-29 -12 -33 21q-4 27 8.5 44t22.5 38q2 4 -3 5t-7 -3q-8 -20 -18.5 -44t-26 -45.5t-36 -34.5t-46.5 -11q-31 2 -36 22.5zM638 367.5q-1 -37.5 1 -74.5 q0 -16 9 -26.5t21.5 -14.5t24 1t15.5 23q2 12 2 27.5v30.5v147q0 16 -10.5 27.5t-22.5 15.5t-23.5 -2t-15.5 -22q-2 -14 -1 -29.5t1 -28.5q0 -37 -1 -74.5zM653 621q12 14 15.5 36.5t2.5 48t-4 49t-3 42.5v125q0 16 1 30.5t-12 28.5h76q-14 -12 -12 -32.5t2 -37.5v-141 q0 -16 -2 -49t10 -47q14 -23 37.5 -8.5t28.5 32.5q8 27 2.5 54.5t-9.5 54.5q-4 14 -10 37.5t-8 48.5t2 46.5t21 33.5q10 10 31.5 10t29.5 -16q6 -16 -2 -21.5t-18.5 -4.5t-17.5 8t1 16q-16 -8 -17 -29t6 -44.5t17 -46t15 -34.5q12 -37 17 -87t-22 -85q-10 -14 -33.5 -19.5 t-50 -5.5t-53 3.5t-41.5 3.5zM655 1192q12 -2 28.5 15.5t18.5 27.5q4 8 -2 12t-12 -2q-10 -10 -18.5 -24.5t-14.5 -28.5zM715 -123q0 14 9 22.5t21.5 8.5t21.5 -8.5t9 -22.5q0 -16 -9 -23.5t-21.5 -7.5t-21.5 7.5t-9 23.5zM776 1329q-2 -8 4 -20h4q0 8 1 13t-1 13 q-6 0 -8 -6zM780 209q10 14 13.5 34.5t2.5 44t-4.5 46t-3.5 39.5v172q0 10 -8 22h58q29 -12 51 -50t35 -66q0 25 2 59.5t-13 56.5h74q-12 -10 -11 -24.5t1 -28.5v-246q0 -14 -1 -31.5t11 -27.5h-207zM797 -152l59 224h64l59 -224h-51l-15 52h-53l-10 -52h-53zM844 252 q0 -14 11 -23.5t25.5 -11.5t28 3.5t15.5 19.5q-4 63 -21.5 127.5t-58.5 115.5v-231zM865 711.5q-3 19.5 7 31.5t33 13.5t27 -21.5q0 -10 -7 -15t-15.5 -5t-14.5 4t-6 14q-12 -4 -12 -14t7 -20.5t17 -19.5t17 -11q14 -4 34.5 -4t30.5 10q20 20 16 40.5t-19 38t-35.5 32 t-31.5 24.5q-18 16 -30.5 42t-12.5 52.5t13.5 48t44.5 27.5q27 6 54.5 4t51.5 -2l-6 -10q0 -14 7 -29.5t13.5 -31t5.5 -30t-16 -26.5q-14 -10 -33.5 -9t-21.5 21q0 12 7 17.5t15.5 5.5t14.5 -5t4 -14q14 2 14 12.5t-8 21.5t-18.5 20.5t-18.5 11.5q-14 4 -32.5 1t-24.5 -19 q-12 -25 -4 -43.5t24.5 -33t37 -27.5t32.5 -28q14 -20 22.5 -46.5t4.5 -52t-20.5 -44t-47.5 -22.5q-27 -2 -53.5 -1t-54.5 1q8 4 5 19t-8.5 33.5t-8.5 38zM866 -61h41q-4 23 -9 46t-11 46zM874 1219q4 -12 16.5 -10.5t14.5 14.5q2 18 -10 43q-6 -8 -14.5 -22.5t-6.5 -24.5z M991 1264l4 -15q10 -14 25 -6q16 4 23.5 21.5t3.5 33.5q-2 10 -9.5 16.5t-21.5 -3.5q-20 -14 -25 -47zM997 209q12 14 15.5 36.5t2.5 47t-4 48.5t-3 40v127q0 16 1 29.5t-12 29.5h76q-10 -10 -13 -30.5t-2 -42t3 -43t2 -35.5v-166h104q23 0 55.5 -3t55.5 13q-4 -8 -7 -29.5 t-14 -21.5h-260zM1006 70q29 4 64.5 6t62.5 -15q31 -23 22.5 -57.5t-37.5 -48.5q14 -6 21.5 -19.5t10.5 -29t5 -30.5t8 -28h-51q-6 12 -8 27.5t-6 29t-12.5 23t-26.5 6.5v-86h-53v222zM1057 8.5q2 -24.5 2 -35.5h12q18 0 26.5 10.5t6.5 22.5t-11.5 21.5t-27.5 7.5 q-10 -2 -8 -26.5zM1065 621q10 12 11 25t1 28v248q0 14 -1 30.5t-11 28.5h127q25 -25 25.5 -59.5t-9.5 -67.5q-4 -8 -15 -29.5t-20.5 -45t-11.5 -45t10 -27.5q-6 12 4.5 13t21.5 -4t14 -14.5t-17 -17.5q-25 -10 -35 9.5t-8 35.5q0 16 6 32.5t8 31t-4 22.5t-28 6v-155 q16 0 41.5 -3.5t44.5 11.5q-6 -14 -8.5 -26.5t-6.5 -26.5h-139zM1098 567h78q-12 -29 2 -65.5t26 -61.5q12 29 22.5 63t0.5 64h80q-23 -12 -27 -38.5t-10 -47.5q-6 -20 -23.5 -47.5t-17.5 -48.5q0 -23 -3 -56.5t13 -52.5h-76q18 18 14.5 54t-3.5 59q-12 23 -21.5 46.5 t-17.5 45.5q-10 23 -14.5 46.5t-22.5 39.5zM1133 866q20 0 45.5 2t27.5 33q0 16 -7 23.5t-18.5 10.5t-24.5 3h-23v-72zM1192 72h53v-224h-53v224zM1245 1296q-4 -10 1 -27.5t22 -2.5q12 12 21 32.5t11 38.5q-2 8 -4 13.5t-12 1.5q-16 -8 -25.5 -23.5t-13.5 -32.5zM1274 -123 q0 14 9 22.5t21.5 8.5t21.5 -8.5t9 -22.5q0 -16 -9 -23.5t-21.5 -7.5t-21.5 7.5t-9 23.5zM1294 1018q-8 -6 4 -8q27 -10 57.5 -13.5t62.5 -3.5h62.5t59.5 -2t57.5 -5t57.5 -13q29 -8 51.5 -23.5t48.5 -27.5q0 61 -21.5 106t-80.5 68q35 31 69.5 58.5t75.5 43.5 q-49 47 -110.5 77t-126.5 46q-2 -57 -3.5 -112.5t-5.5 -112.5l-2 2v-6q-27 -2 -64.5 -4.5t-74.5 -9.5t-68.5 -21.5t-48.5 -38.5zM1364 72h57l68 -152q-4 39 -4 77v75h47v-224h-51q-20 39 -37 79t-35 77q2 -39 2 -78v-78h-47v224zM1393 1362q16 20 31.5 39.5t19.5 46.5h-2 q-37 -37 -49 -86zM1562.5 -63.5q-8.5 36.5 14.5 79.5q12 29 40 43.5t62 14.5h10.5t17.5 -2t16.5 -4t7.5 -5l-9 -40q-27 12 -48 8t-36.5 -18.5t-20.5 -37t3 -47.5q16 -47 61 -41q10 2 8.5 21.5t-1.5 28.5h-27v40h76v-120q-41 -16 -79 -9t-62.5 29.5t-33 59z" />
<glyph unicode="7" d="M35 1018q70 37 137.5 67.5t144.5 53.5q4 0 8.5 20.5t8.5 45t8 48t8 31.5q23 35 68 53.5t78 34.5q88 35 179 61.5t183 51.5q94 23 188.5 39t190.5 24q33 4 80 8.5t95 3.5t92 -12.5t71 -38.5q2 -4 -2 -28.5t-6 -32.5l-6 -98q0 -4 4 -4q78 -23 152.5 -59t123.5 -103v-2 q-16 4 -36.5 -3.5t-41 -20.5t-38 -27.5t-27.5 -26.5q31 -16 50 -47t27.5 -67t6.5 -72.5t-13 -67.5q-16 43 -49.5 66.5t-74.5 35t-85 14.5t-83 5q-45 4 -94.5 2t-92.5 14q-16 6 -22 25.5t-7 43t2 46l5 37.5q-184 -14 -363.5 -56.5t-351.5 -101.5q-8 -2 -8 -6q2 -10 8 -33.5 t10 -50.5t6 -49.5t-6 -28.5q-23 -18 -58.5 -21.5t-64.5 -7.5q-39 -6 -78.5 -12t-78.5 -12q-35 -8 -67 -17.5t-62 -21.5q-14 -8 -28.5 -13.5t-29.5 -15.5q-8 -8 -18 -20.5t-17 -16.5q10 35 24.5 68t27.5 63q2 6 13 25.5t21.5 41t18.5 39t6 21.5q-25 35 -58.5 68t-78.5 37z M86 72h47q4 -41 7 -83t12 -83q4 41 10 83t14 83h37l25 -166q4 41 9 83t9 83h43l-43 -224h-43q-6 37 -11 74t-9 74q-4 -37 -11.5 -74t-13.5 -74h-43zM90 1024q68 -37 109 -109q2 -2 -4.5 -15t-14.5 -28.5t-15 -29t-9 -19.5q-25 -45 -41 -94q51 27 104 39t108.5 20.5t110 15.5 t107.5 23q-18 18 -47 25.5t-62 8.5t-65.5 -2t-55.5 -5v131t4 131q-59 -16 -116.5 -39.5t-112.5 -52.5zM305 72h45q4 -41 8 -83t11 -83q4 41 10 83t14 83h39l23 -166q4 41 9 83t9 83h43l-43 -224h-41q-8 37 -13 74t-9 74q-4 -37 -10.5 -74t-12.5 -74h-45zM342 913 q8 0 22.5 6.5t29 15.5t27.5 18.5t23 13.5q37 16 75 29.5t77 27.5q78 23 155.5 43t159.5 39q78 16 155 31.5t157 21.5q72 8 154.5 11.5t152.5 -29.5q6 55 6 112.5t4 110.5q0 29 2 57.5t6 57.5q2 14 -6 22t-20.5 13.5t-26.5 7.5t-27 4q-119 18 -245.5 0.5t-245.5 -41.5 q-129 -27 -255 -60.5t-249 -87.5q-23 -12 -46.5 -24.5t-43.5 -28.5t-24.5 -49t-8.5 -55q-8 -66 -8 -132.5v-134.5zM367 1030q0 23 15 38t36 19q6 2 15 -2t5 -14q-12 -8 -22 -8q-12 -4 -16.5 -16.5t1.5 -22.5q4 -4 8.5 -5t8.5 -3q20 -2 33.5 11t22.5 33.5t13.5 41t8.5 35.5 q-27 -27 -62 -35q-27 -4 -43 12q-16 8 -16 37q0 27 12 51q27 61 86 98q12 6 25.5 12.5t27.5 10.5q10 4 21.5 12t21.5 11q12 -1 6 -13q12 0 21 -2q16 -2 27.5 -15t13.5 -32q6 -43 -23.5 -83t-66.5 -62q-18 -12 -27.5 -32t-18.5 -39t-20.5 -37.5t-34.5 -29.5q-23 -16 -53 -10 q-12 4 -20 14.5t-6 24.5zM405.5 1141.5q2.5 -15.5 22.5 -15.5q31 0 49.5 19.5t30.5 47.5t18.5 59t10.5 51q-29 -6 -52.5 -23.5t-44.5 -38.5q-6 -6 -15 -25.5t-15.5 -39t-4 -35zM522 72h45q4 -41 9.5 -83t9.5 -83q4 41 10 83t14 83h39l25 -166q2 41 7 83t11 83h41l-41 -224 h-43q-8 37 -12 74t-10 74q-4 -37 -10.5 -74t-12.5 -74h-43zM530 1155q14 4 29.5 19.5t26 35t14.5 40t0 34.5q-6 23 -33 23q-14 -37 -20.5 -75t-16.5 -77zM582 343q2 34 2 60q0 20 -1 39t1 39q0 49 26.5 67.5t73.5 18.5q37 0 54.5 -20.5t23.5 -50t4 -63.5t-2 -60v-80 q0 -47 -26.5 -66.5t-71.5 -17.5q-39 0 -56.5 20.5t-23.5 50t-4 63.5zM628 1157.5q-5 20.5 6 46t31.5 46t43.5 22.5q12 0 16 -10q8 -12 2 -29q-6 -23 -27.5 -40t-44.5 -22q2 -12 10.5 -13t17.5 3t17.5 10.5t12.5 10.5q25 20 36 45.5t21 52.5q2 2 -1 9t-8 15.5t-8 17.5t-1 15 q10 27 34 23q12 0 17 -12q4 -10 2 -22.5t-2 -25.5q20 2 28.5 -1t-4.5 -27q-8 -16 -17 -33.5t-11 -36.5q0 -10 6 -10q20 0 34.5 20.5t26 46t22.5 51t25 33.5q8 2 17 -2q2 -4 2 -12q-4 -12 -10.5 -21.5t-1.5 -23.5q6 -12 13 -25.5t5 -27.5h2q20 25 32.5 60.5t45.5 51.5 q37 14 49 -20q10 -14 6 -25.5t-2 -27.5q8 2 14 10q16 12 18.5 34.5t8.5 41.5q4 4 11 5t12 -1q10 -2 8 -12v-2q10 10 24 16q10 6 17.5 2t11.5 -14q4 -12 1 -22.5t-8 -22t-10 -22.5t-3 -23q14 12 24 26t18.5 29.5t17.5 29t26 23.5q20 10 51 0q4 6 17 8t9 -14q-4 -18 -14 -38.5 t-10 -41.5q0 -14 8 -2q20 20 30.5 48t19.5 55.5t23.5 53t43.5 42.5q14 8 24 -9q12 -23 4 -48t-24 -42q-14 -18 -43 -43.5t-25 -52.5q4 -16 23 -12q14 6 21 19.5t16 25.5q4 2 12 2t8 -10l-4 -13q-16 -39 -53 -53q-25 -14 -43 14q-4 5 -4 11q-10 -8 -16.5 -15.5t-18.5 -11.5 q-10 -4 -16.5 0t-12.5 8q-4 -4 -12 -8t-16 -6q-31 -6 -43 20v2q-8 -10 -17.5 -17t-23.5 -11q-14 -8 -25 12q-6 12 -3 23.5t8 21.5t9 21.5t2 23.5q-18 -8 -25 -19.5t-11.5 -25.5t-6.5 -28.5t-8 -28.5q-6 -16 -24 -8q-8 2 -9 10q0 4 1 9t1 7q-14 -4 -19 -4t-15 -10 t-24.5 -18.5t-31.5 -8.5q-10 2 -16 8.5t-10 14.5q-16 -16 -40 -32.5t-50 -12.5q-16 2 -25 18q-25 -29 -51 -37q-29 -12 -33 21q-4 27 8.5 44t22.5 38q2 4 -3 5t-7 -3q-8 -20 -18.5 -44t-26 -45.5t-36 -34.5t-46.5 -11q-31 2 -36 22.5zM638 367.5q-1 -37.5 1 -74.5 q0 -16 9 -26.5t21.5 -14.5t24 1t15.5 23q2 12 2 27.5v30.5v147q0 16 -10.5 27.5t-22.5 15.5t-23.5 -2t-15.5 -22q-2 -14 -1 -29.5t1 -28.5q0 -37 -1 -74.5zM653 621q12 14 15.5 36.5t2.5 48t-4 49t-3 42.5v125q0 16 1 30.5t-12 28.5h76q-14 -12 -12 -32.5t2 -37.5v-141 q0 -16 -2 -49t10 -47q14 -23 37.5 -8.5t28.5 32.5q8 27 2.5 54.5t-9.5 54.5q-4 14 -10 37.5t-8 48.5t2 46.5t21 33.5q10 10 31.5 10t29.5 -16q6 -16 -2 -21.5t-18.5 -4.5t-17.5 8t1 16q-16 -8 -17 -29t6 -44.5t17 -46t15 -34.5q12 -37 17 -87t-22 -85q-10 -14 -33.5 -19.5 t-50 -5.5t-53 3.5t-41.5 3.5zM655 1192q12 -2 28.5 15.5t18.5 27.5q4 8 -2 12t-12 -2q-10 -10 -18.5 -24.5t-14.5 -28.5zM715 -123q0 14 9 22.5t21.5 8.5t21.5 -8.5t9 -22.5q0 -16 -9 -23.5t-21.5 -7.5t-21.5 7.5t-9 23.5zM776 1329q-2 -8 4 -20h4q0 8 1 13t-1 13 q-6 0 -8 -6zM780 209q10 14 13.5 34.5t2.5 44t-4.5 46t-3.5 39.5v172q0 10 -8 22h58q29 -12 51 -50t35 -66q0 25 2 59.5t-13 56.5h74q-12 -10 -11 -24.5t1 -28.5v-246q0 -14 -1 -31.5t11 -27.5h-207zM797 -152l59 224h64l59 -224h-51l-15 52h-53l-10 -52h-53zM844 252 q0 -14 11 -23.5t25.5 -11.5t28 3.5t15.5 19.5q-4 63 -21.5 127.5t-58.5 115.5v-231zM865 711.5q-3 19.5 7 31.5t33 13.5t27 -21.5q0 -10 -7 -15t-15.5 -5t-14.5 4t-6 14q-12 -4 -12 -14t7 -20.5t17 -19.5t17 -11q14 -4 34.5 -4t30.5 10q20 20 16 40.5t-19 38t-35.5 32 t-31.5 24.5q-18 16 -30.5 42t-12.5 52.5t13.5 48t44.5 27.5q27 6 54.5 4t51.5 -2l-6 -10q0 -14 7 -29.5t13.5 -31t5.5 -30t-16 -26.5q-14 -10 -33.5 -9t-21.5 21q0 12 7 17.5t15.5 5.5t14.5 -5t4 -14q14 2 14 12.5t-8 21.5t-18.5 20.5t-18.5 11.5q-14 4 -32.5 1t-24.5 -19 q-12 -25 -4 -43.5t24.5 -33t37 -27.5t32.5 -28q14 -20 22.5 -46.5t4.5 -52t-20.5 -44t-47.5 -22.5q-27 -2 -53.5 -1t-54.5 1q8 4 5 19t-8.5 33.5t-8.5 38zM866 -61h41q-4 23 -9 46t-11 46zM874 1219q4 -12 16.5 -10.5t14.5 14.5q2 18 -10 43q-6 -8 -14.5 -22.5t-6.5 -24.5z M991 1264l4 -15q10 -14 25 -6q16 4 23.5 21.5t3.5 33.5q-2 10 -9.5 16.5t-21.5 -3.5q-20 -14 -25 -47zM997 209q12 14 15.5 36.5t2.5 47t-4 48.5t-3 40v127q0 16 1 29.5t-12 29.5h76q-10 -10 -13 -30.5t-2 -42t3 -43t2 -35.5v-166h104q23 0 55.5 -3t55.5 13q-4 -8 -7 -29.5 t-14 -21.5h-260zM1006 70q29 4 64.5 6t62.5 -15q31 -23 22.5 -57.5t-37.5 -48.5q14 -6 21.5 -19.5t10.5 -29t5 -30.5t8 -28h-51q-6 12 -8 27.5t-6 29t-12.5 23t-26.5 6.5v-86h-53v222zM1057 8.5q2 -24.5 2 -35.5h12q18 0 26.5 10.5t6.5 22.5t-11.5 21.5t-27.5 7.5 q-10 -2 -8 -26.5zM1065 621q10 12 11 25t1 28v248q0 14 -1 30.5t-11 28.5h127q25 -25 25.5 -59.5t-9.5 -67.5q-4 -8 -15 -29.5t-20.5 -45t-11.5 -45t10 -27.5q-6 12 4.5 13t21.5 -4t14 -14.5t-17 -17.5q-25 -10 -35 9.5t-8 35.5q0 16 6 32.5t8 31t-4 22.5t-28 6v-155 q16 0 41.5 -3.5t44.5 11.5q-6 -14 -8.5 -26.5t-6.5 -26.5h-139zM1098 567h78q-12 -29 2 -65.5t26 -61.5q12 29 22.5 63t0.5 64h80q-23 -12 -27 -38.5t-10 -47.5q-6 -20 -23.5 -47.5t-17.5 -48.5q0 -23 -3 -56.5t13 -52.5h-76q18 18 14.5 54t-3.5 59q-12 23 -21.5 46.5 t-17.5 45.5q-10 23 -14.5 46.5t-22.5 39.5zM1133 866q20 0 45.5 2t27.5 33q0 16 -7 23.5t-18.5 10.5t-24.5 3h-23v-72zM1192 72h53v-224h-53v224zM1245 1296q-4 -10 1 -27.5t22 -2.5q12 12 21 32.5t11 38.5q-2 8 -4 13.5t-12 1.5q-16 -8 -25.5 -23.5t-13.5 -32.5zM1274 -123 q0 14 9 22.5t21.5 8.5t21.5 -8.5t9 -22.5q0 -16 -9 -23.5t-21.5 -7.5t-21.5 7.5t-9 23.5zM1294 1018q-8 -6 4 -8q27 -10 57.5 -13.5t62.5 -3.5h62.5t59.5 -2t57.5 -5t57.5 -13q29 -8 51.5 -23.5t48.5 -27.5q0 61 -21.5 106t-80.5 68q35 31 69.5 58.5t75.5 43.5 q-49 47 -110.5 77t-126.5 46q-2 -57 -3.5 -112.5t-5.5 -112.5l-2 2v-6q-27 -2 -64.5 -4.5t-74.5 -9.5t-68.5 -21.5t-48.5 -38.5zM1364 72h57l68 -152q-4 39 -4 77v75h47v-224h-51q-20 39 -37 79t-35 77q2 -39 2 -78v-78h-47v224zM1393 1362q16 20 31.5 39.5t19.5 46.5h-2 q-37 -37 -49 -86zM1562.5 -63.5q-8.5 36.5 14.5 79.5q12 29 40 43.5t62 14.5h10.5t17.5 -2t16.5 -4t7.5 -5l-9 -40q-27 12 -48 8t-36.5 -18.5t-20.5 -37t3 -47.5q16 -47 61 -41q10 2 8.5 21.5t-1.5 28.5h-27v40h76v-120q-41 -16 -79 -9t-62.5 29.5t-33 59z" />
<glyph unicode="8" d="M35 1018q70 37 137.5 67.5t144.5 53.5q4 0 8.5 20.5t8.5 45t8 48t8 31.5q23 35 68 53.5t78 34.5q88 35 179 61.5t183 51.5q94 23 188.5 39t190.5 24q33 4 80 8.5t95 3.5t92 -12.5t71 -38.5q2 -4 -2 -28.5t-6 -32.5l-6 -98q0 -4 4 -4q78 -23 152.5 -59t123.5 -103v-2 q-16 4 -36.5 -3.5t-41 -20.5t-38 -27.5t-27.5 -26.5q31 -16 50 -47t27.5 -67t6.5 -72.5t-13 -67.5q-16 43 -49.5 66.5t-74.5 35t-85 14.5t-83 5q-45 4 -94.5 2t-92.5 14q-16 6 -22 25.5t-7 43t2 46l5 37.5q-184 -14 -363.5 -56.5t-351.5 -101.5q-8 -2 -8 -6q2 -10 8 -33.5 t10 -50.5t6 -49.5t-6 -28.5q-23 -18 -58.5 -21.5t-64.5 -7.5q-39 -6 -78.5 -12t-78.5 -12q-35 -8 -67 -17.5t-62 -21.5q-14 -8 -28.5 -13.5t-29.5 -15.5q-8 -8 -18 -20.5t-17 -16.5q10 35 24.5 68t27.5 63q2 6 13 25.5t21.5 41t18.5 39t6 21.5q-25 35 -58.5 68t-78.5 37z M86 72h47q4 -41 7 -83t12 -83q4 41 10 83t14 83h37l25 -166q4 41 9 83t9 83h43l-43 -224h-43q-6 37 -11 74t-9 74q-4 -37 -11.5 -74t-13.5 -74h-43zM90 1024q68 -37 109 -109q2 -2 -4.5 -15t-14.5 -28.5t-15 -29t-9 -19.5q-25 -45 -41 -94q51 27 104 39t108.5 20.5t110 15.5 t107.5 23q-18 18 -47 25.5t-62 8.5t-65.5 -2t-55.5 -5v131t4 131q-59 -16 -116.5 -39.5t-112.5 -52.5zM305 72h45q4 -41 8 -83t11 -83q4 41 10 83t14 83h39l23 -166q4 41 9 83t9 83h43l-43 -224h-41q-8 37 -13 74t-9 74q-4 -37 -10.5 -74t-12.5 -74h-45zM342 913 q8 0 22.5 6.5t29 15.5t27.5 18.5t23 13.5q37 16 75 29.5t77 27.5q78 23 155.5 43t159.5 39q78 16 155 31.5t157 21.5q72 8 154.5 11.5t152.5 -29.5q6 55 6 112.5t4 110.5q0 29 2 57.5t6 57.5q2 14 -6 22t-20.5 13.5t-26.5 7.5t-27 4q-119 18 -245.5 0.5t-245.5 -41.5 q-129 -27 -255 -60.5t-249 -87.5q-23 -12 -46.5 -24.5t-43.5 -28.5t-24.5 -49t-8.5 -55q-8 -66 -8 -132.5v-134.5zM367 1030q0 23 15 38t36 19q6 2 15 -2t5 -14q-12 -8 -22 -8q-12 -4 -16.5 -16.5t1.5 -22.5q4 -4 8.5 -5t8.5 -3q20 -2 33.5 11t22.5 33.5t13.5 41t8.5 35.5 q-27 -27 -62 -35q-27 -4 -43 12q-16 8 -16 37q0 27 12 51q27 61 86 98q12 6 25.5 12.5t27.5 10.5q10 4 21.5 12t21.5 11q12 -1 6 -13q12 0 21 -2q16 -2 27.5 -15t13.5 -32q6 -43 -23.5 -83t-66.5 -62q-18 -12 -27.5 -32t-18.5 -39t-20.5 -37.5t-34.5 -29.5q-23 -16 -53 -10 q-12 4 -20 14.5t-6 24.5zM405.5 1141.5q2.5 -15.5 22.5 -15.5q31 0 49.5 19.5t30.5 47.5t18.5 59t10.5 51q-29 -6 -52.5 -23.5t-44.5 -38.5q-6 -6 -15 -25.5t-15.5 -39t-4 -35zM522 72h45q4 -41 9.5 -83t9.5 -83q4 41 10 83t14 83h39l25 -166q2 41 7 83t11 83h41l-41 -224 h-43q-8 37 -12 74t-10 74q-4 -37 -10.5 -74t-12.5 -74h-43zM530 1155q14 4 29.5 19.5t26 35t14.5 40t0 34.5q-6 23 -33 23q-14 -37 -20.5 -75t-16.5 -77zM582 343q2 34 2 60q0 20 -1 39t1 39q0 49 26.5 67.5t73.5 18.5q37 0 54.5 -20.5t23.5 -50t4 -63.5t-2 -60v-80 q0 -47 -26.5 -66.5t-71.5 -17.5q-39 0 -56.5 20.5t-23.5 50t-4 63.5zM628 1157.5q-5 20.5 6 46t31.5 46t43.5 22.5q12 0 16 -10q8 -12 2 -29q-6 -23 -27.5 -40t-44.5 -22q2 -12 10.5 -13t17.5 3t17.5 10.5t12.5 10.5q25 20 36 45.5t21 52.5q2 2 -1 9t-8 15.5t-8 17.5t-1 15 q10 27 34 23q12 0 17 -12q4 -10 2 -22.5t-2 -25.5q20 2 28.5 -1t-4.5 -27q-8 -16 -17 -33.5t-11 -36.5q0 -10 6 -10q20 0 34.5 20.5t26 46t22.5 51t25 33.5q8 2 17 -2q2 -4 2 -12q-4 -12 -10.5 -21.5t-1.5 -23.5q6 -12 13 -25.5t5 -27.5h2q20 25 32.5 60.5t45.5 51.5 q37 14 49 -20q10 -14 6 -25.5t-2 -27.5q8 2 14 10q16 12 18.5 34.5t8.5 41.5q4 4 11 5t12 -1q10 -2 8 -12v-2q10 10 24 16q10 6 17.5 2t11.5 -14q4 -12 1 -22.5t-8 -22t-10 -22.5t-3 -23q14 12 24 26t18.5 29.5t17.5 29t26 23.5q20 10 51 0q4 6 17 8t9 -14q-4 -18 -14 -38.5 t-10 -41.5q0 -14 8 -2q20 20 30.5 48t19.5 55.5t23.5 53t43.5 42.5q14 8 24 -9q12 -23 4 -48t-24 -42q-14 -18 -43 -43.5t-25 -52.5q4 -16 23 -12q14 6 21 19.5t16 25.5q4 2 12 2t8 -10l-4 -13q-16 -39 -53 -53q-25 -14 -43 14q-4 5 -4 11q-10 -8 -16.5 -15.5t-18.5 -11.5 q-10 -4 -16.5 0t-12.5 8q-4 -4 -12 -8t-16 -6q-31 -6 -43 20v2q-8 -10 -17.5 -17t-23.5 -11q-14 -8 -25 12q-6 12 -3 23.5t8 21.5t9 21.5t2 23.5q-18 -8 -25 -19.5t-11.5 -25.5t-6.5 -28.5t-8 -28.5q-6 -16 -24 -8q-8 2 -9 10q0 4 1 9t1 7q-14 -4 -19 -4t-15 -10 t-24.5 -18.5t-31.5 -8.5q-10 2 -16 8.5t-10 14.5q-16 -16 -40 -32.5t-50 -12.5q-16 2 -25 18q-25 -29 -51 -37q-29 -12 -33 21q-4 27 8.5 44t22.5 38q2 4 -3 5t-7 -3q-8 -20 -18.5 -44t-26 -45.5t-36 -34.5t-46.5 -11q-31 2 -36 22.5zM638 367.5q-1 -37.5 1 -74.5 q0 -16 9 -26.5t21.5 -14.5t24 1t15.5 23q2 12 2 27.5v30.5v147q0 16 -10.5 27.5t-22.5 15.5t-23.5 -2t-15.5 -22q-2 -14 -1 -29.5t1 -28.5q0 -37 -1 -74.5zM653 621q12 14 15.5 36.5t2.5 48t-4 49t-3 42.5v125q0 16 1 30.5t-12 28.5h76q-14 -12 -12 -32.5t2 -37.5v-141 q0 -16 -2 -49t10 -47q14 -23 37.5 -8.5t28.5 32.5q8 27 2.5 54.5t-9.5 54.5q-4 14 -10 37.5t-8 48.5t2 46.5t21 33.5q10 10 31.5 10t29.5 -16q6 -16 -2 -21.5t-18.5 -4.5t-17.5 8t1 16q-16 -8 -17 -29t6 -44.5t17 -46t15 -34.5q12 -37 17 -87t-22 -85q-10 -14 -33.5 -19.5 t-50 -5.5t-53 3.5t-41.5 3.5zM655 1192q12 -2 28.5 15.5t18.5 27.5q4 8 -2 12t-12 -2q-10 -10 -18.5 -24.5t-14.5 -28.5zM715 -123q0 14 9 22.5t21.5 8.5t21.5 -8.5t9 -22.5q0 -16 -9 -23.5t-21.5 -7.5t-21.5 7.5t-9 23.5zM776 1329q-2 -8 4 -20h4q0 8 1 13t-1 13 q-6 0 -8 -6zM780 209q10 14 13.5 34.5t2.5 44t-4.5 46t-3.5 39.5v172q0 10 -8 22h58q29 -12 51 -50t35 -66q0 25 2 59.5t-13 56.5h74q-12 -10 -11 -24.5t1 -28.5v-246q0 -14 -1 -31.5t11 -27.5h-207zM797 -152l59 224h64l59 -224h-51l-15 52h-53l-10 -52h-53zM844 252 q0 -14 11 -23.5t25.5 -11.5t28 3.5t15.5 19.5q-4 63 -21.5 127.5t-58.5 115.5v-231zM865 711.5q-3 19.5 7 31.5t33 13.5t27 -21.5q0 -10 -7 -15t-15.5 -5t-14.5 4t-6 14q-12 -4 -12 -14t7 -20.5t17 -19.5t17 -11q14 -4 34.5 -4t30.5 10q20 20 16 40.5t-19 38t-35.5 32 t-31.5 24.5q-18 16 -30.5 42t-12.5 52.5t13.5 48t44.5 27.5q27 6 54.5 4t51.5 -2l-6 -10q0 -14 7 -29.5t13.5 -31t5.5 -30t-16 -26.5q-14 -10 -33.5 -9t-21.5 21q0 12 7 17.5t15.5 5.5t14.5 -5t4 -14q14 2 14 12.5t-8 21.5t-18.5 20.5t-18.5 11.5q-14 4 -32.5 1t-24.5 -19 q-12 -25 -4 -43.5t24.5 -33t37 -27.5t32.5 -28q14 -20 22.5 -46.5t4.5 -52t-20.5 -44t-47.5 -22.5q-27 -2 -53.5 -1t-54.5 1q8 4 5 19t-8.5 33.5t-8.5 38zM866 -61h41q-4 23 -9 46t-11 46zM874 1219q4 -12 16.5 -10.5t14.5 14.5q2 18 -10 43q-6 -8 -14.5 -22.5t-6.5 -24.5z M991 1264l4 -15q10 -14 25 -6q16 4 23.5 21.5t3.5 33.5q-2 10 -9.5 16.5t-21.5 -3.5q-20 -14 -25 -47zM997 209q12 14 15.5 36.5t2.5 47t-4 48.5t-3 40v127q0 16 1 29.5t-12 29.5h76q-10 -10 -13 -30.5t-2 -42t3 -43t2 -35.5v-166h104q23 0 55.5 -3t55.5 13q-4 -8 -7 -29.5 t-14 -21.5h-260zM1006 70q29 4 64.5 6t62.5 -15q31 -23 22.5 -57.5t-37.5 -48.5q14 -6 21.5 -19.5t10.5 -29t5 -30.5t8 -28h-51q-6 12 -8 27.5t-6 29t-12.5 23t-26.5 6.5v-86h-53v222zM1057 8.5q2 -24.5 2 -35.5h12q18 0 26.5 10.5t6.5 22.5t-11.5 21.5t-27.5 7.5 q-10 -2 -8 -26.5zM1065 621q10 12 11 25t1 28v248q0 14 -1 30.5t-11 28.5h127q25 -25 25.5 -59.5t-9.5 -67.5q-4 -8 -15 -29.5t-20.5 -45t-11.5 -45t10 -27.5q-6 12 4.5 13t21.5 -4t14 -14.5t-17 -17.5q-25 -10 -35 9.5t-8 35.5q0 16 6 32.5t8 31t-4 22.5t-28 6v-155 q16 0 41.5 -3.5t44.5 11.5q-6 -14 -8.5 -26.5t-6.5 -26.5h-139zM1098 567h78q-12 -29 2 -65.5t26 -61.5q12 29 22.5 63t0.5 64h80q-23 -12 -27 -38.5t-10 -47.5q-6 -20 -23.5 -47.5t-17.5 -48.5q0 -23 -3 -56.5t13 -52.5h-76q18 18 14.5 54t-3.5 59q-12 23 -21.5 46.5 t-17.5 45.5q-10 23 -14.5 46.5t-22.5 39.5zM1133 866q20 0 45.5 2t27.5 33q0 16 -7 23.5t-18.5 10.5t-24.5 3h-23v-72zM1192 72h53v-224h-53v224zM1245 1296q-4 -10 1 -27.5t22 -2.5q12 12 21 32.5t11 38.5q-2 8 -4 13.5t-12 1.5q-16 -8 -25.5 -23.5t-13.5 -32.5zM1274 -123 q0 14 9 22.5t21.5 8.5t21.5 -8.5t9 -22.5q0 -16 -9 -23.5t-21.5 -7.5t-21.5 7.5t-9 23.5zM1294 1018q-8 -6 4 -8q27 -10 57.5 -13.5t62.5 -3.5h62.5t59.5 -2t57.5 -5t57.5 -13q29 -8 51.5 -23.5t48.5 -27.5q0 61 -21.5 106t-80.5 68q35 31 69.5 58.5t75.5 43.5 q-49 47 -110.5 77t-126.5 46q-2 -57 -3.5 -112.5t-5.5 -112.5l-2 2v-6q-27 -2 -64.5 -4.5t-74.5 -9.5t-68.5 -21.5t-48.5 -38.5zM1364 72h57l68 -152q-4 39 -4 77v75h47v-224h-51q-20 39 -37 79t-35 77q2 -39 2 -78v-78h-47v224zM1393 1362q16 20 31.5 39.5t19.5 46.5h-2 q-37 -37 -49 -86zM1562.5 -63.5q-8.5 36.5 14.5 79.5q12 29 40 43.5t62 14.5h10.5t17.5 -2t16.5 -4t7.5 -5l-9 -40q-27 12 -48 8t-36.5 -18.5t-20.5 -37t3 -47.5q16 -47 61 -41q10 2 8.5 21.5t-1.5 28.5h-27v40h76v-120q-41 -16 -79 -9t-62.5 29.5t-33 59z" />
<glyph unicode="9" d="M35 1018q70 37 137.5 67.5t144.5 53.5q4 0 8.5 20.5t8.5 45t8 48t8 31.5q23 35 68 53.5t78 34.5q88 35 179 61.5t183 51.5q94 23 188.5 39t190.5 24q33 4 80 8.5t95 3.5t92 -12.5t71 -38.5q2 -4 -2 -28.5t-6 -32.5l-6 -98q0 -4 4 -4q78 -23 152.5 -59t123.5 -103v-2 q-16 4 -36.5 -3.5t-41 -20.5t-38 -27.5t-27.5 -26.5q31 -16 50 -47t27.5 -67t6.5 -72.5t-13 -67.5q-16 43 -49.5 66.5t-74.5 35t-85 14.5t-83 5q-45 4 -94.5 2t-92.5 14q-16 6 -22 25.5t-7 43t2 46l5 37.5q-184 -14 -363.5 -56.5t-351.5 -101.5q-8 -2 -8 -6q2 -10 8 -33.5 t10 -50.5t6 -49.5t-6 -28.5q-23 -18 -58.5 -21.5t-64.5 -7.5q-39 -6 -78.5 -12t-78.5 -12q-35 -8 -67 -17.5t-62 -21.5q-14 -8 -28.5 -13.5t-29.5 -15.5q-8 -8 -18 -20.5t-17 -16.5q10 35 24.5 68t27.5 63q2 6 13 25.5t21.5 41t18.5 39t6 21.5q-25 35 -58.5 68t-78.5 37z M86 72h47q4 -41 7 -83t12 -83q4 41 10 83t14 83h37l25 -166q4 41 9 83t9 83h43l-43 -224h-43q-6 37 -11 74t-9 74q-4 -37 -11.5 -74t-13.5 -74h-43zM90 1024q68 -37 109 -109q2 -2 -4.5 -15t-14.5 -28.5t-15 -29t-9 -19.5q-25 -45 -41 -94q51 27 104 39t108.5 20.5t110 15.5 t107.5 23q-18 18 -47 25.5t-62 8.5t-65.5 -2t-55.5 -5v131t4 131q-59 -16 -116.5 -39.5t-112.5 -52.5zM305 72h45q4 -41 8 -83t11 -83q4 41 10 83t14 83h39l23 -166q4 41 9 83t9 83h43l-43 -224h-41q-8 37 -13 74t-9 74q-4 -37 -10.5 -74t-12.5 -74h-45zM342 913 q8 0 22.5 6.5t29 15.5t27.5 18.5t23 13.5q37 16 75 29.5t77 27.5q78 23 155.5 43t159.5 39q78 16 155 31.5t157 21.5q72 8 154.5 11.5t152.5 -29.5q6 55 6 112.5t4 110.5q0 29 2 57.5t6 57.5q2 14 -6 22t-20.5 13.5t-26.5 7.5t-27 4q-119 18 -245.5 0.5t-245.5 -41.5 q-129 -27 -255 -60.5t-249 -87.5q-23 -12 -46.5 -24.5t-43.5 -28.5t-24.5 -49t-8.5 -55q-8 -66 -8 -132.5v-134.5zM367 1030q0 23 15 38t36 19q6 2 15 -2t5 -14q-12 -8 -22 -8q-12 -4 -16.5 -16.5t1.5 -22.5q4 -4 8.5 -5t8.5 -3q20 -2 33.5 11t22.5 33.5t13.5 41t8.5 35.5 q-27 -27 -62 -35q-27 -4 -43 12q-16 8 -16 37q0 27 12 51q27 61 86 98q12 6 25.5 12.5t27.5 10.5q10 4 21.5 12t21.5 11q12 -1 6 -13q12 0 21 -2q16 -2 27.5 -15t13.5 -32q6 -43 -23.5 -83t-66.5 -62q-18 -12 -27.5 -32t-18.5 -39t-20.5 -37.5t-34.5 -29.5q-23 -16 -53 -10 q-12 4 -20 14.5t-6 24.5zM405.5 1141.5q2.5 -15.5 22.5 -15.5q31 0 49.5 19.5t30.5 47.5t18.5 59t10.5 51q-29 -6 -52.5 -23.5t-44.5 -38.5q-6 -6 -15 -25.5t-15.5 -39t-4 -35zM522 72h45q4 -41 9.5 -83t9.5 -83q4 41 10 83t14 83h39l25 -166q2 41 7 83t11 83h41l-41 -224 h-43q-8 37 -12 74t-10 74q-4 -37 -10.5 -74t-12.5 -74h-43zM530 1155q14 4 29.5 19.5t26 35t14.5 40t0 34.5q-6 23 -33 23q-14 -37 -20.5 -75t-16.5 -77zM582 343q2 34 2 60q0 20 -1 39t1 39q0 49 26.5 67.5t73.5 18.5q37 0 54.5 -20.5t23.5 -50t4 -63.5t-2 -60v-80 q0 -47 -26.5 -66.5t-71.5 -17.5q-39 0 -56.5 20.5t-23.5 50t-4 63.5zM628 1157.5q-5 20.5 6 46t31.5 46t43.5 22.5q12 0 16 -10q8 -12 2 -29q-6 -23 -27.5 -40t-44.5 -22q2 -12 10.5 -13t17.5 3t17.5 10.5t12.5 10.5q25 20 36 45.5t21 52.5q2 2 -1 9t-8 15.5t-8 17.5t-1 15 q10 27 34 23q12 0 17 -12q4 -10 2 -22.5t-2 -25.5q20 2 28.5 -1t-4.5 -27q-8 -16 -17 -33.5t-11 -36.5q0 -10 6 -10q20 0 34.5 20.5t26 46t22.5 51t25 33.5q8 2 17 -2q2 -4 2 -12q-4 -12 -10.5 -21.5t-1.5 -23.5q6 -12 13 -25.5t5 -27.5h2q20 25 32.5 60.5t45.5 51.5 q37 14 49 -20q10 -14 6 -25.5t-2 -27.5q8 2 14 10q16 12 18.5 34.5t8.5 41.5q4 4 11 5t12 -1q10 -2 8 -12v-2q10 10 24 16q10 6 17.5 2t11.5 -14q4 -12 1 -22.5t-8 -22t-10 -22.5t-3 -23q14 12 24 26t18.5 29.5t17.5 29t26 23.5q20 10 51 0q4 6 17 8t9 -14q-4 -18 -14 -38.5 t-10 -41.5q0 -14 8 -2q20 20 30.5 48t19.5 55.5t23.5 53t43.5 42.5q14 8 24 -9q12 -23 4 -48t-24 -42q-14 -18 -43 -43.5t-25 -52.5q4 -16 23 -12q14 6 21 19.5t16 25.5q4 2 12 2t8 -10l-4 -13q-16 -39 -53 -53q-25 -14 -43 14q-4 5 -4 11q-10 -8 -16.5 -15.5t-18.5 -11.5 q-10 -4 -16.5 0t-12.5 8q-4 -4 -12 -8t-16 -6q-31 -6 -43 20v2q-8 -10 -17.5 -17t-23.5 -11q-14 -8 -25 12q-6 12 -3 23.5t8 21.5t9 21.5t2 23.5q-18 -8 -25 -19.5t-11.5 -25.5t-6.5 -28.5t-8 -28.5q-6 -16 -24 -8q-8 2 -9 10q0 4 1 9t1 7q-14 -4 -19 -4t-15 -10 t-24.5 -18.5t-31.5 -8.5q-10 2 -16 8.5t-10 14.5q-16 -16 -40 -32.5t-50 -12.5q-16 2 -25 18q-25 -29 -51 -37q-29 -12 -33 21q-4 27 8.5 44t22.5 38q2 4 -3 5t-7 -3q-8 -20 -18.5 -44t-26 -45.5t-36 -34.5t-46.5 -11q-31 2 -36 22.5zM638 367.5q-1 -37.5 1 -74.5 q0 -16 9 -26.5t21.5 -14.5t24 1t15.5 23q2 12 2 27.5v30.5v147q0 16 -10.5 27.5t-22.5 15.5t-23.5 -2t-15.5 -22q-2 -14 -1 -29.5t1 -28.5q0 -37 -1 -74.5zM653 621q12 14 15.5 36.5t2.5 48t-4 49t-3 42.5v125q0 16 1 30.5t-12 28.5h76q-14 -12 -12 -32.5t2 -37.5v-141 q0 -16 -2 -49t10 -47q14 -23 37.5 -8.5t28.5 32.5q8 27 2.5 54.5t-9.5 54.5q-4 14 -10 37.5t-8 48.5t2 46.5t21 33.5q10 10 31.5 10t29.5 -16q6 -16 -2 -21.5t-18.5 -4.5t-17.5 8t1 16q-16 -8 -17 -29t6 -44.5t17 -46t15 -34.5q12 -37 17 -87t-22 -85q-10 -14 -33.5 -19.5 t-50 -5.5t-53 3.5t-41.5 3.5zM655 1192q12 -2 28.5 15.5t18.5 27.5q4 8 -2 12t-12 -2q-10 -10 -18.5 -24.5t-14.5 -28.5zM715 -123q0 14 9 22.5t21.5 8.5t21.5 -8.5t9 -22.5q0 -16 -9 -23.5t-21.5 -7.5t-21.5 7.5t-9 23.5zM776 1329q-2 -8 4 -20h4q0 8 1 13t-1 13 q-6 0 -8 -6zM780 209q10 14 13.5 34.5t2.5 44t-4.5 46t-3.5 39.5v172q0 10 -8 22h58q29 -12 51 -50t35 -66q0 25 2 59.5t-13 56.5h74q-12 -10 -11 -24.5t1 -28.5v-246q0 -14 -1 -31.5t11 -27.5h-207zM797 -152l59 224h64l59 -224h-51l-15 52h-53l-10 -52h-53zM844 252 q0 -14 11 -23.5t25.5 -11.5t28 3.5t15.5 19.5q-4 63 -21.5 127.5t-58.5 115.5v-231zM865 711.5q-3 19.5 7 31.5t33 13.5t27 -21.5q0 -10 -7 -15t-15.5 -5t-14.5 4t-6 14q-12 -4 -12 -14t7 -20.5t17 -19.5t17 -11q14 -4 34.5 -4t30.5 10q20 20 16 40.5t-19 38t-35.5 32 t-31.5 24.5q-18 16 -30.5 42t-12.5 52.5t13.5 48t44.5 27.5q27 6 54.5 4t51.5 -2l-6 -10q0 -14 7 -29.5t13.5 -31t5.5 -30t-16 -26.5q-14 -10 -33.5 -9t-21.5 21q0 12 7 17.5t15.5 5.5t14.5 -5t4 -14q14 2 14 12.5t-8 21.5t-18.5 20.5t-18.5 11.5q-14 4 -32.5 1t-24.5 -19 q-12 -25 -4 -43.5t24.5 -33t37 -27.5t32.5 -28q14 -20 22.5 -46.5t4.5 -52t-20.5 -44t-47.5 -22.5q-27 -2 -53.5 -1t-54.5 1q8 4 5 19t-8.5 33.5t-8.5 38zM866 -61h41q-4 23 -9 46t-11 46zM874 1219q4 -12 16.5 -10.5t14.5 14.5q2 18 -10 43q-6 -8 -14.5 -22.5t-6.5 -24.5z M991 1264l4 -15q10 -14 25 -6q16 4 23.5 21.5t3.5 33.5q-2 10 -9.5 16.5t-21.5 -3.5q-20 -14 -25 -47zM997 209q12 14 15.5 36.5t2.5 47t-4 48.5t-3 40v127q0 16 1 29.5t-12 29.5h76q-10 -10 -13 -30.5t-2 -42t3 -43t2 -35.5v-166h104q23 0 55.5 -3t55.5 13q-4 -8 -7 -29.5 t-14 -21.5h-260zM1006 70q29 4 64.5 6t62.5 -15q31 -23 22.5 -57.5t-37.5 -48.5q14 -6 21.5 -19.5t10.5 -29t5 -30.5t8 -28h-51q-6 12 -8 27.5t-6 29t-12.5 23t-26.5 6.5v-86h-53v222zM1057 8.5q2 -24.5 2 -35.5h12q18 0 26.5 10.5t6.5 22.5t-11.5 21.5t-27.5 7.5 q-10 -2 -8 -26.5zM1065 621q10 12 11 25t1 28v248q0 14 -1 30.5t-11 28.5h127q25 -25 25.5 -59.5t-9.5 -67.5q-4 -8 -15 -29.5t-20.5 -45t-11.5 -45t10 -27.5q-6 12 4.5 13t21.5 -4t14 -14.5t-17 -17.5q-25 -10 -35 9.5t-8 35.5q0 16 6 32.5t8 31t-4 22.5t-28 6v-155 q16 0 41.5 -3.5t44.5 11.5q-6 -14 -8.5 -26.5t-6.5 -26.5h-139zM1098 567h78q-12 -29 2 -65.5t26 -61.5q12 29 22.5 63t0.5 64h80q-23 -12 -27 -38.5t-10 -47.5q-6 -20 -23.5 -47.5t-17.5 -48.5q0 -23 -3 -56.5t13 -52.5h-76q18 18 14.5 54t-3.5 59q-12 23 -21.5 46.5 t-17.5 45.5q-10 23 -14.5 46.5t-22.5 39.5zM1133 866q20 0 45.5 2t27.5 33q0 16 -7 23.5t-18.5 10.5t-24.5 3h-23v-72zM1192 72h53v-224h-53v224zM1245 1296q-4 -10 1 -27.5t22 -2.5q12 12 21 32.5t11 38.5q-2 8 -4 13.5t-12 1.5q-16 -8 -25.5 -23.5t-13.5 -32.5zM1274 -123 q0 14 9 22.5t21.5 8.5t21.5 -8.5t9 -22.5q0 -16 -9 -23.5t-21.5 -7.5t-21.5 7.5t-9 23.5zM1294 1018q-8 -6 4 -8q27 -10 57.5 -13.5t62.5 -3.5h62.5t59.5 -2t57.5 -5t57.5 -13q29 -8 51.5 -23.5t48.5 -27.5q0 61 -21.5 106t-80.5 68q35 31 69.5 58.5t75.5 43.5 q-49 47 -110.5 77t-126.5 46q-2 -57 -3.5 -112.5t-5.5 -112.5l-2 2v-6q-27 -2 -64.5 -4.5t-74.5 -9.5t-68.5 -21.5t-48.5 -38.5zM1364 72h57l68 -152q-4 39 -4 77v75h47v-224h-51q-20 39 -37 79t-35 77q2 -39 2 -78v-78h-47v224zM1393 1362q16 20 31.5 39.5t19.5 46.5h-2 q-37 -37 -49 -86zM1562.5 -63.5q-8.5 36.5 14.5 79.5q12 29 40 43.5t62 14.5h10.5t17.5 -2t16.5 -4t7.5 -5l-9 -40q-27 12 -48 8t-36.5 -18.5t-20.5 -37t3 -47.5q16 -47 61 -41q10 2 8.5 21.5t-1.5 28.5h-27v40h76v-120q-41 -16 -79 -9t-62.5 29.5t-33 59z" />
<glyph unicode=":" horiz-adv-x="716" d="M205 203q0 86 53 144.5t162 58.5q111 0 163 -58.5t52 -144.5q0 -84 -52.5 -143.5t-160.5 -59.5q-109 0 -163 59.5t-54 143.5zM205 823q0 86 53 144.5t162 58.5q111 0 163 -58.5t52 -144.5q0 -84 -52.5 -143t-162.5 -59q-109 0 -162 59t-53 143z" />
<glyph unicode=";" horiz-adv-x="724" d="M207 194q-2 42 4 70q16 86 92 118.5t166 16.5t137 -73.5t31 -143.5q-6 -29 -19.5 -68.5t-35 -83.5t-50 -90t-61.5 -87q-27 -31 -57.5 -40.5t-59 -2t-52 31t-34.5 56.5q-16 49 -29.5 102t-21.5 102.5t-10 91.5zM207 823q0 86 53 144.5t162 58.5q111 0 163 -58.5t52 -144.5 q0 -84 -52.5 -143t-162.5 -59q-109 0 -162 59t-53 143z" />
<glyph unicode="&#x3c;" horiz-adv-x="571" d="M0 543q0 51 31.5 104t78 100.5t97.5 87t88 66.5q49 35 91 17.5t67.5 -60.5t34 -97t-10.5 -93q-16 -37 -66.5 -57.5t-105.5 -37t-100 -33.5t-51 -48q18 12 58 14t85 -5t86 -22.5t63 -38.5q20 -20 28.5 -54t8.5 -69.5t-9 -69.5t-25.5 -57.5t-38 -30.5t-48.5 11 q-66 45 -131 93t-116.5 97.5t-83 95.5t-31.5 87z" />
<glyph unicode="=" horiz-adv-x="780" d="M0 705q0 31 7 58.5t41 49t103.5 33.5t194.5 12t194.5 -12t102.5 -33.5t40 -49t7 -58.5t-7 -60t-40 -50.5t-102.5 -33.5t-194.5 -12t-194.5 12t-103.5 33.5t-41 50.5t-7 60zM8 358q0 31 7.5 58.5t41 49t103 34t194.5 12.5t194.5 -12.5t102.5 -34t40 -49t7 -58.5t-7 -59.5 t-40 -50t-102.5 -33.5t-194.5 -12t-194.5 12t-103 33.5t-41 50.5t-7.5 59z" />
<glyph unicode="&#x3e;" horiz-adv-x="571" d="M2 761q8 54 33.5 97t67.5 60.5t92 -17.5q37 -27 88 -66.5t97 -87t77.5 -100.5t31.5 -104q0 -41 -31.5 -87t-82.5 -95.5t-116.5 -97.5t-131.5 -93q-27 -18 -48.5 -11t-37.5 30.5t-25.5 57.5t-9.5 69.5t8.5 69.5t28.5 54q20 23 62 38.5t87.5 22.5t85.5 5t58 -14 q-6 31 -51 48t-100.5 33.5t-105.5 37t-67 57.5q-18 39 -10 93z" />
<glyph unicode="?" horiz-adv-x="1218" d="M20 1004q0 100 34 181t95.5 137t146.5 87t189 31q92 0 176 -31t148.5 -85t103.5 -130t39 -166q0 -76 -26.5 -131t-67.5 -96t-89 -70t-92 -52.5t-77 -45t-41 -43.5q-16 -41 -48 -60.5t-65.5 -14.5t-62.5 34t-39 86q-6 45 5 73.5t32.5 50t48.5 39t51 42.5q51 51 70.5 99 t16.5 85t-25.5 58.5t-53.5 21.5q-57 0 -77.5 -49t4.5 -135q10 -39 -14.5 -72t-68.5 -51.5t-98.5 -19.5t-101.5 21.5t-80 72t-33 133.5zM229 203q0 86 53.5 144.5t163.5 58.5q109 0 162.5 -58.5t53.5 -144.5q0 -84 -52.5 -143.5t-160.5 -59.5q-111 0 -165.5 59.5t-54.5 143.5 z" />
<glyph unicode="@" horiz-adv-x="1988" d="M0 551q0 199 59.5 375t178 306t297 205.5t417.5 75.5q240 0 419 -64.5t298 -181t178.5 -277.5t59.5 -353q0 -307 -136.5 -472t-422.5 -165q-102 0 -169 30.5t-104 82.5q-45 -72 -112.5 -117t-163.5 -45q-109 0 -181.5 47t-115.5 128t-60.5 190.5t-17.5 234.5 q0 123 17.5 232.5t60.5 190.5t114.5 128t180.5 47q78 0 140 -50t103 -126q23 57 66 92t108 35q59 0 102.5 -22.5t72 -59.5t43 -86t14.5 -103v-254q0 -121 1 -184t6 -92t17.5 -33t34.5 -4q31 0 47.5 22.5t23.5 60.5t8 91t1 115q0 156 -31.5 289t-105.5 229t-196 151.5 t-300 55.5q-172 0 -292.5 -55.5t-196.5 -151.5t-110 -229t-34 -289q0 -158 39 -288t114 -224t183.5 -148.5t247.5 -60.5q37 -2 80 3t85 13.5t81 18.5t68 22q74 29 128 4.5t76.5 -69.5t4 -96.5t-90.5 -77.5q-84 -29 -178 -45.5t-205 -16.5q-240 0 -418 76t-296.5 206 t-178 306t-59.5 377zM852 551q0 -78 5 -130t14.5 -84t25 -45t35.5 -13q29 0 45 27.5t24.5 88t10.5 153.5t2 222q-16 18 -34.5 34.5t-47.5 16.5q-20 0 -35.5 -13t-25 -44t-14.5 -83t-5 -130z" />
<glyph unicode="A" horiz-adv-x="1370" d="M-41 101.5q0 35.5 16 88.5q25 66 56.5 155t67.5 189.5t73 207t73 206t66.5 188.5t55.5 154q16 47 38.5 76t54.5 45t75 21.5t98 5.5q129 -4 210 -63.5t124 -198.5q70 -223 115.5 -393.5t79.5 -285t59.5 -175t56.5 -62.5q25 0 43 16.5t28.5 57.5t15.5 109.5t5 170.5 q0 61 22.5 86t48 22t48 -31.5t22.5 -76.5q0 -301 -73.5 -448.5t-257.5 -165.5q-24 -2 -45 -2q-51 0 -93 12q-60 18 -105.5 57t-79.5 97.5t-62 130.5l-246 -35q-33 -4 -60.5 5t-42.5 34q-12 -27 -25 -51.5t-28 -46.5q-41 -66 -83 -105t-82 -60.5t-77.5 -28.5t-74.5 -7 q-35 0 -61.5 10t-41 33t-14.5 58.5zM537 582h65q90 0 133 -56q-23 78 -47 161t-47 159t-43.5 140.5t-34.5 107.5q10 -78 10 -166q0 -38 -2 -78q-6 -133 -34 -268z" />
<glyph unicode="B" horiz-adv-x="1097" d="M0 190v1100q0 47 12.5 77t35 45t55 20.5t75.5 5.5h228q172 0 284.5 -27t177 -75t90 -113.5t25.5 -143.5q0 -127 -71.5 -215.5t-200.5 -111.5q88 -29 146 -66t93 -82t50.5 -96t15.5 -107q0 -84 -25.5 -156.5t-88 -127t-168 -86t-267.5 -31.5h-289q-76 0 -127 42t-51 148z M410 469q0 -45 1 -73.5t5 -45t14.5 -22.5t28.5 -6q74 0 110.5 32.5t36.5 108.5q0 78 -37 109.5t-110 31.5q-18 0 -28.5 -4t-14.5 -18.5t-5 -41t-1 -71.5zM410 969q0 -45 1 -73t5 -44t14.5 -22.5t28.5 -6.5q74 0 110.5 30t36.5 108q0 82 -37 111.5t-110 29.5q-18 0 -28.5 -4 t-14.5 -18.5t-5 -40t-1 -70.5z" />
<glyph unicode="C" horiz-adv-x="1077" d="M-2 715q0 190 34 327.5t99.5 225.5t159.5 129t215 41q139 0 233.5 -52.5t150.5 -135.5t80.5 -186t24.5 -204q0 -78 -28.5 -131t-72.5 -84t-95 -40q-24 -4 -47 -4q-24 0 -48 5q-44 10 -73 40t-29 75v153.5t-7 146t-24.5 110t-50.5 43.5q-25 0 -42 -38t-28.5 -101.5 t-17.5 -146.5t-6 -173q0 -147 21.5 -248.5t63.5 -166t102.5 -93.5t140.5 -29q63 0 122.5 27.5t103.5 82t70.5 136.5t26.5 190q0 61 22.5 86t48.5 22t48.5 -31.5t22.5 -76.5q0 -147 -43 -269t-125 -210t-203 -136t-277 -48q-287 0 -430 188.5t-143 575.5z" />
<glyph unicode="D" horiz-adv-x="1124" d="M0 190v1100q0 47 11.5 77t34 45t55 20.5t75.5 5.5h277q172 0 285.5 -45t181 -134.5t95 -224.5t27.5 -315t-22.5 -315.5t-81.5 -224.5t-161.5 -134t-264.5 -45h-336q-74 0 -125 42t-51 148zM410 469q0 -45 1 -73.5t5 -45t13.5 -22.5t27.5 -6q47 0 77.5 28.5t48 80.5 t24.5 125t7 163q0 178 -31.5 280.5t-125.5 102.5q-18 0 -27.5 -4t-13.5 -18.5t-5 -40t-1 -70.5v-500z" />
<glyph unicode="E" horiz-adv-x="1077" d="M12 360v12q0 60 18 112q20 58 54.5 101.5t83.5 72t108 36.5q-61 0 -111 30t-84 80q-35 50 -49 114q-9 40 -8 82q0 26 3 53q12 100 55 172.5t107.5 120t145.5 70t171 22.5q125 0 214 -27t145.5 -74t82 -110.5t25.5 -134.5q0 -78 -29 -131.5t-72 -84t-92 -40.5 q-23 -5 -45 -4q-24 0 -47 6q-43 10 -71.5 39.5t-28.5 74.5q0 74 -2 118t-9.5 66.5t-20.5 30t-36 7.5q-12 0 -25.5 -29t-22.5 -71t-12 -92q-1 -11 0 -21q0 -38 8 -72q11 -43 39 -73t77 -32q39 -2 61.5 -29.5t25.5 -61.5v-10q1 -29 -13 -55q-16 -30 -58 -38q-90 -18 -130 -85 q-30 -50 -30 -103q0 -18 4 -36q14 -72 81 -130t190 -58q63 0 128.5 27.5t117 82t84 136.5t32.5 190q0 61 22.5 86t48.5 22t48.5 -31.5t22.5 -76.5q0 -147 -43 -269t-125 -210t-203 -136t-277 -48q-106 0 -205.5 24.5t-177 74.5t-126 127t-50.5 183z" />
<glyph unicode="F" horiz-adv-x="956" d="M2 233v992q0 47 1 87t11.5 67.5t33 43t65.5 15.5h716q72 0 98.5 -38t26.5 -132q0 -78 -23.5 -122t-82.5 -56q-37 -6 -84 -6q-28 0 -60 2q-86 6 -165 18q-95 14 -193 37q10 -55 21 -123q10 -57 18 -133t18 -164q8 -1 17 -1q36 0 78 20q52 24 104 54t100 52q29 13 54 14 q16 0 30 -6q46 -18 64 -78q11 -37 11 -79q0 -26 -4 -53q-11 -71 -50 -137.5t-107 -96.5q-49 -22 -101 -22q-21 0 -41 3q-74 12 -136 53q3 -58 3 -112v-27q-1 -67 -5 -133q-2 -31 -12.5 -61.5t-28 -55t-44 -40t-59.5 -15.5h-157q-37 0 -60.5 12.5t-36 40t-16.5 71.5t-4 109z " />
<glyph unicode="G" horiz-adv-x="1105" d="M0 696q0 203 33 344.5t98.5 229.5t164.5 128t232 40q111 0 198 -31t147.5 -83t92 -123t31.5 -150q0 -88 -29.5 -146.5t-72.5 -93.5t-95 -45q-26 -5 -50 -5t-45 5q-43 10 -73 37.5t-30 70.5q0 229 -74 230q-49 0 -73.5 -111.5t-24.5 -296.5q0 -186 24.5 -297.5 t73.5 -111.5q20 0 39 22.5t29 61.5q8 30 8 68q0 11 -1 23q-3 52 -28 109q-15 34 -15 57q0 32 28 44q47 22 174 24q139 0 185 -63q32 -44 32 -113q0 -30 -6 -65q-9 -52 -9 -86v-7q1 -36 9 -55.5t21.5 -27t27.5 -7.5q39 0 61.5 94.5t22.5 247.5q0 61 22.5 86t48 22t48 -31.5 t22.5 -76.5q0 -111 -11 -222t-49 -200.5t-109.5 -144.5t-190.5 -55q-78 0 -151.5 33.5t-110.5 105.5q-33 -80 -99.5 -130t-175.5 -50q-70 0 -133 40t-111.5 129t-77 231.5t-28.5 344.5z" />
<glyph unicode="H" horiz-adv-x="1232" d="M0 190v1096q0 47 10 77t31.5 46t52.5 22.5t72 6.5q139 0 201.5 -63.5t62.5 -178.5v-336h113q74 0 121 -33v459q0 23 3 49.5t18 49t50 38t99 15.5q125 0 193.5 -69t68.5 -202v-669v-106.5t4 -70t14 -39t33 -12.5q25 0 42 14.5t26.5 53.5t13.5 106.5t4 169.5q0 61 22.5 86 t48 22t48 -31.5t22.5 -76.5q0 -152 -18.5 -265t-63.5 -190t-117.5 -117t-181.5 -42q-61 0 -107 10t-79 28.5t-56.5 44.5t-39.5 56q-35 59 -41 132t-6 141v123h-138q-29 0 -54.5 3t-41.5 17v-147q0 -96 -6 -175t-41 -131q-35 -55 -90 -78.5t-127 -23.5q-70 0 -118 42t-48 148 z" />
<glyph unicode="I" horiz-adv-x="569" d="M0 412v874q0 23 3 49.5t18.5 49t50 38t98.5 15.5q125 0 193.5 -69t68.5 -202v-669v-106.5t4 -70t14 -39t33 -12.5q25 0 42.5 14.5t26.5 53.5t13 106.5t4 169.5q0 61 22.5 86t48.5 22t48.5 -31.5t22.5 -76.5q0 -152 -18.5 -265t-63.5 -190t-118 -117t-181 -42 q-61 0 -107.5 10t-79 28.5t-56.5 44.5t-40 56q-35 59 -41 132t-6 141z" />
<glyph unicode="J" horiz-adv-x="1110" d="M0 371q0 86 31.5 145t80 91t102.5 40q20 3 38 3q32 0 60 -9q44 -14 70 -49q18 -25 18 -58q0 -14 -3 -30q-7 -40 -7 -73q0 -48 14 -83q26 -61 65 -61q51 0 75.5 87t24.5 273v643q0 47 10.5 77t32 45t52 20.5t71.5 5.5h8q131 0 193 -60q63 -63 63 -178v-553 q0 -203 -32.5 -337t-99 -214t-166 -112.5t-232.5 -32.5q-104 0 -190 23.5t-148.5 73.5t-96.5 130t-34 193z" />
<glyph unicode="K" horiz-adv-x="1183" d="M0 197v1087q0 98 43 126t125 28h8q130 0 192 -64q64 -66 64 -186v-367q45 14 74 67.5t47 119t28.5 129t16.5 100.5q10 55 28.5 94t56.5 61.5t103.5 33t167.5 10.5q70 0 106 -12t44 -38q3 -10 3 -23q1 -19 -7 -44q-12 -41 -37 -98q-41 -94 -80 -158t-85 -110t-105.5 -81.5 t-145.5 -72.5q61 11 110 11q21 0 41 -2q62 -7 97 -48q25 -29 39 -77t24.5 -102.5t18.5 -109.5t18.5 -100t26.5 -73t45 -28q25 0 46.5 15.5t36.5 55.5t24.5 105.5t9.5 167.5q0 61 22.5 86t48 22t48 -31.5t22.5 -76.5q0 -311 -92 -462.5t-303 -151.5q-137 0 -224.5 86 t-87.5 240q0 141 -6 214.5t-47 104.5q-20 14 -59 12t-74 -10v-225q0 -102 -6 -183t-41 -135q-37 -57 -91 -80.5t-128 -23.5q-70 0 -118 44t-48 153z" />
<glyph unicode="L" horiz-adv-x="995" d="M0 233v1057q0 47 11.5 77t33 46.5t52 22.5t71.5 6q137 0 199.5 -63.5t62.5 -178.5q0 -172 -10 -328.5t-22.5 -280.5t-25 -206t-14.5 -102q80 88 144 127t116 46q17 2 33 2q32 0 59 -10q40 -14 73.5 -31.5t60 -27.5t53.5 6q43 27 70.5 77t27.5 142q0 61 22.5 86t48.5 22 t48.5 -31.5t22.5 -76.5q0 -92 -19.5 -195.5t-54.5 -192.5t-84 -152.5t-109 -73.5q-25 -4 -47 -4q-48 0 -85 20q-54 30 -97 70.5t-83 73.5q-33 27 -71 27q-8 0 -16 -1q-31 -4 -59.5 -33.5t-60.5 -63.5t-69.5 -61.5t-88.5 -27.5h-78q-43 0 -66.5 12.5t-34 40t-12.5 71.5 t-2 109z" />
<glyph unicode="M" horiz-adv-x="1550" d="M1 437q1 147 1 303t1 304v93q0 87 -1 153q0 47 9 76t28.5 45t50.5 21.5t72 5.5q74 0 133 -13.5t109.5 -44t94.5 -81t85 -123.5q20 -39 46.5 -84t50.5 -102.5t41 -131.5t21 -170q4 96 21.5 169t40 130t49.5 102.5t49 86.5q39 74 73 123t69.5 79.5t80.5 44t111 15.5h39 q41 0 70.5 -5.5t49 -21.5t29 -45t9.5 -76q-2 -82 -2 -195.5v-239.5t1 -253t1 -235q2 -53 12 -75t39 -22q18 0 30.5 15.5t19.5 54.5t11 105.5t4 168.5q0 61 22.5 86t48.5 22t48.5 -31.5t22.5 -76.5q0 -152 -15.5 -267.5t-56.5 -192t-110.5 -115.5t-178.5 -39q-59 0 -109.5 6 t-90 27.5t-68.5 60.5t-41 107q-12 62 -12 129q0 36 4 76q10 110 32.5 219.5t49 213t41.5 187.5q-61 -113 -127 -313.5t-107 -483.5q-10 -66 -31.5 -104.5t-51 -60t-63.5 -28.5t-65 -7t-62.5 7t-59 28.5t-49 59.5t-29.5 97q-27 166 -55.5 292t-59.5 221t-62.5 165t-62.5 127 q14 -84 42 -187.5t50.5 -213t32.5 -219.5q4 -39 4 -76q0 -67 -12 -129q-12 -68 -39 -107t-60.5 -60.5t-71.5 -27.5t-73 -6q-72 0 -96.5 42t-26.5 148q-1 67 -1 154v93z" />
<glyph unicode="N" horiz-adv-x="1234" d="M0 437q0 147 1 303.5t1 304v245.5q0 47 9 76t28.5 45t49.5 21.5t71 5.5h39q66 -2 116 -15.5t92 -43t78.5 -79t75.5 -124.5q76 -150 126 -275t84 -224t54.5 -176t36.5 -130q-20 164 -52 287.5t-58 223.5q-26 101 -38 185q-4 28 -4 56q0 56 15 112q18 68 45 107.5t60.5 61 t69.5 28t73 6.5q70 0 123 -42t55 -149q1 -67 2 -154q0 -45 -1 -93q-1 -146 -1 -302q0 -158 -1 -304v-92q0 -87 1 -152q0 -47 -5 -77t-20.5 -46.5t-42 -21.5t-65.5 -5q-76 0 -127 3t-94 18.5t-86 49t-101 97.5q-16 16 -36.5 67.5t-46 126t-54.5 163.5t-60.5 178.5 t-65.5 173.5t-66 147q16 -84 45.5 -187.5t54.5 -213t38 -219.5q5 -46 5 -89q0 -60 -10 -114q-12 -68 -39 -107t-60.5 -60.5t-71.5 -27.5t-73 -6q-72 0 -120 42t-48 148q-2 100 -2 247z" />
<glyph unicode="O" horiz-adv-x="1122" d="M0 696q0 213 36 355.5t103.5 228.5t162.5 122t216 36t218.5 -36t165 -122t103 -228.5t35.5 -355.5t-35.5 -356t-103 -229t-165 -123t-218.5 -37t-216 37t-162.5 123t-103.5 229t-36 356zM430 696q0 -135 5 -216t16.5 -124t27.5 -56t39 -13q25 0 41 13t27.5 56t16.5 124 t5 216t-5 215t-16.5 122t-27.5 55.5t-41 13.5q-23 0 -39 -13.5t-27.5 -55.5t-16.5 -122t-5 -215z" />
<glyph unicode="P" horiz-adv-x="1064" d="M0 190v973q0 150 60.5 212.5t164.5 62.5h178q164 0 277 -34t181.5 -96.5t96.5 -153.5q23 -75 22 -167q0 -20 -1 -41q-6 -131 -58.5 -226t-132.5 -152q-80 -58 -180 -74q-38 -6 -76 -7q-61 0 -122 17v-334q0 -33 -3.5 -63.5t-16.5 -54t-38.5 -38t-68.5 -14.5h-107 q-74 0 -125 42t-51 148zM410 696q41 0 76.5 20.5t61 53.5t40 73t14.5 81q0 68 -26.5 123t-86.5 55q-20 0 -34.5 -3t-24.5 -15.5t-15 -37t-5 -67.5v-283z" />
<glyph unicode="Q" horiz-adv-x="1155" d="M0 696q0 213 36 355.5t103.5 228.5t162.5 122t216 36t218.5 -36t165 -122t103 -228.5t35.5 -355.5q0 -143 -35.5 -221t-82.5 -115q9 1 17 1q54 0 89 -35q41 -39 41 -146v-61q0 -63 8 -95t56 -32q53 0 71 -41q9 -19 9 -41q0 -24 -11 -50q-20 -50 -77.5 -91t-153.5 -41 q-113 0 -181.5 38.5t-103.5 98.5q-23 41 -32 86t-11 104q-31 -47 -85 -74.5t-126 -27.5q-86 0 -164 36t-137 122t-95 229t-36 356zM430 696q0 -135 5 -216t16.5 -123t27.5 -55t39 -13t40 13t28.5 55t16.5 123t5 216t-5 215t-16.5 122t-28.5 55.5t-40 13.5t-39 -13.5 t-27.5 -55.5t-16.5 -122t-5 -215z" />
<glyph unicode="R" horiz-adv-x="1169" d="M0 197v1095q0 47 11.5 76t35 44t56 20.5t75.5 5.5h228q172 0 284.5 -29t179 -79t93 -118.5t28.5 -146.5v-14q0 -55 -14 -107q-16 -60 -51 -110t-88.5 -85.5t-124.5 -52.5l-66 -20q44 5 81 5q45 0 82 -7q67 -12 101 -53q29 -35 41.5 -94.5t23.5 -116t29.5 -98.5t59.5 -42 q25 0 44 15.5t32.5 55.5t20.5 105.5t7 167.5q0 61 22.5 86t48.5 22t48.5 -31.5t22.5 -76.5q0 -311 -86 -462.5t-297 -151.5q-137 0 -224.5 86t-87.5 240q0 70 -1 112.5t-6 70.5t-15 43t-31 32q-18 13 -50 13q-9 0 -17 -1q-44 -4 -82 -12v-164q0 -98 -6.5 -180t-40.5 -136 q-37 -55 -82 -79.5t-117 -24.5t-120 44t-48 153zM414 803q2 -31 11 -41t34 -10q72 0 108.5 47t36.5 127q0 96 -36.5 136t-108.5 40q-25 0 -34 -7.5t-11 -35.5v-256z" />
<glyph unicode="S" horiz-adv-x="1079" d="M0 1012q0 102 40 182t107.5 134t157.5 82t193 28q100 0 189 -21.5t153.5 -65.5t102.5 -113t38 -161q0 -90 -31 -139q-30 -48 -76 -66q-31 -12 -66 -13q-16 0 -33 3q-54 8 -101 32t-80 58.5t-35 69.5q-4 31 -18.5 55.5t-46.5 24.5q-30 0 -52 -28q-15 -18 -14 -43 q0 -14 4 -30q12 -51 59.5 -89t111 -71.5t133 -70.5t128 -88t96 -122t37.5 -171q0 -123 -38.5 -206t-107.5 -134t-162 -73.5t-200 -22.5q-236 0 -360.5 91t-124.5 245q0 86 33 140t82 84t107 34q13 1 25 1q42 0 78 -10q45 -14 73 -46q21 -24 22 -55q0 -9 -2 -19q-4 -18 1 -41 t14 -42.5t22.5 -32.5t29.5 -13h4q29 1 51 27q19 24 20 58q0 6 -1 13q-6 70 -51 116t-107.5 80.5t-133 68.5t-131 80t-100.5 111.5t-40 168.5z" />
<glyph unicode="T" horiz-adv-x="1122" d="M0 1268q0 94 24.5 132t98.5 38h940q74 0 99.5 -38t25.5 -132q0 -76 -23.5 -121t-83.5 -55q-44 -8 -94 -8q-21 0 -43 1q-74 5 -133 15v-793q0 -47 3 -75.5t8 -48t8.5 -35t3.5 -33.5q0 -47 -41 -81t-144 -34q-74 0 -130 23.5t-93 78.5q-35 51 -41 130t-6 178v690 q-61 -10 -135 -16q-22 -2 -44 -2q-50 0 -96 10q-59 10 -81.5 55t-22.5 121z" />
<glyph unicode="U" horiz-adv-x="1257" d="M0 1294q0 57 54.5 100.5t164.5 43.5q135 0 196.5 -61.5t61.5 -209.5v-616q0 -156 20.5 -213t61.5 -57q59 0 92 63q25 41 31 125t6 188v629q0 23 3 49.5t18.5 49t50.5 38t98 15.5q125 0 193.5 -69t68.5 -202v-669v-106.5t4 -70t14 -39t33 -12.5q25 0 42.5 14.5t26.5 53.5 t13 106.5t4 169.5q0 61 23 86t48.5 22t48 -31.5t22.5 -76.5q0 -152 -18.5 -265t-63.5 -190t-118 -117t-181 -42q-61 0 -107.5 10t-79 28.5t-56 44.5t-40.5 56q-27 41 -35 90q-16 -55 -45.5 -104t-68.5 -88t-86 -61.5t-99 -22.5q-109 0 -177 31.5t-106 94t-51.5 157 t-13.5 219.5v694q0 27 -8 43t-18.5 30.5t-18.5 30t-8 41.5z" />
<glyph unicode="V" horiz-adv-x="1198" d="M-51 1292q0 27 19.5 53.5t54 47t81 33t101.5 12.5q135 0 195.5 -63.5t60.5 -211.5v-610q0 -78 2 -141.5t10 -108.5t24.5 -68.5t45.5 -23.5q33 0 50 69.5t23 177.5q3 59 3 125q-1 54 -3 112q-4 130 -15 250t-26.5 214t-31.5 133q-10 23 -10 43q0 16 6 30q14 32 50 51.5 t88 20.5h5q50 -1 104 -21q56 -22 111 -69t100 -127.5t73 -195.5t28 -272q0 -145 -45 -287.5t-124 -256.5t-187.5 -184.5t-235.5 -70.5q-109 0 -202 62.5t-161.5 203.5t-107.5 369.5t-39 560.5q0 27 -7 42t-16.5 29.5t-16.5 30t-7 41.5z" />
<glyph unicode="W" horiz-adv-x="1640" d="M-14 1292q0 55 62.5 100.5t172.5 45.5q135 0 195.5 -63.5t60.5 -211.5v-610q0 -78 2 -141.5t10.5 -108.5t24.5 -68.5t45 -23.5q33 0 47.5 69.5t15.5 177.5v18q0 100 -10 219q-10 130 -25.5 250t-33.5 214t-35 133q-11 25 -11 46q0 24 14 45q26 37 78 51q23 6 48 6 q33 0 71 -10q68 -18 128.5 -72.5t102.5 -153t42 -250.5q0 -70 -6 -145q-1 -61 -1 -129v-68q1 -106 8 -195t20.5 -147.5t36.5 -58.5q33 0 48 69.5t16 177.5v24q0 98 -7 213q-8 130 -23.5 250t-33 214t-33.5 133q-10 23 -10 42q0 27 18 48q30 36 90 48q21 4 44 5q42 -1 92 -15 q76 -22 145 -83t115 -168.5t46 -271.5q0 -176 -31.5 -345t-96 -302t-161 -215t-223.5 -82q-74 0 -126 60.5t-82 158.5q-49 -98 -119 -158.5t-162 -60.5q-109 0 -204 59.5t-165.5 198.5t-111.5 368.5t-41 569.5q0 27 -7.5 42t-16.5 29.5t-16 30t-7 41.5z" />
<glyph unicode="X" horiz-adv-x="1060" d="M-32 60q-2 9 -2 21q0 27 12 63q16 52 53 122q20 39 45.5 90.5t54.5 108.5t60.5 119.5t62.5 124.5q-53 98 -113.5 201.5t-107.5 209.5q-41 96 -53 158q-7 32 -7 57q-1 23 5 40q12 36 42.5 49.5t75.5 13.5q53 0 90 -9.5t68 -33t58.5 -63.5t62.5 -101q29 -53 36 -147 q1 -17 1 -36q0 -79 -25 -169l4 8q23 47 36 89t20.5 75.5t11.5 57.5t8 34q45 104 75.5 163.5t68.5 89t93.5 36t151.5 6.5q66 0 98.5 -15.5t38.5 -52.5q1 -9 1 -19q0 -33 -14 -79q-19 -62 -58 -152q-96 -217 -203 -424q31 -78 50 -154.5t37.5 -136t42 -96.5t64.5 -37 q25 0 50.5 14.5t47 53.5t36 105.5t14.5 168.5q0 61 22.5 86t48 22t48 -31.5t22.5 -76.5q0 -311 -96 -462.5t-281 -151.5q-55 0 -109 18.5t-96 66.5t-65 132q-15 54 -15 127q0 42 5 90q-25 -68 -45.5 -128t-48.5 -109q-35 -61 -58.5 -100.5t-56.5 -61t-82 -28.5t-133 -7 q-72 0 -109 14t-44 46z" />
<glyph unicode="Y" horiz-adv-x="966" d="M-33 1368q4 39 28.5 54.5t70.5 15.5q53 0 85.5 -6.5t59.5 -32t54.5 -79.5t72.5 -151q35 -76 43 -153q2 -21 2 -43q0 -61 -16 -133q41 100 49 172.5t18 97.5q45 117 76 182.5t68.5 98t94 40t152.5 7.5q66 0 98.5 -17.5t38.5 -58.5q2 -10 2 -22q0 -36 -14 -87 q-20 -68 -61 -168q-35 -86 -71 -150.5t-65.5 -117.5t-49 -101t-19.5 -102v-204q0 -98 -6 -177t-41 -131q-37 -55 -92.5 -78.5t-126.5 -23.5q-109 0 -152 34t-43 81q0 18 4 33.5t9.5 35t9.5 48t4 75.5v316q-29 45 -57.5 103t-55 119.5t-51.5 123t-45 116.5q-41 106 -59 175 q-16 57 -16 93q0 8 1 15z" />
<glyph unicode="Z" horiz-adv-x="1058" d="M23 1126.5q0 55.5 14 111.5t44 105.5t75 71.5q46 24 83 24q8 0 15 -1q43 -6 82 -26.5t80 -46.5t94 -37q24 -5 52 -5q32 0 70 7q70 13 169 71q74 43 126 44h3q50 0 70 -37q12 -22 11 -55q-1 -25 -7 -57q-16 -74 -76 -180q-39 -68 -90.5 -143.5t-104.5 -153.5 t-106.5 -152.5t-96.5 -140t-71.5 -116.5t-34.5 -80q72 66 133 90q59 23 108 23h5q52 -1 93.5 -16t76 -32.5t64.5 -26t57 8.5q43 27 70.5 86t27.5 151q0 61 22.5 86t48 22t48 -31.5t22.5 -76.5q0 -92 -19.5 -195.5t-54 -192.5t-84 -152.5t-108.5 -73.5q-26 -5 -50 -5 q-46 1 -82 19q-54 28 -97 65.5t-82 72t-88 34.5q-59 0 -101.5 -28.5t-79.5 -64.5t-75.5 -64.5t-90.5 -28.5q-84 0 -116 43q-31 41 -31 104v7q2 68 28.5 152.5t63.5 164.5q29 66 72 135.5t90 139t94 134t85 119t60.5 93t22.5 59.5q-53 -31 -99 -40t-90 -15t-92.5 -20.5 t-103.5 -57.5q-40 -30 -70 -30q-6 0 -12 1q-33 8 -50 45t-17 92.5z" />
<glyph unicode="[" horiz-adv-x="667" d="M0 596q0 231 9 371.5t46 219.5t107.5 112.5t193.5 56.5q100 18 156.5 -7.5t69 -68.5t-18.5 -93t-104 -81q-25 -10 -35 -58.5t-13 -119t-2 -156.5t1 -172q0 -102 -3.5 -204.5t-1 -183.5t12.5 -134t39 -58q63 -10 89.5 -49t19.5 -81t-47.5 -74.5t-110.5 -32.5 q-147 0 -229.5 27.5t-122.5 113.5t-48 246t-8 426z" />
<glyph unicode="\" horiz-adv-x="985" d="M4 1282.5q-8 60.5 7.5 94.5t49 46.5t74.5 12.5q39 0 79 -5.5t83 -34t89 -89t99 -170.5q10 -20 39 -86t69 -154t83 -186.5t81 -185.5t65.5 -151.5t35.5 -80.5q41 -92 43 -149.5t-19.5 -89t-62.5 -43t-86 -11.5q-39 0 -78 10t-76.5 37t-74.5 74t-70 119q-6 12 -33.5 76.5 t-66.5 155.5t-84 196.5t-86 200t-71 165t-40 92.5q-41 96 -49 156.5z" />
<glyph unicode="]" horiz-adv-x="667" d="M6 1280q12 43 67.5 68.5t155.5 7.5q123 -23 194 -56.5t107.5 -112.5t46 -219.5t9.5 -371.5q0 -266 -8.5 -426t-48.5 -246t-122 -113.5t-229 -27.5q-70 0 -109.5 32.5t-48 74.5t18.5 81t90 49q27 4 38 57.5t13 134.5t-1 183.5t-3 204.5q0 86 1 172t-2 156.5t-13 119 t-35 58.5q-72 31 -102.5 81t-18.5 93z" />
<glyph unicode="^" horiz-adv-x="847" d="M12 1059q92 195 192.5 287t182.5 92q51 0 103.5 -23.5t99.5 -61.5t87 -89.5t66 -106.5q35 -74 17.5 -134t-60.5 -99t-97 -50.5t-93 15.5q-37 25 -57.5 76t-36 103t-32.5 94t-48 52q10 -27 12 -61.5t-5 -72.5t-22.5 -75.5t-37.5 -70.5q-31 -43 -87.5 -51.5t-105.5 12 t-75.5 63.5t-2.5 101z" />
<glyph unicode="_" horiz-adv-x="772" d="M0 -53q0 37 7 70.5t41 59t103.5 41t194.5 15.5t194.5 -15.5t102.5 -41t40 -59t7 -70.5t-7 -71t-40 -59.5t-102.5 -41t-194.5 -15.5t-194.5 15.5t-103.5 41t-41 59.5t-7 71z" />
<glyph unicode="`" horiz-adv-x="692" d="M8 1434q20 66 74.5 101.5t136.5 8.5q29 -8 75 -27.5t98 -47t103.5 -60.5t90.5 -63q18 -14 22 -39t-3 -49.5t-23.5 -44t-38.5 -21.5q-49 -6 -110.5 -5t-120 7t-109.5 14.5t-78 16.5q-82 25 -108.5 84t-8.5 125z" />
<glyph unicode="a" horiz-adv-x="1196" d="M-3 551v9q1 108 23 212q24 108 71.5 192.5t118.5 135.5t167 51q82 0 146.5 -55.5t103.5 -134.5q35 61 92 101t123 40q70 0 106.5 -15.5t54 -47t20.5 -84t3 -126.5v-254q0 -88 1 -146t7 -94t18.5 -50.5t34.5 -14.5q27 0 47.5 15.5t34 54.5t20.5 105.5t7 168.5 q0 61 22.5 86t48 22t48 -31.5t22.5 -76.5q0 -156 -21.5 -270.5t-69.5 -191t-127 -114.5t-191 -38q-76 0 -149.5 25.5t-123.5 87.5q-45 -72 -112.5 -117t-163.5 -45t-167 51t-119 136t-71.5 192.5t-24.5 220.5zM432 551q0 -156 19.5 -213t60.5 -57q29 0 45 27.5t23.5 87 t9.5 152.5t2 224q-12 18 -31.5 34.5t-48.5 16.5q-41 0 -60.5 -58t-19.5 -214z" />
<glyph unicode="b" horiz-adv-x="1101" d="M0 551v782q0 96 43 125t123 29h8q134 -1 194 -65q62 -66 62 -185v-240q43 66 105.5 110t134.5 44q109 0 173 -47t98 -126t43 -181.5t9 -214.5q0 -25 -1 -47.5t-3 -45.5q47 10 80 41t33 84q0 55 22.5 80t48 23t48 -28.5t22.5 -74.5q0 -66 -22.5 -119t-61.5 -94t-92 -68.5 t-113 -41.5q-47 -160 -157.5 -250t-288.5 -90q-137 0 -233.5 41t-158 117.5t-89 188.5t-27.5 253zM432 508q4 -168 29 -244t86 -76q35 0 61.5 28t34.5 116q-66 25 -123 74t-88 102zM528 811q-3 -18 -3 -38q-1 -31 7 -65q12 -56 44 -108.5t79 -75.5q2 76 2 143.5t-9 115.5 q-10 48 -28 72q-13 16 -32 16q-9 0 -19 -3q-33 -10 -41 -57z" />
<glyph unicode="c" horiz-adv-x="1042" d="M-2 551q0 164 39 278.5t106.5 186t160.5 103.5t202 32q113 0 199 -33t142 -93t85 -144t29 -185q0 -78 -29 -131t-73 -83t-95 -40q-24 -5 -47 -5q-25 -1 -48 5q-44 10 -73 40t-29 75t-2 102.5t-8 107.5t-20.5 84t-38.5 34q-47 0 -59.5 -92t-12.5 -242q0 -145 46 -233 q46 -86 114 -120q49 -24 104 -25q22 0 44 4q81 13 148.5 69.5t113.5 149.5t46 218q0 61 22.5 86t48.5 22t48.5 -31.5t22.5 -76.5q0 -147 -46 -269t-128 -210t-195 -136t-244 -48q-119 0 -223 38t-182 112.5t-123 187t-45 262.5z" />
<glyph unicode="d" horiz-adv-x="1200" d="M-2 551q0 123 17.5 232.5t60.5 191.5t114.5 129t182.5 47q68 0 122 -39t93 -98v319q0 80 34 118q33 36 126 36h10q139 -2 200.5 -63.5t61.5 -209.5v-639q0 -94 3 -153.5t11 -93t22.5 -46t35.5 -12.5q27 0 47 15.5t33.5 54.5t20.5 105.5t7 168.5q0 61 22.5 86t48 22 t48 -31.5t22.5 -76.5q0 -156 -21.5 -270.5t-69.5 -191t-127 -114.5t-191 -38q-76 0 -155 25.5t-128 91.5q-43 -74 -109.5 -120t-164.5 -46q-111 0 -183.5 47t-115.5 129t-60.5 191.5t-17.5 232.5zM426 551q0 -156 19.5 -213t60.5 -57q31 0 47 27.5t23.5 87t9.5 152.5t2 224 q-14 18 -33.5 34.5t-48.5 16.5q-41 0 -60.5 -58t-19.5 -214z" />
<glyph unicode="e" horiz-adv-x="1042" d="M-2 575q2 158 42 267.5t107.5 178.5t159.5 99.5t199 30.5q84 0 164 -24.5t143.5 -70.5t103.5 -111.5t44 -145.5q1 -15 1 -29q0 -88 -32 -162q-37 -86 -108.5 -142t-173.5 -76q-42 -8 -86 -8q-65 0 -138 17q12 -98 62 -155q52 -56 120 -72q30 -7 61 -7q39 -1 83 11 q76 20 141 77.5t107 148t42 212.5q0 61 22.5 86t48.5 22t48.5 -31.5t22.5 -76.5q0 -158 -51.5 -279.5t-134.5 -204.5t-189.5 -128t-216.5 -49h-23q-99 1 -195 31q-106 34 -189 112t-134 197t-51 282zM422 543q21 -7 40 -8q22 0 40 11q33 19 52 57q20 38 26 87q3 23 3 44 q-1 25 -5 48q-8 43 -26.5 73t-49.5 30t-46.5 -35t-23.5 -87t-9 -111.5t-1 -108.5z" />
<glyph unicode="f" horiz-adv-x="690" d="M-112 -188q-2 20 -2 37q0 26 6 47q8 36 27.5 52.5t43.5 -1.5q9 -8 16 -8q16 0 18 47q3 67 3 217v899q0 111 31.5 184.5t84 118.5t121 63.5t142.5 18.5q135 0 201.5 -62.5t69.5 -174.5v-12q0 -109 -54 -259q-57 -158 -168 -348q-1 -13 -1 -26q0 -61 33 -97q40 -43 91 -46 h8q46 0 87 34q44 36 44 118q0 61 22.5 86t48 22t48 -31.5t22.5 -76.5q0 -94 -25.5 -158.5t-64.5 -104.5t-87 -57.5t-93 -17.5t-82 15.5t-53 40.5l4 -234q0 -139 -17.5 -231t-55.5 -147.5t-96 -78t-140 -22.5q-78 0 -127 29.5t-74.5 72.5t-31.5 91zM426 918q23 70 43 133 t29 111q7 31 7 55q0 12 -2 22q-5 29 -34 29q-16 0 -25.5 -18.5t-13.5 -45t-4 -55.5v-47v-184z" />
<glyph unicode="g" horiz-adv-x="1167" d="M0 590q0 123 17.5 226.5t60.5 178t114.5 115.5t180.5 41q84 0 148.5 -55.5t101.5 -134.5q33 61 90 102q54 39 121 39h6q68 0 105.5 -15.5t54 -47t19.5 -84t3 -126.5v-477q63 18 104 79t41 183q0 61 22.5 86t48.5 22t48.5 -31.5t22.5 -76.5q0 -104 -22.5 -183t-62.5 -137 t-95.5 -97t-120.5 -64q-16 -106 -54.5 -199.5t-105 -163t-164.5 -110.5t-235 -41q-111 0 -191 27.5t-132 74t-76.5 103.5t-24.5 117q0 80 45 134t98 70q-43 23 -74 57t-52.5 86t-31.5 125.5t-10 176.5zM377 34.5q0 -22.5 12 -42t35 -31.5q19 -10 44 -10h9q59 4 92 48t37 103 q-25 6 -55.5 13.5t-62 8.5t-58.5 -8.5t-41 -35.5q-12 -23 -12 -45.5zM428 590q0 -117 19.5 -177.5t60.5 -60.5q29 0 45 16.5t24.5 62.5t10.5 128t2 213q-14 18 -33.5 34.5t-48.5 16.5q-80 0 -80 -233z" />
<glyph unicode="h" horiz-adv-x="1114" d="M0 199v1134q0 96 42 125t124 29h8q134 -1 194 -65q62 -66 62 -185v-238q43 66 108.5 109t153.5 43q109 0 171.5 -43t90.5 -123q26 -75 25 -177v-16q-2 -112 -21 -251q-12 -87 -15 -139q-1 -18 -1 -32q0 -30 4 -50q6 -30 21.5 -40t40.5 -10t45 14.5t34.5 53.5t21.5 106.5 t7 169.5q0 61 22.5 86t48 22t48 -31.5t22.5 -76.5q0 -156 -20 -270.5t-67.5 -191t-125 -114.5t-190.5 -38q-68 0 -129 18.5t-103 77t-58 166.5q-7 46 -8 107q0 80 13 182q11 92 11 151q0 39 -5 62q-12 59 -65 59q-29 0 -47.5 -16t-32.5 -35v-350q0 -102 -6 -182t-41 -134 q-35 -57 -90 -81.5t-127 -24.5t-119 44t-47 155z" />
<glyph unicode="i" horiz-adv-x="612" d="M0 412v323q0 147 59.5 210t188.5 63q49 0 85 -7.5t57.5 -29t31.5 -60.5t10 -100v-313q2 -127 15.5 -176.5t56.5 -51.5q25 0 45 14.5t34.5 53.5t21.5 106.5t7 169.5q0 61 22.5 86t48.5 22t48.5 -31.5t22.5 -76.5q0 -305 -93.5 -456.5t-310.5 -157.5q-125 0 -196.5 40 t-106.5 99t-41 132t-6 141zM0 1282q0 86 54.5 145.5t160.5 59.5q111 0 164 -59.5t53 -145.5q0 -84 -53 -143.5t-164 -59.5q-106 0 -160.5 59.5t-54.5 143.5z" />
<glyph unicode="j" horiz-adv-x="542" d="M-104 -204q-7 28 -7 56q0 45 15 90q26 76 96 124v745q0 61 10 100t31.5 60.5t57.5 29t85 7.5q129 0 187.5 -62.5t58.5 -210.5v-448q51 53 83 130q30 72 30 183v14q0 61 21.5 86t48 22t49 -31.5t22.5 -76.5q0 -205 -68.5 -352t-185.5 -231q0 -96 -13.5 -172t-47 -129.5 t-93 -82t-151.5 -28.5q-98 0 -155.5 52.5t-73.5 124.5zM0 1282q0 86 53 145.5t162 59.5q111 0 163 -59.5t52 -145.5q0 -84 -52 -143.5t-163 -59.5q-109 0 -162 59.5t-53 143.5zM58 -174q5 -23 20 -37q9 -9 21 -9q8 0 16 3q25 8 25 23t-11 34q-10 17 -24.5 35.5t-20.5 36.5 q-18 -12 -24 -37q-4 -14 -4 -28q0 -10 2 -21z" />
<glyph unicode="k" horiz-adv-x="1116" d="M0 197v1134q0 98 43 127t123 29h8q136 -1 196 -65q62 -66 62 -185v-582q29 6 50.5 35t38 67t28.5 77.5t20 66.5q18 63 39 102t56.5 61.5t93 31t151.5 8.5q63 0 96 -14q33 -12 41 -40q2 -9 2 -20q0 -21 -10 -48q-16 -40 -47 -93q-31 -55 -72.5 -98t-87 -77t-88.5 -58.5 t-79 -41.5q24 2 46 2q28 0 53 -3q46 -5 83 -42q31 -31 45 -82t27.5 -99t32 -84t59.5 -36q25 0 44 15.5t33.5 55.5t21.5 105.5t7 167.5q0 61 22.5 86t48 22t48 -31.5t22.5 -76.5q0 -156 -20 -270.5t-67.5 -191t-125 -114.5t-190.5 -38q-137 0 -213 65.5t-76 206.5 q0 70 -2 117t-7 78t-13 47t-23 23q-23 10 -44 6t-44 -13v-108q0 -100 -6 -181t-41 -137q-37 -57 -92 -80.5t-127 -23.5t-119 44t-47 153z" />
<glyph unicode="l" horiz-adv-x="614" d="M0 412v923q0 23 3 49.5t18.5 49t50 38t98.5 15.5q125 0 193.5 -68.5t68.5 -201.5v-719q2 -127 15.5 -176.5t56.5 -51.5q25 0 45 14.5t34.5 53.5t22.5 106.5t8 169.5q0 61 22.5 86t48.5 22t48.5 -31.5t22.5 -76.5q0 -305 -94.5 -456.5t-311.5 -157.5q-125 0 -196.5 40 t-106.5 99t-41 132t-6 141z" />
<glyph unicode="m" horiz-adv-x="1626" d="M0 199v749q0 98 47 126t127 28q68 0 117 -27.5t80 -75.5q45 66 106.5 109t132.5 43q117 0 188.5 -54.5t106.5 -148.5q37 86 117 144.5t180 58.5q109 0 171.5 -43t90.5 -123q26 -75 25 -177v-16q-2 -112 -21 -251q-12 -87 -15 -139q-1 -18 -1 -32q0 -30 4 -50 q6 -30 21.5 -40t40.5 -10t45 14.5t34.5 53.5t21.5 106.5t7 169.5q0 61 22.5 86t48 22t48 -31.5t22.5 -76.5q0 -156 -20.5 -270.5t-67.5 -191t-124.5 -114.5t-190.5 -38q-68 0 -129 18.5t-103 77t-58 166.5q-7 46 -8 107q0 80 13 182q11 92 11 151q0 39 -5 62q-12 59 -65 59 q-20 0 -35.5 -9t-28.5 -21q4 -12 4.5 -33t0.5 -55v-541q0 -29 -7.5 -58.5t-26 -53t-50 -38t-80.5 -14.5q-135 0 -189.5 62.5t-54.5 209.5v320q0 127 -12.5 179t-59.5 52q-16 0 -28.5 -12t-20.5 -31v-358q0 -102 -6 -182t-41 -134q-37 -57 -92 -81.5t-127 -24.5 q-70 0 -118 44t-48 155z" />
<glyph unicode="n" horiz-adv-x="1114" d="M0 199v749q0 49 12.5 79t35 47.5t54 22.5t70.5 5q86 0 140.5 -43t82.5 -109q35 86 116 143.5t179 57.5q109 0 171.5 -43t90.5 -123q26 -75 25 -177v-16q-2 -112 -21 -251q-12 -87 -15 -139q-1 -18 -1 -32q0 -30 4 -50q6 -30 21.5 -40t40.5 -10t45 14.5t34.5 53.5 t21.5 106.5t7 169.5q0 61 22.5 86t48 22t48 -31.5t22.5 -76.5q0 -156 -20.5 -270.5t-67.5 -191t-124.5 -114.5t-190.5 -38q-68 0 -129 18.5t-103 77t-58 166.5q-7 46 -8 107q0 80 13 182q11 92 11 151q0 39 -5 62q-12 59 -65 59q-29 0 -46.5 -15t-31.5 -34v-352 q0 -102 -5 -182t-40 -134q-37 -57 -92 -81.5t-127 -24.5q-70 0 -118 44t-48 155z" />
<glyph unicode="o" horiz-adv-x="1097" d="M0 551q0 174 42 289.5t109.5 184.5t152.5 97.5t171 28.5q154 0 257.5 -47t162.5 -133t79 -209q14 -83 14 -178q0 -46 -3 -95q47 10 80 41t33 84q0 55 22.5 80t48 23t48 -28.5t22.5 -74.5q0 -66 -22.5 -119t-61.5 -94t-92 -68.5t-113 -41.5q-47 -160 -157.5 -250 t-288.5 -90q-137 0 -232.5 41t-156 117.5t-88 188.5t-27.5 253zM428 508q4 -168 29 -244t86 -76q35 0 61.5 28t34.5 116q-66 25 -123 74t-88 102zM524 811q-3 -18 -3 -38q-1 -31 7 -65q12 -56 44 -108.5t79 -75.5q2 76 2 143.5t-9 115.5q-10 48 -28 72q-13 16 -32 16 q-9 0 -19 -3q-33 -10 -41 -57z" />
<glyph unicode="p" horiz-adv-x="1167" d="M0 -184v1132q0 49 12.5 79t35 46.5t54 23.5t72.5 7q76 0 126 -35t81 -88q37 78 103.5 124t152.5 46q109 0 182.5 -41t118.5 -118t64.5 -188.5t19.5 -250.5q0 -39 -2 -83t-5 -87t-8.5 -84t-13.5 -72q43 23 76 65t54.5 94t32.5 111.5t11 116.5q0 61 22.5 86t48.5 22 t48.5 -31.5t22.5 -76.5q0 -162 -43 -284.5t-114 -205.5t-162 -125q-89 -41 -183 -41h-5q-97 1 -192.5 46t-175.5 135l-2 -98q0 -100 -6 -181t-41 -134q-37 -59 -92 -83t-129 -24q-70 0 -116 44t-48 153zM434 774q0 -131 1 -224t9.5 -153.5t24.5 -88t45 -27.5q20 0 35.5 13 t26 45t15.5 84t5 130t-5 129t-15.5 82t-25.5 44t-36 13q-29 0 -48.5 -15t-31.5 -32z" />
<glyph unicode="q" horiz-adv-x="1099" d="M0 553q0 139 18.5 250.5t62.5 188.5t117.5 118t182.5 41q84 0 150.5 -46t105.5 -124q31 53 82 88t125 35q41 0 72.5 -7t54 -23.5t35 -46.5t12.5 -79v-563q37 31 59.5 86t22.5 143q0 61 22.5 86t48 22t48 -31.5t22.5 -76.5q0 -176 -61.5 -282.5t-161.5 -161.5v-129 q0 -100 -5 -181t-40 -134q-37 -59 -92.5 -83t-126.5 -24q-72 0 -119 44t-47 153v272q-33 -57 -87.5 -96t-127.5 -39q-109 0 -180.5 47t-114.5 128t-60.5 190.5t-17.5 234.5zM424 553q0 -78 5 -130t15.5 -84t25 -45t34.5 -13q59 0 71.5 115.5t12.5 377.5q-16 16 -34.5 31.5 t-49.5 15.5q-20 0 -34.5 -13t-25 -44t-15.5 -82t-5 -129z" />
<glyph unicode="r" horiz-adv-x="823" d="M-63 981q0 37 11 69.5t31.5 58.5t50 41t68.5 15q70 0 81 -52q4 -18 4 -40q0 -39 -13 -88q45 12 85 38t82 49.5t89 37.5q27 8 59 8q22 0 47 -4q70 -12 109 -49t53 -105q8 -42 8 -97q0 -35 -4 -75q-8 -102 -32 -247q-14 -87 -18 -139q-1 -19 -1 -35q0 -29 4 -47 q6 -30 22.5 -40t41.5 -10t45 14.5t34.5 53.5t21.5 106.5t7 169.5q0 61 22.5 86t48.5 22t48.5 -31.5t22.5 -76.5q0 -156 -20.5 -270.5t-68 -191t-125 -114.5t-190.5 -38q-68 0 -129 18.5t-103 77.5q-43 58 -55 166q-4 31 -3 67q0 91 22 220q22 124 22 193q-1 10 -1 18 q-4 70 -24 90q-10 10 -26 10t-36 -10q-40 -20 -89 -64q2 -41 2 -84v-88q0 -43 -22.5 -65.5t-48 -23.5t-48 20.5t-22.5 68.5v94.5t2 94.5q-31 29 -48 77t-17 101z" />
<glyph unicode="s" horiz-adv-x="940" d="M0 449v436q0 63 35 111t85 81t109.5 48.5t107.5 15.5t78.5 -16.5t24.5 -49.5q-3 -14 -3 -28q-1 -37 19 -74q26 -51 72.5 -104.5t102 -111t104.5 -120t82 -134t33 -151.5q0 -33 -6 -70.5t-23 -68.5q27 14 49.5 55t38 96.5t23.5 121t8 128.5q0 61 22.5 86t48 22t48 -31.5 t22.5 -76.5q0 -150 -35.5 -271.5t-107.5 -208.5t-180.5 -134t-253.5 -47q-133 0 -228.5 28.5t-157 89t-90 153.5t-28.5 225zM150 782q0 -35 2 -118.5t2 -192.5q0 -164 41 -232.5t127 -68.5q49 0 88 39t39 102q0 68 -29 125.5t-72 111.5t-96 110.5t-102 123.5z" />
<glyph unicode="t" horiz-adv-x="614" d="M-92 989v11q0 36 11 68q13 36 61 36h22v88q0 57 24.5 102t65.5 78t96.5 50.5t114.5 17.5q76 0 102.5 -34t26.5 -116v-186h51q39 0 52.5 -36t13.5 -79q0 -41 -12.5 -76.5t-53.5 -35.5h-51v-379q2 -127 15.5 -176.5t56.5 -51.5q25 0 45 14.5t34.5 53.5t22.5 106.5t8 169.5 q0 61 22.5 86t48.5 22t48.5 -31.5t22.5 -76.5q0 -305 -94.5 -456.5t-311.5 -157.5q-125 0 -196.5 40t-106.5 99t-41 132t-6 141v465h-20q-43 0 -57.5 35.5t-14.5 76.5z" />
<glyph unicode="u" horiz-adv-x="1181" d="M-41 958q0 55 52 100.5t163 45.5q135 0 195.5 -63.5t60.5 -211.5v-276q0 -78 5 -130t15.5 -84t26 -45t35.5 -13q18 0 32.5 6t26.5 16q-4 29 -3 55.5t1 53.5v503q0 43 4.5 78t22.5 59.5t54 38t100 13.5q80 0 130 -22.5t76.5 -61.5t35.5 -93.5t9 -115.5v-313 q2 -127 15.5 -176.5t56.5 -51.5q25 0 45.5 14.5t34.5 53.5t21.5 106.5t7.5 169.5q0 61 22.5 86t48 22t48 -31.5t22.5 -76.5q0 -305 -93 -456.5t-310 -157.5q-125 0 -197 40t-107 99q-43 -78 -111.5 -132t-148.5 -54q-109 0 -177 47t-107 128t-52.5 190.5t-13.5 234.5v262 q0 27 -7 42t-16.5 29.5t-16.5 30t-7 41.5z" />
<glyph unicode="v" horiz-adv-x="1095" d="M-51 958q0 55 52 100.5t163 45.5q135 0 195.5 -63.5t60.5 -211.5v-276q0 -78 2 -141.5t10 -108.5t24.5 -68.5t45.5 -23.5q33 0 50 45q16 46 22 116q3 39 4 82q0 36 -2 74q-4 86 -15.5 169t-27 152.5t-31.5 108.5q-12 26 -12 49q0 25 14 45q26 40 78 55q27 8 59 8 q29 0 61 -7q68 -14 128.5 -69.5t102.5 -158t42 -259.5q0 -25 -1 -50.5t-3 -50.5q16 -6 32 -6q28 0 53 18q40 28 40 82q0 61 22.5 86t48 22t48 -31.5t22.5 -76.5q0 -68 -25.5 -121t-67.5 -89.5t-97.5 -55t-112.5 -18.5q-23 -80 -60.5 -148.5t-92 -119t-125 -80t-158.5 -29.5 q-109 0 -201 38t-158.5 134t-104.5 264t-38 426q0 27 -7 42t-16.5 29.5t-16.5 30t-7 41.5z" />
<glyph unicode="w" horiz-adv-x="1585" d="M-51 958q0 55 52 100.5t163 45.5q135 0 195.5 -63.5t60.5 -211.5v-276q0 -78 2 -141.5t10 -108.5t24.5 -68.5t45.5 -23.5q33 0 47 45q14 46 15 116v12q0 65 -9 144q-10 86 -25.5 169t-34 153t-34.5 108q-11 25 -11 47q0 25 14 47q26 40 78 55q27 8 58 8q30 0 62 -7 q68 -14 128 -69.5t102 -158t42 -259.5q0 -63 -6 -125q-1 -35 -1 -67q0 -79 7 -137q10 -81 57 -81q33 0 49 45q15 46 16 116v15q0 65 -8 141q-8 86 -23 169t-33 152.5t-34 108.5q-12 25 -12 48q0 24 14 46q28 40 80 55q27 8 58 8q30 0 62 -7q68 -14 128 -69.5t102 -158 t42 -259.5q0 -20 -1 -41t-1 -41q25 -20 51 -22.5t49.5 8t39 34t15.5 55.5q0 61 22.5 86t48 22t48 -31.5t22.5 -76.5q0 -72 -28.5 -127t-74.5 -92q-47 -37 -105 -54q-43 -13 -87 -13q-16 0 -32 2q-18 -80 -52 -148.5t-84.5 -119t-119 -80t-156.5 -29.5q-72 0 -123 32.5 t-82 88.5q-51 -55 -120.5 -88t-163.5 -33q-109 0 -201 38t-158.5 134t-104.5 264t-38 426q0 27 -7 42t-16.5 29.5t-16.5 30t-7 41.5z" />
<glyph unicode="x" horiz-adv-x="991" d="M-4 45q0 25 23.5 62.5t58.5 93.5q14 20 43 65t65.5 101.5t75.5 118t76 114.5q-33 92 -67.5 146.5t-63.5 61.5q-4 1 -7 1q-24 0 -40 -40q-18 -46 -19 -155q0 -43 -22.5 -65.5t-48 -23.5t-48 20.5t-22.5 68.5q0 80 -1 166v8q-1 81 19 150q20 72 76 119t168 47 q109 0 172.5 -55.5t112.5 -141.5q16 43 33.5 80t46 62.5t75 40t119.5 14.5q63 0 95 -10t36 -34q1 -4 1 -9q0 -23 -16 -59q-19 -44 -58 -113q-39 -68 -91.5 -138.5t-105.5 -136.5q20 -66 35.5 -126t32 -106t38 -73t56.5 -27q25 0 50.5 14.5t47 53.5t35.5 105.5t14 168.5 q0 61 22.5 86t48 22t48.5 -31.5t23 -76.5q0 -311 -96.5 -462.5t-280.5 -151.5q-51 0 -92 11.5t-76 41t-68 79.5t-65 130q-33 -59 -56.5 -107.5t-56.5 -82t-83 -53t-136 -19.5q-70 0 -98.5 10t-28.5 35z" />
<glyph unicode="y" horiz-adv-x="1136" d="M-47 958q0 55 54 100.5t163 45.5q135 0 196.5 -63.5t61.5 -211.5v-239q0 -117 19.5 -177.5t60.5 -60.5q31 0 47 19.5t23.5 67.5t9.5 130t2 205v57q0 74 3 126.5t19.5 84t54.5 47t105 15.5q45 0 90 -16.5t80 -55.5t57.5 -101.5t22.5 -156.5v-412q51 27 83 86.5t32 165.5 q0 61 22.5 86t48 22t48 -31.5t22.5 -76.5q0 -195 -75 -306t-193 -163q-16 -109 -53 -204t-105 -166.5t-167 -113.5t-236 -42q-111 0 -191 27.5t-132 74t-76.5 103.5t-24.5 117q0 80 45 135t98 69q-43 23 -74 57t-52.5 86t-31.5 125.5t-10 176.5q0 47 2 107.5t2 117.5 q0 27 -8 42t-17.5 29.5t-17.5 30t-8 41.5zM387 80q-12 -22 -12 -44t13 -44q24 -39 79 -39h10q29 2 53.5 15.5t41 34t23.5 43.5q5 19 5 35v9q-23 0 -53.5 8t-60.5 12q-14 3 -27 3q-16 0 -31 -3q-27 -6 -41 -30z" />
<glyph unicode="z" horiz-adv-x="1058" d="M0 614q0 78 3 157t18.5 146.5t47 116.5t87.5 70q39 15 72 15q16 1 31 -3q44 -12 83 -35.5t77 -49t87 -33.5q13 -2 26 -1q38 -1 86 15q64 22 154 92q55 43 99 45h6q40 -1 67 -27q29 -28 41 -80q8 -33 8 -69q0 -23 -3 -45q-7 -62 -36.5 -130.5t-83.5 -129.5 q-25 -29 -68.5 -57.5t-93 -57.5t-100.5 -58.5t-88 -59t-56 -59.5t-7 -61q68 82 124 114t104 33h5q45 0 82 -18q39 -18 72 -38.5t61.5 -33t55.5 4.5q43 27 70.5 86t27.5 151q0 61 22.5 86t48 22t48 -31.5t22.5 -76.5q0 -92 -19.5 -195.5t-54 -192.5t-84 -152.5t-108.5 -73.5 q-25 -4 -47 -4q-48 0 -85 20q-54 30 -97 70.5t-83 73.5q-33 27 -71 27q-8 0 -16 -1q-31 -4 -60 -33.5t-60.5 -63.5t-69.5 -61.5t-89 -27.5q-84 0 -124 47t-44 118v18q0 63 24 135q28 82 85 153q41 53 101 102.5t115.5 93.5t94.5 80.5t39 65.5q-68 -59 -124 -81 q-55 -21 -101 -23h-20q-34 0 -60 5q-34 7 -56 5t-33.5 -23.5t-11.5 -81.5q0 -49 -22.5 -69.5t-48 -18.5t-48 25.5t-22.5 62.5z" />
<glyph unicode="{" horiz-adv-x="686" d="M2 557q0 37 20.5 69.5t65.5 49.5q41 12 54.5 48t16.5 86t3 110.5t15.5 124t52 125t112.5 114.5q84 57 145.5 59.5t91 -31.5t22.5 -92.5t-60 -117.5q-41 -45 -52.5 -93t-8.5 -97.5t14.5 -97.5t16.5 -93t-4 -85t-46 -73q39 -35 50 -82t7 -99t-14 -107.5t-14.5 -107.5 t7 -99.5t52.5 -81.5q49 -43 51 -89.5t-25.5 -78t-79 -38.5t-112.5 30q-92 57 -138 121.5t-64.5 129t-18.5 127t-3 113.5t-18.5 88t-60.5 53q-37 14 -57.5 46t-20.5 69z" />
<glyph unicode="|" horiz-adv-x="454" d="M0 74v1128q0 72 8 125t29.5 88t60.5 52.5t103 17.5q63 0 98 -18.5t51.5 -55.5t19.5 -89t3 -120v-1112q0 -59 -4 -110.5t-22.5 -90.5t-56.5 -60.5t-106 -21.5q-66 0 -102.5 20.5t-55 56.5t-22.5 84t-4 106z" />
<glyph unicode="}" horiz-adv-x="686" d="M3 1219.5q-7 58.5 22.5 92.5t91 31.5t145.5 -59.5q76 -53 113 -114.5t52 -125t15 -124t3.5 -110.5t16.5 -86t54 -48q45 -16 65.5 -49t20.5 -70t-20.5 -68.5t-57.5 -46.5q-47 -16 -61 -53t-17.5 -88t-3.5 -113.5t-18 -127t-64.5 -129t-138.5 -121.5q-61 -37 -112.5 -30 t-79 38.5t-24.5 78t50 89.5q41 35 52.5 82t7.5 99t-14.5 107.5t-14.5 107.5t6 98t51 83q-37 33 -46 73t-4 85t16.5 93t14.5 97.5t-8.5 97.5t-52.5 93q-53 59 -60 117.5z" />
<glyph unicode="~" horiz-adv-x="716" d="M4 531.5q6 52.5 39 107.5q55 94 128 97t140 -77q29 -35 47 -32.5t43 39.5q43 68 97.5 75t91.5 -31t44 -114t-46 -170q-29 -49 -67 -74.5t-78 -31t-76.5 11t-61.5 51.5q-33 47 -46 52t-42 -46q-27 -47 -59.5 -61.5t-62 -5t-53.5 40t-34 73.5t-4 95.5z" />
<glyph unicode="&#xa1;" horiz-adv-x="514" d="M-573 125q0 57 9 138t23.5 163t31.5 156.5t36 119.5q20 49 51 75t62.5 26t61.5 -26.5t48 -80.5q10 -35 28.5 -104.5t36 -160.5t31 -195.5t13.5 -204.5q0 -98 -44 -127t-124 -29q-139 -2 -201.5 64.5t-62.5 185.5zM-573 1112q0 41 13 78t38.5 64.5t65.5 44t96 16.5 q109 0 163 -59.5t54 -143.5q0 -86 -53.5 -144.5t-161.5 -58.5q-111 0 -163 58.5t-52 144.5z" />
<glyph unicode="&#xa2;" horiz-adv-x="1044" d="M0 551q0 244 83 380t220 187q-4 10 -4 21.5v21.5q0 78 52 132.5t159 54.5q109 0 160 -54.5t51 -132.5q0 -25 -6 -49q106 -41 177 -122t71 -191q0 -72 -29 -119t-73 -73.5t-95 -35t-95 0t-73 31t-29 56.5q0 92 -14 128t-47 36q-41 0 -60.5 -61.5t-19.5 -210.5 q0 -150 19.5 -210t60.5 -60q33 0 47 25.5t14 90.5q0 35 29 59.5t73 37t95 9.5t95 -26.5t73 -69t29 -116.5q0 -127 -71 -202t-175 -107q2 -10 3 -21.5t1 -23.5q0 -76 -51.5 -130.5t-159.5 -54.5q-106 0 -158.5 54.5t-52.5 130.5v24t4 25q-137 49 -220 185t-83 380z" />
<glyph unicode="&#xa3;" horiz-adv-x="1181" d="M0 623q0 57 25.5 102t101.5 57q12 164 52 279t106.5 187.5t158 105t205.5 32.5q90 0 168 -19t137.5 -62t96 -111t47.5 -164q8 -76 -18.5 -124t-71.5 -72.5t-100.5 -28.5t-101.5 9t-76 42t-23 70q2 27 5 49t-1 38.5t-17.5 26t-44.5 9.5q-51 0 -70.5 -60.5t-23.5 -195.5 q70 -4 115 -17.5t70.5 -36t35.5 -50t10 -58.5q0 -33 -10 -61.5t-36.5 -51t-74 -37t-118.5 -16.5q-8 -47 -22.5 -91t-43.5 -102q68 14 131.5 34t122 35t110.5 23.5t97 0.5q57 -8 91 -61.5t34 -131.5q0 -31 -4 -61.5t-16.5 -55t-34 -40t-56.5 -15.5h-716q-37 0 -59.5 12.5 t-35 40t-16.5 71.5t-4 109q-2 80 -2 132.5v95.5q-74 14 -98.5 58t-24.5 104z" />
<glyph unicode="&#xa4;" horiz-adv-x="1062" d="M2.5 222.5q-12.5 58.5 34.5 103.5q23 20 64.5 45.5t95.5 48.5q-25 61 -25 137q0 53 12 100q-49 23 -88 46.5t-59 44.5q-47 45 -34.5 103.5t71.5 111.5q31 27 64.5 45t66.5 24t62.5 0t51.5 -28q20 -18 40 -58.5t36 -87.5q47 10 94 10t95 -10q16 47 35.5 87t42.5 59 q23 23 52 28.5t62 -0.5t67 -24.5t64 -44.5q59 -53 71.5 -111.5t-34.5 -103.5q-23 -20 -61.5 -44t-89.5 -47q6 -25 10 -49t4 -51q0 -76 -25 -137q53 -23 96.5 -48.5t65.5 -45.5q47 -45 35 -103.5t-72 -111.5q-31 -27 -64.5 -45.5t-66.5 -24.5t-62.5 0t-51.5 29 q-25 20 -47.5 69t-41.5 109q-33 -8 -84 -8q-49 0 -83 8q-16 -59 -39 -108.5t-48 -69.5q-23 -23 -52 -29t-62 0t-67 24.5t-64 45.5q-59 53 -71.5 111.5zM442 557q0 -31 11 -53.5t36 -22.5t36.5 22.5t11.5 53.5q0 27 -11.5 49.5t-36.5 22.5t-36 -22.5t-11 -49.5z" />
<glyph unicode="&#xa5;" horiz-adv-x="935" d="M-33 1368q4 39 28.5 54.5t70.5 15.5q53 0 85.5 -6.5t59.5 -32t54.5 -79.5t72.5 -151q35 -76 43 -153.5t-14 -175.5q41 100 49 172.5t18 97.5q45 117 76 182.5t68.5 98t94 40t152.5 7.5q66 0 98.5 -17.5t39 -58.5t-13 -108.5t-60.5 -168.5q-35 -86 -71 -150.5 t-65.5 -117.5t-49 -101t-19.5 -102v-39q55 -2 91 -16t56.5 -36.5t28.5 -51t8 -59.5q0 -33 -8 -63t-29.5 -52.5t-57.5 -35.5t-93 -15q-4 -43 -14.5 -79t-28.5 -65q-37 -55 -92.5 -78.5t-126.5 -23.5q-109 0 -152 34t-43 81q0 31 10.5 53t14.5 78h-17q-61 0 -100 13 t-61.5 35.5t-30.5 52.5t-8 65q0 33 8 62.5t30.5 52t61.5 35.5t100 13h19v48q-29 45 -57.5 103t-55 119.5t-51.5 123t-45 116.5q-41 106 -59.5 175t-14.5 108z" />
<glyph unicode="&#xa6;" horiz-adv-x="454" d="M0 74v207q0 72 8 125t29.5 87.5t60.5 52t103 17.5q63 0 98 -18.5t51.5 -55t19.5 -89t3 -119.5v-191q0 -59 -4 -110.5t-22.5 -90.5t-56.5 -60.5t-106 -21.5q-66 0 -102.5 20.5t-55 56.5t-22.5 84t-4 106zM0 911v207q0 72 8 125t29.5 88t60.5 52.5t103 17.5q63 0 98 -18.5 t51.5 -55.5t19.5 -89t3 -120v-190q0 -59 -4 -110.5t-22.5 -90.5t-56.5 -60.5t-106 -21.5q-66 0 -102.5 20.5t-55 56.5t-22.5 84t-4 105z" />
<glyph unicode="&#xa7;" horiz-adv-x="1017" d="M0 739q0 106 59 185q-29 37 -44 80t-15 90q0 82 37 146.5t100.5 108.5t148.5 66.5t181 22.5t179 -17.5t144.5 -53.5t97.5 -91t36 -129t-29 -118t-72 -63.5t-94 -19.5t-95 14.5t-76 39t-34 53.5q-2 23 -16 43t-47 20q-27 0 -46.5 -22.5t-8.5 -59.5q10 -47 62 -67.5 t155 -40.5q164 -35 238.5 -123t74.5 -211q0 -109 -47 -184q47 -76 47 -170q0 -98 -37 -166t-101.5 -109t-151.5 -59.5t-187 -18.5q-102 0 -186.5 19.5t-143.5 56.5t-93 91t-34 126t32 116t79 66.5t100 23.5t97 -14.5t70 -44t17 -67.5q-4 -20 14.5 -36.5t49.5 -18.5t46 17.5 t15 53.5q2 39 -40 74t-167 66q-63 16 -120.5 45.5t-100.5 71.5t-68.5 94.5t-25.5 113.5zM406 680q8 -33 34.5 -51.5t77.5 -32.5q4 16 4 33q2 31 -20.5 57.5t-87.5 50.5q-16 -24 -8 -57z" />
<glyph unicode="&#xa8;" horiz-adv-x="905" d="M0 1343q0 78 50 131.5t151 53.5q98 0 147 -53.5t49 -131.5t-49 -133t-147 -55q-100 0 -150.5 55.5t-50.5 132.5zM426 1343q0 78 50 131.5t149 53.5q100 0 149 -53.5t49 -131.5t-49 -133t-149 -55q-98 0 -148.5 55.5t-50.5 132.5z" />
<glyph unicode="&#xa9;" horiz-adv-x="1890" d="M0 551q0 190 56.5 358t169 294t281.5 199t396 73t397 -73t283 -199t169 -294t56 -358t-56 -359t-169 -294t-283 -198t-397 -73t-396 73t-281.5 198t-169 293.5t-56.5 359.5zM326 551q0 -152 30.5 -278t100 -216t179 -140t267.5 -50t268.5 50t180 140t101.5 216t32 278 t-32 276.5t-101.5 215t-180 140.5t-268.5 50t-267.5 -50t-179 -140.5t-100 -215.5t-30.5 -276zM399 551q0 164 39 278.5t106.5 186t161 103.5t201.5 32q86 0 168 -24.5t145.5 -70.5t102.5 -111.5t39 -145.5q0 -72 -28.5 -119t-72.5 -73.5t-95.5 -35t-95.5 0t-72.5 31 t-28.5 56.5q0 92 -14.5 128t-47.5 36q-41 0 -60.5 -61t-19.5 -211t19.5 -210t60.5 -60q33 0 47.5 25.5t14.5 90.5q0 35 28.5 59.5t72.5 37t95.5 9.5t95.5 -26.5t72.5 -69t28.5 -116.5q0 -92 -39 -156.5t-102.5 -105.5t-145.5 -59.5t-168 -18.5q-109 0 -202 32.5 t-160.5 104.5t-106.5 185.5t-39 277.5z" />
<glyph unicode="&#xaa;" horiz-adv-x="841" d="M16 1059q0 98 27 182t80 140.5t133 56.5q53 0 93 -35t65 -86q23 39 58.5 64.5t76.5 25.5q43 0 67.5 -9t35 -30.5t12.5 -54.5t2 -78v-162q0 -111 5 -151.5t34 -40.5q35 0 51 44t16 173q0 39 13.5 54t31 13t30.5 -19.5t13 -47.5q0 -197 -56 -292t-202 -95q-47 0 -93 15 t-77 56q-29 -47 -72 -74.5t-102 -27.5q-80 0 -134 56.5t-81 140.5t-27 182zM291 1059q0 -98 12 -134t39 -36q35 0 42 71.5t7 237.5q-8 12 -20.5 22.5t-28.5 10.5q-27 0 -39 -37t-12 -135z" />
<glyph unicode="&#xab;" horiz-adv-x="837" d="M0 543q0 51 31.5 104t78 100.5t97.5 87t88 66.5q29 20 54.5 21.5t48 -10t40 -33t29.5 -48.5l94 70q49 35 91 17.5t67.5 -60.5t34 -97t-10.5 -93q-16 -37 -66 -57.5t-105.5 -37t-100.5 -33.5t-51 -48q18 12 58 14t85 -5t86 -22.5t64 -38.5q20 -20 28.5 -54t8.5 -69.5 t-9.5 -69.5t-26 -57.5t-38 -30.5t-47.5 11q-39 25 -77 51.5t-73 54.5q-10 -61 -40.5 -99t-76.5 -7q-66 45 -131 93t-116.5 97.5t-83 95.5t-31.5 87zM213 508q8 -35 30.5 -44t53.5 -7q-31 45 -31 86q0 25 6 49q-33 -8 -51 -26.5t-8 -57.5z" />
<glyph unicode="&#xac;" horiz-adv-x="868" d="M0 551q0 33 17.5 62.5t61.5 52t119.5 36t194.5 13.5q143 0 224 -15.5t120 -47t48.5 -80t9.5 -111.5t-13.5 -104.5t-36 -65t-52 -32.5t-62.5 -9q-53 0 -97.5 27.5t-60.5 109.5q-18 -2 -37.5 -2h-42.5q-119 0 -194.5 13.5t-119.5 36t-61.5 52t-17.5 64.5z" />
<glyph unicode="&#xad;" horiz-adv-x="624" d="M0 551q0 33 11.5 62.5t42 52t83.5 36t135 13.5t134.5 -13.5t83 -36t42 -52t11.5 -62.5q0 -35 -11.5 -64.5t-42 -52t-83 -36t-134.5 -13.5t-135 13.5t-83.5 36t-42 52t-11.5 64.5z" />
<glyph unicode="&#xae;" horiz-adv-x="1890" d="M0 551q0 190 56.5 358t169 294t281.5 199t396 73t397 -73t283 -199t169 -294t56 -358t-56 -359t-169 -294t-283 -198t-397 -73t-396 73t-281.5 198t-169 293.5t-56.5 359.5zM326 551q0 -152 30.5 -278t100 -216t179 -140t267.5 -50t268.5 50t180 140t101.5 216t32 278 t-32 276.5t-101.5 215t-180 140.5t-268.5 50t-267.5 -50t-179 -140.5t-100 -215.5t-30.5 -276zM504 197v751q0 49 12 79t33.5 46.5t53.5 23.5t73 7q70 0 119 -31t79 -80q37 47 89 76t122 29q72 0 128.5 -27t95.5 -73t59.5 -110.5t20.5 -139.5q0 -70 -30 -117t-74 -76 t-95 -38t-95 -1t-74 31.5t-30 62.5q0 49 -3 81t-9 48.5t-17.5 22.5t-27.5 6v-346q0 -100 -5 -181t-40 -137q-37 -57 -92.5 -80.5t-126.5 -23.5q-72 0 -119 44t-47 153z" />
<glyph unicode="&#xaf;" horiz-adv-x="833" d="M0 1391q0 33 16.5 62.5t58.5 52t114.5 34.5t185.5 12t186.5 -12t115.5 -34.5t58.5 -52t16.5 -62.5q0 -35 -16.5 -65t-58.5 -52.5t-116 -34.5t-186 -12q-113 0 -185.5 12t-114.5 34.5t-58.5 52.5t-16.5 65z" />
<glyph unicode="&#xb0;" horiz-adv-x="608" d="M0 1186q0 104 64.5 178t197.5 74t198.5 -74t65.5 -178q0 -53 -16 -99.5t-49 -81t-82 -55t-117 -20.5q-66 0 -115 20.5t-81.5 55t-49 81t-16.5 99.5zM197 1186q0 -29 15 -48.5t50 -19.5t51.5 19.5t16.5 48.5q0 25 -16.5 44t-51.5 19t-50 -19.5t-15 -43.5z" />
<glyph unicode="&#xb1;" horiz-adv-x="722" d="M0 154q0 31 14.5 58.5t50 48t98 32.5t159.5 12q96 0 158.5 -12t98 -32.5t49 -48t13.5 -58.5t-13.5 -59.5t-49 -49t-97 -33t-157.5 -12.5t-159 12.5t-99.5 33t-51 49t-14.5 59.5zM0 707q0 47 36 85.5t138 55.5q16 104 55 141t88 37t88 -37t56 -141q106 -16 143 -55t37 -86 q0 -49 -37 -89t-143 -57q-16 -104 -55 -140t-89 -36q-47 0 -85.5 37t-55.5 141q-104 16 -140 55t-36 89z" />
<glyph unicode="&#xb2;" horiz-adv-x="651" d="M19.5 693q-7.5 46 44 127t182.5 208q55 51 78.5 92t26.5 69t-9 42t-31 14q-35 0 -51 -31.5t0 -97.5q8 -35 -26.5 -54.5t-78.5 -15t-83 38t-39 105.5q0 115 73.5 181.5t194.5 66.5q76 0 141.5 -36t98 -96.5t22.5 -139.5t-86 -167q-43 -49 -80 -80.5t-64.5 -54t-43 -42 t-15.5 -42.5q59 -8 78 2.5t8 40.5q-12 35 21 58.5t78 22.5t85 -33.5t40 -110.5q0 -66 -43 -106t-125 -40q-45 -2 -84 -2h-121q-78 0 -131 17.5t-60.5 63.5z" />
<glyph unicode="&#xb3;" horiz-adv-x="626" d="M16 817q0 66 36 93.5t80 26.5t81 -25.5t39 -63.5q0 -16 9 -30.5t28 -14.5q16 0 28.5 15.5t4.5 41.5q-6 29 -30 57.5t-63 32.5q-41 4 -62.5 25.5t-21.5 48.5t21.5 50.5t62.5 31.5q39 8 63.5 33.5t31.5 54.5q8 25 -1.5 42t-31.5 17q-23 0 -31 -14t-8 -31q-4 -43 -41 -65.5 t-80 -21.5t-79 30t-36 88q0 102 78 150.5t191 48.5q55 0 105 -15.5t88 -45t60.5 -73.5t22.5 -102q0 -66 -39.5 -114t-109.5 -52q76 -18 112.5 -73.5t36.5 -110.5t-22.5 -99t-60.5 -75t-88 -46.5t-105 -15.5q-113 0 -191 49.5t-78 151.5z" />
<glyph unicode="&#xb4;" horiz-adv-x="692" d="M2 1306.5q4 24.5 23 39.5q39 31 90 63.5t103 60t98 47t75 27.5q82 27 136.5 -8.5t74.5 -101.5q18 -66 -8.5 -125.5t-108.5 -83.5q-29 -8 -79 -16.5t-108 -14.5t-119.5 -7t-110.5 5q-23 2 -39.5 21.5t-23.5 44t-3 49z" />
<glyph unicode="&#xb5;" horiz-adv-x="1181" d="M-41 958q0 55 52 100.5t163 45.5q135 0 195.5 -63.5t60.5 -211.5v-276q0 -78 5 -130t15.5 -84t26 -45t35.5 -13q18 0 32.5 6t26.5 16v602q0 61 10.5 100t32 60.5t56.5 30t86 8.5q127 0 186 -62.5t59 -210.5v-256q0 -121 1.5 -184t7.5 -91t18 -32t35 -4q53 0 71.5 -41 t-1 -91t-77 -91t-153.5 -41q-113 0 -182.5 40t-104.5 99q-43 -78 -111.5 -132t-148.5 -54q-70 0 -127 22q43 -63 82 -126.5t47.5 -114.5t-28.5 -83t-146 -32q-66 0 -101.5 20.5t-54 56.5t-23.5 84t-5 105q0 100 1 188.5t2 191t2 233.5t1 317q0 27 -7 42t-16.5 29.5t-16.5 30 t-7 41.5z" />
<glyph unicode="&#xb6;" horiz-adv-x="1009" d="M5 1090.5q7 74.5 46 138t112 105.5t181 42l434 -2q53 0 82 -46t32 -102.5t-20.5 -102.5t-72.5 -46q-14 0 -60 10v-1015q0 -55 -3 -103.5t-13 -84.5t-33.5 -56.5t-62.5 -20.5t-60.5 18.5t-33 52.5t-13.5 79t-2 98v1102q-20 6 -37.5 13.5t-34.5 11.5v-159v-200.5v-220.5 v-214v-184v-132q0 -55 -3 -103.5t-13 -84.5t-33.5 -56.5t-62.5 -20.5t-60.5 18.5t-33 52.5t-13.5 79t-2 98v713q-78 12 -130 62.5t-74.5 118t-15.5 142z" />
<glyph unicode="&#xb7;" horiz-adv-x="477" d="M0 565q0 78 49 133.5t150 55.5q100 0 148 -55.5t48 -133.5t-48 -132t-148 -54t-149.5 54t-49.5 132z" />
<glyph unicode="&#xb8;" horiz-adv-x="768" d="M2 -285q0 78 38 111t87 35t96 -22.5t66 -61.5q10 -23 15 -43.5t10 -35.5t13.5 -23.5t26.5 -8.5t32.5 11.5t17 31t-10 44t-45.5 50.5q-16 12 -34.5 24.5t-33 31t-20.5 47t2 76.5q6 31 26.5 56t44 28.5t42 -24.5t22.5 -105q0 -14 22.5 -23.5t54.5 -19t69 -21.5t68.5 -33.5 t53 -53.5t21.5 -81q0 -47 -25.5 -87t-70.5 -68.5t-106.5 -45t-131.5 -16.5q-156 0 -253 61.5t-97 165.5z" />
<glyph unicode="&#xb9;" horiz-adv-x="372" d="M18.5 1334.5q-6.5 19.5 1 42t32 42t67.5 19.5q63 0 102 -8.5t60 -43.5q18 -35 21 -90t3 -122v-469q0 -47 -18.5 -68t-75.5 -21q-78 0 -114 36t-36 118v367q0 68 -1 104.5t-3 53t-6 18.5t-8 2q-18 0 -24.5 19.5z" />
<glyph unicode="&#xba;" horiz-adv-x="657" d="M0 1026q0 119 20.5 198t57.5 126t90 67.5t119 20.5q68 0 121 -20.5t90 -67.5t57 -126t20 -198q0 -117 -20 -196.5t-57 -127t-90.5 -68t-120.5 -20.5q-66 0 -119 20.5t-90 68t-57.5 127t-20.5 196.5zM238 989q0 -61 4 -98t10 -57.5t14.5 -26.5t20.5 -6q16 0 26.5 11 t16.5 52q-23 18 -46.5 51t-45.5 74zM246 1188q47 -37 90 -123q0 61 -4 97t-10.5 56.5t-14.5 26.5t-20 6q-16 0 -25.5 -11t-15.5 -52z" />
<glyph unicode="&#xbb;" horiz-adv-x="837" d="M2 761q8 54 33.5 97t67.5 60.5t92 -17.5q43 -31 92 -70q12 27 30.5 48.5t41 33t48 10.5t54.5 -22q37 -27 88 -66.5t97 -87t78 -100.5t32 -104q0 -41 -32 -87t-83 -95.5t-116.5 -97.5t-131.5 -93q-45 -31 -76.5 7t-42.5 99q-72 -55 -147 -106q-27 -18 -48.5 -11 t-37.5 30.5t-25.5 57.5t-9.5 69.5t8.5 69.5t28.5 54q20 23 62 38.5t87.5 22.5t85.5 5t58 -14q-6 31 -51 48t-100.5 33.5t-105.5 37t-67 57.5q-18 39 -10 93zM459 457q29 -2 52.5 7t31.5 44q10 39 -8.5 57.5t-53.5 26.5q8 -23 8 -49q0 -20 -8 -42t-22 -44z" />
<glyph unicode="&#xbc;" horiz-adv-x="1351" d="M-20.5 1334.5q-6.5 19.5 1 42t32 42t67.5 19.5q66 0 103.5 -8.5t60.5 -43.5q18 -35 21 -90t3 -122v-474q0 -47 -18.5 -68.5t-75.5 -21.5q-80 0 -115.5 36t-35.5 120v369q0 70 -1.5 106.5t-3.5 53t-6 18.5t-8 2q-18 0 -24.5 19.5zM169 54.5q-11 31.5 0 89t52 149.5 q6 16 35 80.5t66.5 151.5t80.5 185.5t83 186.5t69 153.5t39 86.5q53 111 90 171t67.5 88.5t60.5 34t71 5.5t68.5 -12.5t34.5 -46.5t-7 -94t-55 -157q-10 -23 -40 -93t-71 -164.5t-86 -200t-84 -196.5t-66.5 -155.5t-33.5 -76.5q-35 -72 -63.5 -119t-58.5 -74t-61.5 -37 t-70.5 -10q-45 0 -77 11.5t-43 43zM651 266q4 33 15 68q12 35 30.5 73.5t44 90t62.5 120t86 160.5q10 20 33.5 34.5t60.5 14.5q66 0 104.5 -8t59.5 -43q18 -35 21 -90t3 -123v-237q8 2 16.5 2h16.5q23 0 33 -27t10 -59.5t-11 -59t-32 -26.5h-33v-66q0 -47 -18.5 -68.5 t-75.5 -21.5q-78 0 -114.5 36t-36.5 120h-129q-61 0 -93 14t-44.5 38.5t-8.5 57.5zM856 338q-2 -41 35 -41h35v227q0 55 -13.5 56.5t-23.5 -45.5z" />
<glyph unicode="&#xbd;" horiz-adv-x="1394" d="M-20.5 1334.5q-6.5 19.5 1 42t32 42t67.5 19.5q66 0 103.5 -8.5t60.5 -43.5q18 -35 21 -90t3 -122v-474q0 -47 -18.5 -68.5t-75.5 -21.5q-80 0 -115.5 36t-35.5 120v369q0 70 -1.5 106.5t-3.5 53t-6 18.5t-8 2q-18 0 -24.5 19.5zM169 54.5q-11 31.5 0 89t52 149.5 q6 16 35 80.5t66.5 151.5t80.5 185.5t83 186.5t69 153.5t39 86.5q53 111 90 171t67.5 88.5t60.5 34t71 5.5t68.5 -12.5t34.5 -46.5t-7 -94t-55 -157q-10 -23 -40 -93t-71 -164.5t-86 -200t-84 -196.5t-66.5 -155.5t-33.5 -76.5q-35 -72 -63.5 -119t-58.5 -74t-61.5 -37 t-70.5 -10q-45 0 -77 11.5t-43 43zM745.5 79q-6.5 46 45 127t184.5 208q55 51 77.5 92t25.5 68.5t-9 42t-29 14.5q-35 0 -52 -32t-1 -97q8 -35 -25.5 -54.5t-78.5 -15.5t-84 38t-39 105q0 115 74.5 181.5t193.5 66.5q76 0 141.5 -35.5t99.5 -96t22.5 -139.5t-87.5 -167 q-43 -49 -80 -81t-63.5 -54.5t-41.5 -42t-15 -41.5q59 -8 76.5 2t6.5 41q-12 35 21 58.5t79 22.5t86 -34t40 -111q0 -66 -43 -105.5t-125 -39.5q-47 -2 -86 -2h-123q-78 0 -131 17.5t-59.5 63.5z" />
<glyph unicode="&#xbe;" horiz-adv-x="1509" d="M0 817q0 66 36 93.5t80 26.5t80.5 -25.5t39.5 -63.5q0 -16 9 -30.5t27 -14.5q16 0 28.5 15.5t4.5 41.5q-6 29 -29.5 57.5t-62.5 32.5q-41 4 -61.5 25.5t-20.5 48.5t20.5 50.5t61.5 31.5q39 8 63.5 33.5t30.5 54.5q8 25 -1 42t-32 17t-30.5 -14t-7.5 -31q-4 -43 -41 -65.5 t-80 -21.5t-79 30t-36 88q0 102 78 150.5t190 48.5q57 0 107.5 -15.5t88.5 -45t59.5 -73.5t21.5 -102q0 -66 -40 -114t-110 -52q76 -18 113 -73.5t37 -110.5t-21.5 -99t-59.5 -75t-88 -46.5t-108 -15.5q-113 0 -190.5 49.5t-77.5 151.5zM326.5 54.5q-11.5 31.5 0 89 t52.5 149.5q6 16 34.5 80.5t66.5 151.5t81 185.5t83 186.5t68.5 153.5t39.5 86.5q53 111 90 171t67.5 88.5t60 34t70.5 5.5t69 -12.5t35 -46.5t-7.5 -94t-55.5 -157q-10 -23 -39.5 -93t-70.5 -164.5t-86 -200t-84 -196.5t-67 -155.5t-34 -76.5q-35 -72 -63.5 -119t-58 -74 t-61.5 -37t-71 -10q-45 0 -76.5 11.5t-43 43zM809 266q4 33 14 68q12 35 30.5 73.5t44.5 90t62.5 120t86.5 160.5q10 20 33.5 34.5t60.5 14.5q66 0 104.5 -8t59.5 -43q18 -35 21 -90t3 -123v-237q8 2 16.5 2h16.5q23 0 33 -27t10 -59.5t-11.5 -59t-31.5 -26.5h-33v-66 q0 -47 -18.5 -68.5t-75.5 -21.5q-78 0 -115 36t-37 120h-129q-61 0 -93 14t-44 38.5t-8 57.5zM1014 338q-2 -41 35 -41h34v227q0 55 -13 56.5t-23 -45.5z" />
<glyph unicode="&#xbf;" horiz-adv-x="1013" d="M-389 293q0 76 26.5 131t67.5 96t89 69.5t92 52.5t76 44.5t42 44.5q16 41 48 60.5t66 14.5t62.5 -34t38.5 -86q6 -45 -5 -73.5t-32.5 -50t-48.5 -39t-51 -42.5q-53 -51 -71.5 -99t-15.5 -85t25.5 -58.5t53.5 -21.5q57 0 77.5 49t-4.5 135q-10 39 14.5 72t68.5 51.5 t98.5 19.5t101.5 -21.5t80 -72t33 -133.5q0 -100 -34 -181t-95.5 -137t-146.5 -87t-189 -31q-92 0 -177 31t-149.5 85t-102.5 130t-38 166zM-98 1118q0 84 52 143.5t161 59.5q111 0 165 -59.5t54 -143.5q0 -86 -53.5 -144.5t-163.5 -58.5q-109 0 -162 58.5t-53 144.5z" />
<glyph unicode="&#xc0;" horiz-adv-x="1370" d="M-41 101.5q0 35.5 16 88.5q25 66 56.5 155t67.5 189.5t73 207t73 206t66.5 188.5t55.5 154q16 47 38.5 76t54.5 45t75 21.5t98 5.5q129 -4 210 -63.5t124 -198.5q70 -223 115.5 -393.5t79.5 -285t59.5 -175t56.5 -62.5q25 0 43 16.5t28.5 57.5t15.5 109.5t5 170.5 q0 61 22.5 86t48 22t48 -31.5t22.5 -76.5q0 -301 -73.5 -448.5t-257.5 -165.5q-78 -8 -137.5 10.5t-105.5 57t-80 97t-62 130.5l-246 -35q-33 -4 -60.5 5t-42.5 34q-12 -27 -25 -51.5t-28 -46.5q-41 -66 -83 -105t-82 -60.5t-77.5 -28.5t-74.5 -7q-35 0 -61.5 10t-41 33 t-14.5 58.5zM313 1767q20 66 74.5 102t136.5 9q29 -8 75 -27.5t98.5 -47t103.5 -60.5t90 -64q18 -14 22.5 -38.5t-3 -49t-24 -44t-38.5 -21.5q-49 -6 -110.5 -5t-120 7t-109.5 14t-78 17q-82 25 -108.5 83.5t-8.5 124.5zM537 582h65q90 0 133 -56q-23 78 -47 161t-47 159 t-43.5 140.5t-34.5 107.5q14 -111 8 -244t-34 -268z" />
<glyph unicode="&#xc1;" horiz-adv-x="1370" d="M-41 101.5q0 35.5 16 88.5q25 66 56.5 155t67.5 189.5t73 207t73 206t66.5 188.5t55.5 154q16 47 38.5 76t54.5 45t75 21.5t98 5.5q129 -4 210 -63.5t124 -198.5q70 -223 115.5 -393.5t79.5 -285t59.5 -175t56.5 -62.5q25 0 43 16.5t28.5 57.5t15.5 109.5t5 170.5 q0 61 22.5 86t48 22t48 -31.5t22.5 -76.5q0 -301 -73.5 -448.5t-257.5 -165.5q-78 -8 -137.5 10.5t-105.5 57t-80 97t-62 130.5l-246 -35q-33 -4 -60.5 5t-42.5 34q-12 -27 -25 -51.5t-28 -46.5q-41 -66 -83 -105t-82 -60.5t-77.5 -28.5t-74.5 -7q-35 0 -61.5 10t-41 33 t-14.5 58.5zM385 1640.5q4 24.5 23 38.5q39 31 90 64t103 60.5t98 47t75 27.5q82 27 136.5 -9t74.5 -102q18 -66 -8.5 -125t-108.5 -83q-29 -8 -79 -16.5t-108 -14.5t-119.5 -7t-110.5 5q-23 2 -39.5 21.5t-23.5 44t-3 49zM537 582h65q90 0 133 -56q-23 78 -47 161t-47 159 t-43.5 140.5t-34.5 107.5q14 -111 8 -244t-34 -268z" />
<glyph unicode="&#xc2;" horiz-adv-x="1370" d="M-41 101.5q0 35.5 16 88.5q25 66 56.5 155t67.5 189.5t73 207t73 206t66.5 188.5t55.5 154q16 47 38.5 76t54.5 45t75 21.5t98 5.5q129 -4 210 -63.5t124 -198.5q70 -223 115.5 -393.5t79.5 -285t59.5 -175t56.5 -62.5q25 0 43 16.5t28.5 57.5t15.5 109.5t5 170.5 q0 61 22.5 86t48 22t48 -31.5t22.5 -76.5q0 -301 -73.5 -448.5t-257.5 -165.5q-78 -8 -137.5 10.5t-105.5 57t-80 97t-62 130.5l-246 -35q-33 -4 -60.5 5t-42.5 34q-12 -27 -25 -51.5t-28 -46.5q-41 -66 -83 -105t-82 -60.5t-77.5 -28.5t-74.5 -7q-35 0 -61.5 10t-41 33 t-14.5 58.5zM307 1583q92 133 192.5 195.5t182.5 62.5q51 0 103.5 -15.5t99.5 -42t87 -61t66 -71.5q35 -49 17.5 -91t-60.5 -69t-97 -34t-93 11q-37 16 -57.5 51t-36 71t-32.5 65t-48 35q23 -37 8.5 -92.5t-61.5 -98.5q-31 -31 -87.5 -36t-105.5 8.5t-75.5 43t-2.5 68.5z M537 582h65q90 0 133 -56q-23 78 -47 161t-47 159t-43.5 140.5t-34.5 107.5q14 -111 8 -244t-34 -268z" />
<glyph unicode="&#xc3;" horiz-adv-x="1370" d="M-41 101.5q0 35.5 16 88.5q25 66 56.5 155t67.5 189.5t73 207t73 206t66.5 188.5t55.5 154q16 47 38.5 76t54.5 45t75 21.5t98 5.5q129 -4 210 -63.5t124 -198.5q70 -223 115.5 -393.5t79.5 -285t59.5 -175t56.5 -62.5q25 0 43 16.5t28.5 57.5t15.5 109.5t5 170.5 q0 61 22.5 86t48 22t48 -31.5t22.5 -76.5q0 -301 -73.5 -448.5t-257.5 -165.5q-78 -8 -137.5 10.5t-105.5 57t-80 97t-62 130.5l-246 -35q-33 -4 -60.5 5t-42.5 34q-12 -27 -25 -51.5t-28 -46.5q-41 -66 -83 -105t-82 -60.5t-77.5 -28.5t-74.5 -7q-35 0 -61.5 10t-41 33 t-14.5 58.5zM293 1679q8 45 49 93q66 82 155 85t173 -67q37 -29 59 -28t51 34q35 39 78 53.5t83 10t73 -26t47 -57t4 -82.5t-53 -103q-35 -43 -82 -65.5t-96.5 -25.5t-95.5 10.5t-74 43.5q-20 18 -34 29.5t-24 13.5t-22.5 -7t-28.5 -29q-33 -41 -73 -54.5t-76.5 -5.5 t-66.5 34t-42 62.5t-4 81.5zM537 582h65q90 0 133 -56q-23 78 -47 161t-47 159t-43.5 140.5t-34.5 107.5q14 -111 8 -244t-34 -268z" />
<glyph unicode="&#xc4;" horiz-adv-x="1370" d="M-41 101.5q0 35.5 16 88.5q25 66 56.5 155t67.5 189.5t73 207t73 206t66.5 188.5t55.5 154q16 47 38.5 76t54.5 45t75 21.5t98 5.5q129 -4 210 -63.5t124 -198.5q70 -223 115.5 -393.5t79.5 -285t59.5 -175t56.5 -62.5q25 0 43 16.5t28.5 57.5t15.5 109.5t5 170.5 q0 61 22.5 86t48 22t48 -31.5t22.5 -76.5q0 -301 -73.5 -448.5t-257.5 -165.5q-78 -8 -137.5 10.5t-105.5 57t-80 97t-62 130.5l-246 -35q-33 -4 -60.5 5t-42.5 34q-12 -27 -25 -51.5t-28 -46.5q-41 -66 -83 -105t-82 -60.5t-77.5 -28.5t-74.5 -7q-35 0 -61.5 10t-41 33 t-14.5 58.5zM272 1677q0 78 50.5 131.5t150.5 53.5q98 0 147.5 -53.5t49.5 -131.5t-49.5 -133t-147.5 -55q-100 0 -150.5 55t-50.5 133zM537 582h65q90 0 133 -56q-23 78 -47 161t-47 159t-43.5 140.5t-34.5 107.5q14 -111 8 -244t-34 -268zM698 1677q0 78 50.5 131.5 t148.5 53.5q100 0 149.5 -53.5t49.5 -131.5t-49.5 -133t-149.5 -55q-98 0 -148.5 55t-50.5 133z" />
<glyph unicode="&#xc5;" horiz-adv-x="1370" d="M-41 101.5q0 35.5 16 88.5q25 66 56.5 155t67.5 189.5t73 207t73 206t66.5 188.5t55.5 154q16 47 38.5 76t54.5 45t75 21.5t98 5.5q129 -4 210 -63.5t124 -198.5q70 -223 115.5 -393.5t79.5 -285t59.5 -175t56.5 -62.5q25 0 43 16.5t28.5 57.5t15.5 109.5t5 170.5 q0 61 22.5 86t48 22t48 -31.5t22.5 -76.5q0 -301 -73.5 -448.5t-257.5 -165.5q-78 -8 -137.5 10.5t-105.5 57t-80 97t-62 130.5l-246 -35q-33 -4 -60.5 5t-42.5 34q-12 -27 -25 -51.5t-28 -46.5q-41 -66 -83 -105t-82 -60.5t-77.5 -28.5t-74.5 -7q-35 0 -61.5 10t-41 33 t-14.5 58.5zM387 1698q0 90 63.5 152.5t192.5 62.5q131 0 194.5 -62.5t63.5 -152.5t-63.5 -153.5t-194.5 -63.5q-129 0 -192.5 63.5t-63.5 153.5zM537 582h65q90 0 133 -56q-23 78 -47 161t-47 159t-43.5 140.5t-34.5 107.5q14 -111 8 -244t-34 -268zM580 1698 q0 -23 15 -40.5t48 -17.5q35 0 50.5 17.5t15.5 40.5t-15.5 39t-50.5 16q-33 0 -48 -16.5t-15 -38.5z" />
<glyph unicode="&#xc6;" horiz-adv-x="1927" d="M-49 43q-6 23 8 58.5t51 88.5q49 66 116 156t140.5 190.5t152.5 206t152.5 206t139 188.5t116.5 153q47 61 94.5 92t105.5 43.5t133 12.5h177h19q125 0 214 -27t145.5 -74t82 -110.5t25.5 -134.5q0 -78 -29 -131.5t-72 -84t-92 -40t-92 1t-71.5 40t-28.5 74.5 q0 74 -2 118t-9.5 66.5t-20.5 30t-36 7.5q-12 0 -25.5 -29t-22.5 -71t-12 -92t8 -93t38.5 -73t77.5 -32q39 -2 61.5 -29.5t25.5 -61.5t-13.5 -64.5t-57.5 -38.5q-90 -18 -130 -85t-26.5 -139.5t81 -130t190.5 -57.5q63 0 128.5 27.5t117 82t84 136.5t32.5 190q0 61 22.5 86 t48 22t48 -31.5t22.5 -76.5q0 -147 -43 -269t-124.5 -210t-202.5 -136t-277 -48q-96 0 -186 19.5t-164 59.5t-126 100t-73 144l-194 -24q-74 -10 -112 2t-42 37q-4 -20 -23.5 -43t-41.5 -45q-68 -66 -128.5 -105t-113.5 -60.5t-98 -28.5t-82 -7q-35 0 -57.5 10t-28.5 33z M774 569l141 13h17q72 94 194 112q-55 0 -100 23.5t-78 63.5t-53.5 92.5t-22.5 111.5q-4 -41 -9 -92t-14 -105.5t-26.5 -110.5t-48.5 -108z" />
<glyph unicode="&#xc7;" horiz-adv-x="1077" d="M-2 715q0 190 34 327.5t99.5 225.5t159.5 129t215 41q139 0 233.5 -52.5t150.5 -135.5t80.5 -186t24.5 -204q0 -78 -28.5 -131t-72.5 -84t-95 -40t-95.5 1t-73 40t-28.5 75v153.5t-7 146t-24.5 110t-50.5 43.5q-25 0 -42 -38t-28.5 -101.5t-17.5 -146.5t-6 -173 q0 -147 21.5 -248.5t63.5 -166t102.5 -93.5t140.5 -29q63 0 122.5 27.5t103.5 82t70.5 136.5t26.5 190q0 61 22.5 86t48.5 22t48.5 -31.5t22.5 -76.5q0 -145 -42 -266t-122 -208t-197 -137t-268 -52q0 -4 1 -7t1 -7q0 -14 22.5 -23.5t54 -19t68.5 -21.5t69 -33.5t53.5 -53.5 t21.5 -81q0 -47 -26 -87t-71 -68.5t-106.5 -45t-130.5 -16.5q-156 0 -253 61.5t-97 165.5q0 78 37.5 111t87 35t96.5 -22.5t65 -61.5q10 -23 15.5 -43.5t10.5 -35.5t13 -23.5t27 -8.5q18 0 32.5 11.5t16.5 31t-10.5 44t-44.5 50.5q-14 12 -31.5 23.5t-32 28t-22.5 41 t-4 65.5q-227 35 -341 221.5t-114 532.5z" />
<glyph unicode="&#xc8;" horiz-adv-x="1077" d="M12 360q-2 66 17.5 123.5t54.5 101.5t84 72.5t108 36.5q-61 0 -111 30t-84 80t-48.5 114.5t-5.5 134.5q12 100 55 172.5t107.5 120t145.5 70t171 22.5q125 0 214 -27t145.5 -74t82 -110.5t25.5 -134.5q0 -78 -29 -131.5t-72 -84t-92 -40t-92 1t-71.5 40t-28.5 74.5 q0 74 -2 118t-9.5 66.5t-20.5 30t-36 7.5q-12 0 -25.5 -29t-22.5 -71t-12 -92t8 -93t39 -73t77 -32q39 -2 61.5 -29.5t25.5 -61.5t-13.5 -64.5t-57.5 -38.5q-90 -18 -130 -85t-26.5 -139.5t81 -130t190.5 -57.5q63 0 128.5 27.5t117 82t84 136.5t32.5 190q0 61 22.5 86 t48.5 22t48.5 -31.5t22.5 -76.5q0 -147 -43 -269t-125 -210t-203 -136t-277 -48q-106 0 -205.5 24.5t-177 74.5t-126 127t-50.5 183zM238 1767q20 66 74.5 102t136.5 9q29 -8 74.5 -27.5t98 -47t103.5 -60.5t90 -64q18 -14 22.5 -38.5t-3 -49t-23.5 -44t-39 -21.5 q-49 -6 -110.5 -5t-120 7t-109.5 14t-78 17q-82 25 -108 83.5t-8 124.5z" />
<glyph unicode="&#xc9;" horiz-adv-x="1077" d="M12 360q-2 66 17.5 123.5t54.5 101.5t84 72.5t108 36.5q-61 0 -111 30t-84 80t-48.5 114.5t-5.5 134.5q12 100 55 172.5t107.5 120t145.5 70t171 22.5q125 0 214 -27t145.5 -74t82 -110.5t25.5 -134.5q0 -78 -29 -131.5t-72 -84t-92 -40t-92 1t-71.5 40t-28.5 74.5 q0 74 -2 118t-9.5 66.5t-20.5 30t-36 7.5q-12 0 -25.5 -29t-22.5 -71t-12 -92t8 -93t39 -73t77 -32q39 -2 61.5 -29.5t25.5 -61.5t-13.5 -64.5t-57.5 -38.5q-90 -18 -130 -85t-26.5 -139.5t81 -130t190.5 -57.5q63 0 128.5 27.5t117 82t84 136.5t32.5 190q0 61 22.5 86 t48.5 22t48.5 -31.5t22.5 -76.5q0 -147 -43 -269t-125 -210t-203 -136t-277 -48q-106 0 -205.5 24.5t-177 74.5t-126 127t-50.5 183zM237.5 1640.5q4.5 24.5 22.5 38.5q39 31 90 64t103.5 60.5t98.5 47t75 27.5q82 27 136.5 -9t74.5 -102q18 -66 -8.5 -125t-108.5 -83 q-29 -8 -79 -16.5t-108.5 -14.5t-120 -7t-110.5 5q-23 2 -39 21.5t-23.5 44t-3 49z" />
<glyph unicode="&#xca;" horiz-adv-x="1077" d="M12 360q-2 66 17.5 123.5t54.5 101.5t84 72.5t108 36.5q-61 0 -111 30t-84 80t-48.5 114.5t-5.5 134.5q12 100 55 172.5t107.5 120t145.5 70t171 22.5q125 0 214 -27t145.5 -74t82 -110.5t25.5 -134.5q0 -78 -29 -131.5t-72 -84t-92 -40t-92 1t-71.5 40t-28.5 74.5 q0 74 -2 118t-9.5 66.5t-20.5 30t-36 7.5q-12 0 -25.5 -29t-22.5 -71t-12 -92t8 -93t39 -73t77 -32q39 -2 61.5 -29.5t25.5 -61.5t-13.5 -64.5t-57.5 -38.5q-90 -18 -130 -85t-26.5 -139.5t81 -130t190.5 -57.5q63 0 128.5 27.5t117 82t84 136.5t32.5 190q0 61 22.5 86 t48.5 22t48.5 -31.5t22.5 -76.5q0 -147 -43 -269t-125 -210t-203 -136t-277 -48q-106 0 -205.5 24.5t-177 74.5t-126 127t-50.5 183zM160 1583q92 133 192.5 195.5t182.5 62.5q51 0 103 -15.5t99 -42t87 -61t67 -71.5q35 -49 17.5 -91t-60.5 -69t-97.5 -34t-93.5 11 q-37 16 -57 51t-35.5 71t-33 65t-48.5 35q23 -37 8.5 -92.5t-61.5 -98.5q-31 -31 -87 -36t-105.5 8.5t-76 43t-1.5 68.5z" />
<glyph unicode="&#xcb;" horiz-adv-x="1077" d="M12 360q-2 66 17.5 123.5t54.5 101.5t84 72.5t108 36.5q-61 0 -111 30t-84 80t-48.5 114.5t-5.5 134.5q12 100 55 172.5t107.5 120t145.5 70t171 22.5q125 0 214 -27t145.5 -74t82 -110.5t25.5 -134.5q0 -78 -29 -131.5t-72 -84t-92 -40t-92 1t-71.5 40t-28.5 74.5 q0 74 -2 118t-9.5 66.5t-20.5 30t-36 7.5q-12 0 -25.5 -29t-22.5 -71t-12 -92t8 -93t39 -73t77 -32q39 -2 61.5 -29.5t25.5 -61.5t-13.5 -64.5t-57.5 -38.5q-90 -18 -130 -85t-26.5 -139.5t81 -130t190.5 -57.5q63 0 128.5 27.5t117 82t84 136.5t32.5 190q0 61 22.5 86 t48.5 22t48.5 -31.5t22.5 -76.5q0 -147 -43 -269t-125 -210t-203 -136t-277 -48q-106 0 -205.5 24.5t-177 74.5t-126 127t-50.5 183zM127 1677q0 78 50 131.5t151 53.5q98 0 147 -53.5t49 -131.5t-49 -133t-147 -55q-100 0 -150.5 55t-50.5 133zM553 1677q0 78 50 131.5 t149 53.5q100 0 149 -53.5t49 -131.5t-49 -133t-149 -55q-98 0 -148.5 55t-50.5 133z" />
<glyph unicode="&#xcc;" horiz-adv-x="569" d="M-92 1735q20 66 74.5 101.5t136.5 8.5q29 -8 75 -27.5t98 -47t103 -60.5t90 -63q18 -14 22.5 -39t-2.5 -49.5t-23.5 -44t-39.5 -21.5q-49 -6 -110.5 -5t-119.5 7t-109.5 14.5t-77.5 16.5q-82 25 -108.5 84t-8.5 125zM0 412v874q0 23 3 49.5t18.5 49t50 38t98.5 15.5 q125 0 193.5 -69t68.5 -202v-669v-106.5t4 -70t14 -39t33 -12.5q25 0 42.5 14.5t26.5 53.5t13 106.5t4 169.5q0 61 22.5 86t48.5 22t48.5 -31.5t22.5 -76.5q0 -152 -18.5 -265t-63.5 -190t-118 -117t-181 -42q-61 0 -107.5 10t-79 28.5t-56.5 44.5t-40 56q-35 59 -41 132 t-6 141z" />
<glyph unicode="&#xcd;" horiz-adv-x="569" d="M-35 1620q4 25 23 39q39 31 90 63.5t103 60t98.5 47t74.5 28.5q82 27 136.5 -9t74.5 -102q18 -66 -8.5 -125t-107.5 -84q-29 -8 -79.5 -16.5t-108.5 -14.5t-119.5 -7t-110.5 5q-23 2 -39.5 21.5t-23.5 44t-3 49.5zM0 412v874q0 23 3 49.5t18.5 49t50 38t98.5 15.5 q125 0 193.5 -69t68.5 -202v-669v-106.5t4 -70t14 -39t33 -12.5q25 0 42.5 14.5t26.5 53.5t13 106.5t4 169.5q0 61 22.5 86t48.5 22t48.5 -31.5t22.5 -76.5q0 -152 -18.5 -265t-63.5 -190t-118 -117t-181 -42q-61 0 -107.5 10t-79 28.5t-56.5 44.5t-40 56q-35 59 -41 132 t-6 141z" />
<glyph unicode="&#xce;" horiz-adv-x="569" d="M-154 1599q92 133 192.5 196t182.5 63q51 0 103.5 -15.5t99.5 -42t87 -61.5t67 -72q35 -49 17.5 -91t-60.5 -68.5t-97.5 -34t-93.5 11.5q-37 16 -57.5 51t-35.5 70.5t-32.5 64.5t-48.5 35q23 -37 8.5 -92t-61.5 -98q-31 -31 -87.5 -36t-105.5 8t-75.5 43t-2.5 68zM0 412 v874q0 23 3 49.5t18.5 49t50 38t98.5 15.5q125 0 193.5 -69t68.5 -202v-669v-106.5t4 -70t14 -39t33 -12.5q25 0 42.5 14.5t26.5 53.5t13 106.5t4 169.5q0 61 22.5 86t48.5 22t48.5 -31.5t22.5 -76.5q0 -152 -18.5 -265t-63.5 -190t-118 -117t-181 -42q-61 0 -107.5 10 t-79 28.5t-56.5 44.5t-40 56q-35 59 -41 132t-6 141z" />
<glyph unicode="&#xcf;" horiz-adv-x="569" d="M-199 1677q0 78 50.5 131.5t150.5 53.5q98 0 147.5 -53.5t49.5 -131.5t-49.5 -133t-147.5 -55q-100 0 -150.5 55t-50.5 133zM0 412v874q0 23 3 49.5t18.5 49t50 38t98.5 15.5q125 0 193.5 -69t68.5 -202v-669v-106.5t4 -70t14 -39t33 -12.5q25 0 42.5 14.5t26.5 53.5 t13 106.5t4 169.5q0 61 22.5 86t48.5 22t48.5 -31.5t22.5 -76.5q0 -152 -18.5 -265t-63.5 -190t-118 -117t-181 -42q-61 0 -107.5 10t-79 28.5t-56.5 44.5t-40 56q-35 59 -41 132t-6 141zM227 1677q0 78 50.5 131.5t148.5 53.5q100 0 149.5 -53.5t49.5 -131.5t-49.5 -133 t-149.5 -55q-98 0 -148.5 55t-50.5 133z" />
<glyph unicode="&#xd0;" horiz-adv-x="1124" d="M-43 700q0 63 43 105v485q0 47 11.5 77t34 45t55 20.5t75.5 5.5h277q172 0 285.5 -45t181 -134.5t95 -224.5t27.5 -315t-22.5 -315.5t-81.5 -224.5t-161.5 -134t-264.5 -45h-336q-74 0 -125 42t-51 148v402q-23 23 -33 50.5t-10 57.5zM410 469q0 -45 1 -73.5t5 -45 t13 -22.5t28 -6q47 0 77.5 28.5t48 80.5t24.5 125t7 163q0 178 -31.5 280.5t-125.5 102.5q-18 0 -27.5 -4t-13.5 -18.5t-5 -40t-1 -70.5v-133q53 -23 71.5 -59t18.5 -77q0 -43 -18.5 -79.5t-71.5 -59.5v-92z" />
<glyph unicode="&#xd1;" horiz-adv-x="1234" d="M0 437q0 147 1 303.5t1 304v245.5q0 47 9 76t28.5 45t49.5 21.5t71 5.5h39q66 -2 116 -15.5t92 -43t78.5 -79t75.5 -124.5q76 -150 126 -275t84 -224t54.5 -176t36.5 -130q-20 164 -52 287.5t-58.5 224t-38 184.5t11.5 168q18 68 45 107.5t60.5 61t69.5 28t73 6.5 q70 0 123 -42t55 -149q2 -100 1 -246.5t-1 -303t-1 -303t1 -244.5q0 -47 -5 -77t-20.5 -46.5t-42 -21.5t-65.5 -5q-76 0 -127 3t-94 18.5t-86 49t-101 97.5q-16 16 -36.5 67.5t-46 126t-54.5 163.5t-60.5 178.5t-65.5 173.5t-66 147q16 -84 45.5 -187.5t54.5 -213t38 -219 t-5 -203.5q-12 -68 -39 -107t-60.5 -60.5t-71.5 -27.5t-73 -6q-72 0 -120 42t-48 148q-2 100 -2 247zM205 1659q8 45 49 92q66 82 155 85t173 -67q37 -29 59 -27.5t51 34.5q35 39 78 53t83 10t72.5 -25.5t47 -57.5t4.5 -83t-53 -102q-35 -43 -82 -65.5t-96.5 -25.5t-95.5 10 t-75 44q-20 18 -33.5 29.5t-23.5 13.5t-22.5 -7t-28.5 -30q-33 -41 -73 -54t-76.5 -5t-66.5 33.5t-42 62.5t-4 82z" />
<glyph unicode="&#xd2;" horiz-adv-x="1122" d="M0 696q0 213 36 355.5t103.5 228.5t162.5 122t216 36t218.5 -36t165 -122t103 -228.5t35.5 -355.5t-35.5 -356t-103 -229t-165 -123t-218.5 -37t-216 37t-162.5 123t-103.5 229t-36 356zM219 1747q20 66 74.5 101.5t136.5 9.5q29 -8 75 -28t98 -47.5t103.5 -60 t90.5 -63.5q18 -14 22 -39t-3 -49.5t-23.5 -44t-38.5 -21.5q-49 -6 -110.5 -5t-120 7t-110 14.5t-77.5 16.5q-82 25 -108.5 84t-8.5 125zM430 696q0 -135 5 -216t16.5 -124t27.5 -56t39 -13q25 0 41 13t27.5 56t16.5 124t5 216t-5 215t-16.5 122t-27.5 55.5t-41 13.5 q-23 0 -39 -13.5t-27.5 -55.5t-16.5 -122t-5 -215z" />
<glyph unicode="&#xd3;" horiz-adv-x="1122" d="M0 696q0 213 36 355.5t103.5 228.5t162.5 122t216 36t218.5 -36t165 -122t103 -228.5t35.5 -355.5t-35.5 -356t-103 -229t-165 -123t-218.5 -37t-216 37t-162.5 123t-103.5 229t-36 356zM260 1620q4 25 23 39q39 31 90 63.5t103 60t98.5 47t74.5 28.5q82 27 136.5 -9 t74.5 -102q18 -66 -8.5 -125t-108.5 -84q-29 -8 -79 -16.5t-108 -14.5t-119.5 -7t-110.5 5q-23 2 -39.5 21.5t-23.5 44t-3 49.5zM430 696q0 -135 5 -216t16.5 -124t27.5 -56t39 -13q25 0 41 13t27.5 56t16.5 124t5 216t-5 215t-16.5 122t-27.5 55.5t-41 13.5 q-23 0 -39 -13.5t-27.5 -55.5t-16.5 -122t-5 -215z" />
<glyph unicode="&#xd4;" horiz-adv-x="1122" d="M0 696q0 213 36 355.5t103.5 228.5t162.5 122t216 36t218.5 -36t165 -122t103 -228.5t35.5 -355.5t-35.5 -356t-103 -229t-165 -123t-218.5 -37t-216 37t-162.5 123t-103.5 229t-36 356zM162 1604q92 133 192.5 195.5t182.5 62.5q51 0 103 -15.5t99 -42t87 -61.5t67 -72 q35 -49 17.5 -91t-60.5 -68.5t-97.5 -34t-93.5 11.5q-37 16 -57 51t-35.5 71t-33 64.5t-48.5 34.5q23 -37 8.5 -92t-61.5 -98q-31 -31 -87 -36t-105.5 8t-76 43t-1.5 69zM430 696q0 -135 5 -216t16.5 -124t27.5 -56t39 -13q25 0 41 13t27.5 56t16.5 124t5 216t-5 215 t-16.5 122t-27.5 55.5t-41 13.5q-23 0 -39 -13.5t-27.5 -55.5t-16.5 -122t-5 -215z" />
<glyph unicode="&#xd5;" horiz-adv-x="1122" d="M0 696q0 213 36 355.5t103.5 228.5t162.5 122t216 36t218.5 -36t165 -122t103 -228.5t35.5 -355.5t-35.5 -356t-103 -229t-165 -123t-218.5 -37t-216 37t-162.5 123t-103.5 229t-36 356zM170 1663q8 45 49 92q66 82 155 85t173 -66q37 -29 59 -28t51 34q35 39 78 53 t83 10t73 -25.5t47 -57.5t4 -83t-53 -102q-35 -43 -82 -65.5t-96 -25.5t-95.5 10t-74.5 44q-20 18 -33.5 29.5t-24 13.5t-22.5 -7t-29 -30q-33 -41 -73 -54t-76.5 -5t-66.5 33.5t-42 62.5t-4 82zM430 696q0 -135 5 -216t16.5 -124t27.5 -56t39 -13q25 0 41 13t27.5 56 t16.5 124t5 216t-5 215t-16.5 122t-27.5 55.5t-41 13.5q-23 0 -39 -13.5t-27.5 -55.5t-16.5 -122t-5 -215z" />
<glyph unicode="&#xd6;" horiz-adv-x="1122" d="M0 696q0 213 36 355.5t103.5 228.5t162.5 122t216 36t218.5 -36t165 -122t103 -228.5t35.5 -355.5t-35.5 -356t-103 -229t-165 -123t-218.5 -37t-216 37t-162.5 123t-103.5 229t-36 356zM123 1677q0 78 50 131.5t151 53.5q98 0 147 -53.5t49 -131.5t-49 -133t-147 -55 q-100 0 -150.5 55t-50.5 133zM430 696q0 -135 5 -216t16.5 -124t27.5 -56t39 -13q25 0 41 13t27.5 56t16.5 124t5 216t-5 215t-16.5 122t-27.5 55.5t-41 13.5q-23 0 -39 -13.5t-27.5 -55.5t-16.5 -122t-5 -215zM549 1677q0 78 50 131.5t149 53.5q100 0 149 -53.5t49 -131.5 t-49 -133t-149 -55q-98 0 -148.5 55t-50.5 133z" />
<glyph unicode="&#xd7;" horiz-adv-x="722" d="M53.5 686q1.5 53 36.5 88t88 37t139 -59q86 63 139.5 62t88.5 -36q33 -35 36 -89t-61 -140q63 -86 61.5 -139.5t-36.5 -87.5q-35 -35 -88.5 -36t-139.5 60q-86 -61 -138 -59t-87 37t-36 87t59 136q-63 86 -61.5 139z" />
<glyph unicode="&#xd8;" horiz-adv-x="1122" d="M-29 143.5q4 75.5 80 139.5q-51 156 -51 413q0 213 36 355.5t103.5 228.5t162.5 122t216 36q123 0 219 -37l23 18q88 66 166 50.5t129 -83.5q49 -66 43 -145.5t-92 -144.5q-4 -4 -13 -9q23 -78 35 -174t12 -217q0 -213 -35.5 -356t-103 -229t-165 -123t-218.5 -37 q-109 0 -196 31l-13 -13q-43 -33 -85 -44t-80 -5t-71.5 27.5t-58.5 54.5q-47 66 -43 141.5zM430 696q0 -135 5 -216t16.5 -124t27.5 -56t39 -13q25 0 41 13t27.5 56t16.5 124t5 216t-5 215t-16.5 122t-27.5 55.5t-41 13.5q-23 0 -39 -13.5t-27.5 -55.5t-16.5 -122t-5 -215z " />
<glyph unicode="&#xd9;" horiz-adv-x="1257" d="M0 1294q0 57 54.5 100.5t164.5 43.5q135 0 196.5 -61.5t61.5 -209.5v-616q0 -156 20.5 -213t61.5 -57q59 0 92 63q20 33 27.5 97.5t9.5 144.5v700q0 23 3 49.5t18.5 49t50.5 38t98 15.5q125 0 193.5 -69t68.5 -202v-669v-106.5t4 -70t14 -39t33 -12.5q25 0 42.5 14.5 t26.5 53.5t13 106.5t4 169.5q0 61 23 86t48.5 22t48 -31.5t22.5 -76.5q0 -152 -18.5 -265t-63.5 -190t-118 -117t-181 -42q-61 0 -107.5 10t-79 28.5t-56 44.5t-40.5 56q-27 41 -35 90q-16 -55 -45.5 -104t-68.5 -88t-86 -61.5t-99 -22.5q-109 0 -177 31.5t-106 94 t-51.5 157t-13.5 219.5v694q0 27 -8 43t-18.5 30.5t-18.5 30t-8 41.5zM252 1747q20 66 74.5 101.5t136.5 9.5q29 -8 75 -28t98 -47.5t103.5 -60t89.5 -63.5q18 -14 22.5 -39t-2.5 -49.5t-23.5 -44t-39.5 -21.5q-49 -6 -110.5 -5t-119.5 7t-109.5 14.5t-77.5 16.5 q-82 25 -108.5 84t-8.5 125z" />
<glyph unicode="&#xda;" horiz-adv-x="1257" d="M0 1294q0 57 54.5 100.5t164.5 43.5q135 0 196.5 -61.5t61.5 -209.5v-616q0 -156 20.5 -213t61.5 -57q59 0 92 63q20 33 27.5 97.5t9.5 144.5v700q0 23 3 49.5t18.5 49t50.5 38t98 15.5q125 0 193.5 -69t68.5 -202v-669v-106.5t4 -70t14 -39t33 -12.5q25 0 42.5 14.5 t26.5 53.5t13 106.5t4 169.5q0 61 23 86t48.5 22t48 -31.5t22.5 -76.5q0 -152 -18.5 -265t-63.5 -190t-118 -117t-181 -42q-61 0 -107.5 10t-79 28.5t-56 44.5t-40.5 56q-27 41 -35 90q-16 -55 -45.5 -104t-68.5 -88t-86 -61.5t-99 -22.5q-109 0 -177 31.5t-106 94 t-51.5 157t-13.5 219.5v694q0 27 -8 43t-18.5 30.5t-18.5 30t-8 41.5zM287 1620q4 25 22 39q39 31 90.5 63.5t103.5 60t98 47t75 28.5q82 27 136.5 -9t74.5 -102q18 -66 -8.5 -125t-108.5 -84q-29 -8 -79 -16.5t-108.5 -14.5t-120 -7t-110.5 5q-23 2 -39 21.5t-23 44 t-3 49.5z" />
<glyph unicode="&#xdb;" horiz-adv-x="1257" d="M0 1294q0 57 54.5 100.5t164.5 43.5q135 0 196.5 -61.5t61.5 -209.5v-616q0 -156 20.5 -213t61.5 -57q59 0 92 63q25 41 31 125t6 188v629q0 23 3 49.5t18.5 49t50.5 38t98 15.5q125 0 193.5 -69t68.5 -202v-669v-106.5t4 -70t14 -39t33 -12.5q25 0 42.5 14.5t26.5 53.5 t13 106.5t4 169.5q0 61 23 86t48.5 22t48 -31.5t22.5 -76.5q0 -152 -18.5 -265t-63.5 -190t-118 -117t-181 -42q-61 0 -107.5 10t-79 28.5t-56 44.5t-40.5 56q-27 41 -35 90q-16 -55 -45.5 -104t-68.5 -88t-86 -61.5t-99 -22.5q-109 0 -177 31.5t-106 94t-51.5 157 t-13.5 219.5v694q0 27 -8 43t-18.5 30.5t-18.5 30t-8 41.5zM174 1604q92 133 192.5 195.5t182.5 62.5q51 0 103.5 -15.5t99.5 -42t87 -61.5t66 -72q35 -49 17.5 -91t-60.5 -68.5t-97 -34t-93 11.5q-37 16 -57.5 51t-36 71t-32.5 64.5t-48 34.5q23 -37 8.5 -92t-62.5 -98 q-31 -31 -87 -36t-105 8t-75.5 43t-2.5 69z" />
<glyph unicode="&#xdc;" horiz-adv-x="1257" d="M0 1294q0 57 54.5 100.5t164.5 43.5q135 0 196.5 -61.5t61.5 -209.5v-616q0 -156 20.5 -213t61.5 -57q59 0 92 63q25 41 31 125t6 188v629q0 23 3 49.5t18.5 49t50.5 38t98 15.5q125 0 193.5 -69t68.5 -202v-669v-106.5t4 -70t14 -39t33 -12.5q25 0 42.5 14.5t26.5 53.5 t13 106.5t4 169.5q0 61 23 86t48.5 22t48 -31.5t22.5 -76.5q0 -152 -18.5 -265t-63.5 -190t-118 -117t-181 -42q-61 0 -107.5 10t-79 28.5t-56 44.5t-40.5 56q-27 41 -35 90q-16 -55 -45.5 -104t-68.5 -88t-86 -61.5t-99 -22.5q-109 0 -177 31.5t-106 94t-51.5 157 t-13.5 219.5v694q0 27 -8 43t-18.5 30.5t-18.5 30t-8 41.5zM141 1661q0 78 50.5 131t150.5 53q98 0 147.5 -53t49.5 -131t-49.5 -133t-147.5 -55q-100 0 -150.5 55t-50.5 133zM567 1661q0 78 50.5 131t148.5 53q100 0 149.5 -53t49.5 -131t-49.5 -133t-149.5 -55 q-98 0 -148.5 55t-50.5 133z" />
<glyph unicode="&#xdd;" horiz-adv-x="966" d="M-33 1368q4 39 28.5 54.5t70.5 15.5q53 0 85.5 -6.5t59.5 -32t54.5 -79.5t72.5 -151q35 -76 43 -153.5t-14 -175.5q41 100 49 172.5t18 97.5q45 117 76 182.5t68.5 98t94 40t152.5 7.5q66 0 98.5 -17.5t39 -58.5t-13 -109t-60.5 -168q-35 -86 -71 -150.5t-65.5 -117.5 t-49 -101t-19.5 -102v-204q0 -98 -6 -177t-41 -131q-37 -55 -92.5 -78.5t-126.5 -23.5q-109 0 -152 34t-43 81q0 18 4 33.5t9.5 35t9.5 48t4 75.5v316q-29 45 -57.5 103t-55 119.5t-51.5 123t-45 116.5q-41 106 -59.5 175t-14.5 108zM162 1620q4 25 22 39q39 31 90.5 63.5 t103.5 60t98 47t75 28.5q82 27 136.5 -9t74.5 -102q18 -66 -8.5 -125t-108.5 -84q-29 -8 -79 -16.5t-108.5 -14.5t-120 -7t-110.5 5q-23 2 -39 21.5t-23 44t-3 49.5z" />
<glyph unicode="&#xde;" horiz-adv-x="1071" d="M0 408v882q0 47 11.5 77t31.5 45t51 20.5t72 5.5q139 2 201.5 -60.5t62.5 -177.5v-8q162 0 273.5 -34t179 -97.5t95.5 -154.5t21 -206q-6 -131 -58 -226t-133 -152.5t-180.5 -74t-197.5 10.5v-27q0 -59 1 -102t-12 -71.5t-47 -43t-104 -14.5q-72 0 -129 23.5t-94 78.5 q-35 51 -40 130t-5 176zM430 451q41 0 77 20.5t61.5 53t40 72.5t14.5 81q0 68 -27 123t-86 55q-37 0 -56.5 -16.5t-23.5 -83.5v-305z" />
<glyph unicode="&#xdf;" horiz-adv-x="1124" d="M0 51v957q0 139 30.5 231t91 146.5t151.5 77t212 22.5q188 0 302 -64.5t158 -162t25.5 -213t-93.5 -218.5q-25 -31 -45.5 -56.5t-32 -42.5t-8 -27.5t27.5 -10.5q39 0 79 -20.5t71.5 -63.5t51 -108.5t19.5 -153.5q45 49 64.5 124t19.5 146q0 61 22.5 86t48.5 22 t48.5 -31.5t22.5 -76.5q0 -131 -36 -250.5t-103.5 -212t-167 -146.5t-226.5 -54q-74 0 -122 26.5t-76.5 67.5t-38 87t-4 87t25 67.5t47.5 26.5q29 0 45.5 27t16.5 61q0 39 -22.5 70t-50.5 59.5t-50.5 62.5t-22.5 79q0 41 7.5 69.5t16.5 57t20.5 64.5t19.5 91 q16 86 -2.5 144.5t-71.5 58.5q-20 0 -29.5 -12t-11.5 -41t0 -79t2 -124v-799q0 -115 -66.5 -181t-187.5 -66q-31 0 -61.5 10t-57 33.5t-43 61.5t-16.5 91z" />
<glyph unicode="&#xe0;" horiz-adv-x="1196" d="M-3 551q-1 113 22.5 220.5t71.5 192.5t119 136t167 51q82 0 146.5 -55.5t103.5 -134.5q35 61 92 101t123 40q70 0 106.5 -15.5t54 -47t20.5 -84t3 -126.5v-254q0 -88 1 -146t7 -94t18.5 -50.5t34.5 -14.5q27 0 47.5 15.5t34 54.5t20.5 105.5t7 168.5q0 61 22.5 86t48 22 t48 -31.5t22.5 -76.5q0 -156 -21.5 -270.5t-69.5 -191t-127 -114.5t-191 -38q-76 0 -149.5 25.5t-123.5 87.5q-45 -72 -112.5 -117t-163.5 -45t-167 51t-119 136t-71.5 192.5t-24.5 220.5zM240 1454q20 66 74.5 101.5t136.5 9.5q29 -8 74.5 -27.5t98 -47.5t103.5 -60.5 t90 -63.5q18 -14 22.5 -38.5t-3 -49.5t-23.5 -44.5t-39 -21.5q-49 -6 -110.5 -5t-120 7.5t-109.5 14.5t-78 16q-82 25 -108 84t-8 125zM432 551q0 -156 19.5 -213t60.5 -57q29 0 45 27.5t23.5 87t9.5 152.5t2 224q-12 18 -31.5 34.5t-48.5 16.5q-41 0 -60.5 -58t-19.5 -214z " />
<glyph unicode="&#xe1;" horiz-adv-x="1196" d="M-3 551q-1 113 22.5 220.5t71.5 192.5t119 136t167 51q82 0 146.5 -55.5t103.5 -134.5q35 61 92 101t123 40q70 0 106.5 -15.5t54 -47t20.5 -84t3 -126.5v-254q0 -88 1 -146t7 -94t18.5 -50.5t34.5 -14.5q27 0 47.5 15.5t34 54.5t20.5 105.5t7 168.5q0 61 22.5 86t48 22 t48 -31.5t22.5 -76.5q0 -156 -21.5 -270.5t-69.5 -191t-127 -114.5t-191 -38q-76 0 -149.5 25.5t-123.5 87.5q-45 -72 -112.5 -117t-163.5 -45t-167 51t-119 136t-71.5 192.5t-24.5 220.5zM297 1327.5q4 24.5 22 38.5q39 31 90.5 63.5t103.5 60.5t98 47t75 28 q82 27 136.5 -9t74.5 -102q18 -66 -8.5 -125t-108.5 -84q-29 -8 -79 -16t-108 -14.5t-119.5 -7.5t-111.5 5q-23 2 -39 21.5t-23 44.5t-3 49.5zM432 551q0 -156 19.5 -213t60.5 -57q29 0 45 27.5t23.5 87t9.5 152.5t2 224q-12 18 -31.5 34.5t-48.5 16.5q-41 0 -60.5 -58 t-19.5 -214z" />
<glyph unicode="&#xe2;" horiz-adv-x="1196" d="M-3 551q-1 113 22.5 220.5t71.5 192.5t119 136t167 51q82 0 146.5 -55.5t103.5 -134.5q35 61 92 101t123 40q70 0 106.5 -15.5t54 -47t20.5 -84t3 -126.5v-254q0 -88 1 -146t7 -94t18.5 -50.5t34.5 -14.5q27 0 47.5 15.5t34 54.5t20.5 105.5t7 168.5q0 61 22.5 86t48 22 t48 -31.5t22.5 -76.5q0 -156 -21.5 -270.5t-69.5 -191t-127 -114.5t-191 -38q-76 0 -149.5 25.5t-123.5 87.5q-45 -72 -112.5 -117t-163.5 -45t-167 51t-119 136t-71.5 192.5t-24.5 220.5zM219 1331q92 133 192.5 195.5t182.5 62.5q51 0 103.5 -15t99.5 -42t87 -61.5 t66 -71.5q35 -49 17.5 -91t-60.5 -69t-97 -34t-93 12q-37 16 -57.5 51t-36 70.5t-32.5 64.5t-48 35q23 -37 8.5 -92.5t-62.5 -98.5q-31 -31 -87 -36t-105 8.5t-75.5 43t-2.5 68.5zM432 551q0 -156 19.5 -213t60.5 -57q29 0 45 27.5t23.5 87t9.5 152.5t2 224 q-12 18 -31.5 34.5t-48.5 16.5q-41 0 -60.5 -58t-19.5 -214z" />
<glyph unicode="&#xe3;" horiz-adv-x="1196" d="M-3 551q-1 113 22.5 220.5t71.5 192.5t119 136t167 51q82 0 146.5 -55.5t103.5 -134.5q35 61 92 101t123 40q70 0 106.5 -15.5t54 -47t20.5 -84t3 -126.5v-254q0 -88 1 -146t7 -94t18.5 -50.5t34.5 -14.5q27 0 47.5 15.5t34 54.5t20.5 105.5t7 168.5q0 61 22.5 86t48 22 t48 -31.5t22.5 -76.5q0 -156 -21.5 -270.5t-69.5 -191t-127 -114.5t-191 -38q-76 0 -149.5 25.5t-123.5 87.5q-45 -72 -112.5 -117t-163.5 -45t-167 51t-119 136t-71.5 192.5t-24.5 220.5zM207 1366q8 45 49 92q66 82 155 85t173 -66q37 -29 59 -28t51 34q35 39 78 53t83 10 t73 -25.5t47 -57.5t4 -83t-53 -102q-35 -43 -82 -65.5t-96.5 -25.5t-95.5 10t-74 44q-20 18 -34 29.5t-24 13.5t-22.5 -7t-28.5 -30q-33 -41 -73 -54t-76.5 -5t-66.5 33.5t-42 62.5t-4 82zM432 551q0 -156 19.5 -213t60.5 -57q29 0 45 27.5t23.5 87t9.5 152.5t2 224 q-12 18 -31.5 34.5t-48.5 16.5q-41 0 -60.5 -58t-19.5 -214z" />
<glyph unicode="&#xe4;" horiz-adv-x="1196" d="M-3 551q-1 113 22.5 220.5t71.5 192.5t119 136t167 51q82 0 146.5 -55.5t103.5 -134.5q35 61 92 101t123 40q70 0 106.5 -15.5t54 -47t20.5 -84t3 -126.5v-254q0 -88 1 -146t7 -94t18.5 -50.5t34.5 -14.5q27 0 47.5 15.5t34 54.5t20.5 105.5t7 168.5q0 61 22.5 86t48 22 t48 -31.5t22.5 -76.5q0 -156 -21.5 -270.5t-69.5 -191t-127 -114.5t-191 -38q-76 0 -149.5 25.5t-123.5 87.5q-45 -72 -112.5 -117t-163.5 -45t-167 51t-119 136t-71.5 192.5t-24.5 220.5zM166 1384q0 78 50 131.5t151 53.5q98 0 147 -53.5t49 -131.5t-49 -133t-147 -55 q-100 0 -150.5 55.5t-50.5 132.5zM432 551q0 -156 19.5 -213t60.5 -57q29 0 45 27.5t23.5 87t9.5 152.5t2 224q-12 18 -31.5 34.5t-48.5 16.5q-41 0 -60.5 -58t-19.5 -214zM592 1384q0 78 50 131.5t149 53.5q100 0 149 -53.5t49 -131.5t-49 -133t-149 -55q-98 0 -148.5 55.5 t-50.5 132.5z" />
<glyph unicode="&#xe5;" horiz-adv-x="1196" d="M-3 551q-1 113 22.5 220.5t71.5 192.5t119 136t167 51q82 0 146.5 -55.5t103.5 -134.5q35 61 92 101t123 40q70 0 106.5 -15.5t54 -47t20.5 -84t3 -126.5v-254q0 -88 1 -146t7 -94t18.5 -50.5t34.5 -14.5q27 0 47.5 15.5t34 54.5t20.5 105.5t7 168.5q0 61 22.5 86t48 22 t48 -31.5t22.5 -76.5q0 -156 -21.5 -270.5t-69.5 -191t-127 -114.5t-191 -38q-76 0 -149.5 25.5t-123.5 87.5q-45 -72 -112.5 -117t-163.5 -45t-167 51t-119 136t-71.5 192.5t-24.5 220.5zM299 1405q0 90 63.5 152.5t192.5 62.5q131 0 194.5 -62.5t63.5 -152.5t-63.5 -153.5 t-194.5 -63.5q-129 0 -192.5 63.5t-63.5 153.5zM432 551q0 -156 19.5 -213t60.5 -57q29 0 45 27.5t23.5 87t9.5 152.5t2 224q-12 18 -31.5 34.5t-48.5 16.5q-41 0 -60.5 -58t-19.5 -214zM492 1405q0 -23 15 -40t48 -17q35 0 50.5 17t15.5 40t-15.5 39t-50.5 16 q-33 0 -48 -16.5t-15 -38.5z" />
<glyph unicode="&#xe6;" horiz-adv-x="1654" d="M-3 551q-1 113 22.5 220.5t71.5 192.5t119 136t167 51q53 0 99 -24.5t83 -64.5t63.5 -92t39.5 -108q61 156 182 222.5t276 66.5q84 0 164 -24.5t143.5 -70.5t103.5 -111.5t44 -145.5q6 -104 -31 -190.5t-108.5 -142.5t-173 -75.5t-224.5 8.5q12 -98 62.5 -154.5 t119 -72.5t145.5 4.5t141.5 77.5t106.5 147.5t42 212.5q0 61 22.5 86t48 22t48 -31.5t22.5 -76.5q0 -174 -61.5 -304t-159.5 -213t-221 -118.5t-244 -21.5t-229.5 77.5t-178.5 178.5q-41 -111 -118.5 -186.5t-204.5 -75.5q-96 0 -167 51t-119 136t-71.5 192.5t-24.5 220.5z M432 551q0 -156 19.5 -213t60.5 -57q29 0 45 27.5t23.5 87t9.5 152.5t2 224q-12 18 -31.5 34.5t-48.5 16.5q-41 0 -60.5 -58t-19.5 -214zM1036 543q47 -16 80 3t52.5 57t25.5 87t-1 92t-26.5 73t-50.5 30t-46 -35t-23.5 -87t-9.5 -111.5t-1 -108.5z" />
<glyph unicode="&#xe7;" horiz-adv-x="1042" d="M-2 551q0 164 39 278.5t106.5 186t160.5 103.5t202 32q113 0 199 -33t142 -93t85 -144t29 -185q0 -78 -29 -131t-73 -83.5t-95 -40t-95 1t-73 40t-29 74.5t-2 102.5t-8 107.5t-20.5 84t-38.5 34q-47 0 -59.5 -92.5t-12.5 -241.5q0 -145 46 -232.5t113.5 -121t148.5 -20.5 t148.5 69.5t113.5 149.5t46 218q0 61 22.5 86t48.5 22t48.5 -31.5t22.5 -76.5q0 -147 -46 -269t-128 -209t-193.5 -136t-243.5 -49q0 -4 1 -7t1 -7q0 -14 23 -23.5t54.5 -19t68.5 -21.5t68.5 -33.5t53 -53.5t21.5 -81q0 -47 -25.5 -87t-70.5 -68.5t-106.5 -45t-131.5 -16.5 q-156 0 -253 61.5t-97 165.5q0 78 38 111t87 35t96.5 -22.5t65.5 -61.5q10 -23 15 -43.5t10.5 -35.5t13.5 -23.5t26 -8.5t33 11.5t17 31t-10.5 44t-45.5 50.5q-14 12 -31.5 23.5t-31.5 28t-22.5 42t-4.5 66.5q-94 18 -174 64.5t-138 120t-92 175t-34 228.5z" />
<glyph unicode="&#xe8;" horiz-adv-x="1042" d="M-2 575q2 158 42 267.5t107.5 178.5t159.5 99.5t199 30.5q84 0 164 -24.5t143.5 -70.5t103.5 -111.5t44 -145.5q6 -104 -31 -190.5t-108.5 -142.5t-173 -75.5t-224.5 8.5q12 -98 62.5 -154.5t119 -72.5t145 4.5t141 77.5t106.5 147.5t42 212.5q0 61 22.5 86t48.5 22 t48.5 -31.5t22.5 -76.5q0 -158 -51.5 -279.5t-134.5 -204.5t-189.5 -128t-217 -49t-217 30.5t-189.5 112.5t-134 197t-51 282zM215 1446q20 66 74.5 101.5t136.5 8.5q29 -8 75 -27.5t98 -47t103.5 -60t90.5 -63.5q18 -14 22 -39t-3 -49.5t-23.5 -44t-38.5 -21.5 q-49 -6 -110.5 -5t-120 7t-110 14.5t-77.5 16.5q-82 25 -108.5 84t-8.5 125zM422 543q47 -16 80 3t52 57t25.5 87t-1 92t-26.5 73t-50 30t-46.5 -35t-23.5 -87t-9 -111.5t-1 -108.5z" />
<glyph unicode="&#xe9;" horiz-adv-x="1042" d="M-2 575q2 158 42 267.5t107.5 178.5t159.5 99.5t199 30.5q84 0 164 -24.5t143.5 -70.5t103.5 -111.5t44 -145.5q6 -104 -31 -190.5t-108.5 -142.5t-173 -75.5t-224.5 8.5q12 -98 62.5 -154.5t119 -72.5t145 4.5t141 77.5t106.5 147.5t42 212.5q0 61 22.5 86t48.5 22 t48.5 -31.5t22.5 -76.5q0 -158 -51.5 -279.5t-134.5 -204.5t-189.5 -128t-217 -49t-217 30.5t-189.5 112.5t-134 197t-51 282zM242 1327.5q4 24.5 22 38.5q39 31 90.5 63.5t103.5 60.5t98 47t75 28q82 27 136.5 -9t74.5 -102q18 -66 -8.5 -125t-108.5 -84q-29 -8 -79 -16 t-108.5 -14.5t-120 -7.5t-110.5 5q-23 2 -39 21.5t-23 44.5t-3 49.5zM422 543q47 -16 80 3t52 57t25.5 87t-1 92t-26.5 73t-50 30t-46.5 -35t-23.5 -87t-9 -111.5t-1 -108.5z" />
<glyph unicode="&#xea;" horiz-adv-x="1042" d="M-2 575q2 158 42 267.5t107.5 178.5t159.5 99.5t199 30.5q84 0 164 -24.5t143.5 -70.5t103.5 -111.5t44 -145.5q6 -104 -31 -190.5t-108.5 -142.5t-173 -75.5t-224.5 8.5q12 -98 62.5 -154.5t119 -72.5t145 4.5t141 77.5t106.5 147.5t42 212.5q0 61 22.5 86t48.5 22 t48.5 -31.5t22.5 -76.5q0 -158 -51.5 -279.5t-134.5 -204.5t-189.5 -128t-217 -49t-217 30.5t-189.5 112.5t-134 197t-51 282zM164 1311q92 133 192.5 195.5t182.5 62.5q51 0 103 -15.5t99 -42t87 -61.5t67 -72q35 -49 17.5 -91t-60.5 -68.5t-97.5 -33.5t-92.5 11 q-37 16 -57.5 51t-36 71t-33 64.5t-48.5 34.5q23 -37 8.5 -92t-61.5 -98q-31 -31 -87 -36t-105 8t-76 43t-2 69zM422 543q47 -16 80 3t52 57t25.5 87t-1 92t-26.5 73t-50 30t-46.5 -35t-23.5 -87t-9 -111.5t-1 -108.5z" />
<glyph unicode="&#xeb;" horiz-adv-x="1042" d="M-2 575q2 158 42 267.5t107.5 178.5t159.5 99.5t199 30.5q84 0 164 -24.5t143.5 -70.5t103.5 -111.5t44 -145.5q6 -104 -31 -190.5t-108.5 -142.5t-173 -75.5t-224.5 8.5q12 -98 62.5 -154.5t119 -72.5t145 4.5t141 77.5t106.5 147.5t42 212.5q0 61 22.5 86t48.5 22 t48.5 -31.5t22.5 -76.5q0 -158 -51.5 -279.5t-134.5 -204.5t-189.5 -128t-217 -49t-217 30.5t-189.5 112.5t-134 197t-51 282zM106 1382q0 78 50.5 131.5t150.5 53.5q98 0 147.5 -53.5t49.5 -131.5t-49 -133t-148 -55q-100 0 -150.5 55.5t-50.5 132.5zM422 543q47 -16 80 3 t52 57t25.5 87t-1 92t-26.5 73t-50 30t-46.5 -35t-23.5 -87t-9 -111.5t-1 -108.5zM532 1382q0 78 50.5 131.5t148.5 53.5q100 0 149.5 -53.5t49.5 -131.5t-49.5 -133t-149.5 -55q-98 0 -148.5 55.5t-50.5 132.5z" />
<glyph unicode="&#xec;" horiz-adv-x="612" d="M-96 1352q20 66 74.5 101.5t136.5 8.5q29 -8 75 -27.5t98 -47t103 -60.5t90 -63q18 -14 22.5 -39t-2.5 -49.5t-23.5 -44t-39.5 -21.5q-49 -6 -110.5 -5t-119.5 7t-109.5 14.5t-78.5 16.5q-82 25 -108 84t-8 125zM0 412v323q0 147 59.5 210t188.5 63q49 0 85 -7.5 t57.5 -29t31.5 -60.5t10 -100v-313q2 -127 15.5 -176.5t56.5 -51.5q25 0 45 14.5t34.5 53.5t21.5 106.5t7 169.5q0 61 22.5 86t48.5 22t48.5 -31.5t22.5 -76.5q0 -305 -93.5 -456.5t-310.5 -157.5q-125 0 -196.5 40t-106.5 99t-41 132t-6 141z" />
<glyph unicode="&#xed;" horiz-adv-x="612" d="M-14 1245.5q4 24.5 22 38.5q39 31 90.5 63.5t103.5 60.5t98 47.5t75 27.5q82 27 136.5 -9t74.5 -102q18 -66 -8.5 -125t-108.5 -84q-29 -8 -79 -16t-108.5 -14.5t-120 -7.5t-110.5 5q-23 2 -39 21.5t-23 44.5t-3 49.5zM0 412v323q0 147 59.5 210t188.5 63q49 0 85 -7.5 t57.5 -29t31.5 -60.5t10 -100v-313q2 -127 15.5 -176.5t56.5 -51.5q25 0 45 14.5t34.5 53.5t21.5 106.5t7 169.5q0 61 22.5 86t48.5 22t48.5 -31.5t22.5 -76.5q0 -305 -93.5 -456.5t-310.5 -157.5q-125 0 -196.5 40t-106.5 99t-41 132t-6 141z" />
<glyph unicode="&#xee;" horiz-adv-x="612" d="M-121 1231q92 133 192.5 195.5t182.5 62.5q51 0 103.5 -15.5t99.5 -42t87 -61.5t66 -72q35 -49 17.5 -91t-60.5 -68.5t-97 -33.5t-93 11q-37 16 -57.5 51t-36 71t-32.5 64.5t-48 34.5q23 -37 8.5 -92t-61.5 -98q-31 -31 -87.5 -36t-105.5 8.5t-75.5 43t-2.5 68.5zM0 412 v323q0 147 59.5 210t188.5 63q49 0 85 -7.5t57.5 -29t31.5 -60.5t10 -100v-313q2 -127 15.5 -176.5t56.5 -51.5q25 0 45 14.5t34.5 53.5t21.5 106.5t7 169.5q0 61 22.5 86t48.5 22t48.5 -31.5t22.5 -76.5q0 -305 -93.5 -456.5t-310.5 -157.5q-125 0 -196.5 40t-106.5 99 t-41 132t-6 141z" />
<glyph unicode="&#xef;" horiz-adv-x="612" d="M-186 1323q0 78 50 131t150 53q98 0 147.5 -53t49.5 -131t-49 -133t-148 -55q-100 0 -150 55t-50 133zM0 412v323q0 147 59.5 210t188.5 63q49 0 85 -7.5t57.5 -29t31.5 -60.5t10 -100v-313q2 -127 15.5 -176.5t56.5 -51.5q25 0 45 14.5t34.5 53.5t21.5 106.5t7 169.5 q0 61 22.5 86t48.5 22t48.5 -31.5t22.5 -76.5q0 -305 -93.5 -456.5t-310.5 -157.5q-125 0 -196.5 40t-106.5 99t-41 132t-6 141zM240 1323q0 78 50 131t148 53q100 0 149.5 -53t49.5 -131t-49 -133t-150 -55q-98 0 -148 55t-50 133z" />
<glyph unicode="&#xf0;" horiz-adv-x="1095" d="M0 551q0 172 47 287.5t129 171t193.5 44t242.5 -95.5q-41 51 -85 95.5t-97 81.5q-47 -10 -93 -19.5t-85 -13.5q-25 -2 -43.5 9t-24.5 29.5t-1 40t26 38.5l31 22q-51 39 -61.5 77t3 69.5t45 55t66.5 32.5q25 6 55.5 10t67.5 2t76.5 -12.5t82.5 -34.5l43 20 q92 39 151.5 21.5t80.5 -66.5q16 -41 0 -85t-74 -81q68 -92 119 -192t80 -219q8 -39 8 -72q14 -45 22.5 -98.5t8.5 -116.5q0 -96 -13 -176q41 29 68 86t27 153q0 61 22.5 86t48 22t48 -31.5t22.5 -76.5q0 -109 -24.5 -190.5t-69.5 -141t-105.5 -98.5t-130.5 -61 q-68 -94 -171 -133t-230 -39q-109 0 -202 28.5t-160.5 98t-105.5 185.5t-38 288zM424 551q0 -78 5 -130t15.5 -84t26 -45t35.5 -13t35.5 13t26 45t15.5 84t5 130q0 156 -20.5 213t-61.5 57t-61.5 -57t-20.5 -213z" />
<glyph unicode="&#xf1;" horiz-adv-x="1114" d="M0 199v749q0 49 12.5 79t35 47.5t54 22.5t70.5 5q86 0 140.5 -43t82.5 -109q35 86 116 143.5t179 57.5q109 0 171.5 -43t90 -123t25.5 -192.5t-21 -251.5q-12 -86 -15 -138.5t3 -82t21.5 -40t40.5 -10.5t45 14.5t34.5 53.5t21.5 106.5t7 169.5q0 61 22.5 86t48 22 t48 -31.5t22.5 -76.5q0 -156 -20.5 -270.5t-67.5 -191t-124.5 -114.5t-190.5 -38q-68 0 -129 18.5t-103 77t-58.5 167t5.5 288.5q18 154 6 213t-65 59q-29 0 -46.5 -15t-31.5 -34v-352q0 -102 -5 -182t-40 -134q-37 -57 -92 -81.5t-127 -24.5q-70 0 -118 44t-48 155z M125 1386.5q8 45.5 49 92.5q66 82 155 85t173 -67q37 -29 59 -28t51 34q35 39 78 53.5t83 10.5t73 -25.5t47 -57.5t4 -83t-53 -103q-35 -43 -82 -65.5t-96.5 -25.5t-95.5 10.5t-74 44.5q-20 18 -33.5 29.5t-24 13.5t-23 -7.5t-28.5 -29.5q-33 -41 -73 -54.5t-76.5 -5 t-66.5 34t-42 62t-4 82z" />
<glyph unicode="&#xf2;" horiz-adv-x="1097" d="M0 551q0 174 42 289.5t109.5 184.5t152.5 97.5t171 28.5q154 0 257.5 -47t162.5 -133t79.5 -209t10.5 -273q47 10 80 41t33 84q0 55 22.5 80t48 23t48 -28.5t22.5 -74.5q0 -66 -22.5 -119t-61.5 -94t-92 -68.5t-113 -41.5q-47 -160 -157.5 -250t-288.5 -90 q-137 0 -232.5 41t-156 117.5t-88 188.5t-27.5 253zM207 1468q20 66 74.5 102t136.5 9q29 -8 75 -27.5t98 -47t103 -60.5t90 -64q18 -14 22.5 -38.5t-2.5 -49t-23.5 -44t-39.5 -21.5q-49 -6 -110.5 -5t-119.5 7t-109.5 14t-77.5 17q-82 25 -108.5 83.5t-8.5 124.5zM428 508 q4 -168 29 -244t86 -76q35 0 61.5 28t34.5 116q-66 25 -123 74t-88 102zM524 811q-8 -47 4.5 -103.5t44 -108.5t78.5 -75q2 76 2 143.5t-9 115.5t-27.5 72t-51.5 13q-33 -10 -41 -57z" />
<glyph unicode="&#xf3;" horiz-adv-x="1097" d="M0 551q0 174 42 289.5t109.5 184.5t152.5 97.5t171 28.5q154 0 257.5 -47t162.5 -133t79.5 -209t10.5 -273q47 10 80 41t33 84q0 55 22.5 80t48 23t48 -28.5t22.5 -74.5q0 -66 -22.5 -119t-61.5 -94t-92 -68.5t-113 -41.5q-47 -160 -157.5 -250t-288.5 -90 q-137 0 -232.5 41t-156 117.5t-88 188.5t-27.5 253zM248 1327.5q4 24.5 22 38.5q39 31 90.5 63.5t103.5 60.5t98 47t75 28q82 27 136.5 -9t74.5 -102q18 -66 -8.5 -125t-108.5 -84q-29 -8 -79 -16t-108.5 -14.5t-120 -7.5t-110.5 5q-23 2 -39 21.5t-23 44.5t-3 49.5z M428 508q4 -168 29 -244t86 -76q35 0 61.5 28t34.5 116q-66 25 -123 74t-88 102zM524 811q-8 -47 4.5 -103.5t44 -108.5t78.5 -75q2 76 2 143.5t-9 115.5t-27.5 72t-51.5 13q-33 -10 -41 -57z" />
<glyph unicode="&#xf4;" horiz-adv-x="1097" d="M0 551q0 174 42 289.5t109.5 184.5t152.5 97.5t171 28.5q154 0 257.5 -47t162.5 -133t79.5 -209t10.5 -273q47 10 80 41t33 84q0 55 22.5 80t48 23t48 -28.5t22.5 -74.5q0 -66 -22.5 -119t-61.5 -94t-92 -68.5t-113 -41.5q-47 -160 -157.5 -250t-288.5 -90 q-137 0 -232.5 41t-156 117.5t-88 188.5t-27.5 253zM129 1311q92 133 192.5 195.5t182.5 62.5q51 0 103 -15.5t99.5 -42t87.5 -61.5t66 -72q35 -49 17.5 -91t-60.5 -68.5t-97 -33.5t-93 11q-37 16 -57.5 51t-36 71t-32.5 64.5t-48 34.5q23 -37 8 -92t-62 -98 q-31 -31 -87 -36t-105 8t-76 43t-2 69zM428 508q4 -168 29 -244t86 -76q35 0 61.5 28t34.5 116q-66 25 -123 74t-88 102zM524 811q-8 -47 4.5 -103.5t44 -108.5t78.5 -75q2 76 2 143.5t-9 115.5t-27.5 72t-51.5 13q-33 -10 -41 -57z" />
<glyph unicode="&#xf5;" horiz-adv-x="1097" d="M0 551q0 174 42 289.5t109.5 184.5t152.5 97.5t171 28.5q154 0 257.5 -47t162.5 -133t79.5 -209t10.5 -273q47 10 80 41t33 84q0 55 22.5 80t48 23t48 -28.5t22.5 -74.5q0 -66 -22.5 -119t-61.5 -94t-92 -68.5t-113 -41.5q-47 -160 -157.5 -250t-288.5 -90 q-137 0 -232.5 41t-156 117.5t-88 188.5t-27.5 253zM117 1366q8 45 49 92q66 82 155 85t173 -66q37 -29 59 -28t51 34q35 39 78 53t83 10t72.5 -25.5t47 -57.5t4.5 -83t-53 -102q-35 -43 -82 -65.5t-96.5 -25.5t-95.5 10t-75 44q-20 18 -33.5 29.5t-23.5 13.5t-22.5 -7 t-28.5 -30q-33 -41 -73 -54t-76.5 -5t-66.5 33.5t-42 62.5t-4 82zM428 508q4 -168 29 -244t86 -76q35 0 61.5 28t34.5 116q-66 25 -123 74t-88 102zM524 811q-8 -47 4.5 -103.5t44 -108.5t78.5 -75q2 76 2 143.5t-9 115.5t-27.5 72t-51.5 13q-33 -10 -41 -57z" />
<glyph unicode="&#xf6;" horiz-adv-x="1097" d="M0 551q0 174 42 289.5t109.5 184.5t152.5 97.5t171 28.5q154 0 257.5 -47t162.5 -133t79.5 -209t10.5 -273q47 10 80 41t33 84q0 55 22.5 80t48 23t48 -28.5t22.5 -74.5q0 -66 -22.5 -119t-61.5 -94t-92 -68.5t-113 -41.5q-47 -160 -157.5 -250t-288.5 -90 q-137 0 -232.5 41t-156 117.5t-88 188.5t-27.5 253zM98 1370q0 78 50.5 131t150.5 53q98 0 147.5 -53t49.5 -131t-49.5 -133t-147.5 -55q-100 0 -150.5 55t-50.5 133zM428 508q4 -168 29 -244t86 -76q35 0 61.5 28t34.5 116q-66 25 -123 74t-88 102zM524 811 q-8 -47 4.5 -103.5t44 -108.5t78.5 -75q2 76 2 143.5t-9 115.5t-27.5 72t-51.5 13q-33 -10 -41 -57zM524 1370q0 78 50.5 131t148.5 53q100 0 149.5 -53t49.5 -131t-49.5 -133t-149.5 -55q-98 0 -148.5 55t-50.5 133z" />
<glyph unicode="&#xf7;" horiz-adv-x="868" d="M-66 203q0 61 29 111.5t86 72.5q-49 23 -68.5 55.5t-19.5 67.5q0 37 21.5 69.5t76.5 55.5q-61 23 -93 73t-32 115q0 86 53.5 144.5t162.5 58.5q111 0 163 -58.5t52 -144.5q0 -45 -15.5 -84t-46.5 -67q12 0 24.5 1t26.5 1q119 0 196 -13.5t121 -36t60.5 -52t16.5 -62.5 q0 -35 -16.5 -64.5t-60.5 -52t-121 -36t-196 -13.5h-41q51 -57 52 -141q0 -84 -52.5 -143.5t-160.5 -59.5q-109 0 -163.5 59.5t-54.5 143.5z" />
<glyph unicode="&#xf8;" horiz-adv-x="1097" d="M-30 135q1 72 65 133q-18 61 -26.5 132t-8.5 151q0 174 42 289.5t109.5 184.5t152.5 97.5t171 28.5q119 0 209 -31l14 13q88 66 166 50.5t129 -83.5q47 -63 44 -137t-76 -140q20 -72 25 -154.5t-1 -179.5q47 10 80 41t33 84q0 55 22.5 80t48 23t48 -28.5t22.5 -74.5 q0 -66 -22.5 -119t-61.5 -94t-92 -68.5t-113 -41.5q-47 -160 -157.5 -250t-288.5 -90q-106 0 -187 24l-8 -6q-43 -33 -85 -44t-80 -5t-71.5 27.5t-58.5 54.5q-45 61 -44 133zM428 508q4 -168 29 -244t86 -76q35 0 61.5 28t34.5 116q-66 25 -123 74t-88 102zM524 811 q-8 -47 4.5 -103.5t44 -108.5t78.5 -75q2 76 2 143.5t-9 115.5t-27.5 72t-51.5 13q-33 -10 -41 -57z" />
<glyph unicode="&#xf9;" horiz-adv-x="1181" d="M-41 958q0 55 52 100.5t163 45.5q135 0 195.5 -63.5t60.5 -211.5v-276q0 -78 5 -130t15.5 -84t26 -45t35.5 -13q18 0 32.5 6t26.5 16q-4 29 -3 55.5t1 53.5v503q0 43 4.5 78t22.5 59.5t54 38t100 13.5q80 0 130 -22.5t76.5 -61.5t35.5 -93.5t9 -115.5v-313 q2 -127 15.5 -176.5t56.5 -51.5q25 0 45.5 14.5t34.5 53.5t21.5 106.5t7.5 169.5q0 61 22.5 86t48 22t48 -31.5t22.5 -76.5q0 -305 -93 -456.5t-310 -157.5q-125 0 -197 40t-107 99q-43 -78 -111.5 -132t-148.5 -54q-109 0 -177 47t-107 128t-52.5 190.5t-13.5 234.5v262 q0 27 -7 42t-16.5 29.5t-16.5 30t-7 41.5zM168 1434q20 66 74.5 101.5t136.5 8.5q29 -8 75 -27.5t98 -47t103.5 -60.5t89.5 -63q18 -14 22.5 -39t-2.5 -49.5t-23.5 -44t-39.5 -21.5q-49 -6 -110.5 -5t-119.5 7t-109.5 14.5t-77.5 16.5q-82 25 -108.5 84t-8.5 125z" />
<glyph unicode="&#xfa;" horiz-adv-x="1181" d="M-41 958q0 55 52 100.5t163 45.5q135 0 195.5 -63.5t60.5 -211.5v-276q0 -78 5 -130t15.5 -84t26 -45t35.5 -13q18 0 32.5 6t26.5 16q-4 29 -3 55.5t1 53.5v503q0 43 4.5 78t22.5 59.5t54 38t100 13.5q80 0 130 -22.5t76.5 -61.5t35.5 -93.5t9 -115.5v-313 q2 -127 15.5 -176.5t56.5 -51.5q25 0 45.5 14.5t34.5 53.5t21.5 106.5t7.5 169.5q0 61 22.5 86t48 22t48 -31.5t22.5 -76.5q0 -305 -93 -456.5t-310 -157.5q-125 0 -197 40t-107 99q-43 -78 -111.5 -132t-148.5 -54q-109 0 -177 47t-107 128t-52.5 190.5t-13.5 234.5v262 q0 27 -7 42t-16.5 29.5t-16.5 30t-7 41.5zM209 1306.5q4 24.5 22 39.5q39 31 90.5 63.5t103.5 60t98 47t75 27.5q82 27 136.5 -8.5t74.5 -101.5q18 -66 -8.5 -125.5t-108.5 -83.5q-29 -8 -79 -16.5t-108.5 -14.5t-119.5 -7t-111 5q-23 2 -39 21.5t-23 44t-3 49z" />
</font>
</defs>
</svg>
