<?xml version="1.0" standalone="no"?>
<!DOCTYPE svg PUBLIC "-//W3C//DTD SVG 1.1//EN" "http://www.w3.org/Graphics/SVG/1.1/DTD/svg11.dtd" >
<svg xmlns="http://www.w3.org/2000/svg">
<metadata></metadata>
<defs>
<font id="caprica_script_personal_useRg" horiz-adv-x="1871" >
<font-face units-per-em="2048" ascent="1638" descent="-410" />
<missing-glyph horiz-adv-x="565" />
<glyph unicode="&#xfb01;" horiz-adv-x="1302" d="M-143 -187.5q2 48.5 17 84t37.5 52t43.5 -1.5q27 -27 40 39.5t40 216.5l158 899q20 111 64 184.5t104.5 118.5t133 63.5t146.5 18.5q135 0 190.5 -62.5t39 -175t-101.5 -270.5t-230 -348q-23 -80 10 -123t83 -46t100 33.5t65 118.5q0 6 1 11.5t3 11.5l18 98 q27 147 96.5 210t198.5 63q49 0 83 -7.5t52.5 -29t22.5 -60.5t-8 -100l-56 -313q-20 -127 -15 -176.5t48 -51.5q25 0 48.5 14.5t44 53.5t39 106.5t36.5 169.5q10 61 37 86t53.5 22t43 -31.5t7.5 -76.5q-53 -305 -173 -456.5t-337 -157.5q-125 0 -190.5 40t-89.5 99 q-16 37 -18.5 81t3.5 91q-43 -23 -85 -30t-77.5 -2.5t-62 17.5t-37.5 36l-37 -234q-25 -139 -58.5 -231t-80.5 -147.5t-109.5 -78t-144.5 -22.5q-78 0 -121 29.5t-60 72.5t-15 91.5zM586 918l66.5 133t50 111t18.5 77t-29 29q-16 0 -28.5 -18.5t-21.5 -45t-14 -55.5t-10 -47 zM915 1282q16 86 81 145.5t171 59.5q111 0 154 -59.5t27 -145.5q-16 -84 -80 -143.5t-174 -59.5q-106 0 -150.5 59.5t-28.5 143.5z" />
<glyph unicode="&#xfb02;" horiz-adv-x="1304" d="M-143 -187.5q2 48.5 17 84t37.5 52t43.5 -1.5q27 -27 40 39.5t40 216.5l158 899q20 111 64 184.5t104.5 118.5t133 63.5t146.5 18.5q135 0 190.5 -62.5t39 -175t-101.5 -270.5t-230 -348q-23 -80 10 -123t83 -46t100 33.5t65 118.5q0 4 4 17l123 704q4 23 12 49.5 t27.5 49t57.5 38t101 15.5q125 0 180.5 -68.5t32.5 -201.5l-127 -719q-20 -127 -15 -176.5t48 -51.5q25 0 48.5 14.5t45 53.5t40 106.5t36.5 169.5q10 61 37 86t53.5 22t43 -31.5t7.5 -76.5q-53 -305 -174 -456.5t-338 -157.5q-125 0 -190.5 40t-89.5 99q-16 37 -18.5 81 t3.5 91q-43 -23 -85 -30t-77.5 -2.5t-62 17.5t-37.5 36l-37 -234q-25 -139 -58.5 -231t-80.5 -147.5t-109.5 -78t-144.5 -22.5q-78 0 -121 29.5t-60 72.5t-15 91.5zM586 918l66.5 133t50 111t18.5 77t-29 29q-16 0 -28.5 -18.5t-21.5 -45t-14 -55.5t-10 -47z" />
<glyph unicode="&#xfb03;" horiz-adv-x="1875" d="M-80 -187.5q2 48.5 17.5 84t37 52t41.5 -1.5q27 -27 41.5 39.5t40.5 216.5l99 579h-7q-41 0 -49 36t-2 77t26.5 77t63.5 36h7l16 94q27 111 60.5 184.5t79.5 118.5t104.5 63.5t132.5 18.5q78 0 123 -30t63.5 -73t15 -91t-18.5 -83.5t-37.5 -53t-45.5 2.5q-29 27 -47 -57 l-16 -94h204l17 94q27 111 60.5 184.5t79.5 118.5t104.5 63.5t132.5 18.5q78 0 123 -30t63 -73t15 -91t-18 -83.5t-38 -53t-45 2.5q-29 27 -47 -57l-17 -94h424q4 0 6.5 -1t6.5 -1q35 -4 59.5 -14.5t36.5 -33t13 -58.5t-9 -89l-55 -313q-20 -127 -15 -176.5t48 -51.5 q25 0 48 14.5t43.5 53.5t39 106.5t36.5 169.5q10 61 37 86t53.5 22t43 -31.5t8.5 -76.5q-53 -305 -173 -456.5t-337 -157.5q-125 0 -190.5 40t-90.5 99t-17.5 132t19.5 141l58 323q2 12 4 23.5t6 23.5h-141l-117 -684q-25 -139 -58.5 -231t-81 -147.5t-109.5 -78t-144 -22.5 q-78 0 -122 29.5t-62.5 72.5t-15.5 91.5t17.5 84t37 52t44.5 -1.5q27 -27 41.5 39.5t40.5 216.5l98 579h-204l-117 -684q-25 -139 -58.5 -231t-80.5 -147.5t-109.5 -78t-144.5 -22.5q-78 0 -121 29.5t-60.5 72.5t-15.5 91.5zM1489 1282q16 86 80.5 145.5t171.5 59.5 q111 0 153.5 -59.5t26.5 -145.5q-16 -84 -79.5 -143.5t-174.5 -59.5q-106 0 -150 59.5t-28 143.5z" />
<glyph unicode="&#xfb04;" horiz-adv-x="1792" d="M-143 -187.5q2 48.5 17 84t37.5 52t43.5 -1.5q27 -27 40 39.5t40 216.5l115 674q-41 0 -49.5 35.5t-0.5 76.5q6 41 25.5 76t62.5 39q27 111 61 183.5t80 117.5t104.5 63.5t131.5 18.5q78 0 123 -30t63.5 -73t15.5 -91t-18.5 -83.5t-38 -53t-44.5 2.5q-29 25 -48 -55h146 q27 111 60.5 183.5t79.5 117.5t104.5 63.5t132.5 18.5q78 0 123 -30t63.5 -73t15 -91t-18.5 -83.5t-37.5 -53t-45.5 2.5q-29 25 -47 -55h51q39 0 46 -36t-1 -79q-8 -41 -26.5 -76.5t-59.5 -35.5h-49l-133 -779q-25 -139 -58.5 -231t-80.5 -147.5t-109.5 -78t-144.5 -22.5 q-78 0 -122 29.5t-62.5 72.5t-15.5 91.5t17.5 84t37 52t44.5 -1.5q27 -27 41.5 39.5t40.5 216.5l115 674h-145l-134 -779q-25 -139 -58.5 -231t-80.5 -147.5t-109.5 -78t-144.5 -22.5q-78 0 -121 29.5t-60 72.5t-15 91.5zM1229.5 271q7.5 73 19.5 141l162 923 q4 23 12.5 49.5t27.5 49t57 38t102 15.5q125 0 180 -68.5t33 -201.5l-127 -719q-20 -127 -15 -176.5t48 -51.5q25 0 48 14.5t44.5 53.5t40 106.5t36.5 169.5q10 61 37 86t53.5 22t43 -31.5t8.5 -76.5q-53 -305 -174 -456.5t-338 -157.5q-125 0 -190.5 40t-90.5 99t-17.5 132 z" />
<glyph horiz-adv-x="0" />
<glyph unicode="&#xd;" horiz-adv-x="565" />
<glyph horiz-adv-x="0" />
<glyph horiz-adv-x="0" />
<glyph unicode=" "  horiz-adv-x="565" />
<glyph unicode="&#x09;" horiz-adv-x="565" />
<glyph unicode="&#xa0;" horiz-adv-x="565" />
<glyph unicode="!" horiz-adv-x="821" d="M209 203q16 86 78.5 144.5t171.5 58.5t151.5 -59.5t28.5 -143.5q-16 -84 -76.5 -143.5t-171.5 -59.5q-109 0 -153.5 59.5t-28.5 143.5zM372 884q-1 91 3 194.5t22 205.5q16 98 65.5 127t129.5 29q141 2 192.5 -64.5t28.5 -185.5q-10 -57 -32.5 -138t-52.5 -163 t-60.5 -157t-57.5 -120q-29 -49 -63.5 -74.5t-67.5 -25.5t-57.5 26.5t-32.5 79.5q-4 33 -10 104t-7 162z" />
<glyph unicode="&#x22;" horiz-adv-x="845" d="M220 1183q1 50 6 93t16 72q14 41 44.5 69.5t69.5 46t82 20.5t86 -5q66 -12 103 -49q45 37 105.5 49t119.5 0q86 -16 123 -73.5t6 -139.5q-10 -31 -31.5 -71t-50.5 -85t-64.5 -91t-76.5 -85q-33 -31 -66 -41t-59.5 -2t-46 30.5t-23.5 55.5q-10 49 -12 100 q-27 -37 -56.5 -73.5t-64.5 -69.5q-33 -31 -65.5 -41t-59 -2t-46 30.5t-23.5 55.5q-8 49 -12.5 102.5t-3.5 103.5z" />
<glyph unicode="#" horiz-adv-x="1155" d="M102 459.5q0 17.5 4 36.5q2 20 9.5 39.5t26 37t51 33t88.5 25.5l51 129q-68 23 -77 55.5t-1 69.5q2 20 9 40.5t25.5 38t53.5 33t94 25.5q35 82 68 126t64.5 65.5t62.5 25.5t61 4q31 0 55.5 -8t38 -29.5t13.5 -60.5t-21 -101h60q33 74 64.5 114t61 58.5t59.5 22.5t58 4 q31 0 57.5 -9t39 -33.5t9.5 -70t-30 -116.5q39 -10 59.5 -24.5t28.5 -31t7 -34t-3 -35.5q-4 -23 -11 -44.5t-26.5 -40t-56.5 -32.5t-100 -24l-47 -121q39 -10 60.5 -24.5t30.5 -31t8 -35t-3 -36.5q-4 -23 -12.5 -44.5t-28 -40t-57 -33.5t-101.5 -26l-12 -28 q-47 -111 -102.5 -148t-114.5 -37q-35 0 -64.5 7.5t-49 29t-23.5 59t16 99.5h-47q-4 -12 -4 -10q-47 -111 -102.5 -148t-114.5 -37q-35 0 -67 8.5t-50 33t-19 68.5t25 114q0 2 1 3t1 3q-31 12 -47 25.5t-22.5 28.5t-6.5 32.5zM629 655h49l31 72h-52z" />
<glyph unicode="$" horiz-adv-x="1906" d="M35 1018q70 37 137.5 67.5t144.5 53.5q4 0 8.5 20.5t8.5 45t8 48t8 31.5q23 35 68 53.5t78 34.5q88 35 179 61.5t183 51.5q94 23 188.5 39t190.5 24q33 4 80 8.5t95 3.5t92 -12.5t71 -38.5q2 -4 -2 -28.5t-6 -32.5l-6 -98q0 -4 4 -4q78 -23 152.5 -59t123.5 -103v-2 q-16 4 -36.5 -3.5t-41 -20.5t-38 -27.5t-27.5 -26.5q31 -16 50 -47t27.5 -67t6.5 -72.5t-13 -67.5q-16 43 -49.5 66.5t-74.5 35t-85 14.5t-83 5q-45 4 -94.5 2t-92.5 14q-16 6 -22 25.5t-7 43t2 46l5 37.5q-184 -14 -363.5 -56.5t-351.5 -101.5q-8 -2 -8 -6q2 -10 8 -33.5 t10 -50.5t6 -49.5t-6 -28.5q-23 -18 -58.5 -21.5t-64.5 -7.5q-39 -6 -78.5 -12t-78.5 -12q-35 -8 -67 -17.5t-62 -21.5q-14 -8 -28.5 -13.5t-29.5 -15.5q-8 -8 -18 -20.5t-17 -16.5q10 35 24.5 68t27.5 63q2 6 13 25.5t21.5 41t18.5 39t6 21.5q-25 35 -58.5 68t-78.5 37z M86 72h47q4 -41 7 -83t12 -83q4 41 10 83t14 83h37l25 -166q4 41 9 83t9 83h43l-43 -224h-43q-6 37 -11 74t-9 74q-4 -37 -11.5 -74t-13.5 -74h-43zM90 1024q68 -37 109 -109q2 -2 -4.5 -15t-14.5 -28.5t-15 -29t-9 -19.5q-25 -45 -41 -94q51 27 104 39t108.5 20.5t110 15.5 t107.5 23q-18 18 -47 25.5t-62 8.5t-65.5 -2t-55.5 -5v131t4 131q-59 -16 -116.5 -39.5t-112.5 -52.5zM305 72h45q4 -41 8 -83t11 -83q4 41 10 83t14 83h39l23 -166q4 41 9 83t9 83h43l-43 -224h-41q-8 37 -13 74t-9 74q-4 -37 -10.5 -74t-12.5 -74h-45zM342 913 q8 0 22.5 6.5t29 15.5t27.5 18.5t23 13.5q37 16 75 29.5t77 27.5q78 23 155.5 43t159.5 39q78 16 155 31.5t157 21.5q72 8 154.5 11.5t152.5 -29.5q6 55 6 112.5t4 110.5q0 29 2 57.5t6 57.5q2 14 -6 22t-20.5 13.5t-26.5 7.5t-27 4q-119 18 -245.5 0.5t-245.5 -41.5 q-129 -27 -255 -60.5t-249 -87.5q-23 -12 -46.5 -24.5t-43.5 -28.5t-24.5 -49t-8.5 -55q-8 -66 -8 -132.5v-134.5zM367 1030q0 23 15 38t36 19q6 2 15 -2t5 -14q-12 -8 -22 -8q-12 -4 -16.5 -16.5t1.5 -22.5q4 -4 8.5 -5t8.5 -3q20 -2 33.5 11t22.5 33.5t13.5 41t8.5 35.5 q-27 -27 -62 -35q-27 -4 -43 12q-16 8 -16 37q0 27 12 51q27 61 86 98q12 6 25.5 12.5t27.5 10.5q10 4 21.5 12t21.5 11q12 -1 6 -13q12 0 21 -2q16 -2 27.5 -15t13.5 -32q6 -43 -23.5 -83t-66.5 -62q-18 -12 -27.5 -32t-18.5 -39t-20.5 -37.5t-34.5 -29.5q-23 -16 -53 -10 q-12 4 -20 14.5t-6 24.5zM405.5 1141.5q2.5 -15.5 22.5 -15.5q31 0 49.5 19.5t30.5 47.5t18.5 59t10.5 51q-29 -6 -52.5 -23.5t-44.5 -38.5q-6 -6 -15 -25.5t-15.5 -39t-4 -35zM522 72h45q4 -41 9.5 -83t9.5 -83q4 41 10 83t14 83h39l25 -166q2 41 7 83t11 83h41l-41 -224 h-43q-8 37 -12 74t-10 74q-4 -37 -10.5 -74t-12.5 -74h-43zM530 1155q14 4 29.5 19.5t26 35t14.5 40t0 34.5q-6 23 -33 23q-14 -37 -20.5 -75t-16.5 -77zM582 343q2 34 2 60q0 20 -1 39t1 39q0 49 26.5 67.5t73.5 18.5q37 0 54.5 -20.5t23.5 -50t4 -63.5t-2 -60v-80 q0 -47 -26.5 -66.5t-71.5 -17.5q-39 0 -56.5 20.5t-23.5 50t-4 63.5zM628 1157.5q-5 20.5 6 46t31.5 46t43.5 22.5q12 0 16 -10q8 -12 2 -29q-6 -23 -27.5 -40t-44.5 -22q2 -12 10.5 -13t17.5 3t17.5 10.5t12.5 10.5q25 20 36 45.5t21 52.5q2 2 -1 9t-8 15.5t-8 17.5t-1 15 q10 27 34 23q12 0 17 -12q4 -10 2 -22.5t-2 -25.5q20 2 28.5 -1t-4.5 -27q-8 -16 -17 -33.5t-11 -36.5q0 -10 6 -10q20 0 34.5 20.5t26 46t22.5 51t25 33.5q8 2 17 -2q2 -4 2 -12q-4 -12 -10.5 -21.5t-1.5 -23.5q6 -12 13 -25.5t5 -27.5h2q20 25 32.5 60.5t45.5 51.5 q37 14 49 -20q10 -14 6 -25.5t-2 -27.5q8 2 14 10q16 12 18.5 34.5t8.5 41.5q4 4 11 5t12 -1q10 -2 8 -12v-2q10 10 24 16q10 6 17.5 2t11.5 -14q4 -12 1 -22.5t-8 -22t-10 -22.5t-3 -23q14 12 24 26t18.5 29.5t17.5 29t26 23.5q20 10 51 0q4 6 17 8t9 -14q-4 -18 -14 -38.5 t-10 -41.5q0 -14 8 -2q20 20 30.5 48t19.5 55.5t23.5 53t43.5 42.5q14 8 24 -9q12 -23 4 -48t-24 -42q-14 -18 -43 -43.5t-25 -52.5q4 -16 23 -12q14 6 21 19.5t16 25.5q4 2 12 2t8 -10l-4 -13q-16 -39 -53 -53q-25 -14 -43 14q-4 5 -4 11q-10 -8 -16.5 -15.5t-18.5 -11.5 q-10 -4 -16.5 0t-12.5 8q-4 -4 -12 -8t-16 -6q-31 -6 -43 20v2q-8 -10 -17.5 -17t-23.5 -11q-14 -8 -25 12q-6 12 -3 23.5t8 21.5t9 21.5t2 23.5q-18 -8 -25 -19.5t-11.5 -25.5t-6.5 -28.5t-8 -28.5q-6 -16 -24 -8q-8 2 -9 10q0 4 1 9t1 7q-14 -4 -19 -4t-15 -10 t-24.5 -18.5t-31.5 -8.5q-10 2 -16 8.5t-10 14.5q-16 -16 -40 -32.5t-50 -12.5q-16 2 -25 18q-25 -29 -51 -37q-29 -12 -33 21q-4 27 8.5 44t22.5 38q2 4 -3 5t-7 -3q-8 -20 -18.5 -44t-26 -45.5t-36 -34.5t-46.5 -11q-31 2 -36 22.5zM638 367.5q-1 -37.5 1 -74.5 q0 -16 9 -26.5t21.5 -14.5t24 1t15.5 23q2 12 2 27.5v30.5v147q0 16 -10.5 27.5t-22.5 15.5t-23.5 -2t-15.5 -22q-2 -14 -1 -29.5t1 -28.5q0 -37 -1 -74.5zM653 621q12 14 15.5 36.5t2.5 48t-4 49t-3 42.5v125q0 16 1 30.5t-12 28.5h76q-14 -12 -12 -32.5t2 -37.5v-141 q0 -16 -2 -49t10 -47q14 -23 37.5 -8.5t28.5 32.5q8 27 2.5 54.5t-9.5 54.5q-4 14 -10 37.5t-8 48.5t2 46.5t21 33.5q10 10 31.5 10t29.5 -16q6 -16 -2 -21.5t-18.5 -4.5t-17.5 8t1 16q-16 -8 -17 -29t6 -44.5t17 -46t15 -34.5q12 -37 17 -87t-22 -85q-10 -14 -33.5 -19.5 t-50 -5.5t-53 3.5t-41.5 3.5zM655 1192q12 -2 28.5 15.5t18.5 27.5q4 8 -2 12t-12 -2q-10 -10 -18.5 -24.5t-14.5 -28.5zM715 -123q0 14 9 22.5t21.5 8.5t21.5 -8.5t9 -22.5q0 -16 -9 -23.5t-21.5 -7.5t-21.5 7.5t-9 23.5zM776 1329q-2 -8 4 -20h4q0 8 1 13t-1 13 q-6 0 -8 -6zM780 209q10 14 13.5 34.5t2.5 44t-4.5 46t-3.5 39.5v172q0 10 -8 22h58q29 -12 51 -50t35 -66q0 25 2 59.5t-13 56.5h74q-12 -10 -11 -24.5t1 -28.5v-246q0 -14 -1 -31.5t11 -27.5h-207zM797 -152l59 224h64l59 -224h-51l-15 52h-53l-10 -52h-53zM844 252 q0 -14 11 -23.5t25.5 -11.5t28 3.5t15.5 19.5q-4 63 -21.5 127.5t-58.5 115.5v-231zM865 711.5q-3 19.5 7 31.5t33 13.5t27 -21.5q0 -10 -7 -15t-15.5 -5t-14.5 4t-6 14q-12 -4 -12 -14t7 -20.5t17 -19.5t17 -11q14 -4 34.5 -4t30.5 10q20 20 16 40.5t-19 38t-35.5 32 t-31.5 24.5q-18 16 -30.5 42t-12.5 52.5t13.5 48t44.5 27.5q27 6 54.5 4t51.5 -2l-6 -10q0 -14 7 -29.5t13.5 -31t5.5 -30t-16 -26.5q-14 -10 -33.5 -9t-21.5 21q0 12 7 17.5t15.5 5.5t14.5 -5t4 -14q14 2 14 12.5t-8 21.5t-18.5 20.5t-18.5 11.5q-14 4 -32.5 1t-24.5 -19 q-12 -25 -4 -43.5t24.5 -33t37 -27.5t32.5 -28q14 -20 22.5 -46.5t4.5 -52t-20.5 -44t-47.5 -22.5q-27 -2 -53.5 -1t-54.5 1q8 4 5 19t-8.5 33.5t-8.5 38zM866 -61h41q-4 23 -9 46t-11 46zM874 1219q4 -12 16.5 -10.5t14.5 14.5q2 18 -10 43q-6 -8 -14.5 -22.5t-6.5 -24.5z M991 1264l4 -15q10 -14 25 -6q16 4 23.5 21.5t3.5 33.5q-2 10 -9.5 16.5t-21.5 -3.5q-20 -14 -25 -47zM997 209q12 14 15.5 36.5t2.5 47t-4 48.5t-3 40v127q0 16 1 29.5t-12 29.5h76q-10 -10 -13 -30.5t-2 -42t3 -43t2 -35.5v-166h104q23 0 55.5 -3t55.5 13q-4 -8 -7 -29.5 t-14 -21.5h-260zM1006 70q29 4 64.5 6t62.5 -15q31 -23 22.5 -57.5t-37.5 -48.5q14 -6 21.5 -19.5t10.5 -29t5 -30.5t8 -28h-51q-6 12 -8 27.5t-6 29t-12.5 23t-26.5 6.5v-86h-53v222zM1057 8.5q2 -24.5 2 -35.5h12q18 0 26.5 10.5t6.5 22.5t-11.5 21.5t-27.5 7.5 q-10 -2 -8 -26.5zM1065 621q10 12 11 25t1 28v248q0 14 -1 30.5t-11 28.5h127q25 -25 25.5 -59.5t-9.5 -67.5q-4 -8 -15 -29.5t-20.5 -45t-11.5 -45t10 -27.5q-6 12 4.5 13t21.5 -4t14 -14.5t-17 -17.5q-25 -10 -35 9.5t-8 35.5q0 16 6 32.5t8 31t-4 22.5t-28 6v-155 q16 0 41.5 -3.5t44.5 11.5q-6 -14 -8.5 -26.5t-6.5 -26.5h-139zM1098 567h78q-12 -29 2 -65.5t26 -61.5q12 29 22.5 63t0.5 64h80q-23 -12 -27 -38.5t-10 -47.5q-6 -20 -23.5 -47.5t-17.5 -48.5q0 -23 -3 -56.5t13 -52.5h-76q18 18 14.5 54t-3.5 59q-12 23 -21.5 46.5 t-17.5 45.5q-10 23 -14.5 46.5t-22.5 39.5zM1133 866q20 0 45.5 2t27.5 33q0 16 -7 23.5t-18.5 10.5t-24.5 3h-23v-72zM1192 72h53v-224h-53v224zM1245 1296q-4 -10 1 -27.5t22 -2.5q12 12 21 32.5t11 38.5q-2 8 -4 13.5t-12 1.5q-16 -8 -25.5 -23.5t-13.5 -32.5zM1274 -123 q0 14 9 22.5t21.5 8.5t21.5 -8.5t9 -22.5q0 -16 -9 -23.5t-21.5 -7.5t-21.5 7.5t-9 23.5zM1294 1018q-8 -6 4 -8q27 -10 57.5 -13.5t62.5 -3.5h62.5t59.5 -2t57.5 -5t57.5 -13q29 -8 51.5 -23.5t48.5 -27.5q0 61 -21.5 106t-80.5 68q35 31 69.5 58.5t75.5 43.5 q-49 47 -110.5 77t-126.5 46q-2 -57 -3.5 -112.5t-5.5 -112.5l-2 2v-6q-27 -2 -64.5 -4.5t-74.5 -9.5t-68.5 -21.5t-48.5 -38.5zM1364 72h57l68 -152q-4 39 -4 77v75h47v-224h-51q-20 39 -37 79t-35 77q2 -39 2 -78v-78h-47v224zM1393 1362q16 20 31.5 39.5t19.5 46.5h-2 q-37 -37 -49 -86zM1562.5 -63.5q-8.5 36.5 14.5 79.5q12 29 40 43.5t62 14.5h10.5t17.5 -2t16.5 -4t7.5 -5l-9 -40q-27 12 -48 8t-36.5 -18.5t-20.5 -37t3 -47.5q16 -47 61 -41q10 2 8.5 21.5t-1.5 28.5h-27v40h76v-120q-41 -16 -79 -9t-62.5 29.5t-33 59z" />
<glyph unicode="%" d="M35 1018q70 37 137.5 67.5t144.5 53.5q4 0 8.5 20.5t8.5 45t8 48t8 31.5q23 35 68 53.5t78 34.5q88 35 179 61.5t183 51.5q94 23 188.5 39t190.5 24q33 4 80 8.5t95 3.5t92 -12.5t71 -38.5q2 -4 -2 -28.5t-6 -32.5l-6 -98q0 -4 4 -4q78 -23 152.5 -59t123.5 -103v-2 q-16 4 -36.5 -3.5t-41 -20.5t-38 -27.5t-27.5 -26.5q31 -16 50 -47t27.5 -67t6.5 -72.5t-13 -67.5q-16 43 -49.5 66.5t-74.5 35t-85 14.5t-83 5q-45 4 -94.5 2t-92.5 14q-16 6 -22 25.5t-7 43t2 46l5 37.5q-184 -14 -363.5 -56.5t-351.5 -101.5q-8 -2 -8 -6q2 -10 8 -33.5 t10 -50.5t6 -49.5t-6 -28.5q-23 -18 -58.5 -21.5t-64.5 -7.5q-39 -6 -78.5 -12t-78.5 -12q-35 -8 -67 -17.5t-62 -21.5q-14 -8 -28.5 -13.5t-29.5 -15.5q-8 -8 -18 -20.5t-17 -16.5q10 35 24.5 68t27.5 63q2 6 13 25.5t21.5 41t18.5 39t6 21.5q-25 35 -58.5 68t-78.5 37z M86 72h47q4 -41 7 -83t12 -83q4 41 10 83t14 83h37l25 -166q4 41 9 83t9 83h43l-43 -224h-43q-6 37 -11 74t-9 74q-4 -37 -11.5 -74t-13.5 -74h-43zM90 1024q68 -37 109 -109q2 -2 -4.5 -15t-14.5 -28.5t-15 -29t-9 -19.5q-25 -45 -41 -94q51 27 104 39t108.5 20.5t110 15.5 t107.5 23q-18 18 -47 25.5t-62 8.5t-65.5 -2t-55.5 -5v131t4 131q-59 -16 -116.5 -39.5t-112.5 -52.5zM305 72h45q4 -41 8 -83t11 -83q4 41 10 83t14 83h39l23 -166q4 41 9 83t9 83h43l-43 -224h-41q-8 37 -13 74t-9 74q-4 -37 -10.5 -74t-12.5 -74h-45zM342 913 q8 0 22.5 6.5t29 15.5t27.5 18.5t23 13.5q37 16 75 29.5t77 27.5q78 23 155.5 43t159.5 39q78 16 155 31.5t157 21.5q72 8 154.5 11.5t152.5 -29.5q6 55 6 112.5t4 110.5q0 29 2 57.5t6 57.5q2 14 -6 22t-20.5 13.5t-26.5 7.5t-27 4q-119 18 -245.5 0.5t-245.5 -41.5 q-129 -27 -255 -60.5t-249 -87.5q-23 -12 -46.5 -24.5t-43.5 -28.5t-24.5 -49t-8.5 -55q-8 -66 -8 -132.5v-134.5zM367 1030q0 23 15 38t36 19q6 2 15 -2t5 -14q-12 -8 -22 -8q-12 -4 -16.5 -16.5t1.5 -22.5q4 -4 8.5 -5t8.5 -3q20 -2 33.5 11t22.5 33.5t13.5 41t8.5 35.5 q-27 -27 -62 -35q-27 -4 -43 12q-16 8 -16 37q0 27 12 51q27 61 86 98q12 6 25.5 12.5t27.5 10.5q10 4 21.5 12t21.5 11q12 -1 6 -13q12 0 21 -2q16 -2 27.5 -15t13.5 -32q6 -43 -23.5 -83t-66.5 -62q-18 -12 -27.5 -32t-18.5 -39t-20.5 -37.5t-34.5 -29.5q-23 -16 -53 -10 q-12 4 -20 14.5t-6 24.5zM405.5 1141.5q2.5 -15.5 22.5 -15.5q31 0 49.5 19.5t30.5 47.5t18.5 59t10.5 51q-29 -6 -52.5 -23.5t-44.5 -38.5q-6 -6 -15 -25.5t-15.5 -39t-4 -35zM522 72h45q4 -41 9.5 -83t9.5 -83q4 41 10 83t14 83h39l25 -166q2 41 7 83t11 83h41l-41 -224 h-43q-8 37 -12 74t-10 74q-4 -37 -10.5 -74t-12.5 -74h-43zM530 1155q14 4 29.5 19.5t26 35t14.5 40t0 34.5q-6 23 -33 23q-14 -37 -20.5 -75t-16.5 -77zM582 343q2 34 2 60q0 20 -1 39t1 39q0 49 26.5 67.5t73.5 18.5q37 0 54.5 -20.5t23.5 -50t4 -63.5t-2 -60v-80 q0 -47 -26.5 -66.5t-71.5 -17.5q-39 0 -56.5 20.5t-23.5 50t-4 63.5zM628 1157.5q-5 20.5 6 46t31.5 46t43.5 22.5q12 0 16 -10q8 -12 2 -29q-6 -23 -27.5 -40t-44.5 -22q2 -12 10.5 -13t17.5 3t17.5 10.5t12.5 10.5q25 20 36 45.5t21 52.5q2 2 -1 9t-8 15.5t-8 17.5t-1 15 q10 27 34 23q12 0 17 -12q4 -10 2 -22.5t-2 -25.5q20 2 28.5 -1t-4.5 -27q-8 -16 -17 -33.5t-11 -36.5q0 -10 6 -10q20 0 34.5 20.5t26 46t22.5 51t25 33.5q8 2 17 -2q2 -4 2 -12q-4 -12 -10.5 -21.5t-1.5 -23.5q6 -12 13 -25.5t5 -27.5h2q20 25 32.5 60.5t45.5 51.5 q37 14 49 -20q10 -14 6 -25.5t-2 -27.5q8 2 14 10q16 12 18.5 34.5t8.5 41.5q4 4 11 5t12 -1q10 -2 8 -12v-2q10 10 24 16q10 6 17.5 2t11.5 -14q4 -12 1 -22.5t-8 -22t-10 -22.5t-3 -23q14 12 24 26t18.5 29.5t17.5 29t26 23.5q20 10 51 0q4 6 17 8t9 -14q-4 -18 -14 -38.5 t-10 -41.5q0 -14 8 -2q20 20 30.5 48t19.5 55.5t23.5 53t43.5 42.5q14 8 24 -9q12 -23 4 -48t-24 -42q-14 -18 -43 -43.5t-25 -52.5q4 -16 23 -12q14 6 21 19.5t16 25.5q4 2 12 2t8 -10l-4 -13q-16 -39 -53 -53q-25 -14 -43 14q-4 5 -4 11q-10 -8 -16.5 -15.5t-18.5 -11.5 q-10 -4 -16.5 0t-12.5 8q-4 -4 -12 -8t-16 -6q-31 -6 -43 20v2q-8 -10 -17.5 -17t-23.5 -11q-14 -8 -25 12q-6 12 -3 23.5t8 21.5t9 21.5t2 23.5q-18 -8 -25 -19.5t-11.5 -25.5t-6.5 -28.5t-8 -28.5q-6 -16 -24 -8q-8 2 -9 10q0 4 1 9t1 7q-14 -4 -19 -4t-15 -10 t-24.5 -18.5t-31.5 -8.5q-10 2 -16 8.5t-10 14.5q-16 -16 -40 -32.5t-50 -12.5q-16 2 -25 18q-25 -29 -51 -37q-29 -12 -33 21q-4 27 8.5 44t22.5 38q2 4 -3 5t-7 -3q-8 -20 -18.5 -44t-26 -45.5t-36 -34.5t-46.5 -11q-31 2 -36 22.5zM638 367.5q-1 -37.5 1 -74.5 q0 -16 9 -26.5t21.5 -14.5t24 1t15.5 23q2 12 2 27.5v30.5v147q0 16 -10.5 27.5t-22.5 15.5t-23.5 -2t-15.5 -22q-2 -14 -1 -29.5t1 -28.5q0 -37 -1 -74.5zM653 621q12 14 15.5 36.5t2.5 48t-4 49t-3 42.5v125q0 16 1 30.5t-12 28.5h76q-14 -12 -12 -32.5t2 -37.5v-141 q0 -16 -2 -49t10 -47q14 -23 37.5 -8.5t28.5 32.5q8 27 2.5 54.5t-9.5 54.5q-4 14 -10 37.5t-8 48.5t2 46.5t21 33.5q10 10 31.5 10t29.5 -16q6 -16 -2 -21.5t-18.5 -4.5t-17.5 8t1 16q-16 -8 -17 -29t6 -44.5t17 -46t15 -34.5q12 -37 17 -87t-22 -85q-10 -14 -33.5 -19.5 t-50 -5.5t-53 3.5t-41.5 3.5zM655 1192q12 -2 28.5 15.5t18.5 27.5q4 8 -2 12t-12 -2q-10 -10 -18.5 -24.5t-14.5 -28.5zM715 -123q0 14 9 22.5t21.5 8.5t21.5 -8.5t9 -22.5q0 -16 -9 -23.5t-21.5 -7.5t-21.5 7.5t-9 23.5zM776 1329q-2 -8 4 -20h4q0 8 1 13t-1 13 q-6 0 -8 -6zM780 209q10 14 13.5 34.5t2.5 44t-4.5 46t-3.5 39.5v172q0 10 -8 22h58q29 -12 51 -50t35 -66q0 25 2 59.5t-13 56.5h74q-12 -10 -11 -24.5t1 -28.5v-246q0 -14 -1 -31.5t11 -27.5h-207zM797 -152l59 224h64l59 -224h-51l-15 52h-53l-10 -52h-53zM844 252 q0 -14 11 -23.5t25.5 -11.5t28 3.5t15.5 19.5q-4 63 -21.5 127.5t-58.5 115.5v-231zM865 711.5q-3 19.5 7 31.5t33 13.5t27 -21.5q0 -10 -7 -15t-15.5 -5t-14.5 4t-6 14q-12 -4 -12 -14t7 -20.5t17 -19.5t17 -11q14 -4 34.5 -4t30.5 10q20 20 16 40.5t-19 38t-35.5 32 t-31.5 24.5q-18 16 -30.5 42t-12.5 52.5t13.5 48t44.5 27.5q27 6 54.5 4t51.5 -2l-6 -10q0 -14 7 -29.5t13.5 -31t5.5 -30t-16 -26.5q-14 -10 -33.5 -9t-21.5 21q0 12 7 17.5t15.5 5.5t14.5 -5t4 -14q14 2 14 12.5t-8 21.5t-18.5 20.5t-18.5 11.5q-14 4 -32.5 1t-24.5 -19 q-12 -25 -4 -43.5t24.5 -33t37 -27.5t32.5 -28q14 -20 22.5 -46.5t4.5 -52t-20.5 -44t-47.5 -22.5q-27 -2 -53.5 -1t-54.5 1q8 4 5 19t-8.5 33.5t-8.5 38zM866 -61h41q-4 23 -9 46t-11 46zM874 1219q4 -12 16.5 -10.5t14.5 14.5q2 18 -10 43q-6 -8 -14.5 -22.5t-6.5 -24.5z M991 1264l4 -15q10 -14 25 -6q16 4 23.5 21.5t3.5 33.5q-2 10 -9.5 16.5t-21.5 -3.5q-20 -14 -25 -47zM997 209q12 14 15.5 36.5t2.5 47t-4 48.5t-3 40v127q0 16 1 29.5t-12 29.5h76q-10 -10 -13 -30.5t-2 -42t3 -43t2 -35.5v-166h104q23 0 55.5 -3t55.5 13q-4 -8 -7 -29.5 t-14 -21.5h-260zM1006 70q29 4 64.5 6t62.5 -15q31 -23 22.5 -57.5t-37.5 -48.5q14 -6 21.5 -19.5t10.5 -29t5 -30.5t8 -28h-51q-6 12 -8 27.5t-6 29t-12.5 23t-26.5 6.5v-86h-53v222zM1057 8.5q2 -24.5 2 -35.5h12q18 0 26.5 10.5t6.5 22.5t-11.5 21.5t-27.5 7.5 q-10 -2 -8 -26.5zM1065 621q10 12 11 25t1 28v248q0 14 -1 30.5t-11 28.5h127q25 -25 25.5 -59.5t-9.5 -67.5q-4 -8 -15 -29.5t-20.5 -45t-11.5 -45t10 -27.5q-6 12 4.5 13t21.5 -4t14 -14.5t-17 -17.5q-25 -10 -35 9.5t-8 35.5q0 16 6 32.5t8 31t-4 22.5t-28 6v-155 q16 0 41.5 -3.5t44.5 11.5q-6 -14 -8.5 -26.5t-6.5 -26.5h-139zM1098 567h78q-12 -29 2 -65.5t26 -61.5q12 29 22.5 63t0.5 64h80q-23 -12 -27 -38.5t-10 -47.5q-6 -20 -23.5 -47.5t-17.5 -48.5q0 -23 -3 -56.5t13 -52.5h-76q18 18 14.5 54t-3.5 59q-12 23 -21.5 46.5 t-17.5 45.5q-10 23 -14.5 46.5t-22.5 39.5zM1133 866q20 0 45.5 2t27.5 33q0 16 -7 23.5t-18.5 10.5t-24.5 3h-23v-72zM1192 72h53v-224h-53v224zM1245 1296q-4 -10 1 -27.5t22 -2.5q12 12 21 32.5t11 38.5q-2 8 -4 13.5t-12 1.5q-16 -8 -25.5 -23.5t-13.5 -32.5zM1274 -123 q0 14 9 22.5t21.5 8.5t21.5 -8.5t9 -22.5q0 -16 -9 -23.5t-21.5 -7.5t-21.5 7.5t-9 23.5zM1294 1018q-8 -6 4 -8q27 -10 57.5 -13.5t62.5 -3.5h62.5t59.5 -2t57.5 -5t57.5 -13q29 -8 51.5 -23.5t48.5 -27.5q0 61 -21.5 106t-80.5 68q35 31 69.5 58.5t75.5 43.5 q-49 47 -110.5 77t-126.5 46q-2 -57 -3.5 -112.5t-5.5 -112.5l-2 2v-6q-27 -2 -64.5 -4.5t-74.5 -9.5t-68.5 -21.5t-48.5 -38.5zM1364 72h57l68 -152q-4 39 -4 77v75h47v-224h-51q-20 39 -37 79t-35 77q2 -39 2 -78v-78h-47v224zM1393 1362q16 20 31.5 39.5t19.5 46.5h-2 q-37 -37 -49 -86zM1562.5 -63.5q-8.5 36.5 14.5 79.5q12 29 40 43.5t62 14.5h10.5t17.5 -2t16.5 -4t7.5 -5l-9 -40q-27 12 -48 8t-36.5 -18.5t-20.5 -37t3 -47.5q16 -47 61 -41q10 2 8.5 21.5t-1.5 28.5h-27v40h76v-120q-41 -16 -79 -9t-62.5 29.5t-33 59z" />
<glyph unicode="&#x26;" horiz-adv-x="1132" d="M66 377q8 49 33.5 101t66.5 98.5t97 82t128 52.5q-63 2 -108 27.5t-72 67.5t-35 94t2 112q18 102 70.5 182t129.5 134t171 82t196 28q100 0 184.5 -21.5t141.5 -65.5t83 -113t9 -161q-10 -63 -51 -109t-94 -76t-111.5 -39t-103.5 1t-68.5 42t-9.5 89q16 55 7 86t-48 31 q-41 0 -68.5 -45t-37.5 -107q-6 -31 -1 -60.5t26.5 -53t62 -38t108.5 -14.5q82 0 139.5 13.5t118.5 52.5q37 23 63.5 16.5t45 -31t26 -60.5t4 -73.5t-16.5 -71.5t-40 -52q-35 -25 -85 -23t-103 16q51 -47 74.5 -120.5t-5.5 -165.5q-20 -68 -59 -128.5t-100.5 -105.5 t-148.5 -71.5t-204 -26.5q-102 0 -186 28.5t-141.5 82t-83 132t-6.5 181.5zM493 316.5q15 -27.5 44 -27.5q33 0 65.5 27.5t54 67.5t29.5 87t-6 84q-33 -2 -62.5 -18.5t-53 -40t-41 -52t-27.5 -53.5q-18 -47 -3 -74.5z" />
<glyph unicode="'" horiz-adv-x="387" d="M194 1183q1 50 6 93t15 72q14 41 45 69.5t70 46t82 20.5t86 -5q86 -16 122.5 -73.5t6.5 -139.5q-10 -31 -32 -71t-50.5 -85t-64.5 -91t-77 -85q-33 -31 -65.5 -41t-59 -2t-46 30.5t-23.5 55.5q-8 49 -12 102.5t-3 103.5z" />
<glyph unicode="(" horiz-adv-x="702" d="M98.5 542.5q20.5 143.5 84 278.5t168 255t247.5 208q94 57 152.5 61.5t79 -26.5t4 -90.5t-69.5 -126.5q-49 -61 -89 -149.5t-70 -191t-48 -211t-23.5 -211.5t5 -195.5t36.5 -157.5q20 -55 13.5 -104.5t-36.5 -78t-75 -30.5t-98 37q-117 84 -185.5 202.5t-92 252.5 t-3 277.5z" />
<glyph unicode=")" horiz-adv-x="702" d="M-10 -119q8 49 47 105q49 66 92 158t75 195t51 211.5t25.5 211t-3 190.5t-35.5 150q-29 68 -24 127t37 90t88 26.5t130 -61.5q113 -88 176.5 -208t78.5 -255t-14.5 -278.5t-100 -277.5t-182.5 -252.5t-259 -202.5q-66 -39 -110 -37t-62 30.5t-10 77.5z" />
<glyph unicode="*" horiz-adv-x="983" d="M142.5 694.5q-15.5 55.5 3 115.5t79.5 89q12 6 43 8t68 2t76 -1t67 -1q59 0 60.5 19.5t-54.5 19.5q-29 0 -67.5 -1t-76.5 -2t-67.5 1t-40.5 8q-49 29 -46 89.5t37 115.5t88.5 87t107.5 3q8 -6 24.5 -30.5t35 -56.5t37 -62.5t28.5 -46.5q29 -41 43 -34t-2 56 q-6 16 -23.5 44t-35 58.5t-31 59.5t-9.5 47q8 43 41 71.5t77 43t93.5 14.5t88 -14.5t62 -43t15.5 -71.5q-4 -18 -26.5 -47t-50 -59.5t-54 -58t-39.5 -44.5q-39 -49 -25.5 -56t56.5 34q18 16 47 46.5t58.5 62.5t55 56.5t36.5 30.5q61 29 104 -3t57.5 -87t-4 -115.5 t-80.5 -89.5q-12 -6 -41.5 -8t-66.5 -1t-75 2t-66 1q-55 0 -60.5 -19.5t53.5 -19.5q29 0 68 1t75 1t65.5 -2t39.5 -8q35 -18 44 -53t0 -74t-32.5 -77t-55.5 -64.5t-68.5 -35.5t-69.5 11q-8 4 -24.5 30t-36 56.5t-37 62t-29.5 48.5q-29 41 -45 33.5t6 -56.5q6 -16 22.5 -44.5 t34 -59.5t29.5 -59.5t10 -47.5q-8 -43 -40.5 -71.5t-76.5 -43t-93.5 -14.5t-88.5 14.5t-62.5 43t-15.5 71.5q2 18 26 47t51.5 60t55 59.5t40.5 44.5q35 49 21.5 56.5t-54.5 -33.5q-16 -16 -46 -48t-59.5 -62.5t-55.5 -56.5t-34 -30q-63 -29 -106 2t-58.5 86.5z" />
<glyph unicode="+" horiz-adv-x="722" d="M96 551q8 47 51 86t148 55q35 104 80 141t94 37t82 -36.5t31 -141.5q104 -16 133.5 -55t21.5 -86q-4 -25 -16 -47.5t-35.5 -42t-60.5 -33.5t-93 -22q-35 -102 -80.5 -139.5t-95.5 -37.5q-47 0 -79.5 37t-30.5 142q-100 16 -130 55t-20 88z" />
<glyph unicode="," horiz-adv-x="653" d="M206 102.5q1 49.5 6 91.5t15 70q14 43 45 72t69 46t82 21t87 -4q86 -16 124 -73.5t5 -143.5q-10 -29 -30.5 -68.5t-50.5 -83.5t-65.5 -90t-76.5 -87q-33 -31 -66 -40.5t-59.5 -2t-46 31t-23.5 56.5q-8 49 -12 102t-3 102.5z" />
<glyph unicode="-" horiz-adv-x="851" d="M305 486.5q-6 29.5 0 64.5q6 33 23.5 62.5t51.5 52t89 36t137 13.5t132 -13.5t77 -36t33 -52t0 -62.5q-6 -35 -22.5 -64.5t-50.5 -52t-89 -36t-137 -13.5t-133 13.5t-78 36t-33 52z" />
<glyph unicode="." horiz-adv-x="645" d="M209 203q16 86 78.5 144.5t171.5 58.5t151.5 -59.5t28.5 -143.5q-16 -84 -76.5 -143.5t-171.5 -59.5q-109 0 -153.5 59.5t-28.5 143.5z" />
<glyph unicode="/" horiz-adv-x="985" d="M29.5 143.5q11.5 57.5 66.5 149.5q10 16 49 80.5t92.5 151.5t114 185.5t115.5 186.5t95 153.5t54 86.5q74 111 130.5 171t104.5 88.5t88 34t81 5.5t72.5 -12.5t41 -46.5t-9 -94t-77.5 -157q-12 -23 -55.5 -93t-99.5 -164.5t-119.5 -200t-119 -196.5t-95.5 -155.5 t-48 -76.5q-47 -72 -90 -119t-85 -74t-82 -37t-79 -10q-45 0 -84 11.5t-55.5 43t-5 89z" />
<glyph unicode="0" d="M35 1018q70 37 137.5 67.5t144.5 53.5q4 0 8.5 20.5t8.5 45t8 48t8 31.5q23 35 68 53.5t78 34.5q88 35 179 61.5t183 51.5q94 23 188.5 39t190.5 24q33 4 80 8.5t95 3.5t92 -12.5t71 -38.5q2 -4 -2 -28.5t-6 -32.5l-6 -98q0 -4 4 -4q78 -23 152.5 -59t123.5 -103v-2 q-16 4 -36.5 -3.5t-41 -20.5t-38 -27.5t-27.5 -26.5q31 -16 50 -47t27.5 -67t6.5 -72.5t-13 -67.5q-16 43 -49.5 66.5t-74.5 35t-85 14.5t-83 5q-45 4 -94.5 2t-92.5 14q-16 6 -22 25.5t-7 43t2 46l5 37.5q-184 -14 -363.5 -56.5t-351.5 -101.5q-8 -2 -8 -6q2 -10 8 -33.5 t10 -50.5t6 -49.5t-6 -28.5q-23 -18 -58.5 -21.5t-64.5 -7.5q-39 -6 -78.5 -12t-78.5 -12q-35 -8 -67 -17.5t-62 -21.5q-14 -8 -28.5 -13.5t-29.5 -15.5q-8 -8 -18 -20.5t-17 -16.5q10 35 24.5 68t27.5 63q2 6 13 25.5t21.5 41t18.5 39t6 21.5q-25 35 -58.5 68t-78.5 37z M86 72h47q4 -41 7 -83t12 -83q4 41 10 83t14 83h37l25 -166q4 41 9 83t9 83h43l-43 -224h-43q-6 37 -11 74t-9 74q-4 -37 -11.5 -74t-13.5 -74h-43zM90 1024q68 -37 109 -109q2 -2 -4.5 -15t-14.5 -28.5t-15 -29t-9 -19.5q-25 -45 -41 -94q51 27 104 39t108.5 20.5t110 15.5 t107.5 23q-18 18 -47 25.5t-62 8.5t-65.5 -2t-55.5 -5v131t4 131q-59 -16 -116.5 -39.5t-112.5 -52.5zM305 72h45q4 -41 8 -83t11 -83q4 41 10 83t14 83h39l23 -166q4 41 9 83t9 83h43l-43 -224h-41q-8 37 -13 74t-9 74q-4 -37 -10.5 -74t-12.5 -74h-45zM342 913 q8 0 22.5 6.5t29 15.5t27.5 18.5t23 13.5q37 16 75 29.5t77 27.5q78 23 155.5 43t159.5 39q78 16 155 31.5t157 21.5q72 8 154.5 11.5t152.5 -29.5q6 55 6 112.5t4 110.5q0 29 2 57.5t6 57.5q2 14 -6 22t-20.5 13.5t-26.5 7.5t-27 4q-119 18 -245.5 0.5t-245.5 -41.5 q-129 -27 -255 -60.5t-249 -87.5q-23 -12 -46.5 -24.5t-43.5 -28.5t-24.5 -49t-8.5 -55q-8 -66 -8 -132.5v-134.5zM367 1030q0 23 15 38t36 19q6 2 15 -2t5 -14q-12 -8 -22 -8q-12 -4 -16.5 -16.5t1.5 -22.5q4 -4 8.5 -5t8.5 -3q20 -2 33.5 11t22.5 33.5t13.5 41t8.5 35.5 q-27 -27 -62 -35q-27 -4 -43 12q-16 8 -16 37q0 27 12 51q27 61 86 98q12 6 25.5 12.5t27.5 10.5q10 4 21.5 12t21.5 11q12 -1 6 -13q12 0 21 -2q16 -2 27.5 -15t13.5 -32q6 -43 -23.5 -83t-66.5 -62q-18 -12 -27.5 -32t-18.5 -39t-20.5 -37.5t-34.5 -29.5q-23 -16 -53 -10 q-12 4 -20 14.5t-6 24.5zM405.5 1141.5q2.5 -15.5 22.5 -15.5q31 0 49.5 19.5t30.5 47.5t18.5 59t10.5 51q-29 -6 -52.5 -23.5t-44.5 -38.5q-6 -6 -15 -25.5t-15.5 -39t-4 -35zM522 72h45q4 -41 9.5 -83t9.5 -83q4 41 10 83t14 83h39l25 -166q2 41 7 83t11 83h41l-41 -224 h-43q-8 37 -12 74t-10 74q-4 -37 -10.5 -74t-12.5 -74h-43zM530 1155q14 4 29.5 19.5t26 35t14.5 40t0 34.5q-6 23 -33 23q-14 -37 -20.5 -75t-16.5 -77zM582 343q2 34 2 60q0 20 -1 39t1 39q0 49 26.5 67.5t73.5 18.5q37 0 54.5 -20.5t23.5 -50t4 -63.5t-2 -60v-80 q0 -47 -26.5 -66.5t-71.5 -17.5q-39 0 -56.5 20.5t-23.5 50t-4 63.5zM628 1157.5q-5 20.5 6 46t31.5 46t43.5 22.5q12 0 16 -10q8 -12 2 -29q-6 -23 -27.5 -40t-44.5 -22q2 -12 10.5 -13t17.5 3t17.5 10.5t12.5 10.5q25 20 36 45.5t21 52.5q2 2 -1 9t-8 15.5t-8 17.5t-1 15 q10 27 34 23q12 0 17 -12q4 -10 2 -22.5t-2 -25.5q20 2 28.5 -1t-4.5 -27q-8 -16 -17 -33.5t-11 -36.5q0 -10 6 -10q20 0 34.5 20.5t26 46t22.5 51t25 33.5q8 2 17 -2q2 -4 2 -12q-4 -12 -10.5 -21.5t-1.5 -23.5q6 -12 13 -25.5t5 -27.5h2q20 25 32.5 60.5t45.5 51.5 q37 14 49 -20q10 -14 6 -25.5t-2 -27.5q8 2 14 10q16 12 18.5 34.5t8.5 41.5q4 4 11 5t12 -1q10 -2 8 -12v-2q10 10 24 16q10 6 17.5 2t11.5 -14q4 -12 1 -22.5t-8 -22t-10 -22.5t-3 -23q14 12 24 26t18.5 29.5t17.5 29t26 23.5q20 10 51 0q4 6 17 8t9 -14q-4 -18 -14 -38.5 t-10 -41.5q0 -14 8 -2q20 20 30.5 48t19.5 55.5t23.5 53t43.5 42.5q14 8 24 -9q12 -23 4 -48t-24 -42q-14 -18 -43 -43.5t-25 -52.5q4 -16 23 -12q14 6 21 19.5t16 25.5q4 2 12 2t8 -10l-4 -13q-16 -39 -53 -53q-25 -14 -43 14q-4 5 -4 11q-10 -8 -16.5 -15.5t-18.5 -11.5 q-10 -4 -16.5 0t-12.5 8q-4 -4 -12 -8t-16 -6q-31 -6 -43 20v2q-8 -10 -17.5 -17t-23.5 -11q-14 -8 -25 12q-6 12 -3 23.5t8 21.5t9 21.5t2 23.5q-18 -8 -25 -19.5t-11.5 -25.5t-6.5 -28.5t-8 -28.5q-6 -16 -24 -8q-8 2 -9 10q0 4 1 9t1 7q-14 -4 -19 -4t-15 -10 t-24.5 -18.5t-31.5 -8.5q-10 2 -16 8.5t-10 14.5q-16 -16 -40 -32.5t-50 -12.5q-16 2 -25 18q-25 -29 -51 -37q-29 -12 -33 21q-4 27 8.5 44t22.5 38q2 4 -3 5t-7 -3q-8 -20 -18.5 -44t-26 -45.5t-36 -34.5t-46.5 -11q-31 2 -36 22.5zM638 367.5q-1 -37.5 1 -74.5 q0 -16 9 -26.5t21.5 -14.5t24 1t15.5 23q2 12 2 27.5v30.5v147q0 16 -10.5 27.5t-22.5 15.5t-23.5 -2t-15.5 -22q-2 -14 -1 -29.5t1 -28.5q0 -37 -1 -74.5zM653 621q12 14 15.5 36.5t2.5 48t-4 49t-3 42.5v125q0 16 1 30.5t-12 28.5h76q-14 -12 -12 -32.5t2 -37.5v-141 q0 -16 -2 -49t10 -47q14 -23 37.5 -8.5t28.5 32.5q8 27 2.5 54.5t-9.5 54.5q-4 14 -10 37.5t-8 48.5t2 46.5t21 33.5q10 10 31.5 10t29.5 -16q6 -16 -2 -21.5t-18.5 -4.5t-17.5 8t1 16q-16 -8 -17 -29t6 -44.5t17 -46t15 -34.5q12 -37 17 -87t-22 -85q-10 -14 -33.5 -19.5 t-50 -5.5t-53 3.5t-41.5 3.5zM655 1192q12 -2 28.5 15.5t18.5 27.5q4 8 -2 12t-12 -2q-10 -10 -18.5 -24.5t-14.5 -28.5zM715 -123q0 14 9 22.5t21.5 8.5t21.5 -8.5t9 -22.5q0 -16 -9 -23.5t-21.5 -7.5t-21.5 7.5t-9 23.5zM776 1329q-2 -8 4 -20h4q0 8 1 13t-1 13 q-6 0 -8 -6zM780 209q10 14 13.5 34.5t2.5 44t-4.5 46t-3.5 39.5v172q0 10 -8 22h58q29 -12 51 -50t35 -66q0 25 2 59.5t-13 56.5h74q-12 -10 -11 -24.5t1 -28.5v-246q0 -14 -1 -31.5t11 -27.5h-207zM797 -152l59 224h64l59 -224h-51l-15 52h-53l-10 -52h-53zM844 252 q0 -14 11 -23.5t25.5 -11.5t28 3.5t15.5 19.5q-4 63 -21.5 127.5t-58.5 115.5v-231zM865 711.5q-3 19.5 7 31.5t33 13.5t27 -21.5q0 -10 -7 -15t-15.5 -5t-14.5 4t-6 14q-12 -4 -12 -14t7 -20.5t17 -19.5t17 -11q14 -4 34.5 -4t30.5 10q20 20 16 40.5t-19 38t-35.5 32 t-31.5 24.5q-18 16 -30.5 42t-12.5 52.5t13.5 48t44.5 27.5q27 6 54.5 4t51.5 -2l-6 -10q0 -14 7 -29.5t13.5 -31t5.5 -30t-16 -26.5q-14 -10 -33.5 -9t-21.5 21q0 12 7 17.5t15.5 5.5t14.5 -5t4 -14q14 2 14 12.5t-8 21.5t-18.5 20.5t-18.5 11.5q-14 4 -32.5 1t-24.5 -19 q-12 -25 -4 -43.5t24.5 -33t37 -27.5t32.5 -28q14 -20 22.5 -46.5t4.5 -52t-20.5 -44t-47.5 -22.5q-27 -2 -53.5 -1t-54.5 1q8 4 5 19t-8.5 33.5t-8.5 38zM866 -61h41q-4 23 -9 46t-11 46zM874 1219q4 -12 16.5 -10.5t14.5 14.5q2 18 -10 43q-6 -8 -14.5 -22.5t-6.5 -24.5z M991 1264l4 -15q10 -14 25 -6q16 4 23.5 21.5t3.5 33.5q-2 10 -9.5 16.5t-21.5 -3.5q-20 -14 -25 -47zM997 209q12 14 15.5 36.5t2.5 47t-4 48.5t-3 40v127q0 16 1 29.5t-12 29.5h76q-10 -10 -13 -30.5t-2 -42t3 -43t2 -35.5v-166h104q23 0 55.5 -3t55.5 13q-4 -8 -7 -29.5 t-14 -21.5h-260zM1006 70q29 4 64.5 6t62.5 -15q31 -23 22.5 -57.5t-37.5 -48.5q14 -6 21.5 -19.5t10.5 -29t5 -30.5t8 -28h-51q-6 12 -8 27.5t-6 29t-12.5 23t-26.5 6.5v-86h-53v222zM1057 8.5q2 -24.5 2 -35.5h12q18 0 26.5 10.5t6.5 22.5t-11.5 21.5t-27.5 7.5 q-10 -2 -8 -26.5zM1065 621q10 12 11 25t1 28v248q0 14 -1 30.5t-11 28.5h127q25 -25 25.5 -59.5t-9.5 -67.5q-4 -8 -15 -29.5t-20.5 -45t-11.5 -45t10 -27.5q-6 12 4.5 13t21.5 -4t14 -14.5t-17 -17.5q-25 -10 -35 9.5t-8 35.5q0 16 6 32.5t8 31t-4 22.5t-28 6v-155 q16 0 41.5 -3.5t44.5 11.5q-6 -14 -8.5 -26.5t-6.5 -26.5h-139zM1098 567h78q-12 -29 2 -65.5t26 -61.5q12 29 22.5 63t0.5 64h80q-23 -12 -27 -38.5t-10 -47.5q-6 -20 -23.5 -47.5t-17.5 -48.5q0 -23 -3 -56.5t13 -52.5h-76q18 18 14.5 54t-3.5 59q-12 23 -21.5 46.5 t-17.5 45.5q-10 23 -14.5 46.5t-22.5 39.5zM1133 866q20 0 45.5 2t27.5 33q0 16 -7 23.5t-18.5 10.5t-24.5 3h-23v-72zM1192 72h53v-224h-53v224zM1245 1296q-4 -10 1 -27.5t22 -2.5q12 12 21 32.5t11 38.5q-2 8 -4 13.5t-12 1.5q-16 -8 -25.5 -23.5t-13.5 -32.5zM1274 -123 q0 14 9 22.5t21.5 8.5t21.5 -8.5t9 -22.5q0 -16 -9 -23.5t-21.5 -7.5t-21.5 7.5t-9 23.5zM1294 1018q-8 -6 4 -8q27 -10 57.5 -13.5t62.5 -3.5h62.5t59.5 -2t57.5 -5t57.5 -13q29 -8 51.5 -23.5t48.5 -27.5q0 61 -21.5 106t-80.5 68q35 31 69.5 58.5t75.5 43.5 q-49 47 -110.5 77t-126.5 46q-2 -57 -3.5 -112.5t-5.5 -112.5l-2 2v-6q-27 -2 -64.5 -4.5t-74.5 -9.5t-68.5 -21.5t-48.5 -38.5zM1364 72h57l68 -152q-4 39 -4 77v75h47v-224h-51q-20 39 -37 79t-35 77q2 -39 2 -78v-78h-47v224zM1393 1362q16 20 31.5 39.5t19.5 46.5h-2 q-37 -37 -49 -86zM1562.5 -63.5q-8.5 36.5 14.5 79.5q12 29 40 43.5t62 14.5h10.5t17.5 -2t16.5 -4t7.5 -5l-9 -40q-27 12 -48 8t-36.5 -18.5t-20.5 -37t3 -47.5q16 -47 61 -41q10 2 8.5 21.5t-1.5 28.5h-27v40h76v-120q-41 -16 -79 -9t-62.5 29.5t-33 59z" />
<glyph unicode="1" d="M35 1018q70 37 137.5 67.5t144.5 53.5q4 0 8.5 20.5t8.5 45t8 48t8 31.5q23 35 68 53.5t78 34.5q88 35 179 61.5t183 51.5q94 23 188.5 39t190.5 24q33 4 80 8.5t95 3.5t92 -12.5t71 -38.5q2 -4 -2 -28.5t-6 -32.5l-6 -98q0 -4 4 -4q78 -23 152.5 -59t123.5 -103v-2 q-16 4 -36.5 -3.5t-41 -20.5t-38 -27.5t-27.5 -26.5q31 -16 50 -47t27.5 -67t6.5 -72.5t-13 -67.5q-16 43 -49.5 66.5t-74.5 35t-85 14.5t-83 5q-45 4 -94.5 2t-92.5 14q-16 6 -22 25.5t-7 43t2 46l5 37.5q-184 -14 -363.5 -56.5t-351.5 -101.5q-8 -2 -8 -6q2 -10 8 -33.5 t10 -50.5t6 -49.5t-6 -28.5q-23 -18 -58.5 -21.5t-64.5 -7.5q-39 -6 -78.5 -12t-78.5 -12q-35 -8 -67 -17.5t-62 -21.5q-14 -8 -28.5 -13.5t-29.5 -15.5q-8 -8 -18 -20.5t-17 -16.5q10 35 24.5 68t27.5 63q2 6 13 25.5t21.5 41t18.5 39t6 21.5q-25 35 -58.5 68t-78.5 37z M86 72h47q4 -41 7 -83t12 -83q4 41 10 83t14 83h37l25 -166q4 41 9 83t9 83h43l-43 -224h-43q-6 37 -11 74t-9 74q-4 -37 -11.5 -74t-13.5 -74h-43zM90 1024q68 -37 109 -109q2 -2 -4.5 -15t-14.5 -28.5t-15 -29t-9 -19.5q-25 -45 -41 -94q51 27 104 39t108.5 20.5t110 15.5 t107.5 23q-18 18 -47 25.5t-62 8.5t-65.5 -2t-55.5 -5v131t4 131q-59 -16 -116.5 -39.5t-112.5 -52.5zM305 72h45q4 -41 8 -83t11 -83q4 41 10 83t14 83h39l23 -166q4 41 9 83t9 83h43l-43 -224h-41q-8 37 -13 74t-9 74q-4 -37 -10.5 -74t-12.5 -74h-45zM342 913 q8 0 22.5 6.5t29 15.5t27.5 18.5t23 13.5q37 16 75 29.5t77 27.5q78 23 155.5 43t159.5 39q78 16 155 31.5t157 21.5q72 8 154.5 11.5t152.5 -29.5q6 55 6 112.5t4 110.5q0 29 2 57.5t6 57.5q2 14 -6 22t-20.5 13.5t-26.5 7.5t-27 4q-119 18 -245.5 0.5t-245.5 -41.5 q-129 -27 -255 -60.5t-249 -87.5q-23 -12 -46.5 -24.5t-43.5 -28.5t-24.5 -49t-8.5 -55q-8 -66 -8 -132.5v-134.5zM367 1030q0 23 15 38t36 19q6 2 15 -2t5 -14q-12 -8 -22 -8q-12 -4 -16.5 -16.5t1.5 -22.5q4 -4 8.5 -5t8.5 -3q20 -2 33.5 11t22.5 33.5t13.5 41t8.5 35.5 q-27 -27 -62 -35q-27 -4 -43 12q-16 8 -16 37q0 27 12 51q27 61 86 98q12 6 25.5 12.5t27.5 10.5q10 4 21.5 12t21.5 11q12 -1 6 -13q12 0 21 -2q16 -2 27.5 -15t13.5 -32q6 -43 -23.5 -83t-66.5 -62q-18 -12 -27.5 -32t-18.5 -39t-20.5 -37.5t-34.5 -29.5q-23 -16 -53 -10 q-12 4 -20 14.5t-6 24.5zM405.5 1141.5q2.5 -15.5 22.5 -15.5q31 0 49.5 19.5t30.5 47.5t18.5 59t10.5 51q-29 -6 -52.5 -23.5t-44.5 -38.5q-6 -6 -15 -25.5t-15.5 -39t-4 -35zM522 72h45q4 -41 9.5 -83t9.5 -83q4 41 10 83t14 83h39l25 -166q2 41 7 83t11 83h41l-41 -224 h-43q-8 37 -12 74t-10 74q-4 -37 -10.5 -74t-12.5 -74h-43zM530 1155q14 4 29.5 19.5t26 35t14.5 40t0 34.5q-6 23 -33 23q-14 -37 -20.5 -75t-16.5 -77zM582 343q2 34 2 60q0 20 -1 39t1 39q0 49 26.5 67.5t73.5 18.5q37 0 54.5 -20.5t23.5 -50t4 -63.5t-2 -60v-80 q0 -47 -26.5 -66.5t-71.5 -17.5q-39 0 -56.5 20.5t-23.5 50t-4 63.5zM628 1157.5q-5 20.5 6 46t31.5 46t43.5 22.5q12 0 16 -10q8 -12 2 -29q-6 -23 -27.5 -40t-44.5 -22q2 -12 10.5 -13t17.5 3t17.5 10.5t12.5 10.5q25 20 36 45.5t21 52.5q2 2 -1 9t-8 15.5t-8 17.5t-1 15 q10 27 34 23q12 0 17 -12q4 -10 2 -22.5t-2 -25.5q20 2 28.5 -1t-4.5 -27q-8 -16 -17 -33.5t-11 -36.5q0 -10 6 -10q20 0 34.5 20.5t26 46t22.5 51t25 33.5q8 2 17 -2q2 -4 2 -12q-4 -12 -10.5 -21.5t-1.5 -23.5q6 -12 13 -25.5t5 -27.5h2q20 25 32.5 60.5t45.5 51.5 q37 14 49 -20q10 -14 6 -25.5t-2 -27.5q8 2 14 10q16 12 18.5 34.5t8.5 41.5q4 4 11 5t12 -1q10 -2 8 -12v-2q10 10 24 16q10 6 17.5 2t11.5 -14q4 -12 1 -22.5t-8 -22t-10 -22.5t-3 -23q14 12 24 26t18.5 29.5t17.5 29t26 23.5q20 10 51 0q4 6 17 8t9 -14q-4 -18 -14 -38.5 t-10 -41.5q0 -14 8 -2q20 20 30.5 48t19.5 55.5t23.5 53t43.5 42.5q14 8 24 -9q12 -23 4 -48t-24 -42q-14 -18 -43 -43.5t-25 -52.5q4 -16 23 -12q14 6 21 19.5t16 25.5q4 2 12 2t8 -10l-4 -13q-16 -39 -53 -53q-25 -14 -43 14q-4 5 -4 11q-10 -8 -16.5 -15.5t-18.5 -11.5 q-10 -4 -16.5 0t-12.5 8q-4 -4 -12 -8t-16 -6q-31 -6 -43 20v2q-8 -10 -17.5 -17t-23.5 -11q-14 -8 -25 12q-6 12 -3 23.5t8 21.5t9 21.5t2 23.5q-18 -8 -25 -19.5t-11.5 -25.5t-6.5 -28.5t-8 -28.5q-6 -16 -24 -8q-8 2 -9 10q0 4 1 9t1 7q-14 -4 -19 -4t-15 -10 t-24.5 -18.5t-31.5 -8.5q-10 2 -16 8.5t-10 14.5q-16 -16 -40 -32.5t-50 -12.5q-16 2 -25 18q-25 -29 -51 -37q-29 -12 -33 21q-4 27 8.5 44t22.5 38q2 4 -3 5t-7 -3q-8 -20 -18.5 -44t-26 -45.5t-36 -34.5t-46.5 -11q-31 2 -36 22.5zM638 367.5q-1 -37.5 1 -74.5 q0 -16 9 -26.5t21.5 -14.5t24 1t15.5 23q2 12 2 27.5v30.5v147q0 16 -10.5 27.5t-22.5 15.5t-23.5 -2t-15.5 -22q-2 -14 -1 -29.5t1 -28.5q0 -37 -1 -74.5zM653 621q12 14 15.5 36.5t2.5 48t-4 49t-3 42.5v125q0 16 1 30.5t-12 28.5h76q-14 -12 -12 -32.5t2 -37.5v-141 q0 -16 -2 -49t10 -47q14 -23 37.5 -8.5t28.5 32.5q8 27 2.5 54.5t-9.5 54.5q-4 14 -10 37.5t-8 48.5t2 46.5t21 33.5q10 10 31.5 10t29.5 -16q6 -16 -2 -21.5t-18.5 -4.5t-17.5 8t1 16q-16 -8 -17 -29t6 -44.5t17 -46t15 -34.5q12 -37 17 -87t-22 -85q-10 -14 -33.5 -19.5 t-50 -5.5t-53 3.5t-41.5 3.5zM655 1192q12 -2 28.5 15.5t18.5 27.5q4 8 -2 12t-12 -2q-10 -10 -18.5 -24.5t-14.5 -28.5zM715 -123q0 14 9 22.5t21.5 8.5t21.5 -8.5t9 -22.5q0 -16 -9 -23.5t-21.5 -7.5t-21.5 7.5t-9 23.5zM776 1329q-2 -8 4 -20h4q0 8 1 13t-1 13 q-6 0 -8 -6zM780 209q10 14 13.5 34.5t2.5 44t-4.5 46t-3.5 39.5v172q0 10 -8 22h58q29 -12 51 -50t35 -66q0 25 2 59.5t-13 56.5h74q-12 -10 -11 -24.5t1 -28.5v-246q0 -14 -1 -31.5t11 -27.5h-207zM797 -152l59 224h64l59 -224h-51l-15 52h-53l-10 -52h-53zM844 252 q0 -14 11 -23.5t25.5 -11.5t28 3.5t15.5 19.5q-4 63 -21.5 127.5t-58.5 115.5v-231zM865 711.5q-3 19.5 7 31.5t33 13.5t27 -21.5q0 -10 -7 -15t-15.5 -5t-14.5 4t-6 14q-12 -4 -12 -14t7 -20.5t17 -19.5t17 -11q14 -4 34.5 -4t30.5 10q20 20 16 40.5t-19 38t-35.5 32 t-31.5 24.5q-18 16 -30.5 42t-12.5 52.5t13.5 48t44.5 27.5q27 6 54.5 4t51.5 -2l-6 -10q0 -14 7 -29.5t13.5 -31t5.5 -30t-16 -26.5q-14 -10 -33.5 -9t-21.5 21q0 12 7 17.5t15.5 5.5t14.5 -5t4 -14q14 2 14 12.5t-8 21.5t-18.5 20.5t-18.5 11.5q-14 4 -32.5 1t-24.5 -19 q-12 -25 -4 -43.5t24.5 -33t37 -27.5t32.5 -28q14 -20 22.5 -46.5t4.5 -52t-20.5 -44t-47.5 -22.5q-27 -2 -53.5 -1t-54.5 1q8 4 5 19t-8.5 33.5t-8.5 38zM866 -61h41q-4 23 -9 46t-11 46zM874 1219q4 -12 16.5 -10.5t14.5 14.5q2 18 -10 43q-6 -8 -14.5 -22.5t-6.5 -24.5z M991 1264l4 -15q10 -14 25 -6q16 4 23.5 21.5t3.5 33.5q-2 10 -9.5 16.5t-21.5 -3.5q-20 -14 -25 -47zM997 209q12 14 15.5 36.5t2.5 47t-4 48.5t-3 40v127q0 16 1 29.5t-12 29.5h76q-10 -10 -13 -30.5t-2 -42t3 -43t2 -35.5v-166h104q23 0 55.5 -3t55.5 13q-4 -8 -7 -29.5 t-14 -21.5h-260zM1006 70q29 4 64.5 6t62.5 -15q31 -23 22.5 -57.5t-37.5 -48.5q14 -6 21.5 -19.5t10.5 -29t5 -30.5t8 -28h-51q-6 12 -8 27.5t-6 29t-12.5 23t-26.5 6.5v-86h-53v222zM1057 8.5q2 -24.5 2 -35.5h12q18 0 26.5 10.5t6.5 22.5t-11.5 21.5t-27.5 7.5 q-10 -2 -8 -26.5zM1065 621q10 12 11 25t1 28v248q0 14 -1 30.5t-11 28.5h127q25 -25 25.5 -59.5t-9.5 -67.5q-4 -8 -15 -29.5t-20.5 -45t-11.5 -45t10 -27.5q-6 12 4.5 13t21.5 -4t14 -14.5t-17 -17.5q-25 -10 -35 9.5t-8 35.5q0 16 6 32.5t8 31t-4 22.5t-28 6v-155 q16 0 41.5 -3.5t44.5 11.5q-6 -14 -8.5 -26.5t-6.5 -26.5h-139zM1098 567h78q-12 -29 2 -65.5t26 -61.5q12 29 22.5 63t0.5 64h80q-23 -12 -27 -38.5t-10 -47.5q-6 -20 -23.5 -47.5t-17.5 -48.5q0 -23 -3 -56.5t13 -52.5h-76q18 18 14.5 54t-3.5 59q-12 23 -21.5 46.5 t-17.5 45.5q-10 23 -14.5 46.5t-22.5 39.5zM1133 866q20 0 45.5 2t27.5 33q0 16 -7 23.5t-18.5 10.5t-24.5 3h-23v-72zM1192 72h53v-224h-53v224zM1245 1296q-4 -10 1 -27.5t22 -2.5q12 12 21 32.5t11 38.5q-2 8 -4 13.5t-12 1.5q-16 -8 -25.5 -23.5t-13.5 -32.5zM1274 -123 q0 14 9 22.5t21.5 8.5t21.5 -8.5t9 -22.5q0 -16 -9 -23.5t-21.5 -7.5t-21.5 7.5t-9 23.5zM1294 1018q-8 -6 4 -8q27 -10 57.5 -13.5t62.5 -3.5h62.5t59.5 -2t57.5 -5t57.5 -13q29 -8 51.5 -23.5t48.5 -27.5q0 61 -21.5 106t-80.5 68q35 31 69.5 58.5t75.5 43.5 q-49 47 -110.5 77t-126.5 46q-2 -57 -3.5 -112.5t-5.5 -112.5l-2 2v-6q-27 -2 -64.5 -4.5t-74.5 -9.5t-68.5 -21.5t-48.5 -38.5zM1364 72h57l68 -152q-4 39 -4 77v75h47v-224h-51q-20 39 -37 79t-35 77q2 -39 2 -78v-78h-47v224zM1393 1362q16 20 31.5 39.5t19.5 46.5h-2 q-37 -37 -49 -86zM1562.5 -63.5q-8.5 36.5 14.5 79.5q12 29 40 43.5t62 14.5h10.5t17.5 -2t16.5 -4t7.5 -5l-9 -40q-27 12 -48 8t-36.5 -18.5t-20.5 -37t3 -47.5q16 -47 61 -41q10 2 8.5 21.5t-1.5 28.5h-27v40h76v-120q-41 -16 -79 -9t-62.5 29.5t-33 59z" />
<glyph unicode="2" d="M35 1018q70 37 137.5 67.5t144.5 53.5q4 0 8.5 20.5t8.5 45t8 48t8 31.5q23 35 68 53.5t78 34.5q88 35 179 61.5t183 51.5q94 23 188.5 39t190.5 24q33 4 80 8.5t95 3.5t92 -12.5t71 -38.5q2 -4 -2 -28.5t-6 -32.5l-6 -98q0 -4 4 -4q78 -23 152.5 -59t123.5 -103v-2 q-16 4 -36.5 -3.5t-41 -20.5t-38 -27.5t-27.5 -26.5q31 -16 50 -47t27.5 -67t6.5 -72.5t-13 -67.5q-16 43 -49.5 66.5t-74.5 35t-85 14.5t-83 5q-45 4 -94.5 2t-92.5 14q-16 6 -22 25.5t-7 43t2 46l5 37.5q-184 -14 -363.5 -56.5t-351.5 -101.5q-8 -2 -8 -6q2 -10 8 -33.5 t10 -50.5t6 -49.5t-6 -28.5q-23 -18 -58.5 -21.5t-64.5 -7.5q-39 -6 -78.5 -12t-78.5 -12q-35 -8 -67 -17.5t-62 -21.5q-14 -8 -28.5 -13.5t-29.5 -15.5q-8 -8 -18 -20.5t-17 -16.5q10 35 24.5 68t27.5 63q2 6 13 25.5t21.5 41t18.5 39t6 21.5q-25 35 -58.5 68t-78.5 37z M86 72h47q4 -41 7 -83t12 -83q4 41 10 83t14 83h37l25 -166q4 41 9 83t9 83h43l-43 -224h-43q-6 37 -11 74t-9 74q-4 -37 -11.5 -74t-13.5 -74h-43zM90 1024q68 -37 109 -109q2 -2 -4.5 -15t-14.5 -28.5t-15 -29t-9 -19.5q-25 -45 -41 -94q51 27 104 39t108.5 20.5t110 15.5 t107.5 23q-18 18 -47 25.5t-62 8.5t-65.5 -2t-55.5 -5v131t4 131q-59 -16 -116.5 -39.5t-112.5 -52.5zM305 72h45q4 -41 8 -83t11 -83q4 41 10 83t14 83h39l23 -166q4 41 9 83t9 83h43l-43 -224h-41q-8 37 -13 74t-9 74q-4 -37 -10.5 -74t-12.5 -74h-45zM342 913 q8 0 22.5 6.5t29 15.5t27.5 18.5t23 13.5q37 16 75 29.5t77 27.5q78 23 155.5 43t159.5 39q78 16 155 31.5t157 21.5q72 8 154.5 11.5t152.5 -29.5q6 55 6 112.5t4 110.5q0 29 2 57.5t6 57.5q2 14 -6 22t-20.5 13.5t-26.5 7.5t-27 4q-119 18 -245.5 0.5t-245.5 -41.5 q-129 -27 -255 -60.5t-249 -87.5q-23 -12 -46.5 -24.5t-43.5 -28.5t-24.5 -49t-8.5 -55q-8 -66 -8 -132.5v-134.5zM367 1030q0 23 15 38t36 19q6 2 15 -2t5 -14q-12 -8 -22 -8q-12 -4 -16.5 -16.5t1.5 -22.5q4 -4 8.5 -5t8.5 -3q20 -2 33.5 11t22.5 33.5t13.5 41t8.5 35.5 q-27 -27 -62 -35q-27 -4 -43 12q-16 8 -16 37q0 27 12 51q27 61 86 98q12 6 25.5 12.5t27.5 10.5q10 4 21.5 12t21.5 11q12 -1 6 -13q12 0 21 -2q16 -2 27.5 -15t13.5 -32q6 -43 -23.5 -83t-66.5 -62q-18 -12 -27.5 -32t-18.5 -39t-20.5 -37.5t-34.5 -29.5q-23 -16 -53 -10 q-12 4 -20 14.5t-6 24.5zM405.5 1141.5q2.5 -15.5 22.5 -15.5q31 0 49.5 19.5t30.5 47.5t18.5 59t10.5 51q-29 -6 -52.5 -23.5t-44.5 -38.5q-6 -6 -15 -25.5t-15.5 -39t-4 -35zM522 72h45q4 -41 9.5 -83t9.5 -83q4 41 10 83t14 83h39l25 -166q2 41 7 83t11 83h41l-41 -224 h-43q-8 37 -12 74t-10 74q-4 -37 -10.5 -74t-12.5 -74h-43zM530 1155q14 4 29.5 19.5t26 35t14.5 40t0 34.5q-6 23 -33 23q-14 -37 -20.5 -75t-16.5 -77zM582 343q2 34 2 60q0 20 -1 39t1 39q0 49 26.5 67.5t73.5 18.5q37 0 54.5 -20.5t23.5 -50t4 -63.5t-2 -60v-80 q0 -47 -26.5 -66.5t-71.5 -17.5q-39 0 -56.5 20.5t-23.5 50t-4 63.5zM628 1157.5q-5 20.5 6 46t31.5 46t43.5 22.5q12 0 16 -10q8 -12 2 -29q-6 -23 -27.5 -40t-44.5 -22q2 -12 10.5 -13t17.5 3t17.5 10.5t12.5 10.5q25 20 36 45.5t21 52.5q2 2 -1 9t-8 15.5t-8 17.5t-1 15 q10 27 34 23q12 0 17 -12q4 -10 2 -22.5t-2 -25.5q20 2 28.5 -1t-4.5 -27q-8 -16 -17 -33.5t-11 -36.5q0 -10 6 -10q20 0 34.5 20.5t26 46t22.5 51t25 33.5q8 2 17 -2q2 -4 2 -12q-4 -12 -10.5 -21.5t-1.5 -23.5q6 -12 13 -25.5t5 -27.5h2q20 25 32.5 60.5t45.5 51.5 q37 14 49 -20q10 -14 6 -25.5t-2 -27.5q8 2 14 10q16 12 18.5 34.5t8.5 41.5q4 4 11 5t12 -1q10 -2 8 -12v-2q10 10 24 16q10 6 17.5 2t11.5 -14q4 -12 1 -22.5t-8 -22t-10 -22.5t-3 -23q14 12 24 26t18.5 29.5t17.5 29t26 23.5q20 10 51 0q4 6 17 8t9 -14q-4 -18 -14 -38.5 t-10 -41.5q0 -14 8 -2q20 20 30.5 48t19.5 55.5t23.5 53t43.5 42.5q14 8 24 -9q12 -23 4 -48t-24 -42q-14 -18 -43 -43.5t-25 -52.5q4 -16 23 -12q14 6 21 19.5t16 25.5q4 2 12 2t8 -10l-4 -13q-16 -39 -53 -53q-25 -14 -43 14q-4 5 -4 11q-10 -8 -16.5 -15.5t-18.5 -11.5 q-10 -4 -16.5 0t-12.5 8q-4 -4 -12 -8t-16 -6q-31 -6 -43 20v2q-8 -10 -17.5 -17t-23.5 -11q-14 -8 -25 12q-6 12 -3 23.5t8 21.5t9 21.5t2 23.5q-18 -8 -25 -19.5t-11.5 -25.5t-6.5 -28.5t-8 -28.5q-6 -16 -24 -8q-8 2 -9 10q0 4 1 9t1 7q-14 -4 -19 -4t-15 -10 t-24.5 -18.5t-31.5 -8.5q-10 2 -16 8.5t-10 14.5q-16 -16 -40 -32.5t-50 -12.5q-16 2 -25 18q-25 -29 -51 -37q-29 -12 -33 21q-4 27 8.5 44t22.5 38q2 4 -3 5t-7 -3q-8 -20 -18.5 -44t-26 -45.5t-36 -34.5t-46.5 -11q-31 2 -36 22.5zM638 367.5q-1 -37.5 1 -74.5 q0 -16 9 -26.5t21.5 -14.5t24 1t15.5 23q2 12 2 27.5v30.5v147q0 16 -10.5 27.5t-22.5 15.5t-23.5 -2t-15.5 -22q-2 -14 -1 -29.5t1 -28.5q0 -37 -1 -74.5zM653 621q12 14 15.5 36.5t2.5 48t-4 49t-3 42.5v125q0 16 1 30.5t-12 28.5h76q-14 -12 -12 -32.5t2 -37.5v-141 q0 -16 -2 -49t10 -47q14 -23 37.5 -8.5t28.5 32.5q8 27 2.5 54.5t-9.5 54.5q-4 14 -10 37.5t-8 48.5t2 46.5t21 33.5q10 10 31.5 10t29.5 -16q6 -16 -2 -21.5t-18.5 -4.5t-17.5 8t1 16q-16 -8 -17 -29t6 -44.5t17 -46t15 -34.5q12 -37 17 -87t-22 -85q-10 -14 -33.5 -19.5 t-50 -5.5t-53 3.5t-41.5 3.5zM655 1192q12 -2 28.5 15.5t18.5 27.5q4 8 -2 12t-12 -2q-10 -10 -18.5 -24.5t-14.5 -28.5zM715 -123q0 14 9 22.5t21.5 8.5t21.5 -8.5t9 -22.5q0 -16 -9 -23.5t-21.5 -7.5t-21.5 7.5t-9 23.5zM776 1329q-2 -8 4 -20h4q0 8 1 13t-1 13 q-6 0 -8 -6zM780 209q10 14 13.5 34.5t2.5 44t-4.5 46t-3.5 39.5v172q0 10 -8 22h58q29 -12 51 -50t35 -66q0 25 2 59.5t-13 56.5h74q-12 -10 -11 -24.5t1 -28.5v-246q0 -14 -1 -31.5t11 -27.5h-207zM797 -152l59 224h64l59 -224h-51l-15 52h-53l-10 -52h-53zM844 252 q0 -14 11 -23.5t25.5 -11.5t28 3.5t15.5 19.5q-4 63 -21.5 127.5t-58.5 115.5v-231zM865 711.5q-3 19.5 7 31.5t33 13.5t27 -21.5q0 -10 -7 -15t-15.5 -5t-14.5 4t-6 14q-12 -4 -12 -14t7 -20.5t17 -19.5t17 -11q14 -4 34.5 -4t30.5 10q20 20 16 40.5t-19 38t-35.5 32 t-31.5 24.5q-18 16 -30.5 42t-12.5 52.5t13.5 48t44.5 27.5q27 6 54.5 4t51.5 -2l-6 -10q0 -14 7 -29.5t13.5 -31t5.5 -30t-16 -26.5q-14 -10 -33.5 -9t-21.5 21q0 12 7 17.5t15.5 5.5t14.5 -5t4 -14q14 2 14 12.5t-8 21.5t-18.5 20.5t-18.5 11.5q-14 4 -32.5 1t-24.5 -19 q-12 -25 -4 -43.5t24.5 -33t37 -27.5t32.5 -28q14 -20 22.5 -46.5t4.5 -52t-20.5 -44t-47.5 -22.5q-27 -2 -53.5 -1t-54.5 1q8 4 5 19t-8.5 33.5t-8.5 38zM866 -61h41q-4 23 -9 46t-11 46zM874 1219q4 -12 16.5 -10.5t14.5 14.5q2 18 -10 43q-6 -8 -14.5 -22.5t-6.5 -24.5z M991 1264l4 -15q10 -14 25 -6q16 4 23.5 21.5t3.5 33.5q-2 10 -9.5 16.5t-21.5 -3.5q-20 -14 -25 -47zM997 209q12 14 15.5 36.5t2.5 47t-4 48.5t-3 40v127q0 16 1 29.5t-12 29.5h76q-10 -10 -13 -30.5t-2 -42t3 -43t2 -35.5v-166h104q23 0 55.5 -3t55.5 13q-4 -8 -7 -29.5 t-14 -21.5h-260zM1006 70q29 4 64.5 6t62.5 -15q31 -23 22.5 -57.5t-37.5 -48.5q14 -6 21.5 -19.5t10.5 -29t5 -30.5t8 -28h-51q-6 12 -8 27.5t-6 29t-12.5 23t-26.5 6.5v-86h-53v222zM1057 8.5q2 -24.5 2 -35.5h12q18 0 26.5 10.5t6.5 22.5t-11.5 21.5t-27.5 7.5 q-10 -2 -8 -26.5zM1065 621q10 12 11 25t1 28v248q0 14 -1 30.5t-11 28.5h127q25 -25 25.5 -59.5t-9.5 -67.5q-4 -8 -15 -29.5t-20.5 -45t-11.5 -45t10 -27.5q-6 12 4.5 13t21.5 -4t14 -14.5t-17 -17.5q-25 -10 -35 9.5t-8 35.5q0 16 6 32.5t8 31t-4 22.5t-28 6v-155 q16 0 41.5 -3.5t44.5 11.5q-6 -14 -8.5 -26.5t-6.5 -26.5h-139zM1098 567h78q-12 -29 2 -65.5t26 -61.5q12 29 22.5 63t0.5 64h80q-23 -12 -27 -38.5t-10 -47.5q-6 -20 -23.5 -47.5t-17.5 -48.5q0 -23 -3 -56.5t13 -52.5h-76q18 18 14.5 54t-3.5 59q-12 23 -21.5 46.5 t-17.5 45.5q-10 23 -14.5 46.5t-22.5 39.5zM1133 866q20 0 45.5 2t27.5 33q0 16 -7 23.5t-18.5 10.5t-24.5 3h-23v-72zM1192 72h53v-224h-53v224zM1245 1296q-4 -10 1 -27.5t22 -2.5q12 12 21 32.5t11 38.5q-2 8 -4 13.5t-12 1.5q-16 -8 -25.5 -23.5t-13.5 -32.5zM1274 -123 q0 14 9 22.5t21.5 8.5t21.5 -8.5t9 -22.5q0 -16 -9 -23.5t-21.5 -7.5t-21.5 7.5t-9 23.5zM1294 1018q-8 -6 4 -8q27 -10 57.5 -13.5t62.5 -3.5h62.5t59.5 -2t57.5 -5t57.5 -13q29 -8 51.5 -23.5t48.5 -27.5q0 61 -21.5 106t-80.5 68q35 31 69.5 58.5t75.5 43.5 q-49 47 -110.5 77t-126.5 46q-2 -57 -3.5 -112.5t-5.5 -112.5l-2 2v-6q-27 -2 -64.5 -4.5t-74.5 -9.5t-68.5 -21.5t-48.5 -38.5zM1364 72h57l68 -152q-4 39 -4 77v75h47v-224h-51q-20 39 -37 79t-35 77q2 -39 2 -78v-78h-47v224zM1393 1362q16 20 31.5 39.5t19.5 46.5h-2 q-37 -37 -49 -86zM1562.5 -63.5q-8.5 36.5 14.5 79.5q12 29 40 43.5t62 14.5h10.5t17.5 -2t16.5 -4t7.5 -5l-9 -40q-27 12 -48 8t-36.5 -18.5t-20.5 -37t3 -47.5q16 -47 61 -41q10 2 8.5 21.5t-1.5 28.5h-27v40h76v-120q-41 -16 -79 -9t-62.5 29.5t-33 59z" />
<glyph unicode="3" d="M35 1018q70 37 137.5 67.5t144.5 53.5q4 0 8.5 20.5t8.5 45t8 48t8 31.5q23 35 68 53.5t78 34.5q88 35 179 61.5t183 51.5q94 23 188.5 39t190.5 24q33 4 80 8.5t95 3.5t92 -12.5t71 -38.5q2 -4 -2 -28.5t-6 -32.5l-6 -98q0 -4 4 -4q78 -23 152.5 -59t123.5 -103v-2 q-16 4 -36.5 -3.5t-41 -20.5t-38 -27.5t-27.5 -26.5q31 -16 50 -47t27.5 -67t6.5 -72.5t-13 -67.5q-16 43 -49.5 66.5t-74.5 35t-85 14.5t-83 5q-45 4 -94.5 2t-92.5 14q-16 6 -22 25.5t-7 43t2 46l5 37.5q-184 -14 -363.5 -56.5t-351.5 -101.5q-8 -2 -8 -6q2 -10 8 -33.5 t10 -50.5t6 -49.5t-6 -28.5q-23 -18 -58.5 -21.5t-64.5 -7.5q-39 -6 -78.5 -12t-78.5 -12q-35 -8 -67 -17.5t-62 -21.5q-14 -8 -28.5 -13.5t-29.5 -15.5q-8 -8 -18 -20.5t-17 -16.5q10 35 24.5 68t27.5 63q2 6 13 25.5t21.5 41t18.5 39t6 21.5q-25 35 -58.5 68t-78.5 37z M86 72h47q4 -41 7 -83t12 -83q4 41 10 83t14 83h37l25 -166q4 41 9 83t9 83h43l-43 -224h-43q-6 37 -11 74t-9 74q-4 -37 -11.5 -74t-13.5 -74h-43zM90 1024q68 -37 109 -109q2 -2 -4.5 -15t-14.5 -28.5t-15 -29t-9 -19.5q-25 -45 -41 -94q51 27 104 39t108.5 20.5t110 15.5 t107.5 23q-18 18 -47 25.5t-62 8.5t-65.5 -2t-55.5 -5v131t4 131q-59 -16 -116.5 -39.5t-112.5 -52.5zM305 72h45q4 -41 8 -83t11 -83q4 41 10 83t14 83h39l23 -166q4 41 9 83t9 83h43l-43 -224h-41q-8 37 -13 74t-9 74q-4 -37 -10.5 -74t-12.5 -74h-45zM342 913 q8 0 22.5 6.5t29 15.5t27.5 18.5t23 13.5q37 16 75 29.5t77 27.5q78 23 155.5 43t159.5 39q78 16 155 31.5t157 21.5q72 8 154.5 11.5t152.5 -29.5q6 55 6 112.5t4 110.5q0 29 2 57.5t6 57.5q2 14 -6 22t-20.5 13.5t-26.5 7.5t-27 4q-119 18 -245.5 0.5t-245.5 -41.5 q-129 -27 -255 -60.5t-249 -87.5q-23 -12 -46.5 -24.5t-43.5 -28.5t-24.5 -49t-8.5 -55q-8 -66 -8 -132.5v-134.5zM367 1030q0 23 15 38t36 19q6 2 15 -2t5 -14q-12 -8 -22 -8q-12 -4 -16.5 -16.5t1.5 -22.5q4 -4 8.5 -5t8.5 -3q20 -2 33.5 11t22.5 33.5t13.5 41t8.5 35.5 q-27 -27 -62 -35q-27 -4 -43 12q-16 8 -16 37q0 27 12 51q27 61 86 98q12 6 25.5 12.5t27.5 10.5q10 4 21.5 12t21.5 11q12 -1 6 -13q12 0 21 -2q16 -2 27.5 -15t13.5 -32q6 -43 -23.5 -83t-66.5 -62q-18 -12 -27.5 -32t-18.5 -39t-20.5 -37.5t-34.5 -29.5q-23 -16 -53 -10 q-12 4 -20 14.5t-6 24.5zM405.5 1141.5q2.5 -15.5 22.5 -15.5q31 0 49.5 19.5t30.5 47.5t18.5 59t10.5 51q-29 -6 -52.5 -23.5t-44.5 -38.5q-6 -6 -15 -25.5t-15.5 -39t-4 -35zM522 72h45q4 -41 9.5 -83t9.5 -83q4 41 10 83t14 83h39l25 -166q2 41 7 83t11 83h41l-41 -224 h-43q-8 37 -12 74t-10 74q-4 -37 -10.5 -74t-12.5 -74h-43zM530 1155q14 4 29.5 19.5t26 35t14.5 40t0 34.5q-6 23 -33 23q-14 -37 -20.5 -75t-16.5 -77zM582 343q2 34 2 60q0 20 -1 39t1 39q0 49 26.5 67.5t73.5 18.5q37 0 54.5 -20.5t23.5 -50t4 -63.5t-2 -60v-80 q0 -47 -26.5 -66.5t-71.5 -17.5q-39 0 -56.5 20.5t-23.5 50t-4 63.5zM628 1157.5q-5 20.5 6 46t31.5 46t43.5 22.5q12 0 16 -10q8 -12 2 -29q-6 -23 -27.5 -40t-44.5 -22q2 -12 10.5 -13t17.5 3t17.5 10.5t12.5 10.5q25 20 36 45.5t21 52.5q2 2 -1 9t-8 15.5t-8 17.5t-1 15 q10 27 34 23q12 0 17 -12q4 -10 2 -22.5t-2 -25.5q20 2 28.5 -1t-4.5 -27q-8 -16 -17 -33.5t-11 -36.5q0 -10 6 -10q20 0 34.5 20.5t26 46t22.5 51t25 33.5q8 2 17 -2q2 -4 2 -12q-4 -12 -10.5 -21.5t-1.5 -23.5q6 -12 13 -25.5t5 -27.5h2q20 25 32.5 60.5t45.5 51.5 q37 14 49 -20q10 -14 6 -25.5t-2 -27.5q8 2 14 10q16 12 18.5 34.5t8.5 41.5q4 4 11 5t12 -1q10 -2 8 -12v-2q10 10 24 16q10 6 17.5 2t11.5 -14q4 -12 1 -22.5t-8 -22t-10 -22.5t-3 -23q14 12 24 26t18.5 29.5t17.5 29t26 23.5q20 10 51 0q4 6 17 8t9 -14q-4 -18 -14 -38.5 t-10 -41.5q0 -14 8 -2q20 20 30.5 48t19.5 55.5t23.5 53t43.5 42.5q14 8 24 -9q12 -23 4 -48t-24 -42q-14 -18 -43 -43.5t-25 -52.5q4 -16 23 -12q14 6 21 19.5t16 25.5q4 2 12 2t8 -10l-4 -13q-16 -39 -53 -53q-25 -14 -43 14q-4 5 -4 11q-10 -8 -16.5 -15.5t-18.5 -11.5 q-10 -4 -16.5 0t-12.5 8q-4 -4 -12 -8t-16 -6q-31 -6 -43 20v2q-8 -10 -17.5 -17t-23.5 -11q-14 -8 -25 12q-6 12 -3 23.5t8 21.5t9 21.5t2 23.5q-18 -8 -25 -19.5t-11.5 -25.5t-6.5 -28.5t-8 -28.5q-6 -16 -24 -8q-8 2 -9 10q0 4 1 9t1 7q-14 -4 -19 -4t-15 -10 t-24.5 -18.5t-31.5 -8.5q-10 2 -16 8.5t-10 14.5q-16 -16 -40 -32.5t-50 -12.5q-16 2 -25 18q-25 -29 -51 -37q-29 -12 -33 21q-4 27 8.5 44t22.5 38q2 4 -3 5t-7 -3q-8 -20 -18.5 -44t-26 -45.5t-36 -34.5t-46.5 -11q-31 2 -36 22.5zM638 367.5q-1 -37.5 1 -74.5 q0 -16 9 -26.5t21.5 -14.5t24 1t15.5 23q2 12 2 27.5v30.5v147q0 16 -10.5 27.5t-22.5 15.5t-23.5 -2t-15.5 -22q-2 -14 -1 -29.5t1 -28.5q0 -37 -1 -74.5zM653 621q12 14 15.5 36.5t2.5 48t-4 49t-3 42.5v125q0 16 1 30.5t-12 28.5h76q-14 -12 -12 -32.5t2 -37.5v-141 q0 -16 -2 -49t10 -47q14 -23 37.5 -8.5t28.5 32.5q8 27 2.5 54.5t-9.5 54.5q-4 14 -10 37.5t-8 48.5t2 46.5t21 33.5q10 10 31.5 10t29.5 -16q6 -16 -2 -21.5t-18.5 -4.5t-17.5 8t1 16q-16 -8 -17 -29t6 -44.5t17 -46t15 -34.5q12 -37 17 -87t-22 -85q-10 -14 -33.5 -19.5 t-50 -5.5t-53 3.5t-41.5 3.5zM655 1192q12 -2 28.5 15.5t18.5 27.5q4 8 -2 12t-12 -2q-10 -10 -18.5 -24.5t-14.5 -28.5zM715 -123q0 14 9 22.5t21.5 8.5t21.5 -8.5t9 -22.5q0 -16 -9 -23.5t-21.5 -7.5t-21.5 7.5t-9 23.5zM776 1329q-2 -8 4 -20h4q0 8 1 13t-1 13 q-6 0 -8 -6zM780 209q10 14 13.5 34.5t2.5 44t-4.5 46t-3.5 39.5v172q0 10 -8 22h58q29 -12 51 -50t35 -66q0 25 2 59.5t-13 56.5h74q-12 -10 -11 -24.5t1 -28.5v-246q0 -14 -1 -31.5t11 -27.5h-207zM797 -152l59 224h64l59 -224h-51l-15 52h-53l-10 -52h-53zM844 252 q0 -14 11 -23.5t25.5 -11.5t28 3.5t15.5 19.5q-4 63 -21.5 127.5t-58.5 115.5v-231zM865 711.5q-3 19.5 7 31.5t33 13.5t27 -21.5q0 -10 -7 -15t-15.5 -5t-14.5 4t-6 14q-12 -4 -12 -14t7 -20.5t17 -19.5t17 -11q14 -4 34.5 -4t30.5 10q20 20 16 40.5t-19 38t-35.5 32 t-31.5 24.5q-18 16 -30.5 42t-12.5 52.5t13.5 48t44.5 27.5q27 6 54.5 4t51.5 -2l-6 -10q0 -14 7 -29.5t13.5 -31t5.5 -30t-16 -26.5q-14 -10 -33.5 -9t-21.5 21q0 12 7 17.5t15.5 5.5t14.5 -5t4 -14q14 2 14 12.5t-8 21.5t-18.5 20.5t-18.5 11.5q-14 4 -32.5 1t-24.5 -19 q-12 -25 -4 -43.5t24.5 -33t37 -27.5t32.5 -28q14 -20 22.5 -46.5t4.5 -52t-20.5 -44t-47.5 -22.5q-27 -2 -53.5 -1t-54.5 1q8 4 5 19t-8.5 33.5t-8.5 38zM866 -61h41q-4 23 -9 46t-11 46zM874 1219q4 -12 16.5 -10.5t14.5 14.5q2 18 -10 43q-6 -8 -14.5 -22.5t-6.5 -24.5z M991 1264l4 -15q10 -14 25 -6q16 4 23.5 21.5t3.5 33.5q-2 10 -9.5 16.5t-21.5 -3.5q-20 -14 -25 -47zM997 209q12 14 15.5 36.5t2.5 47t-4 48.5t-3 40v127q0 16 1 29.5t-12 29.5h76q-10 -10 -13 -30.5t-2 -42t3 -43t2 -35.5v-166h104q23 0 55.5 -3t55.5 13q-4 -8 -7 -29.5 t-14 -21.5h-260zM1006 70q29 4 64.5 6t62.5 -15q31 -23 22.5 -57.5t-37.5 -48.5q14 -6 21.5 -19.5t10.5 -29t5 -30.5t8 -28h-51q-6 12 -8 27.5t-6 29t-12.5 23t-26.5 6.5v-86h-53v222zM1057 8.5q2 -24.5 2 -35.5h12q18 0 26.5 10.5t6.5 22.5t-11.5 21.5t-27.5 7.5 q-10 -2 -8 -26.5zM1065 621q10 12 11 25t1 28v248q0 14 -1 30.5t-11 28.5h127q25 -25 25.5 -59.5t-9.5 -67.5q-4 -8 -15 -29.5t-20.5 -45t-11.5 -45t10 -27.5q-6 12 4.5 13t21.5 -4t14 -14.5t-17 -17.5q-25 -10 -35 9.5t-8 35.5q0 16 6 32.5t8 31t-4 22.5t-28 6v-155 q16 0 41.5 -3.5t44.5 11.5q-6 -14 -8.5 -26.5t-6.5 -26.5h-139zM1098 567h78q-12 -29 2 -65.5t26 -61.5q12 29 22.5 63t0.5 64h80q-23 -12 -27 -38.5t-10 -47.5q-6 -20 -23.5 -47.5t-17.5 -48.5q0 -23 -3 -56.5t13 -52.5h-76q18 18 14.5 54t-3.5 59q-12 23 -21.5 46.5 t-17.5 45.5q-10 23 -14.5 46.5t-22.5 39.5zM1133 866q20 0 45.5 2t27.5 33q0 16 -7 23.5t-18.5 10.5t-24.5 3h-23v-72zM1192 72h53v-224h-53v224zM1245 1296q-4 -10 1 -27.5t22 -2.5q12 12 21 32.5t11 38.5q-2 8 -4 13.5t-12 1.5q-16 -8 -25.5 -23.5t-13.5 -32.5zM1274 -123 q0 14 9 22.5t21.5 8.5t21.5 -8.5t9 -22.5q0 -16 -9 -23.5t-21.5 -7.5t-21.5 7.5t-9 23.5zM1294 1018q-8 -6 4 -8q27 -10 57.5 -13.5t62.5 -3.5h62.5t59.5 -2t57.5 -5t57.5 -13q29 -8 51.5 -23.5t48.5 -27.5q0 61 -21.5 106t-80.5 68q35 31 69.5 58.5t75.5 43.5 q-49 47 -110.5 77t-126.5 46q-2 -57 -3.5 -112.5t-5.5 -112.5l-2 2v-6q-27 -2 -64.5 -4.5t-74.5 -9.5t-68.5 -21.5t-48.5 -38.5zM1364 72h57l68 -152q-4 39 -4 77v75h47v-224h-51q-20 39 -37 79t-35 77q2 -39 2 -78v-78h-47v224zM1393 1362q16 20 31.5 39.5t19.5 46.5h-2 q-37 -37 -49 -86zM1562.5 -63.5q-8.5 36.5 14.5 79.5q12 29 40 43.5t62 14.5h10.5t17.5 -2t16.5 -4t7.5 -5l-9 -40q-27 12 -48 8t-36.5 -18.5t-20.5 -37t3 -47.5q16 -47 61 -41q10 2 8.5 21.5t-1.5 28.5h-27v40h76v-120q-41 -16 -79 -9t-62.5 29.5t-33 59z" />
<glyph unicode="4" d="M35 1018q70 37 137.5 67.5t144.5 53.5q4 0 8.5 20.5t8.5 45t8 48t8 31.5q23 35 68 53.5t78 34.5q88 35 179 61.5t183 51.5q94 23 188.5 39t190.5 24q33 4 80 8.5t95 3.5t92 -12.5t71 -38.5q2 -4 -2 -28.5t-6 -32.5l-6 -98q0 -4 4 -4q78 -23 152.5 -59t123.5 -103v-2 q-16 4 -36.5 -3.5t-41 -20.5t-38 -27.5t-27.5 -26.5q31 -16 50 -47t27.5 -67t6.5 -72.5t-13 -67.5q-16 43 -49.5 66.5t-74.5 35t-85 14.5t-83 5q-45 4 -94.5 2t-92.5 14q-16 6 -22 25.5t-7 43t2 46l5 37.5q-184 -14 -363.5 -56.5t-351.5 -101.5q-8 -2 -8 -6q2 -10 8 -33.5 t10 -50.5t6 -49.5t-6 -28.5q-23 -18 -58.5 -21.5t-64.5 -7.5q-39 -6 -78.5 -12t-78.5 -12q-35 -8 -67 -17.5t-62 -21.5q-14 -8 -28.5 -13.5t-29.5 -15.5q-8 -8 -18 -20.5t-17 -16.5q10 35 24.5 68t27.5 63q2 6 13 25.5t21.5 41t18.5 39t6 21.5q-25 35 -58.5 68t-78.5 37z M86 72h47q4 -41 7 -83t12 -83q4 41 10 83t14 83h37l25 -166q4 41 9 83t9 83h43l-43 -224h-43q-6 37 -11 74t-9 74q-4 -37 -11.5 -74t-13.5 -74h-43zM90 1024q68 -37 109 -109q2 -2 -4.5 -15t-14.5 -28.5t-15 -29t-9 -19.5q-25 -45 -41 -94q51 27 104 39t108.5 20.5t110 15.5 t107.5 23q-18 18 -47 25.5t-62 8.5t-65.5 -2t-55.5 -5v131t4 131q-59 -16 -116.5 -39.5t-112.5 -52.5zM305 72h45q4 -41 8 -83t11 -83q4 41 10 83t14 83h39l23 -166q4 41 9 83t9 83h43l-43 -224h-41q-8 37 -13 74t-9 74q-4 -37 -10.5 -74t-12.5 -74h-45zM342 913 q8 0 22.5 6.5t29 15.5t27.5 18.5t23 13.5q37 16 75 29.5t77 27.5q78 23 155.5 43t159.5 39q78 16 155 31.5t157 21.5q72 8 154.5 11.5t152.5 -29.5q6 55 6 112.5t4 110.5q0 29 2 57.5t6 57.5q2 14 -6 22t-20.5 13.5t-26.5 7.5t-27 4q-119 18 -245.5 0.5t-245.5 -41.5 q-129 -27 -255 -60.5t-249 -87.5q-23 -12 -46.5 -24.5t-43.5 -28.5t-24.5 -49t-8.5 -55q-8 -66 -8 -132.5v-134.5zM367 1030q0 23 15 38t36 19q6 2 15 -2t5 -14q-12 -8 -22 -8q-12 -4 -16.5 -16.5t1.5 -22.5q4 -4 8.5 -5t8.5 -3q20 -2 33.5 11t22.5 33.5t13.5 41t8.5 35.5 q-27 -27 -62 -35q-27 -4 -43 12q-16 8 -16 37q0 27 12 51q27 61 86 98q12 6 25.5 12.5t27.5 10.5q10 4 21.5 12t21.5 11q12 -1 6 -13q12 0 21 -2q16 -2 27.5 -15t13.5 -32q6 -43 -23.5 -83t-66.5 -62q-18 -12 -27.5 -32t-18.5 -39t-20.5 -37.5t-34.5 -29.5q-23 -16 -53 -10 q-12 4 -20 14.5t-6 24.5zM405.5 1141.5q2.5 -15.5 22.5 -15.5q31 0 49.5 19.5t30.5 47.5t18.5 59t10.5 51q-29 -6 -52.5 -23.5t-44.5 -38.5q-6 -6 -15 -25.5t-15.5 -39t-4 -35zM522 72h45q4 -41 9.5 -83t9.5 -83q4 41 10 83t14 83h39l25 -166q2 41 7 83t11 83h41l-41 -224 h-43q-8 37 -12 74t-10 74q-4 -37 -10.5 -74t-12.5 -74h-43zM530 1155q14 4 29.5 19.5t26 35t14.5 40t0 34.5q-6 23 -33 23q-14 -37 -20.5 -75t-16.5 -77zM582 343q2 34 2 60q0 20 -1 39t1 39q0 49 26.5 67.5t73.5 18.5q37 0 54.5 -20.5t23.5 -50t4 -63.5t-2 -60v-80 q0 -47 -26.5 -66.5t-71.5 -17.5q-39 0 -56.5 20.5t-23.5 50t-4 63.5zM628 1157.5q-5 20.5 6 46t31.5 46t43.5 22.5q12 0 16 -10q8 -12 2 -29q-6 -23 -27.5 -40t-44.5 -22q2 -12 10.5 -13t17.5 3t17.5 10.5t12.5 10.5q25 20 36 45.5t21 52.5q2 2 -1 9t-8 15.5t-8 17.5t-1 15 q10 27 34 23q12 0 17 -12q4 -10 2 -22.5t-2 -25.5q20 2 28.5 -1t-4.5 -27q-8 -16 -17 -33.5t-11 -36.5q0 -10 6 -10q20 0 34.5 20.5t26 46t22.5 51t25 33.5q8 2 17 -2q2 -4 2 -12q-4 -12 -10.5 -21.5t-1.5 -23.5q6 -12 13 -25.5t5 -27.5h2q20 25 32.5 60.5t45.5 51.5 q37 14 49 -20q10 -14 6 -25.5t-2 -27.5q8 2 14 10q16 12 18.5 34.5t8.5 41.5q4 4 11 5t12 -1q10 -2 8 -12v-2q10 10 24 16q10 6 17.5 2t11.5 -14q4 -12 1 -22.5t-8 -22t-10 -22.5t-3 -23q14 12 24 26t18.5 29.5t17.5 29t26 23.5q20 10 51 0q4 6 17 8t9 -14q-4 -18 -14 -38.5 t-10 -41.5q0 -14 8 -2q20 20 30.5 48t19.5 55.5t23.5 53t43.5 42.5q14 8 24 -9q12 -23 4 -48t-24 -42q-14 -18 -43 -43.5t-25 -52.5q4 -16 23 -12q14 6 21 19.5t16 25.5q4 2 12 2t8 -10l-4 -13q-16 -39 -53 -53q-25 -14 -43 14q-4 5 -4 11q-10 -8 -16.5 -15.5t-18.5 -11.5 q-10 -4 -16.5 0t-12.5 8q-4 -4 -12 -8t-16 -6q-31 -6 -43 20v2q-8 -10 -17.5 -17t-23.5 -11q-14 -8 -25 12q-6 12 -3 23.5t8 21.5t9 21.5t2 23.5q-18 -8 -25 -19.5t-11.5 -25.5t-6.5 -28.5t-8 -28.5q-6 -16 -24 -8q-8 2 -9 10q0 4 1 9t1 7q-14 -4 -19 -4t-15 -10 t-24.5 -18.5t-31.5 -8.5q-10 2 -16 8.5t-10 14.5q-16 -16 -40 -32.5t-50 -12.5q-16 2 -25 18q-25 -29 -51 -37q-29 -12 -33 21q-4 27 8.5 44t22.5 38q2 4 -3 5t-7 -3q-8 -20 -18.5 -44t-26 -45.5t-36 -34.5t-46.5 -11q-31 2 -36 22.5zM638 367.5q-1 -37.5 1 -74.5 q0 -16 9 -26.5t21.5 -14.5t24 1t15.5 23q2 12 2 27.5v30.5v147q0 16 -10.5 27.5t-22.5 15.5t-23.5 -2t-15.5 -22q-2 -14 -1 -29.5t1 -28.5q0 -37 -1 -74.5zM653 621q12 14 15.5 36.5t2.5 48t-4 49t-3 42.5v125q0 16 1 30.5t-12 28.5h76q-14 -12 -12 -32.5t2 -37.5v-141 q0 -16 -2 -49t10 -47q14 -23 37.5 -8.5t28.5 32.5q8 27 2.5 54.5t-9.5 54.5q-4 14 -10 37.5t-8 48.5t2 46.5t21 33.5q10 10 31.5 10t29.5 -16q6 -16 -2 -21.5t-18.5 -4.5t-17.5 8t1 16q-16 -8 -17 -29t6 -44.5t17 -46t15 -34.5q12 -37 17 -87t-22 -85q-10 -14 -33.5 -19.5 t-50 -5.5t-53 3.5t-41.5 3.5zM655 1192q12 -2 28.5 15.5t18.5 27.5q4 8 -2 12t-12 -2q-10 -10 -18.5 -24.5t-14.5 -28.5zM715 -123q0 14 9 22.5t21.5 8.5t21.5 -8.5t9 -22.5q0 -16 -9 -23.5t-21.5 -7.5t-21.5 7.5t-9 23.5zM776 1329q-2 -8 4 -20h4q0 8 1 13t-1 13 q-6 0 -8 -6zM780 209q10 14 13.5 34.5t2.5 44t-4.5 46t-3.5 39.5v172q0 10 -8 22h58q29 -12 51 -50t35 -66q0 25 2 59.5t-13 56.5h74q-12 -10 -11 -24.5t1 -28.5v-246q0 -14 -1 -31.5t11 -27.5h-207zM797 -152l59 224h64l59 -224h-51l-15 52h-53l-10 -52h-53zM844 252 q0 -14 11 -23.5t25.5 -11.5t28 3.5t15.5 19.5q-4 63 -21.5 127.5t-58.5 115.5v-231zM865 711.5q-3 19.5 7 31.5t33 13.5t27 -21.5q0 -10 -7 -15t-15.5 -5t-14.5 4t-6 14q-12 -4 -12 -14t7 -20.5t17 -19.5t17 -11q14 -4 34.5 -4t30.5 10q20 20 16 40.5t-19 38t-35.5 32 t-31.5 24.5q-18 16 -30.5 42t-12.5 52.5t13.5 48t44.5 27.5q27 6 54.5 4t51.5 -2l-6 -10q0 -14 7 -29.5t13.5 -31t5.5 -30t-16 -26.5q-14 -10 -33.5 -9t-21.5 21q0 12 7 17.5t15.5 5.5t14.5 -5t4 -14q14 2 14 12.5t-8 21.5t-18.5 20.5t-18.5 11.5q-14 4 -32.5 1t-24.5 -19 q-12 -25 -4 -43.5t24.5 -33t37 -27.5t32.5 -28q14 -20 22.5 -46.5t4.5 -52t-20.5 -44t-47.5 -22.5q-27 -2 -53.5 -1t-54.5 1q8 4 5 19t-8.5 33.5t-8.5 38zM866 -61h41q-4 23 -9 46t-11 46zM874 1219q4 -12 16.5 -10.5t14.5 14.5q2 18 -10 43q-6 -8 -14.5 -22.5t-6.5 -24.5z M991 1264l4 -15q10 -14 25 -6q16 4 23.5 21.5t3.5 33.5q-2 10 -9.5 16.5t-21.5 -3.5q-20 -14 -25 -47zM997 209q12 14 15.5 36.5t2.5 47t-4 48.5t-3 40v127q0 16 1 29.5t-12 29.5h76q-10 -10 -13 -30.5t-2 -42t3 -43t2 -35.5v-166h104q23 0 55.5 -3t55.5 13q-4 -8 -7 -29.5 t-14 -21.5h-260zM1006 70q29 4 64.5 6t62.5 -15q31 -23 22.5 -57.5t-37.5 -48.5q14 -6 21.5 -19.5t10.5 -29t5 -30.5t8 -28h-51q-6 12 -8 27.5t-6 29t-12.5 23t-26.5 6.5v-86h-53v222zM1057 8.5q2 -24.5 2 -35.5h12q18 0 26.5 10.5t6.5 22.5t-11.5 21.5t-27.5 7.5 q-10 -2 -8 -26.5zM1065 621q10 12 11 25t1 28v248q0 14 -1 30.5t-11 28.5h127q25 -25 25.5 -59.5t-9.5 -67.5q-4 -8 -15 -29.5t-20.5 -45t-11.5 -45t10 -27.5q-6 12 4.5 13t21.5 -4t14 -14.5t-17 -17.5q-25 -10 -35 9.5t-8 35.5q0 16 6 32.5t8 31t-4 22.5t-28 6v-155 q16 0 41.5 -3.5t44.5 11.5q-6 -14 -8.5 -26.5t-6.5 -26.5h-139zM1098 567h78q-12 -29 2 -65.5t26 -61.5q12 29 22.5 63t0.5 64h80q-23 -12 -27 -38.5t-10 -47.5q-6 -20 -23.5 -47.5t-17.5 -48.5q0 -23 -3 -56.5t13 -52.5h-76q18 18 14.5 54t-3.5 59q-12 23 -21.5 46.5 t-17.5 45.5q-10 23 -14.5 46.5t-22.5 39.5zM1133 866q20 0 45.5 2t27.5 33q0 16 -7 23.5t-18.5 10.5t-24.5 3h-23v-72zM1192 72h53v-224h-53v224zM1245 1296q-4 -10 1 -27.5t22 -2.5q12 12 21 32.5t11 38.5q-2 8 -4 13.5t-12 1.5q-16 -8 -25.5 -23.5t-13.5 -32.5zM1274 -123 q0 14 9 22.5t21.5 8.5t21.5 -8.5t9 -22.5q0 -16 -9 -23.5t-21.5 -7.5t-21.5 7.5t-9 23.5zM1294 1018q-8 -6 4 -8q27 -10 57.5 -13.5t62.5 -3.5h62.5t59.5 -2t57.5 -5t57.5 -13q29 -8 51.5 -23.5t48.5 -27.5q0 61 -21.5 106t-80.5 68q35 31 69.5 58.5t75.5 43.5 q-49 47 -110.5 77t-126.5 46q-2 -57 -3.5 -112.5t-5.5 -112.5l-2 2v-6q-27 -2 -64.5 -4.5t-74.5 -9.5t-68.5 -21.5t-48.5 -38.5zM1364 72h57l68 -152q-4 39 -4 77v75h47v-224h-51q-20 39 -37 79t-35 77q2 -39 2 -78v-78h-47v224zM1393 1362q16 20 31.5 39.5t19.5 46.5h-2 q-37 -37 -49 -86zM1562.5 -63.5q-8.5 36.5 14.5 79.5q12 29 40 43.5t62 14.5h10.5t17.5 -2t16.5 -4t7.5 -5l-9 -40q-27 12 -48 8t-36.5 -18.5t-20.5 -37t3 -47.5q16 -47 61 -41q10 2 8.5 21.5t-1.5 28.5h-27v40h76v-120q-41 -16 -79 -9t-62.5 29.5t-33 59z" />
<glyph unicode="5" d="M35 1018q70 37 137.5 67.5t144.5 53.5q4 0 8.5 20.5t8.5 45t8 48t8 31.5q23 35 68 53.5t78 34.5q88 35 179 61.5t183 51.5q94 23 188.5 39t190.5 24q33 4 80 8.5t95 3.5t92 -12.5t71 -38.5q2 -4 -2 -28.5t-6 -32.5l-6 -98q0 -4 4 -4q78 -23 152.5 -59t123.5 -103v-2 q-16 4 -36.5 -3.5t-41 -20.5t-38 -27.5t-27.5 -26.5q31 -16 50 -47t27.5 -67t6.5 -72.5t-13 -67.5q-16 43 -49.5 66.5t-74.5 35t-85 14.5t-83 5q-45 4 -94.5 2t-92.5 14q-16 6 -22 25.5t-7 43t2 46l5 37.5q-184 -14 -363.5 -56.5t-351.5 -101.5q-8 -2 -8 -6q2 -10 8 -33.5 t10 -50.5t6 -49.5t-6 -28.5q-23 -18 -58.5 -21.5t-64.5 -7.5q-39 -6 -78.5 -12t-78.5 -12q-35 -8 -67 -17.5t-62 -21.5q-14 -8 -28.5 -13.5t-29.5 -15.5q-8 -8 -18 -20.5t-17 -16.5q10 35 24.5 68t27.5 63q2 6 13 25.5t21.5 41t18.5 39t6 21.5q-25 35 -58.5 68t-78.5 37z M86 72h47q4 -41 7 -83t12 -83q4 41 10 83t14 83h37l25 -166q4 41 9 83t9 83h43l-43 -224h-43q-6 37 -11 74t-9 74q-4 -37 -11.5 -74t-13.5 -74h-43zM90 1024q68 -37 109 -109q2 -2 -4.5 -15t-14.5 -28.5t-15 -29t-9 -19.5q-25 -45 -41 -94q51 27 104 39t108.5 20.5t110 15.5 t107.5 23q-18 18 -47 25.5t-62 8.5t-65.5 -2t-55.5 -5v131t4 131q-59 -16 -116.5 -39.5t-112.5 -52.5zM305 72h45q4 -41 8 -83t11 -83q4 41 10 83t14 83h39l23 -166q4 41 9 83t9 83h43l-43 -224h-41q-8 37 -13 74t-9 74q-4 -37 -10.5 -74t-12.5 -74h-45zM342 913 q8 0 22.5 6.5t29 15.5t27.5 18.5t23 13.5q37 16 75 29.5t77 27.5q78 23 155.5 43t159.5 39q78 16 155 31.5t157 21.5q72 8 154.5 11.5t152.5 -29.5q6 55 6 112.5t4 110.5q0 29 2 57.5t6 57.5q2 14 -6 22t-20.5 13.5t-26.5 7.5t-27 4q-119 18 -245.5 0.5t-245.5 -41.5 q-129 -27 -255 -60.5t-249 -87.5q-23 -12 -46.5 -24.5t-43.5 -28.5t-24.5 -49t-8.5 -55q-8 -66 -8 -132.5v-134.5zM367 1030q0 23 15 38t36 19q6 2 15 -2t5 -14q-12 -8 -22 -8q-12 -4 -16.5 -16.5t1.5 -22.5q4 -4 8.5 -5t8.5 -3q20 -2 33.5 11t22.5 33.5t13.5 41t8.5 35.5 q-27 -27 -62 -35q-27 -4 -43 12q-16 8 -16 37q0 27 12 51q27 61 86 98q12 6 25.5 12.5t27.5 10.5q10 4 21.5 12t21.5 11q12 -1 6 -13q12 0 21 -2q16 -2 27.5 -15t13.5 -32q6 -43 -23.5 -83t-66.5 -62q-18 -12 -27.5 -32t-18.5 -39t-20.5 -37.5t-34.5 -29.5q-23 -16 -53 -10 q-12 4 -20 14.5t-6 24.5zM405.5 1141.5q2.5 -15.5 22.5 -15.5q31 0 49.5 19.5t30.5 47.5t18.5 59t10.5 51q-29 -6 -52.5 -23.5t-44.5 -38.5q-6 -6 -15 -25.5t-15.5 -39t-4 -35zM522 72h45q4 -41 9.5 -83t9.5 -83q4 41 10 83t14 83h39l25 -166q2 41 7 83t11 83h41l-41 -224 h-43q-8 37 -12 74t-10 74q-4 -37 -10.5 -74t-12.5 -74h-43zM530 1155q14 4 29.5 19.5t26 35t14.5 40t0 34.5q-6 23 -33 23q-14 -37 -20.5 -75t-16.5 -77zM582 343q2 34 2 60q0 20 -1 39t1 39q0 49 26.5 67.5t73.5 18.5q37 0 54.5 -20.5t23.5 -50t4 -63.5t-2 -60v-80 q0 -47 -26.5 -66.5t-71.5 -17.5q-39 0 -56.5 20.5t-23.5 50t-4 63.5zM628 1157.5q-5 20.5 6 46t31.5 46t43.5 22.5q12 0 16 -10q8 -12 2 -29q-6 -23 -27.5 -40t-44.5 -22q2 -12 10.5 -13t17.5 3t17.5 10.5t12.5 10.5q25 20 36 45.5t21 52.5q2 2 -1 9t-8 15.5t-8 17.5t-1 15 q10 27 34 23q12 0 17 -12q4 -10 2 -22.5t-2 -25.5q20 2 28.5 -1t-4.5 -27q-8 -16 -17 -33.5t-11 -36.5q0 -10 6 -10q20 0 34.5 20.5t26 46t22.5 51t25 33.5q8 2 17 -2q2 -4 2 -12q-4 -12 -10.5 -21.5t-1.5 -23.5q6 -12 13 -25.5t5 -27.5h2q20 25 32.5 60.5t45.5 51.5 q37 14 49 -20q10 -14 6 -25.5t-2 -27.5q8 2 14 10q16 12 18.5 34.5t8.5 41.5q4 4 11 5t12 -1q10 -2 8 -12v-2q10 10 24 16q10 6 17.5 2t11.5 -14q4 -12 1 -22.5t-8 -22t-10 -22.5t-3 -23q14 12 24 26t18.5 29.5t17.5 29t26 23.5q20 10 51 0q4 6 17 8t9 -14q-4 -18 -14 -38.5 t-10 -41.5q0 -14 8 -2q20 20 30.5 48t19.5 55.5t23.5 53t43.5 42.5q14 8 24 -9q12 -23 4 -48t-24 -42q-14 -18 -43 -43.5t-25 -52.5q4 -16 23 -12q14 6 21 19.5t16 25.5q4 2 12 2t8 -10l-4 -13q-16 -39 -53 -53q-25 -14 -43 14q-4 5 -4 11q-10 -8 -16.5 -15.5t-18.5 -11.5 q-10 -4 -16.5 0t-12.5 8q-4 -4 -12 -8t-16 -6q-31 -6 -43 20v2q-8 -10 -17.5 -17t-23.5 -11q-14 -8 -25 12q-6 12 -3 23.5t8 21.5t9 21.5t2 23.5q-18 -8 -25 -19.5t-11.5 -25.5t-6.5 -28.5t-8 -28.5q-6 -16 -24 -8q-8 2 -9 10q0 4 1 9t1 7q-14 -4 -19 -4t-15 -10 t-24.5 -18.5t-31.5 -8.5q-10 2 -16 8.5t-10 14.5q-16 -16 -40 -32.5t-50 -12.5q-16 2 -25 18q-25 -29 -51 -37q-29 -12 -33 21q-4 27 8.5 44t22.5 38q2 4 -3 5t-7 -3q-8 -20 -18.5 -44t-26 -45.5t-36 -34.5t-46.5 -11q-31 2 -36 22.5zM638 367.5q-1 -37.5 1 -74.5 q0 -16 9 -26.5t21.5 -14.5t24 1t15.5 23q2 12 2 27.5v30.5v147q0 16 -10.5 27.5t-22.5 15.5t-23.5 -2t-15.5 -22q-2 -14 -1 -29.5t1 -28.5q0 -37 -1 -74.5zM653 621q12 14 15.5 36.5t2.5 48t-4 49t-3 42.5v125q0 16 1 30.5t-12 28.5h76q-14 -12 -12 -32.5t2 -37.5v-141 q0 -16 -2 -49t10 -47q14 -23 37.5 -8.5t28.5 32.5q8 27 2.5 54.5t-9.5 54.5q-4 14 -10 37.5t-8 48.5t2 46.5t21 33.5q10 10 31.5 10t29.5 -16q6 -16 -2 -21.5t-18.5 -4.5t-17.5 8t1 16q-16 -8 -17 -29t6 -44.5t17 -46t15 -34.5q12 -37 17 -87t-22 -85q-10 -14 -33.5 -19.5 t-50 -5.5t-53 3.5t-41.5 3.5zM655 1192q12 -2 28.5 15.5t18.5 27.5q4 8 -2 12t-12 -2q-10 -10 -18.5 -24.5t-14.5 -28.5zM715 -123q0 14 9 22.5t21.5 8.5t21.5 -8.5t9 -22.5q0 -16 -9 -23.5t-21.5 -7.5t-21.5 7.5t-9 23.5zM776 1329q-2 -8 4 -20h4q0 8 1 13t-1 13 q-6 0 -8 -6zM780 209q10 14 13.5 34.5t2.5 44t-4.5 46t-3.5 39.5v172q0 10 -8 22h58q29 -12 51 -50t35 -66q0 25 2 59.5t-13 56.5h74q-12 -10 -11 -24.5t1 -28.5v-246q0 -14 -1 -31.5t11 -27.5h-207zM797 -152l59 224h64l59 -224h-51l-15 52h-53l-10 -52h-53zM844 252 q0 -14 11 -23.5t25.5 -11.5t28 3.5t15.5 19.5q-4 63 -21.5 127.5t-58.5 115.5v-231zM865 711.5q-3 19.5 7 31.5t33 13.5t27 -21.5q0 -10 -7 -15t-15.5 -5t-14.5 4t-6 14q-12 -4 -12 -14t7 -20.5t17 -19.5t17 -11q14 -4 34.5 -4t30.5 10q20 20 16 40.5t-19 38t-35.5 32 t-31.5 24.5q-18 16 -30.5 42t-12.5 52.5t13.5 48t44.5 27.5q27 6 54.5 4t51.5 -2l-6 -10q0 -14 7 -29.5t13.5 -31t5.5 -30t-16 -26.5q-14 -10 -33.5 -9t-21.5 21q0 12 7 17.5t15.5 5.5t14.5 -5t4 -14q14 2 14 12.5t-8 21.5t-18.5 20.5t-18.5 11.5q-14 4 -32.5 1t-24.5 -19 q-12 -25 -4 -43.5t24.5 -33t37 -27.5t32.5 -28q14 -20 22.5 -46.5t4.5 -52t-20.5 -44t-47.5 -22.5q-27 -2 -53.5 -1t-54.5 1q8 4 5 19t-8.5 33.5t-8.5 38zM866 -61h41q-4 23 -9 46t-11 46zM874 1219q4 -12 16.5 -10.5t14.5 14.5q2 18 -10 43q-6 -8 -14.5 -22.5t-6.5 -24.5z M991 1264l4 -15q10 -14 25 -6q16 4 23.5 21.5t3.5 33.5q-2 10 -9.5 16.5t-21.5 -3.5q-20 -14 -25 -47zM997 209q12 14 15.5 36.5t2.5 47t-4 48.5t-3 40v127q0 16 1 29.5t-12 29.5h76q-10 -10 -13 -30.5t-2 -42t3 -43t2 -35.5v-166h104q23 0 55.5 -3t55.5 13q-4 -8 -7 -29.5 t-14 -21.5h-260zM1006 70q29 4 64.5 6t62.5 -15q31 -23 22.5 -57.5t-37.5 -48.5q14 -6 21.5 -19.5t10.5 -29t5 -30.5t8 -28h-51q-6 12 -8 27.5t-6 29t-12.5 23t-26.5 6.5v-86h-53v222zM1057 8.5q2 -24.5 2 -35.5h12q18 0 26.5 10.5t6.5 22.5t-11.5 21.5t-27.5 7.5 q-10 -2 -8 -26.5zM1065 621q10 12 11 25t1 28v248q0 14 -1 30.5t-11 28.5h127q25 -25 25.5 -59.5t-9.5 -67.5q-4 -8 -15 -29.5t-20.5 -45t-11.5 -45t10 -27.5q-6 12 4.5 13t21.5 -4t14 -14.5t-17 -17.5q-25 -10 -35 9.5t-8 35.5q0 16 6 32.5t8 31t-4 22.5t-28 6v-155 q16 0 41.5 -3.5t44.5 11.5q-6 -14 -8.5 -26.5t-6.5 -26.5h-139zM1098 567h78q-12 -29 2 -65.5t26 -61.5q12 29 22.5 63t0.5 64h80q-23 -12 -27 -38.5t-10 -47.5q-6 -20 -23.5 -47.5t-17.5 -48.5q0 -23 -3 -56.5t13 -52.5h-76q18 18 14.5 54t-3.5 59q-12 23 -21.5 46.5 t-17.5 45.5q-10 23 -14.5 46.5t-22.5 39.5zM1133 866q20 0 45.5 2t27.5 33q0 16 -7 23.5t-18.5 10.5t-24.5 3h-23v-72zM1192 72h53v-224h-53v224zM1245 1296q-4 -10 1 -27.5t22 -2.5q12 12 21 32.5t11 38.5q-2 8 -4 13.5t-12 1.5q-16 -8 -25.5 -23.5t-13.5 -32.5zM1274 -123 q0 14 9 22.5t21.5 8.5t21.5 -8.5t9 -22.5q0 -16 -9 -23.5t-21.5 -7.5t-21.5 7.5t-9 23.5zM1294 1018q-8 -6 4 -8q27 -10 57.5 -13.5t62.5 -3.5h62.5t59.5 -2t57.5 -5t57.5 -13q29 -8 51.5 -23.5t48.5 -27.5q0 61 -21.5 106t-80.5 68q35 31 69.5 58.5t75.5 43.5 q-49 47 -110.5 77t-126.5 46q-2 -57 -3.5 -112.5t-5.5 -112.5l-2 2v-6q-27 -2 -64.5 -4.5t-74.5 -9.5t-68.5 -21.5t-48.5 -38.5zM1364 72h57l68 -152q-4 39 -4 77v75h47v-224h-51q-20 39 -37 79t-35 77q2 -39 2 -78v-78h-47v224zM1393 1362q16 20 31.5 39.5t19.5 46.5h-2 q-37 -37 -49 -86zM1562.5 -63.5q-8.5 36.5 14.5 79.5q12 29 40 43.5t62 14.5h10.5t17.5 -2t16.5 -4t7.5 -5l-9 -40q-27 12 -48 8t-36.5 -18.5t-20.5 -37t3 -47.5q16 -47 61 -41q10 2 8.5 21.5t-1.5 28.5h-27v40h76v-120q-41 -16 -79 -9t-62.5 29.5t-33 59z" />
<glyph unicode="6" d="M35 1018q70 37 137.5 67.5t144.5 53.5q4 0 8.5 20.5t8.5 45t8 48t8 31.5q23 35 68 53.5t78 34.5q88 35 179 61.5t183 51.5q94 23 188.5 39t190.5 24q33 4 80 8.5t95 3.5t92 -12.5t71 -38.5q2 -4 -2 -28.5t-6 -32.5l-6 -98q0 -4 4 -4q78 -23 152.5 -59t123.5 -103v-2 q-16 4 -36.5 -3.5t-41 -20.5t-38 -27.5t-27.5 -26.5q31 -16 50 -47t27.5 -67t6.5 -72.5t-13 -67.5q-16 43 -49.5 66.5t-74.5 35t-85 14.5t-83 5q-45 4 -94.5 2t-92.5 14q-16 6 -22 25.5t-7 43t2 46l5 37.5q-184 -14 -363.5 -56.5t-351.5 -101.5q-8 -2 -8 -6q2 -10 8 -33.5 t10 -50.5t6 -49.5t-6 -28.5q-23 -18 -58.5 -21.5t-64.5 -7.5q-39 -6 -78.5 -12t-78.5 -12q-35 -8 -67 -17.5t-62 -21.5q-14 -8 -28.5 -13.5t-29.5 -15.5q-8 -8 -18 -20.5t-17 -16.5q10 35 24.5 68t27.5 63q2 6 13 25.5t21.5 41t18.5 39t6 21.5q-25 35 -58.5 68t-78.5 37z M86 72h47q4 -41 7 -83t12 -83q4 41 10 83t14 83h37l25 -166q4 41 9 83t9 83h43l-43 -224h-43q-6 37 -11 74t-9 74q-4 -37 -11.5 -74t-13.5 -74h-43zM90 1024q68 -37 109 -109q2 -2 -4.5 -15t-14.5 -28.5t-15 -29t-9 -19.5q-25 -45 -41 -94q51 27 104 39t108.5 20.5t110 15.5 t107.5 23q-18 18 -47 25.5t-62 8.5t-65.5 -2t-55.5 -5v131t4 131q-59 -16 -116.5 -39.5t-112.5 -52.5zM305 72h45q4 -41 8 -83t11 -83q4 41 10 83t14 83h39l23 -166q4 41 9 83t9 83h43l-43 -224h-41q-8 37 -13 74t-9 74q-4 -37 -10.5 -74t-12.5 -74h-45zM342 913 q8 0 22.5 6.5t29 15.5t27.5 18.5t23 13.5q37 16 75 29.5t77 27.5q78 23 155.5 43t159.5 39q78 16 155 31.5t157 21.5q72 8 154.5 11.5t152.5 -29.5q6 55 6 112.5t4 110.5q0 29 2 57.5t6 57.5q2 14 -6 22t-20.5 13.5t-26.5 7.5t-27 4q-119 18 -245.5 0.5t-245.5 -41.5 q-129 -27 -255 -60.5t-249 -87.5q-23 -12 -46.5 -24.5t-43.5 -28.5t-24.5 -49t-8.5 -55q-8 -66 -8 -132.5v-134.5zM367 1030q0 23 15 38t36 19q6 2 15 -2t5 -14q-12 -8 -22 -8q-12 -4 -16.5 -16.5t1.5 -22.5q4 -4 8.5 -5t8.5 -3q20 -2 33.5 11t22.5 33.5t13.5 41t8.5 35.5 q-27 -27 -62 -35q-27 -4 -43 12q-16 8 -16 37q0 27 12 51q27 61 86 98q12 6 25.5 12.5t27.5 10.5q10 4 21.5 12t21.5 11q12 -1 6 -13q12 0 21 -2q16 -2 27.5 -15t13.5 -32q6 -43 -23.5 -83t-66.5 -62q-18 -12 -27.5 -32t-18.5 -39t-20.5 -37.5t-34.5 -29.5q-23 -16 -53 -10 q-12 4 -20 14.5t-6 24.5zM405.5 1141.5q2.5 -15.5 22.5 -15.5q31 0 49.5 19.5t30.5 47.5t18.5 59t10.5 51q-29 -6 -52.5 -23.5t-44.5 -38.5q-6 -6 -15 -25.5t-15.5 -39t-4 -35zM522 72h45q4 -41 9.5 -83t9.5 -83q4 41 10 83t14 83h39l25 -166q2 41 7 83t11 83h41l-41 -224 h-43q-8 37 -12 74t-10 74q-4 -37 -10.5 -74t-12.5 -74h-43zM530 1155q14 4 29.5 19.5t26 35t14.5 40t0 34.5q-6 23 -33 23q-14 -37 -20.5 -75t-16.5 -77zM582 343q2 34 2 60q0 20 -1 39t1 39q0 49 26.5 67.5t73.5 18.5q37 0 54.5 -20.5t23.5 -50t4 -63.5t-2 -60v-80 q0 -47 -26.5 -66.5t-71.5 -17.5q-39 0 -56.5 20.5t-23.5 50t-4 63.5zM628 1157.5q-5 20.5 6 46t31.5 46t43.5 22.5q12 0 16 -10q8 -12 2 -29q-6 -23 -27.5 -40t-44.5 -22q2 -12 10.5 -13t17.5 3t17.5 10.5t12.5 10.5q25 20 36 45.5t21 52.5q2 2 -1 9t-8 15.5t-8 17.5t-1 15 q10 27 34 23q12 0 17 -12q4 -10 2 -22.5t-2 -25.5q20 2 28.5 -1t-4.5 -27q-8 -16 -17 -33.5t-11 -36.5q0 -10 6 -10q20 0 34.5 20.5t26 46t22.5 51t25 33.5q8 2 17 -2q2 -4 2 -12q-4 -12 -10.5 -21.5t-1.5 -23.5q6 -12 13 -25.5t5 -27.5h2q20 25 32.5 60.5t45.5 51.5 q37 14 49 -20q10 -14 6 -25.5t-2 -27.5q8 2 14 10q16 12 18.5 34.5t8.5 41.5q4 4 11 5t12 -1q10 -2 8 -12v-2q10 10 24 16q10 6 17.5 2t11.5 -14q4 -12 1 -22.5t-8 -22t-10 -22.5t-3 -23q14 12 24 26t18.5 29.5t17.5 29t26 23.5q20 10 51 0q4 6 17 8t9 -14q-4 -18 -14 -38.5 t-10 -41.5q0 -14 8 -2q20 20 30.5 48t19.5 55.5t23.5 53t43.5 42.5q14 8 24 -9q12 -23 4 -48t-24 -42q-14 -18 -43 -43.5t-25 -52.5q4 -16 23 -12q14 6 21 19.5t16 25.5q4 2 12 2t8 -10l-4 -13q-16 -39 -53 -53q-25 -14 -43 14q-4 5 -4 11q-10 -8 -16.5 -15.5t-18.5 -11.5 q-10 -4 -16.5 0t-12.5 8q-4 -4 -12 -8t-16 -6q-31 -6 -43 20v2q-8 -10 -17.5 -17t-23.5 -11q-14 -8 -25 12q-6 12 -3 23.5t8 21.5t9 21.5t2 23.5q-18 -8 -25 -19.5t-11.5 -25.5t-6.5 -28.5t-8 -28.5q-6 -16 -24 -8q-8 2 -9 10q0 4 1 9t1 7q-14 -4 -19 -4t-15 -10 t-24.5 -18.5t-31.5 -8.5q-10 2 -16 8.5t-10 14.5q-16 -16 -40 -32.5t-50 -12.5q-16 2 -25 18q-25 -29 -51 -37q-29 -12 -33 21q-4 27 8.5 44t22.5 38q2 4 -3 5t-7 -3q-8 -20 -18.5 -44t-26 -45.5t-36 -34.5t-46.5 -11q-31 2 -36 22.5zM638 367.5q-1 -37.5 1 -74.5 q0 -16 9 -26.5t21.5 -14.5t24 1t15.5 23q2 12 2 27.5v30.5v147q0 16 -10.5 27.5t-22.5 15.5t-23.5 -2t-15.5 -22q-2 -14 -1 -29.5t1 -28.5q0 -37 -1 -74.5zM653 621q12 14 15.5 36.5t2.5 48t-4 49t-3 42.5v125q0 16 1 30.5t-12 28.5h76q-14 -12 -12 -32.5t2 -37.5v-141 q0 -16 -2 -49t10 -47q14 -23 37.5 -8.5t28.5 32.5q8 27 2.5 54.5t-9.5 54.5q-4 14 -10 37.5t-8 48.5t2 46.5t21 33.5q10 10 31.5 10t29.5 -16q6 -16 -2 -21.5t-18.5 -4.5t-17.5 8t1 16q-16 -8 -17 -29t6 -44.5t17 -46t15 -34.5q12 -37 17 -87t-22 -85q-10 -14 -33.5 -19.5 t-50 -5.5t-53 3.5t-41.5 3.5zM655 1192q12 -2 28.5 15.5t18.5 27.5q4 8 -2 12t-12 -2q-10 -10 -18.5 -24.5t-14.5 -28.5zM715 -123q0 14 9 22.5t21.5 8.5t21.5 -8.5t9 -22.5q0 -16 -9 -23.5t-21.5 -7.5t-21.5 7.5t-9 23.5zM776 1329q-2 -8 4 -20h4q0 8 1 13t-1 13 q-6 0 -8 -6zM780 209q10 14 13.5 34.5t2.5 44t-4.5 46t-3.5 39.5v172q0 10 -8 22h58q29 -12 51 -50t35 -66q0 25 2 59.5t-13 56.5h74q-12 -10 -11 -24.5t1 -28.5v-246q0 -14 -1 -31.5t11 -27.5h-207zM797 -152l59 224h64l59 -224h-51l-15 52h-53l-10 -52h-53zM844 252 q0 -14 11 -23.5t25.5 -11.5t28 3.5t15.5 19.5q-4 63 -21.5 127.5t-58.5 115.5v-231zM865 711.5q-3 19.5 7 31.5t33 13.5t27 -21.5q0 -10 -7 -15t-15.5 -5t-14.5 4t-6 14q-12 -4 -12 -14t7 -20.5t17 -19.5t17 -11q14 -4 34.5 -4t30.5 10q20 20 16 40.5t-19 38t-35.5 32 t-31.5 24.5q-18 16 -30.5 42t-12.5 52.5t13.5 48t44.5 27.5q27 6 54.5 4t51.5 -2l-6 -10q0 -14 7 -29.5t13.5 -31t5.5 -30t-16 -26.5q-14 -10 -33.5 -9t-21.5 21q0 12 7 17.5t15.5 5.5t14.5 -5t4 -14q14 2 14 12.5t-8 21.5t-18.5 20.5t-18.5 11.5q-14 4 -32.5 1t-24.5 -19 q-12 -25 -4 -43.5t24.5 -33t37 -27.5t32.5 -28q14 -20 22.5 -46.5t4.5 -52t-20.5 -44t-47.5 -22.5q-27 -2 -53.5 -1t-54.5 1q8 4 5 19t-8.5 33.5t-8.5 38zM866 -61h41q-4 23 -9 46t-11 46zM874 1219q4 -12 16.5 -10.5t14.5 14.5q2 18 -10 43q-6 -8 -14.5 -22.5t-6.5 -24.5z M991 1264l4 -15q10 -14 25 -6q16 4 23.5 21.5t3.5 33.5q-2 10 -9.5 16.5t-21.5 -3.5q-20 -14 -25 -47zM997 209q12 14 15.5 36.5t2.5 47t-4 48.5t-3 40v127q0 16 1 29.5t-12 29.5h76q-10 -10 -13 -30.5t-2 -42t3 -43t2 -35.5v-166h104q23 0 55.5 -3t55.5 13q-4 -8 -7 -29.5 t-14 -21.5h-260zM1006 70q29 4 64.5 6t62.5 -15q31 -23 22.5 -57.5t-37.5 -48.5q14 -6 21.5 -19.5t10.5 -29t5 -30.5t8 -28h-51q-6 12 -8 27.5t-6 29t-12.5 23t-26.5 6.5v-86h-53v222zM1057 8.5q2 -24.5 2 -35.5h12q18 0 26.5 10.5t6.5 22.5t-11.5 21.5t-27.5 7.5 q-10 -2 -8 -26.5zM1065 621q10 12 11 25t1 28v248q0 14 -1 30.5t-11 28.5h127q25 -25 25.5 -59.5t-9.5 -67.5q-4 -8 -15 -29.5t-20.5 -45t-11.5 -45t10 -27.5q-6 12 4.5 13t21.5 -4t14 -14.5t-17 -17.5q-25 -10 -35 9.5t-8 35.5q0 16 6 32.5t8 31t-4 22.5t-28 6v-155 q16 0 41.5 -3.5t44.5 11.5q-6 -14 -8.5 -26.5t-6.5 -26.5h-139zM1098 567h78q-12 -29 2 -65.5t26 -61.5q12 29 22.5 63t0.5 64h80q-23 -12 -27 -38.5t-10 -47.5q-6 -20 -23.5 -47.5t-17.5 -48.5q0 -23 -3 -56.5t13 -52.5h-76q18 18 14.5 54t-3.5 59q-12 23 -21.5 46.5 t-17.5 45.5q-10 23 -14.5 46.5t-22.5 39.5zM1133 866q20 0 45.5 2t27.5 33q0 16 -7 23.5t-18.5 10.5t-24.5 3h-23v-72zM1192 72h53v-224h-53v224zM1245 1296q-4 -10 1 -27.5t22 -2.5q12 12 21 32.5t11 38.5q-2 8 -4 13.5t-12 1.5q-16 -8 -25.5 -23.5t-13.5 -32.5zM1274 -123 q0 14 9 22.5t21.5 8.5t21.5 -8.5t9 -22.5q0 -16 -9 -23.5t-21.5 -7.5t-21.5 7.5t-9 23.5zM1294 1018q-8 -6 4 -8q27 -10 57.5 -13.5t62.5 -3.5h62.5t59.5 -2t57.5 -5t57.5 -13q29 -8 51.5 -23.5t48.5 -27.5q0 61 -21.5 106t-80.5 68q35 31 69.5 58.5t75.5 43.5 q-49 47 -110.5 77t-126.5 46q-2 -57 -3.5 -112.5t-5.5 -112.5l-2 2v-6q-27 -2 -64.5 -4.5t-74.5 -9.5t-68.5 -21.5t-48.5 -38.5zM1364 72h57l68 -152q-4 39 -4 77v75h47v-224h-51q-20 39 -37 79t-35 77q2 -39 2 -78v-78h-47v224zM1393 1362q16 20 31.5 39.5t19.5 46.5h-2 q-37 -37 -49 -86zM1562.5 -63.5q-8.5 36.5 14.5 79.5q12 29 40 43.5t62 14.5h10.5t17.5 -2t16.5 -4t7.5 -5l-9 -40q-27 12 -48 8t-36.5 -18.5t-20.5 -37t3 -47.5q16 -47 61 -41q10 2 8.5 21.5t-1.5 28.5h-27v40h76v-120q-41 -16 -79 -9t-62.5 29.5t-33 59z" />
<glyph unicode="7" d="M35 1018q70 37 137.5 67.5t144.5 53.5q4 0 8.5 20.5t8.5 45t8 48t8 31.5q23 35 68 53.5t78 34.5q88 35 179 61.5t183 51.5q94 23 188.5 39t190.5 24q33 4 80 8.5t95 3.5t92 -12.5t71 -38.5q2 -4 -2 -28.5t-6 -32.5l-6 -98q0 -4 4 -4q78 -23 152.5 -59t123.5 -103v-2 q-16 4 -36.5 -3.5t-41 -20.5t-38 -27.5t-27.5 -26.5q31 -16 50 -47t27.5 -67t6.5 -72.5t-13 -67.5q-16 43 -49.5 66.5t-74.5 35t-85 14.5t-83 5q-45 4 -94.5 2t-92.5 14q-16 6 -22 25.5t-7 43t2 46l5 37.5q-184 -14 -363.5 -56.5t-351.5 -101.5q-8 -2 -8 -6q2 -10 8 -33.5 t10 -50.5t6 -49.5t-6 -28.5q-23 -18 -58.5 -21.5t-64.5 -7.5q-39 -6 -78.5 -12t-78.5 -12q-35 -8 -67 -17.5t-62 -21.5q-14 -8 -28.5 -13.5t-29.5 -15.5q-8 -8 -18 -20.5t-17 -16.5q10 35 24.5 68t27.5 63q2 6 13 25.5t21.5 41t18.5 39t6 21.5q-25 35 -58.5 68t-78.5 37z M86 72h47q4 -41 7 -83t12 -83q4 41 10 83t14 83h37l25 -166q4 41 9 83t9 83h43l-43 -224h-43q-6 37 -11 74t-9 74q-4 -37 -11.5 -74t-13.5 -74h-43zM90 1024q68 -37 109 -109q2 -2 -4.5 -15t-14.5 -28.5t-15 -29t-9 -19.5q-25 -45 -41 -94q51 27 104 39t108.5 20.5t110 15.5 t107.5 23q-18 18 -47 25.5t-62 8.5t-65.5 -2t-55.5 -5v131t4 131q-59 -16 -116.5 -39.5t-112.5 -52.5zM305 72h45q4 -41 8 -83t11 -83q4 41 10 83t14 83h39l23 -166q4 41 9 83t9 83h43l-43 -224h-41q-8 37 -13 74t-9 74q-4 -37 -10.5 -74t-12.5 -74h-45zM342 913 q8 0 22.5 6.5t29 15.5t27.5 18.5t23 13.5q37 16 75 29.5t77 27.5q78 23 155.5 43t159.5 39q78 16 155 31.5t157 21.5q72 8 154.5 11.5t152.5 -29.5q6 55 6 112.5t4 110.5q0 29 2 57.5t6 57.5q2 14 -6 22t-20.5 13.5t-26.5 7.5t-27 4q-119 18 -245.5 0.5t-245.5 -41.5 q-129 -27 -255 -60.5t-249 -87.5q-23 -12 -46.5 -24.5t-43.5 -28.5t-24.5 -49t-8.5 -55q-8 -66 -8 -132.5v-134.5zM367 1030q0 23 15 38t36 19q6 2 15 -2t5 -14q-12 -8 -22 -8q-12 -4 -16.5 -16.5t1.5 -22.5q4 -4 8.5 -5t8.5 -3q20 -2 33.5 11t22.5 33.5t13.5 41t8.5 35.5 q-27 -27 -62 -35q-27 -4 -43 12q-16 8 -16 37q0 27 12 51q27 61 86 98q12 6 25.5 12.5t27.5 10.5q10 4 21.5 12t21.5 11q12 -1 6 -13q12 0 21 -2q16 -2 27.5 -15t13.5 -32q6 -43 -23.5 -83t-66.5 -62q-18 -12 -27.5 -32t-18.5 -39t-20.5 -37.5t-34.5 -29.5q-23 -16 -53 -10 q-12 4 -20 14.5t-6 24.5zM405.5 1141.5q2.5 -15.5 22.5 -15.5q31 0 49.5 19.5t30.5 47.5t18.5 59t10.5 51q-29 -6 -52.5 -23.5t-44.5 -38.5q-6 -6 -15 -25.5t-15.5 -39t-4 -35zM522 72h45q4 -41 9.5 -83t9.5 -83q4 41 10 83t14 83h39l25 -166q2 41 7 83t11 83h41l-41 -224 h-43q-8 37 -12 74t-10 74q-4 -37 -10.5 -74t-12.5 -74h-43zM530 1155q14 4 29.5 19.5t26 35t14.5 40t0 34.5q-6 23 -33 23q-14 -37 -20.5 -75t-16.5 -77zM582 343q2 34 2 60q0 20 -1 39t1 39q0 49 26.5 67.5t73.5 18.5q37 0 54.5 -20.5t23.5 -50t4 -63.5t-2 -60v-80 q0 -47 -26.5 -66.5t-71.5 -17.5q-39 0 -56.5 20.5t-23.5 50t-4 63.5zM628 1157.5q-5 20.5 6 46t31.5 46t43.5 22.5q12 0 16 -10q8 -12 2 -29q-6 -23 -27.5 -40t-44.5 -22q2 -12 10.5 -13t17.5 3t17.5 10.5t12.5 10.5q25 20 36 45.5t21 52.5q2 2 -1 9t-8 15.5t-8 17.5t-1 15 q10 27 34 23q12 0 17 -12q4 -10 2 -22.5t-2 -25.5q20 2 28.5 -1t-4.5 -27q-8 -16 -17 -33.5t-11 -36.5q0 -10 6 -10q20 0 34.5 20.5t26 46t22.5 51t25 33.5q8 2 17 -2q2 -4 2 -12q-4 -12 -10.5 -21.5t-1.5 -23.5q6 -12 13 -25.5t5 -27.5h2q20 25 32.5 60.5t45.5 51.5 q37 14 49 -20q10 -14 6 -25.5t-2 -27.5q8 2 14 10q16 12 18.5 34.5t8.5 41.5q4 4 11 5t12 -1q10 -2 8 -12v-2q10 10 24 16q10 6 17.5 2t11.5 -14q4 -12 1 -22.5t-8 -22t-10 -22.5t-3 -23q14 12 24 26t18.5 29.5t17.5 29t26 23.5q20 10 51 0q4 6 17 8t9 -14q-4 -18 -14 -38.5 t-10 -41.5q0 -14 8 -2q20 20 30.5 48t19.5 55.5t23.5 53t43.5 42.5q14 8 24 -9q12 -23 4 -48t-24 -42q-14 -18 -43 -43.5t-25 -52.5q4 -16 23 -12q14 6 21 19.5t16 25.5q4 2 12 2t8 -10l-4 -13q-16 -39 -53 -53q-25 -14 -43 14q-4 5 -4 11q-10 -8 -16.5 -15.5t-18.5 -11.5 q-10 -4 -16.5 0t-12.5 8q-4 -4 -12 -8t-16 -6q-31 -6 -43 20v2q-8 -10 -17.5 -17t-23.5 -11q-14 -8 -25 12q-6 12 -3 23.5t8 21.5t9 21.5t2 23.5q-18 -8 -25 -19.5t-11.5 -25.5t-6.5 -28.5t-8 -28.5q-6 -16 -24 -8q-8 2 -9 10q0 4 1 9t1 7q-14 -4 -19 -4t-15 -10 t-24.5 -18.5t-31.5 -8.5q-10 2 -16 8.5t-10 14.5q-16 -16 -40 -32.5t-50 -12.5q-16 2 -25 18q-25 -29 -51 -37q-29 -12 -33 21q-4 27 8.5 44t22.5 38q2 4 -3 5t-7 -3q-8 -20 -18.5 -44t-26 -45.5t-36 -34.5t-46.5 -11q-31 2 -36 22.5zM638 367.5q-1 -37.5 1 -74.5 q0 -16 9 -26.5t21.5 -14.5t24 1t15.5 23q2 12 2 27.5v30.5v147q0 16 -10.5 27.5t-22.5 15.5t-23.5 -2t-15.5 -22q-2 -14 -1 -29.5t1 -28.5q0 -37 -1 -74.5zM653 621q12 14 15.5 36.5t2.5 48t-4 49t-3 42.5v125q0 16 1 30.5t-12 28.5h76q-14 -12 -12 -32.5t2 -37.5v-141 q0 -16 -2 -49t10 -47q14 -23 37.5 -8.5t28.5 32.5q8 27 2.5 54.5t-9.5 54.5q-4 14 -10 37.5t-8 48.5t2 46.5t21 33.5q10 10 31.5 10t29.5 -16q6 -16 -2 -21.5t-18.5 -4.5t-17.5 8t1 16q-16 -8 -17 -29t6 -44.5t17 -46t15 -34.5q12 -37 17 -87t-22 -85q-10 -14 -33.5 -19.5 t-50 -5.5t-53 3.5t-41.5 3.5zM655 1192q12 -2 28.5 15.5t18.5 27.5q4 8 -2 12t-12 -2q-10 -10 -18.5 -24.5t-14.5 -28.5zM715 -123q0 14 9 22.5t21.5 8.5t21.5 -8.5t9 -22.5q0 -16 -9 -23.5t-21.5 -7.5t-21.5 7.5t-9 23.5zM776 1329q-2 -8 4 -20h4q0 8 1 13t-1 13 q-6 0 -8 -6zM780 209q10 14 13.5 34.5t2.5 44t-4.5 46t-3.5 39.5v172q0 10 -8 22h58q29 -12 51 -50t35 -66q0 25 2 59.5t-13 56.5h74q-12 -10 -11 -24.5t1 -28.5v-246q0 -14 -1 -31.5t11 -27.5h-207zM797 -152l59 224h64l59 -224h-51l-15 52h-53l-10 -52h-53zM844 252 q0 -14 11 -23.5t25.5 -11.5t28 3.5t15.5 19.5q-4 63 -21.5 127.5t-58.5 115.5v-231zM865 711.5q-3 19.5 7 31.5t33 13.5t27 -21.5q0 -10 -7 -15t-15.5 -5t-14.5 4t-6 14q-12 -4 -12 -14t7 -20.5t17 -19.5t17 -11q14 -4 34.5 -4t30.5 10q20 20 16 40.5t-19 38t-35.5 32 t-31.5 24.5q-18 16 -30.5 42t-12.5 52.5t13.5 48t44.5 27.5q27 6 54.5 4t51.5 -2l-6 -10q0 -14 7 -29.5t13.5 -31t5.5 -30t-16 -26.5q-14 -10 -33.5 -9t-21.5 21q0 12 7 17.5t15.5 5.5t14.5 -5t4 -14q14 2 14 12.5t-8 21.5t-18.5 20.5t-18.5 11.5q-14 4 -32.5 1t-24.5 -19 q-12 -25 -4 -43.5t24.5 -33t37 -27.5t32.5 -28q14 -20 22.5 -46.5t4.5 -52t-20.5 -44t-47.5 -22.5q-27 -2 -53.5 -1t-54.5 1q8 4 5 19t-8.5 33.5t-8.5 38zM866 -61h41q-4 23 -9 46t-11 46zM874 1219q4 -12 16.5 -10.5t14.5 14.5q2 18 -10 43q-6 -8 -14.5 -22.5t-6.5 -24.5z M991 1264l4 -15q10 -14 25 -6q16 4 23.5 21.5t3.5 33.5q-2 10 -9.5 16.5t-21.5 -3.5q-20 -14 -25 -47zM997 209q12 14 15.5 36.5t2.5 47t-4 48.5t-3 40v127q0 16 1 29.5t-12 29.5h76q-10 -10 -13 -30.5t-2 -42t3 -43t2 -35.5v-166h104q23 0 55.5 -3t55.5 13q-4 -8 -7 -29.5 t-14 -21.5h-260zM1006 70q29 4 64.5 6t62.5 -15q31 -23 22.5 -57.5t-37.5 -48.5q14 -6 21.5 -19.5t10.5 -29t5 -30.5t8 -28h-51q-6 12 -8 27.5t-6 29t-12.5 23t-26.5 6.5v-86h-53v222zM1057 8.5q2 -24.5 2 -35.5h12q18 0 26.5 10.5t6.5 22.5t-11.5 21.5t-27.5 7.5 q-10 -2 -8 -26.5zM1065 621q10 12 11 25t1 28v248q0 14 -1 30.5t-11 28.5h127q25 -25 25.5 -59.5t-9.5 -67.5q-4 -8 -15 -29.5t-20.5 -45t-11.5 -45t10 -27.5q-6 12 4.5 13t21.5 -4t14 -14.5t-17 -17.5q-25 -10 -35 9.5t-8 35.5q0 16 6 32.5t8 31t-4 22.5t-28 6v-155 q16 0 41.5 -3.5t44.5 11.5q-6 -14 -8.5 -26.5t-6.5 -26.5h-139zM1098 567h78q-12 -29 2 -65.5t26 -61.5q12 29 22.5 63t0.5 64h80q-23 -12 -27 -38.5t-10 -47.5q-6 -20 -23.5 -47.5t-17.5 -48.5q0 -23 -3 -56.5t13 -52.5h-76q18 18 14.5 54t-3.5 59q-12 23 -21.5 46.5 t-17.5 45.5q-10 23 -14.5 46.5t-22.5 39.5zM1133 866q20 0 45.5 2t27.5 33q0 16 -7 23.5t-18.5 10.5t-24.5 3h-23v-72zM1192 72h53v-224h-53v224zM1245 1296q-4 -10 1 -27.5t22 -2.5q12 12 21 32.5t11 38.5q-2 8 -4 13.5t-12 1.5q-16 -8 -25.5 -23.5t-13.5 -32.5zM1274 -123 q0 14 9 22.5t21.5 8.5t21.5 -8.5t9 -22.5q0 -16 -9 -23.5t-21.5 -7.5t-21.5 7.5t-9 23.5zM1294 1018q-8 -6 4 -8q27 -10 57.5 -13.5t62.5 -3.5h62.5t59.5 -2t57.5 -5t57.5 -13q29 -8 51.5 -23.5t48.5 -27.5q0 61 -21.5 106t-80.5 68q35 31 69.5 58.5t75.5 43.5 q-49 47 -110.5 77t-126.5 46q-2 -57 -3.5 -112.5t-5.5 -112.5l-2 2v-6q-27 -2 -64.5 -4.5t-74.5 -9.5t-68.5 -21.5t-48.5 -38.5zM1364 72h57l68 -152q-4 39 -4 77v75h47v-224h-51q-20 39 -37 79t-35 77q2 -39 2 -78v-78h-47v224zM1393 1362q16 20 31.5 39.5t19.5 46.5h-2 q-37 -37 -49 -86zM1562.5 -63.5q-8.5 36.5 14.5 79.5q12 29 40 43.5t62 14.5h10.5t17.5 -2t16.5 -4t7.5 -5l-9 -40q-27 12 -48 8t-36.5 -18.5t-20.5 -37t3 -47.5q16 -47 61 -41q10 2 8.5 21.5t-1.5 28.5h-27v40h76v-120q-41 -16 -79 -9t-62.5 29.5t-33 59z" />
<glyph unicode="8" d="M35 1018q70 37 137.5 67.5t144.5 53.5q4 0 8.5 20.5t8.5 45t8 48t8 31.5q23 35 68 53.5t78 34.5q88 35 179 61.5t183 51.5q94 23 188.5 39t190.5 24q33 4 80 8.5t95 3.5t92 -12.5t71 -38.5q2 -4 -2 -28.5t-6 -32.5l-6 -98q0 -4 4 -4q78 -23 152.5 -59t123.5 -103v-2 q-16 4 -36.5 -3.5t-41 -20.5t-38 -27.5t-27.5 -26.5q31 -16 50 -47t27.5 -67t6.5 -72.5t-13 -67.5q-16 43 -49.5 66.5t-74.5 35t-85 14.5t-83 5q-45 4 -94.5 2t-92.5 14q-16 6 -22 25.5t-7 43t2 46l5 37.5q-184 -14 -363.5 -56.5t-351.5 -101.5q-8 -2 -8 -6q2 -10 8 -33.5 t10 -50.5t6 -49.5t-6 -28.5q-23 -18 -58.5 -21.5t-64.5 -7.5q-39 -6 -78.5 -12t-78.5 -12q-35 -8 -67 -17.5t-62 -21.5q-14 -8 -28.5 -13.5t-29.5 -15.5q-8 -8 -18 -20.5t-17 -16.5q10 35 24.5 68t27.5 63q2 6 13 25.5t21.5 41t18.5 39t6 21.5q-25 35 -58.5 68t-78.5 37z M86 72h47q4 -41 7 -83t12 -83q4 41 10 83t14 83h37l25 -166q4 41 9 83t9 83h43l-43 -224h-43q-6 37 -11 74t-9 74q-4 -37 -11.5 -74t-13.5 -74h-43zM90 1024q68 -37 109 -109q2 -2 -4.5 -15t-14.5 -28.5t-15 -29t-9 -19.5q-25 -45 -41 -94q51 27 104 39t108.5 20.5t110 15.5 t107.5 23q-18 18 -47 25.5t-62 8.5t-65.5 -2t-55.5 -5v131t4 131q-59 -16 -116.5 -39.5t-112.5 -52.5zM305 72h45q4 -41 8 -83t11 -83q4 41 10 83t14 83h39l23 -166q4 41 9 83t9 83h43l-43 -224h-41q-8 37 -13 74t-9 74q-4 -37 -10.5 -74t-12.5 -74h-45zM342 913 q8 0 22.5 6.5t29 15.5t27.5 18.5t23 13.5q37 16 75 29.5t77 27.5q78 23 155.5 43t159.5 39q78 16 155 31.5t157 21.5q72 8 154.5 11.5t152.5 -29.5q6 55 6 112.5t4 110.5q0 29 2 57.5t6 57.5q2 14 -6 22t-20.5 13.5t-26.5 7.5t-27 4q-119 18 -245.5 0.5t-245.5 -41.5 q-129 -27 -255 -60.5t-249 -87.5q-23 -12 -46.5 -24.5t-43.5 -28.5t-24.5 -49t-8.5 -55q-8 -66 -8 -132.5v-134.5zM367 1030q0 23 15 38t36 19q6 2 15 -2t5 -14q-12 -8 -22 -8q-12 -4 -16.5 -16.5t1.5 -22.5q4 -4 8.5 -5t8.5 -3q20 -2 33.5 11t22.5 33.5t13.5 41t8.5 35.5 q-27 -27 -62 -35q-27 -4 -43 12q-16 8 -16 37q0 27 12 51q27 61 86 98q12 6 25.5 12.5t27.5 10.5q10 4 21.5 12t21.5 11q12 -1 6 -13q12 0 21 -2q16 -2 27.5 -15t13.5 -32q6 -43 -23.5 -83t-66.5 -62q-18 -12 -27.5 -32t-18.5 -39t-20.5 -37.5t-34.5 -29.5q-23 -16 -53 -10 q-12 4 -20 14.5t-6 24.5zM405.5 1141.5q2.5 -15.5 22.5 -15.5q31 0 49.5 19.5t30.5 47.5t18.5 59t10.5 51q-29 -6 -52.5 -23.5t-44.5 -38.5q-6 -6 -15 -25.5t-15.5 -39t-4 -35zM522 72h45q4 -41 9.5 -83t9.5 -83q4 41 10 83t14 83h39l25 -166q2 41 7 83t11 83h41l-41 -224 h-43q-8 37 -12 74t-10 74q-4 -37 -10.5 -74t-12.5 -74h-43zM530 1155q14 4 29.5 19.5t26 35t14.5 40t0 34.5q-6 23 -33 23q-14 -37 -20.5 -75t-16.5 -77zM582 343q2 34 2 60q0 20 -1 39t1 39q0 49 26.5 67.5t73.5 18.5q37 0 54.5 -20.5t23.5 -50t4 -63.5t-2 -60v-80 q0 -47 -26.5 -66.5t-71.5 -17.5q-39 0 -56.5 20.5t-23.5 50t-4 63.5zM628 1157.5q-5 20.5 6 46t31.5 46t43.5 22.5q12 0 16 -10q8 -12 2 -29q-6 -23 -27.5 -40t-44.5 -22q2 -12 10.5 -13t17.5 3t17.5 10.5t12.5 10.5q25 20 36 45.5t21 52.5q2 2 -1 9t-8 15.5t-8 17.5t-1 15 q10 27 34 23q12 0 17 -12q4 -10 2 -22.5t-2 -25.5q20 2 28.5 -1t-4.5 -27q-8 -16 -17 -33.5t-11 -36.5q0 -10 6 -10q20 0 34.5 20.5t26 46t22.5 51t25 33.5q8 2 17 -2q2 -4 2 -12q-4 -12 -10.5 -21.5t-1.5 -23.5q6 -12 13 -25.5t5 -27.5h2q20 25 32.5 60.5t45.5 51.5 q37 14 49 -20q10 -14 6 -25.5t-2 -27.5q8 2 14 10q16 12 18.5 34.5t8.5 41.5q4 4 11 5t12 -1q10 -2 8 -12v-2q10 10 24 16q10 6 17.5 2t11.5 -14q4 -12 1 -22.5t-8 -22t-10 -22.5t-3 -23q14 12 24 26t18.5 29.5t17.5 29t26 23.5q20 10 51 0q4 6 17 8t9 -14q-4 -18 -14 -38.5 t-10 -41.5q0 -14 8 -2q20 20 30.5 48t19.5 55.5t23.5 53t43.5 42.5q14 8 24 -9q12 -23 4 -48t-24 -42q-14 -18 -43 -43.5t-25 -52.5q4 -16 23 -12q14 6 21 19.5t16 25.5q4 2 12 2t8 -10l-4 -13q-16 -39 -53 -53q-25 -14 -43 14q-4 5 -4 11q-10 -8 -16.5 -15.5t-18.5 -11.5 q-10 -4 -16.5 0t-12.5 8q-4 -4 -12 -8t-16 -6q-31 -6 -43 20v2q-8 -10 -17.5 -17t-23.5 -11q-14 -8 -25 12q-6 12 -3 23.5t8 21.5t9 21.5t2 23.5q-18 -8 -25 -19.5t-11.5 -25.5t-6.5 -28.5t-8 -28.5q-6 -16 -24 -8q-8 2 -9 10q0 4 1 9t1 7q-14 -4 -19 -4t-15 -10 t-24.5 -18.5t-31.5 -8.5q-10 2 -16 8.5t-10 14.5q-16 -16 -40 -32.5t-50 -12.5q-16 2 -25 18q-25 -29 -51 -37q-29 -12 -33 21q-4 27 8.5 44t22.5 38q2 4 -3 5t-7 -3q-8 -20 -18.5 -44t-26 -45.5t-36 -34.5t-46.5 -11q-31 2 -36 22.5zM638 367.5q-1 -37.5 1 -74.5 q0 -16 9 -26.5t21.5 -14.5t24 1t15.5 23q2 12 2 27.5v30.5v147q0 16 -10.5 27.5t-22.5 15.5t-23.5 -2t-15.5 -22q-2 -14 -1 -29.5t1 -28.5q0 -37 -1 -74.5zM653 621q12 14 15.5 36.5t2.5 48t-4 49t-3 42.5v125q0 16 1 30.5t-12 28.5h76q-14 -12 -12 -32.5t2 -37.5v-141 q0 -16 -2 -49t10 -47q14 -23 37.5 -8.5t28.5 32.5q8 27 2.5 54.5t-9.5 54.5q-4 14 -10 37.5t-8 48.5t2 46.5t21 33.5q10 10 31.5 10t29.5 -16q6 -16 -2 -21.5t-18.5 -4.5t-17.5 8t1 16q-16 -8 -17 -29t6 -44.5t17 -46t15 -34.5q12 -37 17 -87t-22 -85q-10 -14 -33.5 -19.5 t-50 -5.5t-53 3.5t-41.5 3.5zM655 1192q12 -2 28.5 15.5t18.5 27.5q4 8 -2 12t-12 -2q-10 -10 -18.5 -24.5t-14.5 -28.5zM715 -123q0 14 9 22.5t21.5 8.5t21.5 -8.5t9 -22.5q0 -16 -9 -23.5t-21.5 -7.5t-21.5 7.5t-9 23.5zM776 1329q-2 -8 4 -20h4q0 8 1 13t-1 13 q-6 0 -8 -6zM780 209q10 14 13.5 34.5t2.5 44t-4.5 46t-3.5 39.5v172q0 10 -8 22h58q29 -12 51 -50t35 -66q0 25 2 59.5t-13 56.5h74q-12 -10 -11 -24.5t1 -28.5v-246q0 -14 -1 -31.5t11 -27.5h-207zM797 -152l59 224h64l59 -224h-51l-15 52h-53l-10 -52h-53zM844 252 q0 -14 11 -23.5t25.5 -11.5t28 3.5t15.5 19.5q-4 63 -21.5 127.5t-58.5 115.5v-231zM865 711.5q-3 19.5 7 31.5t33 13.5t27 -21.5q0 -10 -7 -15t-15.5 -5t-14.5 4t-6 14q-12 -4 -12 -14t7 -20.5t17 -19.5t17 -11q14 -4 34.5 -4t30.5 10q20 20 16 40.5t-19 38t-35.5 32 t-31.5 24.5q-18 16 -30.5 42t-12.5 52.5t13.5 48t44.5 27.5q27 6 54.5 4t51.5 -2l-6 -10q0 -14 7 -29.5t13.5 -31t5.5 -30t-16 -26.5q-14 -10 -33.5 -9t-21.5 21q0 12 7 17.5t15.5 5.5t14.5 -5t4 -14q14 2 14 12.5t-8 21.5t-18.5 20.5t-18.5 11.5q-14 4 -32.5 1t-24.5 -19 q-12 -25 -4 -43.5t24.5 -33t37 -27.5t32.5 -28q14 -20 22.5 -46.5t4.5 -52t-20.5 -44t-47.5 -22.5q-27 -2 -53.5 -1t-54.5 1q8 4 5 19t-8.5 33.5t-8.5 38zM866 -61h41q-4 23 -9 46t-11 46zM874 1219q4 -12 16.5 -10.5t14.5 14.5q2 18 -10 43q-6 -8 -14.5 -22.5t-6.5 -24.5z M991 1264l4 -15q10 -14 25 -6q16 4 23.5 21.5t3.5 33.5q-2 10 -9.5 16.5t-21.5 -3.5q-20 -14 -25 -47zM997 209q12 14 15.5 36.5t2.5 47t-4 48.5t-3 40v127q0 16 1 29.5t-12 29.5h76q-10 -10 -13 -30.5t-2 -42t3 -43t2 -35.5v-166h104q23 0 55.5 -3t55.5 13q-4 -8 -7 -29.5 t-14 -21.5h-260zM1006 70q29 4 64.5 6t62.5 -15q31 -23 22.5 -57.5t-37.5 -48.5q14 -6 21.5 -19.5t10.5 -29t5 -30.5t8 -28h-51q-6 12 -8 27.5t-6 29t-12.5 23t-26.5 6.5v-86h-53v222zM1057 8.5q2 -24.5 2 -35.5h12q18 0 26.5 10.5t6.5 22.5t-11.5 21.5t-27.5 7.5 q-10 -2 -8 -26.5zM1065 621q10 12 11 25t1 28v248q0 14 -1 30.5t-11 28.5h127q25 -25 25.5 -59.5t-9.5 -67.5q-4 -8 -15 -29.5t-20.5 -45t-11.5 -45t10 -27.5q-6 12 4.5 13t21.5 -4t14 -14.5t-17 -17.5q-25 -10 -35 9.5t-8 35.5q0 16 6 32.5t8 31t-4 22.5t-28 6v-155 q16 0 41.5 -3.5t44.5 11.5q-6 -14 -8.5 -26.5t-6.5 -26.5h-139zM1098 567h78q-12 -29 2 -65.5t26 -61.5q12 29 22.5 63t0.5 64h80q-23 -12 -27 -38.5t-10 -47.5q-6 -20 -23.5 -47.5t-17.5 -48.5q0 -23 -3 -56.5t13 -52.5h-76q18 18 14.5 54t-3.5 59q-12 23 -21.5 46.5 t-17.5 45.5q-10 23 -14.5 46.5t-22.5 39.5zM1133 866q20 0 45.5 2t27.5 33q0 16 -7 23.5t-18.5 10.5t-24.5 3h-23v-72zM1192 72h53v-224h-53v224zM1245 1296q-4 -10 1 -27.5t22 -2.5q12 12 21 32.5t11 38.5q-2 8 -4 13.5t-12 1.5q-16 -8 -25.5 -23.5t-13.5 -32.5zM1274 -123 q0 14 9 22.5t21.5 8.5t21.5 -8.5t9 -22.5q0 -16 -9 -23.5t-21.5 -7.5t-21.5 7.5t-9 23.5zM1294 1018q-8 -6 4 -8q27 -10 57.5 -13.5t62.5 -3.5h62.5t59.5 -2t57.5 -5t57.5 -13q29 -8 51.5 -23.5t48.5 -27.5q0 61 -21.5 106t-80.5 68q35 31 69.5 58.5t75.5 43.5 q-49 47 -110.5 77t-126.5 46q-2 -57 -3.5 -112.5t-5.5 -112.5l-2 2v-6q-27 -2 -64.5 -4.5t-74.5 -9.5t-68.5 -21.5t-48.5 -38.5zM1364 72h57l68 -152q-4 39 -4 77v75h47v-224h-51q-20 39 -37 79t-35 77q2 -39 2 -78v-78h-47v224zM1393 1362q16 20 31.5 39.5t19.5 46.5h-2 q-37 -37 -49 -86zM1562.5 -63.5q-8.5 36.5 14.5 79.5q12 29 40 43.5t62 14.5h10.5t17.5 -2t16.5 -4t7.5 -5l-9 -40q-27 12 -48 8t-36.5 -18.5t-20.5 -37t3 -47.5q16 -47 61 -41q10 2 8.5 21.5t-1.5 28.5h-27v40h76v-120q-41 -16 -79 -9t-62.5 29.5t-33 59z" />
<glyph unicode="9" d="M35 1018q70 37 137.5 67.5t144.5 53.5q4 0 8.5 20.5t8.5 45t8 48t8 31.5q23 35 68 53.5t78 34.5q88 35 179 61.5t183 51.5q94 23 188.5 39t190.5 24q33 4 80 8.5t95 3.5t92 -12.5t71 -38.5q2 -4 -2 -28.5t-6 -32.5l-6 -98q0 -4 4 -4q78 -23 152.5 -59t123.5 -103v-2 q-16 4 -36.5 -3.5t-41 -20.5t-38 -27.5t-27.5 -26.5q31 -16 50 -47t27.5 -67t6.5 -72.5t-13 -67.5q-16 43 -49.5 66.5t-74.5 35t-85 14.5t-83 5q-45 4 -94.5 2t-92.5 14q-16 6 -22 25.5t-7 43t2 46l5 37.5q-184 -14 -363.5 -56.5t-351.5 -101.5q-8 -2 -8 -6q2 -10 8 -33.5 t10 -50.5t6 -49.5t-6 -28.5q-23 -18 -58.5 -21.5t-64.5 -7.5q-39 -6 -78.5 -12t-78.5 -12q-35 -8 -67 -17.5t-62 -21.5q-14 -8 -28.5 -13.5t-29.5 -15.5q-8 -8 -18 -20.5t-17 -16.5q10 35 24.5 68t27.5 63q2 6 13 25.5t21.5 41t18.5 39t6 21.5q-25 35 -58.5 68t-78.5 37z M86 72h47q4 -41 7 -83t12 -83q4 41 10 83t14 83h37l25 -166q4 41 9 83t9 83h43l-43 -224h-43q-6 37 -11 74t-9 74q-4 -37 -11.5 -74t-13.5 -74h-43zM90 1024q68 -37 109 -109q2 -2 -4.5 -15t-14.5 -28.5t-15 -29t-9 -19.5q-25 -45 -41 -94q51 27 104 39t108.5 20.5t110 15.5 t107.5 23q-18 18 -47 25.5t-62 8.5t-65.5 -2t-55.5 -5v131t4 131q-59 -16 -116.5 -39.5t-112.5 -52.5zM305 72h45q4 -41 8 -83t11 -83q4 41 10 83t14 83h39l23 -166q4 41 9 83t9 83h43l-43 -224h-41q-8 37 -13 74t-9 74q-4 -37 -10.5 -74t-12.5 -74h-45zM342 913 q8 0 22.5 6.5t29 15.5t27.5 18.5t23 13.5q37 16 75 29.5t77 27.5q78 23 155.5 43t159.5 39q78 16 155 31.5t157 21.5q72 8 154.5 11.5t152.5 -29.5q6 55 6 112.5t4 110.5q0 29 2 57.5t6 57.5q2 14 -6 22t-20.5 13.5t-26.5 7.5t-27 4q-119 18 -245.5 0.5t-245.5 -41.5 q-129 -27 -255 -60.5t-249 -87.5q-23 -12 -46.5 -24.5t-43.5 -28.5t-24.5 -49t-8.5 -55q-8 -66 -8 -132.5v-134.5zM367 1030q0 23 15 38t36 19q6 2 15 -2t5 -14q-12 -8 -22 -8q-12 -4 -16.5 -16.5t1.5 -22.5q4 -4 8.5 -5t8.5 -3q20 -2 33.5 11t22.5 33.5t13.5 41t8.5 35.5 q-27 -27 -62 -35q-27 -4 -43 12q-16 8 -16 37q0 27 12 51q27 61 86 98q12 6 25.5 12.5t27.5 10.5q10 4 21.5 12t21.5 11q12 -1 6 -13q12 0 21 -2q16 -2 27.5 -15t13.5 -32q6 -43 -23.5 -83t-66.5 -62q-18 -12 -27.5 -32t-18.5 -39t-20.5 -37.5t-34.5 -29.5q-23 -16 -53 -10 q-12 4 -20 14.5t-6 24.5zM405.5 1141.5q2.5 -15.5 22.5 -15.5q31 0 49.5 19.5t30.5 47.5t18.5 59t10.5 51q-29 -6 -52.5 -23.5t-44.5 -38.5q-6 -6 -15 -25.5t-15.5 -39t-4 -35zM522 72h45q4 -41 9.5 -83t9.5 -83q4 41 10 83t14 83h39l25 -166q2 41 7 83t11 83h41l-41 -224 h-43q-8 37 -12 74t-10 74q-4 -37 -10.5 -74t-12.5 -74h-43zM530 1155q14 4 29.5 19.5t26 35t14.5 40t0 34.5q-6 23 -33 23q-14 -37 -20.5 -75t-16.5 -77zM582 343q2 34 2 60q0 20 -1 39t1 39q0 49 26.5 67.5t73.5 18.5q37 0 54.5 -20.5t23.5 -50t4 -63.5t-2 -60v-80 q0 -47 -26.5 -66.5t-71.5 -17.5q-39 0 -56.5 20.5t-23.5 50t-4 63.5zM628 1157.5q-5 20.5 6 46t31.5 46t43.5 22.5q12 0 16 -10q8 -12 2 -29q-6 -23 -27.5 -40t-44.5 -22q2 -12 10.5 -13t17.5 3t17.5 10.5t12.5 10.5q25 20 36 45.5t21 52.5q2 2 -1 9t-8 15.5t-8 17.5t-1 15 q10 27 34 23q12 0 17 -12q4 -10 2 -22.5t-2 -25.5q20 2 28.5 -1t-4.5 -27q-8 -16 -17 -33.5t-11 -36.5q0 -10 6 -10q20 0 34.5 20.5t26 46t22.5 51t25 33.5q8 2 17 -2q2 -4 2 -12q-4 -12 -10.5 -21.5t-1.5 -23.5q6 -12 13 -25.5t5 -27.5h2q20 25 32.5 60.5t45.5 51.5 q37 14 49 -20q10 -14 6 -25.5t-2 -27.5q8 2 14 10q16 12 18.5 34.5t8.5 41.5q4 4 11 5t12 -1q10 -2 8 -12v-2q10 10 24 16q10 6 17.5 2t11.5 -14q4 -12 1 -22.5t-8 -22t-10 -22.5t-3 -23q14 12 24 26t18.5 29.5t17.5 29t26 23.5q20 10 51 0q4 6 17 8t9 -14q-4 -18 -14 -38.5 t-10 -41.5q0 -14 8 -2q20 20 30.5 48t19.5 55.5t23.5 53t43.5 42.5q14 8 24 -9q12 -23 4 -48t-24 -42q-14 -18 -43 -43.5t-25 -52.5q4 -16 23 -12q14 6 21 19.5t16 25.5q4 2 12 2t8 -10l-4 -13q-16 -39 -53 -53q-25 -14 -43 14q-4 5 -4 11q-10 -8 -16.5 -15.5t-18.5 -11.5 q-10 -4 -16.5 0t-12.5 8q-4 -4 -12 -8t-16 -6q-31 -6 -43 20v2q-8 -10 -17.5 -17t-23.5 -11q-14 -8 -25 12q-6 12 -3 23.5t8 21.5t9 21.5t2 23.5q-18 -8 -25 -19.5t-11.5 -25.5t-6.5 -28.5t-8 -28.5q-6 -16 -24 -8q-8 2 -9 10q0 4 1 9t1 7q-14 -4 -19 -4t-15 -10 t-24.5 -18.5t-31.5 -8.5q-10 2 -16 8.5t-10 14.5q-16 -16 -40 -32.5t-50 -12.5q-16 2 -25 18q-25 -29 -51 -37q-29 -12 -33 21q-4 27 8.5 44t22.5 38q2 4 -3 5t-7 -3q-8 -20 -18.5 -44t-26 -45.5t-36 -34.5t-46.5 -11q-31 2 -36 22.5zM638 367.5q-1 -37.5 1 -74.5 q0 -16 9 -26.5t21.5 -14.5t24 1t15.5 23q2 12 2 27.5v30.5v147q0 16 -10.5 27.5t-22.5 15.5t-23.5 -2t-15.5 -22q-2 -14 -1 -29.5t1 -28.5q0 -37 -1 -74.5zM653 621q12 14 15.5 36.5t2.5 48t-4 49t-3 42.5v125q0 16 1 30.5t-12 28.5h76q-14 -12 -12 -32.5t2 -37.5v-141 q0 -16 -2 -49t10 -47q14 -23 37.5 -8.5t28.5 32.5q8 27 2.5 54.5t-9.5 54.5q-4 14 -10 37.5t-8 48.5t2 46.5t21 33.5q10 10 31.5 10t29.5 -16q6 -16 -2 -21.5t-18.5 -4.5t-17.5 8t1 16q-16 -8 -17 -29t6 -44.5t17 -46t15 -34.5q12 -37 17 -87t-22 -85q-10 -14 -33.5 -19.5 t-50 -5.5t-53 3.5t-41.5 3.5zM655 1192q12 -2 28.5 15.5t18.5 27.5q4 8 -2 12t-12 -2q-10 -10 -18.5 -24.5t-14.5 -28.5zM715 -123q0 14 9 22.5t21.5 8.5t21.5 -8.5t9 -22.5q0 -16 -9 -23.5t-21.5 -7.5t-21.5 7.5t-9 23.5zM776 1329q-2 -8 4 -20h4q0 8 1 13t-1 13 q-6 0 -8 -6zM780 209q10 14 13.5 34.5t2.5 44t-4.5 46t-3.5 39.5v172q0 10 -8 22h58q29 -12 51 -50t35 -66q0 25 2 59.5t-13 56.5h74q-12 -10 -11 -24.5t1 -28.5v-246q0 -14 -1 -31.5t11 -27.5h-207zM797 -152l59 224h64l59 -224h-51l-15 52h-53l-10 -52h-53zM844 252 q0 -14 11 -23.5t25.5 -11.5t28 3.5t15.5 19.5q-4 63 -21.5 127.5t-58.5 115.5v-231zM865 711.5q-3 19.5 7 31.5t33 13.5t27 -21.5q0 -10 -7 -15t-15.5 -5t-14.5 4t-6 14q-12 -4 -12 -14t7 -20.5t17 -19.5t17 -11q14 -4 34.5 -4t30.5 10q20 20 16 40.5t-19 38t-35.5 32 t-31.5 24.5q-18 16 -30.5 42t-12.5 52.5t13.5 48t44.5 27.5q27 6 54.5 4t51.5 -2l-6 -10q0 -14 7 -29.5t13.5 -31t5.5 -30t-16 -26.5q-14 -10 -33.5 -9t-21.5 21q0 12 7 17.5t15.5 5.5t14.5 -5t4 -14q14 2 14 12.5t-8 21.5t-18.5 20.5t-18.5 11.5q-14 4 -32.5 1t-24.5 -19 q-12 -25 -4 -43.5t24.5 -33t37 -27.5t32.5 -28q14 -20 22.5 -46.5t4.5 -52t-20.5 -44t-47.5 -22.5q-27 -2 -53.5 -1t-54.5 1q8 4 5 19t-8.5 33.5t-8.5 38zM866 -61h41q-4 23 -9 46t-11 46zM874 1219q4 -12 16.5 -10.5t14.5 14.5q2 18 -10 43q-6 -8 -14.5 -22.5t-6.5 -24.5z M991 1264l4 -15q10 -14 25 -6q16 4 23.5 21.5t3.5 33.5q-2 10 -9.5 16.5t-21.5 -3.5q-20 -14 -25 -47zM997 209q12 14 15.5 36.5t2.5 47t-4 48.5t-3 40v127q0 16 1 29.5t-12 29.5h76q-10 -10 -13 -30.5t-2 -42t3 -43t2 -35.5v-166h104q23 0 55.5 -3t55.5 13q-4 -8 -7 -29.5 t-14 -21.5h-260zM1006 70q29 4 64.5 6t62.5 -15q31 -23 22.5 -57.5t-37.5 -48.5q14 -6 21.5 -19.5t10.5 -29t5 -30.5t8 -28h-51q-6 12 -8 27.5t-6 29t-12.5 23t-26.5 6.5v-86h-53v222zM1057 8.5q2 -24.5 2 -35.5h12q18 0 26.5 10.5t6.5 22.5t-11.5 21.5t-27.5 7.5 q-10 -2 -8 -26.5zM1065 621q10 12 11 25t1 28v248q0 14 -1 30.5t-11 28.5h127q25 -25 25.5 -59.5t-9.5 -67.5q-4 -8 -15 -29.5t-20.5 -45t-11.5 -45t10 -27.5q-6 12 4.5 13t21.5 -4t14 -14.5t-17 -17.5q-25 -10 -35 9.5t-8 35.5q0 16 6 32.5t8 31t-4 22.5t-28 6v-155 q16 0 41.5 -3.5t44.5 11.5q-6 -14 -8.5 -26.5t-6.5 -26.5h-139zM1098 567h78q-12 -29 2 -65.5t26 -61.5q12 29 22.5 63t0.5 64h80q-23 -12 -27 -38.5t-10 -47.5q-6 -20 -23.5 -47.5t-17.5 -48.5q0 -23 -3 -56.5t13 -52.5h-76q18 18 14.5 54t-3.5 59q-12 23 -21.5 46.5 t-17.5 45.5q-10 23 -14.5 46.5t-22.5 39.5zM1133 866q20 0 45.5 2t27.5 33q0 16 -7 23.5t-18.5 10.5t-24.5 3h-23v-72zM1192 72h53v-224h-53v224zM1245 1296q-4 -10 1 -27.5t22 -2.5q12 12 21 32.5t11 38.5q-2 8 -4 13.5t-12 1.5q-16 -8 -25.5 -23.5t-13.5 -32.5zM1274 -123 q0 14 9 22.5t21.5 8.5t21.5 -8.5t9 -22.5q0 -16 -9 -23.5t-21.5 -7.5t-21.5 7.5t-9 23.5zM1294 1018q-8 -6 4 -8q27 -10 57.5 -13.5t62.5 -3.5h62.5t59.5 -2t57.5 -5t57.5 -13q29 -8 51.5 -23.5t48.5 -27.5q0 61 -21.5 106t-80.5 68q35 31 69.5 58.5t75.5 43.5 q-49 47 -110.5 77t-126.5 46q-2 -57 -3.5 -112.5t-5.5 -112.5l-2 2v-6q-27 -2 -64.5 -4.5t-74.5 -9.5t-68.5 -21.5t-48.5 -38.5zM1364 72h57l68 -152q-4 39 -4 77v75h47v-224h-51q-20 39 -37 79t-35 77q2 -39 2 -78v-78h-47v224zM1393 1362q16 20 31.5 39.5t19.5 46.5h-2 q-37 -37 -49 -86zM1562.5 -63.5q-8.5 36.5 14.5 79.5q12 29 40 43.5t62 14.5h10.5t17.5 -2t16.5 -4t7.5 -5l-9 -40q-27 12 -48 8t-36.5 -18.5t-20.5 -37t3 -47.5q16 -47 61 -41q10 2 8.5 21.5t-1.5 28.5h-27v40h76v-120q-41 -16 -79 -9t-62.5 29.5t-33 59z" />
<glyph unicode=":" horiz-adv-x="753" d="M209 203q16 86 78.5 144.5t171.5 58.5t151.5 -59.5t28.5 -143.5q-16 -84 -76.5 -143.5t-171.5 -59.5q-109 0 -153.5 59.5t-28.5 143.5zM317 823q16 86 80 144.5t172 58.5q55 0 92 -15.5t58.5 -43t29 -64.5t-0.5 -80q-14 -84 -77 -143t-173 -59q-109 0 -152 59t-29 143z " />
<glyph unicode=";" horiz-adv-x="757" d="M206 102.5q1 49.5 6 91.5t15 70q14 43 45 72t69 46t82 21t87 -4q86 -16 124 -73.5t5 -143.5q-10 -29 -30.5 -68.5t-50.5 -83.5t-65.5 -90t-76.5 -87q-33 -31 -66 -40.5t-59.5 -2t-46 31t-23.5 56.5q-8 49 -12 102t-3 102.5zM322 823q16 86 79.5 144.5t171.5 58.5 q55 0 92 -15.5t58.5 -43t29 -64.5t-0.5 -80q-14 -84 -77 -143t-173 -59q-109 0 -152 59t-28 143z" />
<glyph unicode="&#x3c;" horiz-adv-x="571" d="M94 543q8 51 50 104t96.5 100.5t112 87t100.5 66.5q55 35 94 17.5t57.5 -60.5t16 -97t-26.5 -93q-25 -37 -78 -57.5t-111.5 -37t-105.5 -33.5t-59 -48q20 12 61 14t84 -5t82 -22.5t55 -38.5q25 -31 21 -87t-26.5 -106t-56.5 -77t-69 0q-59 45 -114.5 93t-98.5 97.5 t-66.5 95.5t-17.5 87z" />
<glyph unicode="=" horiz-adv-x="780" d="M66.5 299q-3.5 29 3.5 59q6 31 18 58.5t49 49t109.5 34t197.5 12.5t191.5 -12.5t96.5 -34t32 -49t-4 -58.5t-17.5 -59.5t-48.5 -50t-108.5 -33.5t-196.5 -12t-192.5 12t-97 33.5t-33 50.5zM120 645q-3 29 3 60t17.5 58.5t49 49t109.5 33.5t197 12t192.5 -12t97 -33.5 t31.5 -49t-4 -58.5t-17.5 -60t-48 -50.5t-108.5 -33.5t-197 -12t-192.5 12t-97 33.5t-32.5 50.5z" />
<glyph unicode="&#x3e;" horiz-adv-x="571" d="M58 247q-5 50 10.5 106.5t50.5 86.5q27 23 70.5 38.5t90 22.5t86.5 5t56 -14q0 20 -20.5 34.5t-50 25.5t-66.5 21.5t-69 22.5t-56.5 29.5t-30.5 42.5q-10 39 6.5 93t50 97t78.5 60.5t88 -17.5q33 -27 77 -66.5t81 -87t59.5 -100.5t14.5 -104q-6 -41 -47 -87t-100.5 -95.5 t-133.5 -97.5t-147 -93q-43 -27 -68 0t-30 77z" />
<glyph unicode="?" horiz-adv-x="1153" d="M211 1004q18 100 65.5 181t119 137t161.5 87t195 31q92 0 170.5 -31t134 -85t81 -130t9.5 -166q-14 -76 -50 -131t-84 -96t-101.5 -70t-101.5 -52.5t-85 -45t-49 -43.5q-23 -41 -58.5 -60.5t-68.5 -14.5t-56.5 34t-23.5 86q0 45 17.5 73.5t42 50t55 39t59.5 42.5 q61 51 89 99t31 85t-15.5 58.5t-49.5 21.5q-57 0 -86.5 -49t-19.5 -135q4 -39 -26.5 -72t-79 -51.5t-102.5 -19.5t-97 21.5t-66.5 72t-9.5 133.5zM279 203q16 86 78.5 144.5t172.5 58.5q109 0 153 -58.5t28 -144.5q-16 -84 -78 -143.5t-170 -59.5q-109 0 -155 59.5 t-29 143.5z" />
<glyph unicode="@" horiz-adv-x="1988" d="M89 174q-28 176 7 377q35 199 125 375t232.5 306t334 205.5t431.5 75.5t406.5 -64.5t265 -181t129 -277.5t-2.5 -353q-53 -307 -218 -472t-451 -165q-102 0 -164 30.5t-90 82.5q-57 -72 -133 -117t-173 -45q-109 0 -173 47t-92.5 128t-26.5 190.5t24 234.5 q20 123 57 232.5t93.5 190.5t137 128t189.5 47q78 0 132.5 -50t80.5 -126q33 55 82 91t115 36q59 0 99 -22.5t61.5 -59.5t26.5 -86t-3 -103q-8 -43 -16 -88t-14 -82q-8 -43 -15 -84q-23 -121 -33 -184t-9 -92t12.5 -33t33.5 -4q31 0 51.5 22.5t35 60.5t24.5 91t20 115 q27 156 19 289t-64.5 229t-169 151.5t-290.5 55.5q-172 0 -302.5 -55.5t-222.5 -151.5t-150.5 -229t-84.5 -289q-29 -158 -12.5 -288t75 -224t156.5 -148.5t237 -60.5q37 -2 81 3t87 13.5t84 18.5t72 22q78 29 128 4.5t64.5 -69.5t-13 -96.5t-103.5 -77.5 q-88 -29 -185.5 -45.5t-207.5 -16.5q-240 0 -405 76t-261 206t-124 306zM930 337q4 -32 16.5 -45t32.5 -13q29 0 50.5 27.5t41 88t37.5 153.5t41 222q-12 18 -28.5 34.5t-45.5 16.5q-41 0 -70.5 -57t-56.5 -213q-14 -78 -18 -130t0 -84z" />
<glyph unicode="A" horiz-adv-x="1370" d="M-22 102q6 36 30 88q35 66 83 155t101.5 189.5t109.5 207t109.5 206t100.5 188.5t82 154q25 47 52.5 76t61 45t77.5 21.5t100 5.5q129 -4 199.5 -63.5t89.5 -198.5q31 -223 47 -393.5t28.5 -285t27.5 -175t46 -62.5q25 0 45.5 16.5t38.5 57.5t34.5 109.5t35.5 170.5 q10 61 36.5 86t52.5 22q28 -4 44 -32q11 -19 11 -47q0 -14 -3 -29q-27 -152 -63.5 -262t-89 -186t-122 -117t-163.5 -49q-24 -2 -46 -2q-50 0 -90 12q-56 18 -95.5 57t-64 97.5t-38.5 130.5l-252 -35q-35 -4 -60.5 5t-35.5 34q-16 -27 -35 -51.5t-35 -46.5 q-53 -66 -101 -105t-92.5 -60.5t-83 -28.5t-75.5 -7q-35 0 -59.5 10t-34.5 33q-6 14 -7 33q1 12 3 26zM639 582h66q88 0 122 -56q-10 78 -19 161t-18.5 159t-17.5 140.5t-16 107.5q-6 -111 -36 -244t-81 -268z" />
<glyph unicode="B" horiz-adv-x="1097" d="M33 190q18 104 43.5 251t53.5 301.5t53.5 300t43.5 247.5q8 47 25.5 77t42 45t58.5 20.5t77 5.5h227q172 0 279.5 -27t163.5 -75q58 -48 72 -114q7 -32 6 -67q0 -36 -7 -76q-23 -127 -109.5 -215.5t-219.5 -111.5q82 -29 134 -66t80 -82t34 -96q2 -19 2 -39q0 -33 -7 -68 q-14 -84 -52 -156.5t-110.5 -127t-183 -86t-272.5 -31.5h-289q-76 0 -120 42q-31 29 -31 90q0 26 6 58zM514 322q74 0 117 32.5t55 108.5q4 25 4 44q0 43 -20 65q-30 32 -105 32q-18 0 -29.5 -4t-18.5 -18.5t-12 -41t-13 -71.5q-16 -87 -16 -117t38 -30zM602 823 q74 0 116 30t56 108q5 27 5 48q1 43 -21 63q-32 30 -107 30q-18 0 -28.5 -4t-17.5 -18.5t-12 -40t-13 -70.5q-16 -87 -16 -116q0 -30 38 -30z" />
<glyph unicode="C" horiz-adv-x="1077" d="M123 715q33 190 91 327.5t139 225.5t182.5 129t222.5 41q139 0 224 -52.5t128 -135.5t49 -186q2 -26 2 -51q0 -77 -14 -153q-14 -78 -52 -131t-87.5 -84t-102.5 -40q-25 -4 -48 -4q-25 0 -47 5q-42 10 -66 40q-18 22 -17 53q0 10 2 22q12 74 25.5 153.5t18.5 145.5 q2 24 2 45q0 37 -6 65q-9 44 -42 44q-25 0 -49.5 -38t-47 -101.5t-43 -146.5t-36.5 -173q-24 -128 -23 -222v-27q4 -102 35 -166t86.5 -93t134.5 -29q63 0 127 27.5t118 82t95 136.5t60 190q10 61 36.5 86t53.5 22q26 -4 42 -32q11 -19 12 -47q0 -14 -3 -29 q-25 -147 -89.5 -269t-162.5 -210t-227 -136t-285 -48q-287 1 -397 189q-68 116 -67 308q0 119 26 267z" />
<glyph unicode="D" horiz-adv-x="1124" d="M33 190q18 104 43.5 251t53.5 301.5t53.5 300t43.5 247.5q8 47 24.5 77t42 45t58.5 20.5t76 5.5h277q172 0 277 -45t157.5 -134.5t56.5 -224.5q0 -15 1 -30q0 -125 -30 -285q-31 -180 -77 -315.5t-120.5 -224.5t-185 -134t-272.5 -45h-336q-74 0 -118 42q-31 29 -31 90 q0 26 6 58zM512 322q47 0 83 28.5t62.5 80.5t46 125t35.5 163q15 87 21 159q2 27 3 52q0 40 -6 70q-9 50 -35 76t-73 26q-18 0 -28.5 -4t-16.5 -18.5t-11 -40t-13 -70.5l-88 -500q-16 -87 -16 -117t36 -30z" />
<glyph unicode="E" horiz-adv-x="1077" d="M76 360q10 66 38.5 123.5t71.5 101.5t96.5 72.5t114.5 36.5q-61 0 -106 30t-69 80t-28 114q0 9 -1 19q0 56 18 116q31 100 86 172.5t128 120t158 70t175 22.5q125 0 210 -27t132 -74q48 -47 62 -111q8 -33 7 -69q0 -32 -6 -65q-12 -78 -50 -131.5t-86 -84.5 q-49 -30 -101 -40q-25 -5 -47 -4q-25 0 -45 6q-40 10 -65 40q-17 21 -17 51q0 11 2 23q12 74 18 118q4 29 4 49q0 9 -1 17q-3 22 -14 30t-34 8q-12 0 -30.5 -29t-36 -71t-28.5 -92q-8 -37 -8 -70q0 -12 1 -23q4 -43 25.5 -73t70.5 -32q39 -2 57 -30q16 -25 15 -54v-7 q-2 -34 -25 -64.5t-66 -38.5q-61 -12 -105 -47t-66.5 -81t-22.5 -96.5t25.5 -92.5t78 -68.5t133.5 -26.5q63 0 133 27.5t131.5 82t108.5 136.5t66 190q10 61 36.5 86t53.5 22q26 -4 42 -32q11 -19 12 -47q0 -14 -3 -29q-25 -147 -89.5 -269t-162.5 -210t-227 -136t-285 -48 q-106 0 -201.5 24.5t-164 74.5t-102.5 127q-23 51 -23 116q0 32 6 67z" />
<glyph unicode="F" horiz-adv-x="956" d="M32 52q-4 17 -4 43q0 52 15 138q18 102 40.5 232.5t46.5 264.5t46.5 263t40.5 232q8 47 16.5 87t22.5 67.5t40 43t69 15.5h716q73 0 93 -38q12 -21 11 -60q0 -30 -7 -72q-14 -78 -46 -122t-94 -56q-37 -6 -84 -6q-28 0 -59 2q-84 6 -162 18q-90 14 -186 37q0 -55 -2 -123 q-2 -57 -5 -133t-10 -164q8 -1 17 -1q37 0 81 20q56 24 114 54q57 30 108 52q31 13 56 14q16 0 30 -6q43 -18 50 -78q2 -14 2 -29q0 -48 -18 -103q-24 -71 -75 -137.5t-123 -96.5q-53 -22 -105 -22q-21 0 -41 3q-72 12 -126 53q-10 -72 -22.5 -139t-28.5 -133 q-8 -31 -23.5 -61.5t-37 -55t-50.5 -40t-62 -15.5h-157q-75 0 -87 52z" />
<glyph unicode="G" horiz-adv-x="1105" d="M90 352v29q0 134 31 315q37 203 94 344.5t138 229.5t187.5 128t239.5 40q111 0 192 -31t132 -83t72 -123q12 -42 12 -87q0 -31 -6 -63q-14 -88 -54.5 -146.5t-90.5 -93.5t-103 -45q-26 -5 -50 -5t-45 5q-42 10 -67 38q-18 20 -18 50q0 9 2 20q14 80 14 133q0 96 -47 97 q-49 0 -94 -111.5t-78 -296.5q-29 -162 -29 -267q0 -16 1 -31q5 -111 55 -111q20 0 42.5 22.5t39 61.5t22.5 91q2 17 2 35q0 36 -8 74q-6 23 -6 41q0 45 36 60q50 22 177 24q70 0 111.5 -16t61.5 -47q19 -28 19 -68v-8q-2 -45 -22 -102t-25.5 -93t-1.5 -55.5t16.5 -27 t26.5 -7.5q39 0 78 94.5t65 247.5q10 61 37 86t53.5 22t43.5 -32q11 -19 11 -47q0 -13 -3 -29q-18 -111 -50 -222t-85.5 -200.5t-134 -144.5t-199.5 -55q-39 0 -76 8t-69.5 25.5t-56.5 43t-36 62.5q-47 -80 -122.5 -130t-184.5 -50q-70 0 -126 40t-88 129t-36 232z" />
<glyph unicode="H" horiz-adv-x="1232" d="M33 190l192 1096q8 47 24.5 77t40 46t55.5 22.5t73 6.5q140 0 192 -64q37 -44 36 -113q0 -30 -7 -65l-57 -336h112q74 0 113 -33l82 459q4 23 11 49.5t26.5 49t57.5 38t101 15.5q125 0 181 -69q40 -49 41 -130q0 -33 -7 -72l-118 -669q-10 -63 -17.5 -106.5t-8.5 -70 t7 -39t31 -12.5q25 0 44 14.5t35.5 53.5t32 106.5t33.5 169.5q10 61 37 86t54 22q26 -4 42 -32q11 -19 12 -47q0 -14 -3 -29q-27 -152 -66 -265t-96 -190t-137 -117t-189 -42q-61 0 -105 10t-75 28.5t-49.5 44.5t-30.5 56q-19 45 -19 99q0 16 2 33q8 73 19 141l21 123h-135 q-29 0 -53.5 4t-41.5 16l-24 -147q-16 -96 -37 -175t-66 -131q-45 -55 -103 -78.5t-130 -23.5q-70 0 -111 42q-28 29 -28 87q0 27 6 61z" />
<glyph unicode="I" horiz-adv-x="569" d="M52 271q7 73 20 141l153 874q4 23 11.5 49.5t27 49t57 38t101.5 15.5q125 0 181 -69q40 -50 40 -132q0 -32 -6 -70l-119 -669q-10 -63 -17 -106.5t-8 -70t6.5 -39t30.5 -12.5q25 0 44.5 14.5t36 53.5t31.5 106.5t34 169.5q10 61 36.5 86t53.5 22q27 -4 43 -32 q11 -19 11 -46q0 -14 -3 -30q-27 -152 -65.5 -265t-96 -190t-137.5 -117t-188 -42q-61 0 -105.5 10t-75 28.5t-49 44.5t-30.5 56q-20 46 -20 101q0 15 2 31z" />
<glyph unicode="J" horiz-adv-x="1110" d="M63 371q14 86 57.5 145t96.5 91t109 40q20 3 38 3q32 0 59 -9q42 -14 61 -49q10 -18 10 -40t-9 -48q-25 -68 -25 -118q0 -21 4 -38q15 -61 54 -61q51 0 91 87t73 273q12 63 26.5 146.5t30 169.5t30.5 171t28 156q8 47 23.5 77t39 45t55 20.5t72.5 5.5h8q131 0 182 -60 q38 -46 38 -119q0 -27 -5 -59q-8 -47 -22 -128t-28.5 -164t-28 -155.5t-19.5 -105.5q-35 -203 -91 -337t-137 -214t-186.5 -112.5t-238.5 -32.5q-104 0 -186.5 23.5t-135.5 73.5t-73 130q-11 40 -11 89q0 48 10 104z" />
<glyph unicode="K" horiz-adv-x="1183" d="M33 197q18 104 43.5 248.5t53.5 297t52.5 296t42.5 245.5q16 98 64.5 126t130.5 28h8q132 0 182 -64q38 -48 37 -122q0 -30 -6 -64l-63 -367q47 14 84.5 68.5t67.5 120t51.5 129t33.5 98.5q20 55 45 94t68 61.5t109.5 33t168.5 10.5q70 0 104 -12t38 -38q1 -5 0 -11 q0 -23 -16 -56q-20 -41 -54 -98q-59 -94 -108.5 -158t-103.5 -110t-120.5 -81.5t-157.5 -72.5q63 11 111 11q21 0 39 -2q60 -7 90 -48q18 -29 25.5 -77t7.5 -102.5t-2 -109.5q-1 -22 -1 -42q0 -31 2 -58q3 -45 14 -73t40 -28q25 0 48.5 15.5t46 55.5t43 105.5t38.5 167.5 q10 61 37 86t53 22q28 -4 44 -32q11 -19 11 -47q0 -14 -3 -29q-53 -311 -172 -462.5t-330 -151.5q-68 0 -122 22.5t-88 63.5q-34 42 -46 102q-6 28 -6 59q0 37 8 79q25 140 31 214q1 11 1 20q0 58 -30 85q-16 14 -55 12t-78 -10l-39 -225q-18 -102 -37.5 -183t-67.5 -135 q-47 -57 -104 -80.5t-131 -23.5q-70 0 -111 44q-28 30 -28 90q0 28 6 63z" />
<glyph unicode="L" horiz-adv-x="995" d="M22 52q-3 14 -3 32q-1 18 3 40q6 44 19 109l186 1057q8 47 24.5 77t40 46.5t56.5 22.5t74 6q136 0 188 -64q37 -45 37 -116q0 -29 -6 -62q-31 -172 -68.5 -328.5t-71.5 -280.5t-60.5 -206t-32.5 -102q96 88 166 127t124 46q17 2 34 2q32 0 56 -10q36 -14 67.5 -31.5 t57 -27.5t54.5 6q47 27 82.5 77t52.5 142q10 61 36.5 86t53.5 22q27 -4 43 -32q11 -19 11 -46q0 -14 -3 -30q-16 -92 -54 -195.5t-88 -192.5t-109.5 -152.5t-121.5 -73.5q-24 -5 -45 -5q-25 0 -47 7q-39 12 -69.5 33.5t-54 50.5t-46 52.5t-47 37.5t-57.5 10t-67 -33.5 t-70.5 -63.5t-79.5 -61.5t-94 -27.5h-78q-43 0 -65 12t-28 40z" />
<glyph unicode="M" horiz-adv-x="1550" d="M35 190q16 100 42.5 247t54.5 303.5t54.5 304t42.5 245.5q6 47 20.5 76t38 45t54.5 21.5t72 5.5q145 0 233 -57.5t144 -204.5q14 -39 32.5 -84t31.5 -102.5t17 -131.5q1 -19 2 -40q0 -59 -10 -130q20 96 51 169t64 130t66.5 102.5t64.5 86.5q53 74 95 123t83 79.5t88 44 t113 15.5h39q82 0 116 -27q23 -18 22 -67q0 -23 -5 -54q-16 -82 -36.5 -195.5t-42 -239.5t-44 -253t-41.5 -235q-4 -28 -4 -48q0 -17 3 -27q7 -22 36 -22q18 0 32.5 15.5t30 54.5t29.5 105.5t33 168.5q10 61 36.5 86t53.5 22q27 -4 43 -32q11 -19 11 -46q0 -14 -3 -30 q-27 -152 -62.5 -267.5t-90 -192t-130 -115.5t-184.5 -39q-59 0 -108 6t-86 27.5t-58.5 60.5t-21.5 107v12q-1 91 27 193q30 110 72 219.5t87 213t74 187.5q-82 -113 -182.5 -313.5t-192.5 -483.5q-20 -66 -50 -104.5t-62.5 -60t-67.5 -28.5t-66 -7t-61.5 7t-54.5 28 q-24 22 -38 60q-13 33 -12 83v14v72q0 122 -5 220q-7 126 -20 221t-32.5 165t-40.5 127q0 -84 10 -188q9 -102 12 -212q1 -26 1 -53q1 -83 -7 -167q-10 -110 -45 -205q-25 -68 -58.5 -107t-70 -60.5t-75.5 -27.5t-74 -6q-71 0 -89 42q-9 21 -9 59q0 37 8 89z" />
<glyph unicode="N" horiz-adv-x="1234" d="M35 190q10 66 25.5 155t34 189.5t37 207t36.5 206t33.5 188.5t27.5 154q6 47 20.5 76t37 45t53.5 21.5t72 5.5h39q66 -2 113.5 -15.5t84.5 -43t65.5 -79t53.5 -124.5q49 -152 77.5 -277t45 -226.5t24 -177t13.5 -128.5q3 72 3 136q1 83 -5 153q-10 124 -19 224 q-6 73 -6 138q0 24 1 48q3 85 40 169q29 68 63.5 107.5t71.5 61t74 28t74 6.5q69 0 115 -42q34 -31 34 -98q0 -23 -4 -51q-16 -100 -43 -246.5t-54.5 -303t-54 -303t-42.5 -244.5q-8 -47 -18.5 -77t-28 -46.5t-45 -21.5t-66.5 -5q-76 0 -127 3t-91 18.5t-77 49t-84 97.5 q-12 16 -24.5 67.5t-24.5 126t-25.5 163.5t-29 178.5t-35 173.5t-41.5 147q2 -84 13 -188q11 -102 18 -212q3 -55 3 -109.5t-3 -108.5q-6 -108 -41 -205q-25 -68 -59 -107t-70.5 -60.5t-75.5 -27.5t-74 -6q-72 0 -113 42q-28 29 -28 87q0 27 6 61z" />
<glyph unicode="O" horiz-adv-x="1122" d="M94 340q-2 30 -2 64q0 124 29 292q37 213 98.5 355.5t144 228.5t184 122t222.5 36t212 -36t143.5 -122t62.5 -228q2 -30 2 -64q0 -124 -29 -292q-37 -213 -98.5 -356t-144 -229t-186 -123t-224.5 -37t-210 37t-141.5 123t-62.5 229zM513 356q3 -43 17 -56t37 -13 q25 0 43.5 13t37 56t38 124t43.5 216q25 135 33 215q6 58 6 96q0 14 -1 26q-3 42 -17.5 55.5t-38.5 13.5q-23 0 -41.5 -13.5t-37 -55.5t-38 -122t-43.5 -215q-25 -135 -33 -216q-6 -59 -6 -98q0 -14 1 -26z" />
<glyph unicode="P" horiz-adv-x="1064" d="M33 190l172 973q27 150 97.5 212.5t174.5 62.5h178q164 0 270.5 -34t165 -96.5t69.5 -153.5q3 -27 3 -56q0 -69 -18 -152q-29 -131 -98.5 -226t-159.5 -152q-91 -58 -193 -74q-39 -6 -76 -7q-62 0 -120 17q-4 -23 -11.5 -66t-16.5 -92t-17.5 -96t-14.5 -80t-14 -63.5 t-25.5 -54t-45 -38t-70.5 -14.5h-107q-74 0 -118 42q-31 29 -31 90q0 26 6 58zM530 696q41 0 80 20.5t71 53.5t54.5 73t28.5 81q5 28 5 53q-1 37 -11 70q-18 55 -76 55q-20 0 -35.5 -3t-28 -15.5t-21.5 -37t-15 -67.5q-4 -18 -11.5 -64.5t-17.5 -95.5q-11 -57 -23 -123z" />
<glyph unicode="Q" horiz-adv-x="1155" d="M94 340q-2 30 -2 64q0 124 29 292q37 213 98.5 355.5t144 228.5t184 122t222.5 36t212 -36t143.5 -122t62.5 -228q2 -31 2 -64q0 -124 -29 -292q-27 -143 -76 -221t-102 -115q9 1 17 1q55 0 84 -35q22 -25 22 -79q0 -30 -6 -67l-10 -61q-10 -52 -10 -83v-12q3 -32 50 -32 q53 0 64 -41q2 -11 2 -23q0 -32 -20 -68q-27 -50 -92.5 -91t-161.5 -41q-113 0 -175.5 38.5t-84.5 98.5q-16 41 -18 87v15q0 40 7 90q-41 -49 -99 -76.5t-130 -27.5q-86 0 -157.5 36t-116 122t-54.5 229zM513 357q3 -42 17 -55t37 -13t42.5 13t38 55t38 123t43.5 216 q25 135 33 215q6 58 6 96q0 15 -1 26q-3 42 -18.5 55.5t-37.5 13.5q-23 0 -41.5 -13.5t-37 -55.5t-38 -122t-43.5 -215q-25 -135 -33 -216q-6 -59 -6 -97q0 -15 1 -26z" />
<glyph unicode="R" horiz-adv-x="1169" d="M33 197l194 1095q8 47 24.5 76t42 44t59.5 20.5t77 5.5h227q172 0 279.5 -29t165.5 -79q56 -50 72 -118q9 -39 10 -81q0 -32 -6 -66q-10 -61 -37 -120.5t-70 -110t-103.5 -86t-133.5 -52.5l-70 -20q45 5 82 5q44 0 80 -7q64 -12 94 -53q23 -35 25 -94.5t3 -116t12 -98.5 t52 -42q25 0 47.5 15.5t42 55.5t37.5 105.5t37 167.5q10 61 36.5 86t53.5 22q27 -4 43 -32q11 -19 11 -46q0 -14 -3 -30q-27 -156 -67.5 -270.5t-99 -191t-138.5 -114.5t-184 -38q-68 0 -122 22.5t-88 63.5q-34 42 -46 102q-6 28 -6 58q0 37 8 80q12 70 18 112.5t6 70.5 t-8 43t-24 32q-16 13 -48 13q-8 0 -18 -1q-46 -4 -86 -12q-6 -29 -9 -49.5t-6 -38t-5 -35t-7 -41.5q-18 -98 -37.5 -180t-66.5 -136q-47 -55 -95 -79.5t-120 -24.5t-113 44q-28 30 -28 90q0 28 6 63zM555 803q-1 -11 -1 -20q0 -15 4 -21q7 -10 32 -10q72 0 117 47t59 127 q6 34 6 61q0 49 -20 75q-30 40 -101 40q-25 0 -35 -7.5t-16 -35.5q-4 -20 -10 -53t-12.5 -70t-12.5 -73z" />
<glyph unicode="S" horiz-adv-x="1079" d="M53 289q14 86 57.5 140t97.5 84t112 34q13 1 25 1q42 0 76 -10q45 -14 67 -46q13 -18 13 -40q0 -16 -7 -34q-6 -19 -6 -39q0 -22 7 -44q13 -44 44 -46h4q31 1 57 27q28 28 31 71q1 10 1 19q0 57 -32 97q-37 46 -93 80.5t-120.5 68.5t-116.5 80q-54 46 -82 112 q-17 40 -17 94q0 34 7 74q18 102 71.5 182t130.5 134t172 82t198 28q100 0 185 -21.5t143 -65.5q56 -44 82 -113q15 -41 16 -91q0 -33 -7 -70q-16 -90 -55 -139q-39 -48 -88 -66q-34 -12 -69 -13q-17 0 -33 3q-52 8 -95 32t-69 58q-23 30 -24 61q0 5 1 9q4 31 -7 55.5 t-44 24.5q-30 0 -56 -28q-23 -24 -23 -61q0 -6 1 -12q4 -51 44 -89t97.5 -71.5t120 -70.5t112.5 -88t76 -122q15 -42 15 -93q0 -36 -8 -78q-23 -123 -76 -206t-131 -134t-175 -73.5t-204 -22.5q-236 0 -344 91q-87 73 -87 188q0 27 5 57z" />
<glyph unicode="T" horiz-adv-x="1122" d="M223 1268q16 94 47 132t105 38h940q74 0 93 -38q10 -21 10 -58q0 -31 -7 -74q-14 -76 -45 -121t-94 -55q-47 -8 -96 -8q-22 0 -42 1q-72 5 -130 15l-140 -793q-8 -47 -10 -75.5t-1 -48t2 -35t-3 -33.5q-8 -47 -53 -81t-150 -34q-74 0 -126 23.5t-81 78.5q-20 38 -20 91 q0 19 2 39q10 79 27 178l120 690q-63 -10 -138 -16q-23 -2 -44 -2q-50 0 -94 10q-57 10 -71 55q-7 23 -8 54q0 30 7 67z" />
<glyph unicode="U" horiz-adv-x="1257" d="M108 236q4 94 25 219l121 694q6 27 1 43t-13.5 30.5t-13.5 30t-1 41.5q10 57 71.5 100.5t172.5 43.5q135 0 187 -62q34 -40 33 -117q0 -41 -9 -92l-109 -616q-14 -78 -18 -130q-2 -23 -1 -42q0 -24 2 -41q5 -31 18.5 -44t33.5 -13q29 0 55.5 17t47.5 46q29 35 49 109.5 t37 167.5l2 20l114 645q4 23 11.5 49.5t27 49t57.5 38t101 15.5q126 0 182 -69q40 -49 40 -130q0 -33 -7 -72l-119 -669q-10 -63 -17 -106.5t-8 -70t7 -39t31 -12.5q25 0 44 14.5t35.5 53.5t32 106.5t33.5 169.5q10 61 36.5 86t53.5 22q27 -4 43 -32q11 -19 11 -46 q0 -14 -3 -30q-27 -152 -65.5 -265t-96 -190t-137.5 -117t-188 -42q-61 0 -105.5 10t-75 28.5t-49 44.5t-30.5 56q-18 39 -19 90q-27 -55 -65.5 -104t-83.5 -88t-96.5 -61.5t-102.5 -22.5q-109 0 -171 31.5t-89 93.5q-24 55 -24 136q1 11 1 22z" />
<glyph unicode="V" horiz-adv-x="1138" d="M136 588q1 228 61 561q6 27 1 42t-11.5 29.5t-10.5 30t0 41.5q4 27 28.5 53.5t62.5 47t86 33t104 12.5q135 0 185 -64q33 -42 33 -120q0 -41 -9 -91l-109 -610q-14 -78 -22.5 -141.5t-8.5 -108.5t12.5 -68.5t41.5 -23.5q33 0 62.5 69.5t54 177t43 237.5t28.5 250t11 214 v17q0 81 -9 116q-4 14 -4 28q0 36 28 64q38 40 98 50q17 3 36 2q46 0 97 -18q71 -26 125 -105.5t76 -215.5q9 -51 9 -113q0 -102 -23 -232q-25 -145 -92 -287.5t-163.5 -256.5t-215 -184.5t-245.5 -70.5q-109 0 -192 62.5t-126 203.5q-42 138 -42 359v10z" />
<glyph unicode="W" horiz-adv-x="1640" d="M174 579.5q0 229.5 59 569.5q6 27 1 42t-11 29.5t-10 30t0 41.5q10 55 79.5 100.5t180.5 45.5q135 0 185 -64q33 -41 33 -118q0 -41 -9 -93l-109 -610q-14 -78 -22 -141.5t-8 -108.5t12 -68.5t41 -23.5q33 0 59.5 69.5t46 177t33 237.5t19.5 250q4 90 4 165v49 q-2 94 -13 133q-4 16 -4 30q0 34 23 61q33 37 87 51q24 6 49 6q32 0 70 -10q66 -18 116 -72q52 -56 76 -154q12 -47 11 -105q0 -65 -14 -145q-6 -31 -13 -65.5t-18 -71.5q-18 -92 -35.5 -197.5t-26.5 -196.5q-7 -74 -7 -128v-23q2 -60 26 -61q33 0 59.5 67.5t48 173 t35 232.5t20.5 245q6 103 6 187v23q-1 92 -11 131q-4 15 -4 30q1 35 25 65q34 41 94 59q32 9 66 10q31 0 64 -8q71 -16 128 -78t89 -176q19 -69 19 -163q0 -61 -8 -132q-18 -178 -79.5 -344t-152.5 -295t-207 -207t-243 -78q-76 0 -115.5 60.5t-54.5 158.5 q-66 -98 -146.5 -158.5t-172.5 -60.5q-109 0 -194 59.5t-131 198.5t-46 368.5z" />
<glyph unicode="X" horiz-adv-x="1060" d="M-20 60q0 3 -1 6q0 30 24 78q26 52 73 122q27 39 62.5 90.5t74.5 108.5t81 119.5t85 124.5q-37 98 -80 201.5t-70 209.5q-26 98 -26 161q1 59 17 94q16 36 49.5 49.5t78.5 13.5q53 0 89 -9.5t62.5 -33t47 -63.5t43.5 -101q16 -36 15 -92q-1 -25 -3 -55q-10 -94 -61 -205 l6 8q63 94 85 163.5t36 92.5q63 104 104 163.5t84 89t99.5 36t152.5 6.5q66 0 96.5 -15.5t30.5 -52.5t-30.5 -98.5t-86.5 -151.5q-68 -109 -137.5 -214t-140.5 -208q18 -80 24 -155.5t13.5 -136t25 -97.5t58.5 -37q25 0 53 14.5t57 53.5t53.5 105.5t42.5 168.5q10 61 37 86 t54 22q26 -4 42 -32q11 -19 12 -47q0 -14 -3 -29q-53 -311 -176 -462.5t-308 -151.5q-55 0 -106 18.5t-85 67.5t-40 134q-1 12 -1 26q0 79 30 192q-39 -70 -70 -130t-70 -111q-45 -61 -75.5 -100.5t-65.5 -61t-86 -28.5t-135 -7q-72 0 -105.5 14t-35.5 46z" />
<glyph unicode="Y" horiz-adv-x="966" d="M202 1260q-1 24 -1 45q0 38 6 63q10 39 37.5 54.5t72.5 15.5q53 0 85 -6.5t53.5 -32t40 -79.5t47.5 -151q19 -61 19 -124q0 -15 -2 -29q-5 -78 -46 -176q57 100 78.5 172.5t36.5 97.5q66 117 107.5 182.5t85.5 98t101.5 40t153.5 7.5q66 0 97 -18q28 -16 28 -53 q0 -41 -34 -114q-32 -68 -89 -168q-49 -86 -96 -150.5t-87 -117.5t-67.5 -101t-37.5 -102l-35 -204q-16 -98 -37 -177t-66 -131q-47 -55 -105.5 -78.5t-129.5 -23.5q-109 0 -147 34q-31 27 -31 63q0 9 2 18q4 18 11 33.5t15 35t17.5 48t17.5 75.5l55 316q-20 45 -38.5 103 t-34 119.5t-28.5 123t-26 116.5q-23 106 -29 175z" />
<glyph unicode="Z" horiz-adv-x="1058" d="M68 154q14 68 56 152.5t91 164.5q41 66 96.5 135.5t114.5 139t117.5 134t105.5 119t77 93t34 59.5q-59 -31 -106.5 -40t-93.5 -15t-96 -20.5t-114 -57.5q-45 -30 -75 -30q-6 0 -12 1q-32 8 -42 45q-5 19 -5 44q0 22 4 48q9 56 34 112t62.5 105.5t86.5 71.5q51 24 88 24 q7 0 15 -1q42 -6 77 -26.5t72 -46.5t87 -37q23 -5 51 -5q33 0 73 7q72 13 181 71q82 43 134 44h3q50 0 64 -37q5 -13 4 -29q0 -33 -19 -83q-29 -74 -109 -180q-51 -68 -115.5 -143.5t-132 -153.5t-133 -152.5t-121 -140t-93.5 -116.5t-48 -80q85 66 149 90q62 23 111 23h5 q52 -1 90 -16t71 -32.5t61.5 -26t57.5 8.5q47 27 85 86t54 151q10 61 37 86t54 22q26 -4 42 -32q11 -19 12 -47q0 -14 -3 -29q-16 -92 -54.5 -195.5t-88.5 -192.5t-109.5 -152.5t-120.5 -73.5q-27 -5 -50 -5q-46 1 -79 19q-49 28 -86 65.5t-70 72t-82 34.5q-59 0 -106 -28.5 t-90 -64.5t-87 -64.5t-96 -28.5q-84 0 -108 43q-16 28 -16 66q-1 21 4 45z" />
<glyph unicode="[" horiz-adv-x="667" d="M32 70q3 90 22.5 219t49.5 307q27 154 50.5 266.5t50 192.5t58.5 131t78 85t107.5 52t145.5 33q104 18 155.5 -7.5t56.5 -68.5t-35 -93t-118 -81q-27 -10 -45 -58.5t-33.5 -119t-30 -156.5t-30.5 -172q-18 -102 -39.5 -204.5t-34 -183.5t-10.5 -134t29 -58 q61 -10 81.5 -49t5 -81t-61 -74.5t-115.5 -32.5q-98 0 -164 11t-106 42t-55 87.5t-12 146.5z" />
<glyph unicode="\" horiz-adv-x="985" d="M230 1282.5q3 60.5 23.5 94.5t56.5 46.5t77 12.5q39 0 79 -5.5t77 -34t72.5 -89t68.5 -170.5q6 -20 24.5 -86t42 -154t49 -186.5t49 -185.5t40 -151.5t20.5 -80.5q25 -92 18 -149.5t-35 -89t-71 -43t-88 -11.5q-39 0 -75.5 10t-70.5 37t-63 74t-49 119q-4 12 -20.5 76.5 t-39 155.5t-49 196.5t-50 200t-42 165t-24.5 92.5q-23 96 -20 156.5z" />
<glyph unicode="]" horiz-adv-x="667" d="M2 -110q0 42 33 81t96 49q29 4 49.5 57.5t36.5 134.5t31.5 183.5t32.5 204.5q14 86 30.5 172t25.5 156.5t7 119t-22 58.5q-68 31 -89.5 81t-2 93t79 68.5t157.5 7.5q119 -23 184.5 -56.5t87 -112.5t7 -219.5t-55.5 -371.5q-31 -176 -56.5 -306t-54 -220t-64.5 -146.5 t-86 -87.5t-121 -42t-169 -11q-70 0 -103.5 32.5t-33.5 74.5z" />
<glyph unicode="^" horiz-adv-x="847" d="M181.5 958q-19.5 43 17.5 101q125 195 241.5 287t198.5 92q51 0 99 -23.5t89 -61.5t72 -89.5t47 -106.5q20 -74 -7.5 -134t-76.5 -99t-105.5 -50.5t-90.5 15.5q-33 25 -44.5 76t-17.5 103t-15 94t-40 52q6 -27 2 -61.5t-18.5 -72.5t-36 -75.5t-50.5 -70.5 q-39 -43 -96 -51.5t-103 12t-65.5 63.5z" />
<glyph unicode="_" horiz-adv-x="772" d="M-13 -124q-1 34 5 71t18.5 70.5t50 59t110.5 41t198 15.5t191.5 -15.5t96 -41t29.5 -59t-6 -70.5t-19.5 -71t-51.5 -59.5t-109.5 -41t-196.5 -15.5t-191.5 15.5t-95 41t-29.5 59.5z" />
<glyph unicode="`" horiz-adv-x="692" d="M245.5 1309q-16.5 59 14.5 125q33 66 92.5 101.5t136.5 8.5q27 -8 71 -27.5t91 -47t92 -60.5t78 -63q14 -14 14.5 -39t-10 -49.5t-30 -44t-43.5 -21.5q-49 -6 -110.5 -5t-120 7t-106.5 14.5t-75 16.5q-78 25 -94.5 84z" />
<glyph unicode="a" horiz-adv-x="1196" d="M79 330q-1 22 -1 45q0 86 16 176q20 113 62.5 220.5t105 192.5t142 136t176.5 51q82 0 136 -55.5t79 -134.5q45 61 109.5 101t129.5 40q70 0 105 -16q35 -14 46 -46q7 -20 7 -50q0 -16 -2 -34q-6 -52 -19 -127l-45 -254q-16 -88 -25 -146t-9 -94t10 -50.5t33 -14.5 q27 0 50 15.5t42.5 54.5t38 105.5t37.5 168.5q10 61 36.5 86t52.5 22q28 -4 44 -32q11 -19 11 -47q0 -14 -3 -29q-27 -156 -69 -270.5t-103.5 -191t-146.5 -114.5t-197 -38q-76 0 -145.5 25.5t-106.5 89.5q-59 -72 -135 -118t-172 -46q-94 0 -156.5 51t-95.5 135.5 t-38 192.5zM510 421q-2 -23 -2 -42q0 -24 3 -41q5 -31 17.5 -44t32.5 -13q29 0 50.5 27.5t39 87t36 152.5t40.5 224q-10 18 -26.5 34.5t-45.5 16.5q-41 0 -70.5 -58t-56.5 -214q-14 -78 -18 -130z" />
<glyph unicode="b" horiz-adv-x="1101" d="M80 298q-2 28 -2 58q0 89 18 195l137 782q16 96 65.5 125t129.5 29h8q132 -1 182 -65q36 -46 36 -117q0 -32 -7 -68l-43 -240q55 66 125.5 110t142.5 44q109 0 165.5 -47t76.5 -126q13 -53 13 -117q1 -31 -3 -65q-10 -102 -28 -214q-4 -25 -10.5 -47.5t-10.5 -45.5 q47 10 85 41t48 84q10 55 37 80t53 23q24 -3 42 -29q12 -18 13 -46q0 -13 -3 -28q-12 -66 -44 -119t-78 -94t-103.5 -68.5t-118.5 -41.5q-78 -160 -204 -250t-304 -90q-137 0 -226.5 41t-136.5 117.5t-55 188.5zM506 264q13 -76 74 -76q35 0 66.5 28t53.5 116 q-61 25 -109 74t-71 102q-18 -113 -18 -185q0 -34 4 -59zM657 708q2 -56 25 -108.5t66 -75.5q16 76 27 143.5t11 115.5t-15 72q-10 16 -30 16q-9 0 -20 -3q-35 -10 -51 -57q-14 -42 -13 -91v-12z" />
<glyph unicode="c" horiz-adv-x="1042" d="M94 288q-13 56 -13 121q0 66 13 142q29 164 88.5 278.5t139 186t179 103.5t208.5 32q113 0 192.5 -33t125.5 -93q45 -60 59 -144q6 -35 6 -73q0 -53 -11 -112q-14 -78 -52 -131t-87 -83q-50 -30 -102 -40q-25 -5 -47 -5q-25 -1 -47 5q-42 10 -66 40q-18 22 -18 52 q0 11 2 23q8 45 17 102.5t11 107.5v19q0 37 -6 65q-8 34 -33 34q-47 0 -75.5 -92t-55.5 -242q-13 -68 -12 -123q0 -64 16 -110q32 -88 94 -120q45 -24 100 -25q21 0 44 4q82 13 161 69.5t140 149.5t84 218q10 61 36.5 86t53.5 22q27 -4 43 -32q11 -19 11 -46q0 -14 -3 -30 q-25 -147 -93.5 -269t-165.5 -210t-218 -136t-252 -48q-119 0 -216 38t-161 112.5t-90 186.5z" />
<glyph unicode="d" horiz-adv-x="1200" d="M71 318q1 110 23 233q20 123 57 232.5t94.5 191.5t138.5 129t191 47q68 0 115 -39t76 -98l55 319q15 80 57 118q40 36 132 36h10q136 -1 188 -63q34 -40 34 -118q0 -41 -9 -92l-113 -639q-16 -93 -23 -153q-5 -42 -5 -71q0 -13 1 -23q3 -34 14 -46t32 -12q27 0 50 15.5 t42.5 54.5t38 105.5t37.5 168.5q10 61 36.5 86t52.5 22q28 -4 44 -32q11 -19 11 -47q0 -14 -3 -29q-27 -156 -69 -270.5t-103.5 -191t-146.5 -114.5t-197 -38q-37 0 -76 6t-75 19.5t-64.5 36t-46.5 55.5q-57 -74 -132 -120t-173 -46q-111 0 -175 47t-92 129q-28 79 -27 184 v7zM504 421q-2 -23 -2 -42q0 -24 3 -41q5 -31 17.5 -44t32.5 -13q31 0 51.5 27.5t39 87t36.5 152.5t41 224q-10 18 -27.5 34.5t-46.5 16.5q-41 0 -70.5 -58t-56.5 -214q-14 -78 -18 -130z" />
<glyph unicode="e" horiz-adv-x="1042" d="M98 575q31 158 90.5 267.5t139.5 178.5t177 99.5t204 30.5q84 0 159.5 -24.5t129.5 -70.5q56 -46 84 -112q21 -48 21 -104q0 -20 -3 -41q-12 -104 -64.5 -190.5t-134.5 -142.5q-83 -56 -187 -76q-43 -8 -87 -8q-64 0 -133 17q-1 -13 -1 -25q-1 -82 35 -130 q40 -56 106 -72q28 -7 59 -7q40 -1 86 11q81 20 156 77.5t132 148t80 212.5q10 61 36.5 86t53.5 22q27 -4 43 -32q11 -19 11 -46q0 -14 -3 -30q-29 -158 -100.5 -279.5t-168.5 -204.5t-212 -128t-227 -49h-23q-99 1 -189 31q-100 34 -170 112q-68 78 -98 197q-15 61 -16 134 q0 69 14 148zM516 543q21 -7 39 -8q22 0 43 11q37 19 62.5 57t40 87t15.5 92v5q0 39 -14 68q-14 30 -45 30t-52 -35t-38.5 -87t-30 -111.5t-20.5 -108.5z" />
<glyph unicode="f" horiz-adv-x="690" d="M-143 -188q2 49 17 84.5t37.5 52t43.5 -1.5q8 -8 14 -8q17 0 26 47q13 67 40 217l158 899q20 111 64 184.5t104.5 118.5t133 63.5t146.5 18.5q135 0 191 -63q42 -48 42 -126q0 -23 -4 -48q-16 -113 -101 -271t-230 -348q-9 -33 -9 -59q0 -39 19 -64q33 -43 83 -46h8 l92 34q50 36 65 118q10 61 36.5 86t53 22t43.5 -32q11 -19 11 -47q0 -13 -3 -29q-16 -94 -53 -158.5t-83 -104.5t-96.5 -57.5t-95.5 -17.5t-79.5 15.5t-47.5 40.5l-37 -234q-25 -139 -58.5 -231t-80.5 -147.5t-109.5 -78t-144.5 -22.5q-78 0 -121 29.5t-60 72.5 q-15 38 -15 81v10zM586 918l66.5 133t50 111t18.5 77t-29 29q-16 0 -28.5 -18.5t-21.5 -45t-14 -55.5t-10 -47z" />
<glyph unicode="g" horiz-adv-x="1167" d="M12 -59q16 80 69.5 134t111.5 70q-39 23 -65 57t-37 86q-9 44 -9 103v23q2 73 20 176q23 123 59 226.5t91 178t135 115.5t188 41q84 0 138.5 -55.5t77.5 -134.5q43 61 108 102q62 39 127 39h6q68 0 102.5 -15.5t45.5 -46.5q8 -21 8 -51q0 -15 -2 -33q-6 -53 -19 -127 l-84 -477q66 18 117 79t74 183q10 61 36.5 86t53.5 22t43 -32q11 -18 11 -46q0 -14 -3 -30q-18 -104 -55 -183t-87 -137t-111.5 -97t-131.5 -64q-35 -106 -89 -199.5t-134 -163t-185.5 -110.5t-240.5 -41q-111 0 -185.5 27.5t-118.5 74t-59 103.5q-10 35 -10 70q0 23 4 47z M381 34q-1 -6 -1 -13q0 -15 6 -29q9 -19 30 -31q17 -10 42 -10h9q59 4 100 48t56 103q-23 6 -52.5 13.5t-61.5 8.5t-60.5 -8.5t-47.5 -35.5q-16 -23 -20 -46zM519 412q9 -60 50 -60q29 0 48.5 16.5t36 62.5t32.5 128t39 213q-10 18 -27.5 34.5t-46.5 16.5q-78 0 -121 -233 q-14 -81 -14 -135q0 -24 3 -43z" />
<glyph unicode="h" horiz-adv-x="1114" d="M35 199l198 1134q16 96 64.5 125t130.5 29h8q132 -1 182 -65q36 -46 36 -117q0 -32 -7 -68l-41 -238q53 66 127 109t162 43q109 0 163 -43t68 -123q5 -31 5 -67q1 -58 -13 -126q-22 -112 -65 -251q-27 -87 -39 -139q-11 -47 -12 -75v-7q2 -30 15 -40t38 -10t48 14.5 t43.5 53.5t39 106.5t37.5 169.5q10 61 36.5 86t52.5 22q28 -4 44 -32q11 -19 11 -47q0 -14 -3 -29q-27 -156 -68 -270.5t-101 -191t-144 -114.5t-197 -38q-68 0 -126 18q-58 20 -90 78q-30 55 -30 154v12q2 108 58 289q44 145 44 206v7q-3 59 -57 59q-29 0 -50 -16t-38 -35 l-61 -350q-18 -102 -38 -182t-65 -134q-47 -57 -105 -81.5t-130 -24.5t-112 44q-26 29 -26 87q0 30 7 68z" />
<glyph unicode="i" horiz-adv-x="612" d="M52 271q7 73 20 141l57 323q27 147 96.5 210t198.5 63q49 0 83 -7.5t52.5 -29t22.5 -60.5q1 -9 1 -20q0 -34 -10 -80l-55 -313q-16 -102 -16 -154q0 -12 1 -22q5 -50 48 -52q25 0 48.5 14.5t44 53.5t38.5 106.5t37 169.5q10 61 36.5 86t53.5 22q27 -4 43 -32 q11 -19 11 -46q0 -14 -3 -30q-53 -305 -173 -456.5t-337 -157.5q-125 0 -190.5 40t-89.5 99q-20 46 -20 101q0 15 2 31zM225 1282q16 86 81 145.5t171 59.5q111 1 153 -59q31 -43 31 -101q0 -22 -4 -45q-16 -84 -79.5 -143.5t-174.5 -59.5q-106 -1 -150 59q-32 44 -32 101 q0 21 4 43z" />
<glyph unicode="j" horiz-adv-x="542" d="M-139 -204v13q0 65 33 133q38 76 116 124l131 745q12 61 28.5 100t42.5 60.5t62.5 29t85.5 7.5q129 0 178 -62q31 -41 31 -116q0 -42 -10 -95l-80 -448q59 53 105.5 130t64.5 197q10 61 37 86t52.5 22t43.5 -32q12 -19 12 -48q0 -13 -3 -28q-35 -205 -130.5 -352 t-226.5 -231q-16 -96 -42.5 -172t-69.5 -129.5t-107.5 -82t-157.5 -28.5q-96 0 -144 52.5t-52 124.5zM39 -211q8 -9 21 -9q7 0 16 3q25 8 27.5 23.5t-4.5 33t-18 36t-13 36.5q-23 -12 -33 -37q-9 -23 -9 -44q0 -27 13 -42zM224 1204q-3 17 -3 35q0 21 4 43q16 86 80 145.5 t172 59.5q111 0 153 -59q30 -43 30 -99q0 -22 -5 -47q-16 -84 -78.5 -143.5t-173.5 -59.5q-53 0 -91 16.5t-59.5 44t-28.5 64.5z" />
<glyph unicode="k" horiz-adv-x="1116" d="M33 197l200 1134q16 98 65.5 127t129.5 29h8q134 -1 184 -65q36 -46 36 -117q0 -32 -7 -68l-102 -582q29 6 56.5 35t50 67t42 77.5t31.5 66.5q31 63 58.5 102t67.5 61.5t98.5 31t152.5 8.5q63 0 94 -14q32 -14 32 -43q0 -27 -22 -65q-22 -40 -61 -93q-41 -55 -90 -98 t-100.5 -77t-99.5 -58.5t-87 -41.5q24 2 46 2q28 0 53 -3q46 -5 77 -42q25 -31 30 -82t10 -99t17.5 -84t53.5 -36q25 0 47 15.5t42.5 55.5t39 105.5t37.5 167.5q10 61 36.5 86t52.5 22q28 -4 44 -32q11 -19 11 -47q0 -14 -3 -29q-27 -156 -68 -270.5t-101 -191t-144 -114.5 t-197 -38q-138 0 -202 66q-47 48 -47 135q0 33 7 71q12 70 18.5 117t7.5 78t-5 47t-19 23q-20 10 -42.5 6t-47.5 -13l-18 -108q-18 -100 -37.5 -181t-67.5 -137q-47 -57 -105 -80.5t-130 -23.5t-112 44q-27 30 -27 90q0 28 6 63z" />
<glyph unicode="l" horiz-adv-x="614" d="M52 271q7 73 20 141l161 923q4 23 12.5 49.5t28 49t57.5 38t101 15.5q124 -1 180 -69q39 -48 40 -129q0 -33 -7 -72l-127 -719q-16 -102 -16 -154q0 -12 1 -22q5 -50 48 -52q25 0 48.5 14.5t45 53.5t39.5 106.5t37 169.5q10 61 36.5 86t53.5 22q27 -4 43 -32 q11 -19 11 -46q0 -14 -3 -30q-53 -305 -174 -456.5t-338 -157.5q-125 0 -190.5 40t-89.5 99q-20 46 -20 101q0 15 2 31z" />
<glyph unicode="m" horiz-adv-x="1626" d="M31 106q-2 14 -2 30q0 28 6 63l131 749q16 98 68.5 126t132.5 28q70 0 113.5 -27.5t66.5 -75.5q55 66 124.5 109t141.5 43q119 0 179.5 -54.5t80.5 -148.5q51 86 141.5 144.5t190.5 58.5q109 0 163 -43t68 -123q5 -31 5 -67q1 -58 -13 -126q-22 -112 -65 -251 q-27 -87 -39 -139q-12 -49 -12 -77q0 -33 14 -45q14 -10 39 -10t48 14.5t43.5 53.5t39 106.5t37.5 169.5q10 61 36.5 86t52.5 22q28 -4 44 -32q11 -19 11 -47q0 -14 -3 -29q-27 -156 -68 -270.5t-101 -191t-144 -114.5t-197 -38q-68 0 -126 18q-58 20 -90 78q-30 55 -30 154 v12q2 108 58 289q44 145 44 206v7q-3 59 -57 59q-20 0 -36.5 -9t-30.5 -21q-2 -14 -4 -34t-9 -54l-94 -541q-6 -29 -18.5 -58.5t-35 -53t-56 -38t-82.5 -14.5q-135 0 -179 62q-28 39 -28 111q0 43 10 99l55 320q20 112 20 166v13q-3 52 -50 52q-16 0 -31.5 -12t-26.5 -31v-8 l-61 -350q-18 -102 -37.5 -182t-65.5 -134q-47 -57 -106 -81.5t-131 -24.5q-35 0 -63.5 10t-47 34t-24.5 62z" />
<glyph unicode="n" horiz-adv-x="1114" d="M31 106q-2 14 -2 30q0 28 6 63l131 749q16 98 68.5 126t130.5 28q86 0 133 -42t63 -108q27 43 64 79t80 62.5t91 42t97 15.5q109 0 163 -43t68 -123q5 -31 5 -67q1 -58 -13 -126q-22 -112 -65 -251q-27 -87 -39 -139q-12 -49 -12 -77q0 -33 14 -45q14 -10 39 -10t48 14.5 t43.5 53.5t39 106.5t37.5 169.5q10 61 36.5 86t52.5 22q28 -4 44 -32q11 -19 11 -47q0 -14 -3 -29q-27 -156 -68 -270.5t-101 -191t-144 -114.5t-197 -38q-68 0 -126 18q-58 20 -90 78q-30 55 -30 154v12q2 108 58 289q44 145 44 206v7q-3 59 -57 59q-27 0 -48 -15t-38 -34 v-2l-61 -350q-18 -102 -36.5 -182t-64.5 -134q-47 -57 -106 -81.5t-131 -24.5q-35 0 -63.5 10t-47 34t-24.5 62z" />
<glyph unicode="o" horiz-adv-x="1097" d="M79 298q-2 25 -2 52q0 92 19 201q31 174 93.5 289.5t142.5 184.5t170 97.5t176 28.5q154 0 249 -47t139 -133q43 -84 43 -204v-5q-1 -123 -38 -273q47 10 85 41t48 84q10 55 37 80t53 23q24 -3 42 -29q12 -18 13 -46q0 -13 -3 -28q-12 -66 -44 -119t-78 -94t-103.5 -68.5 t-119.5 -41.5q-78 -160 -203.5 -250t-303.5 -90q-137 0 -225.5 41t-135.5 117.5t-54 188.5zM502 264q12 -76 73 -76q35 0 67 28t54 116q-61 25 -109 74t-71 102q-18 -115 -19 -187q1 -33 5 -57zM653 708q2 -56 24.5 -108.5t65.5 -75.5q16 76 27.5 143.5t11.5 115.5t-15 72 q-10 16 -30 16q-9 0 -20 -3q-35 -10 -51 -57q-14 -42 -13 -91v-12z" />
<glyph unicode="p" horiz-adv-x="1165" d="M-31 -184l197 1132q8 49 25.5 79t43 46.5t59.5 23.5t75 7q76 0 118.5 -35t65.5 -88q51 78 126 124t161 46q109 0 175 -41t97 -118t31 -188.5t-25 -250.5q-6 -39 -16 -83t-20.5 -87t-24 -84t-25.5 -72q47 23 87 65t71 94t52.5 111.5t31.5 116.5q10 61 36.5 86t53.5 22 t43 -32q11 -18 11 -46q0 -14 -3 -30q-29 -162 -93.5 -284.5t-149.5 -205.5t-183 -125q-96 -41 -191 -41h-4q-98 1 -186 46t-151 135l-19 -98q-16 -100 -36.5 -181t-65.5 -134q-47 -59 -106.5 -83t-133.5 -24q-70 0 -108 44q-25 30 -25 89q0 29 6 64zM514 396v-17 q0 -47 9 -71q11 -27 40 -27q20 0 37.5 13t33 45t30 84t28.5 130t18 129q3 24 3 44q0 22 -3 38q-5 31 -18.5 44t-34.5 13q-29 0 -50 -15t-38 -32q-23 -131 -38 -224t-17 -154z" />
<glyph unicode="q" horiz-adv-x="1099" d="M73 318q1 110 23 235q25 139 63 250.5t96 188.5t139 118t190 41q84 0 142 -46t83 -124q41 53 98.5 88t130.5 35q39 0 71 -7t51.5 -23.5t25.5 -46.5q3 -13 3 -29q0 -22 -5 -50l-101 -563q43 31 75 86t48 143q10 61 37 86t53.5 22t43.5 -32q11 -19 11 -47q0 -13 -3 -29 q-31 -176 -111 -282.5t-190 -161.5l-23 -129q-16 -100 -36.5 -181t-63.5 -134q-47 -59 -106.5 -83t-131.5 -24q-35 0 -63.5 10.5t-47 34t-24.5 60.5q-2 15 -2 31q0 27 6 61q6 41 18.5 115.5t28.5 156.5q-43 -57 -104.5 -96t-135.5 -39q-109 0 -172 47t-90 128 q-27 78 -27 183v7zM502 423q-2 -23 -2 -42q0 -24 3 -42q5 -32 17.5 -45t32.5 -13q31 0 52.5 27.5t40 88t36.5 153.5t41 224q-12 16 -28.5 31.5t-47.5 15.5q-20 0 -37.5 -13t-33 -44t-28.5 -82t-28 -129q-14 -78 -18 -130z" />
<glyph unicode="r" horiz-adv-x="823" d="M106 614q8 47 17.5 94.5t19.5 94.5q-27 31 -36 78q-4 21 -4 44q0 27 6 56q6 37 22 69.5t42 58.5t58.5 41t71.5 15q70 0 72 -52v-6q0 -50 -33 -122q47 12 92 38t91 49q45 24 95 38q29 8 61 8q22 0 46 -4q68 -12 99.5 -49t33.5 -105v-10q0 -66 -24 -162q-26 -102 -76 -247 q-29 -87 -42 -139q-11 -46 -12 -73q0 -5 1 -9q2 -30 16 -40t39 -10t48.5 14.5t43.5 53.5t38.5 106.5t37.5 169.5q10 61 36.5 86t53.5 22q27 -4 43 -32q11 -19 11 -46q0 -14 -3 -30q-27 -156 -67.5 -270.5t-101 -191t-144.5 -114.5t-197 -38q-68 0 -127 18q-59 20 -90 78 q-26 48 -26 130q0 18 2 36q6 108 69 287q49 139 59 209q3 24 3 43q-1 35 -13 49q-9 11 -25 10q-15 0 -35 -10q-42 -20 -99 -62l-31 -174q-6 -43 -33 -65.5t-53 -23.5q-28 -1 -46 21q-13 15 -12 42q0 12 2 26z" />
<glyph unicode="s" horiz-adv-x="940" d="M66 224q-4 31 -3 66q0 71 15 159l78 436q10 63 53 111t99.5 81t117.5 48.5t110.5 15.5t77 -16.5t15.5 -49.5q-9 -26 -9 -52q0 -25 8 -50q17 -51 53 -104.5t82 -111t84 -119.5q39 -62 59 -134q12 -41 12 -86q0 -32 -7 -66q-6 -33 -18 -70.5t-35 -68.5q31 14 59.5 55 t54 96.5t45 121t30.5 128.5q10 61 36.5 86t52.5 22q28 -4 44 -32q11 -19 11 -47q0 -14 -3 -29q-27 -150 -83 -271.5t-144.5 -208.5t-205 -134t-261.5 -47q-133 0 -223.5 28.5t-141.5 89t-63 153.5zM236 238q28 -68 114 -68q49 0 95.5 39t56.5 102q5 27 5 52q1 39 -11 73 q-18 58 -52 112t-77 110.5t-80 123.5l-51 -311q-15 -83 -14 -141q0 -58 14 -92z" />
<glyph unicode="t" horiz-adv-x="614" d="M52 271q7 73 20 141l80 465h-19q-43 -1 -51 35q-4 18 -4 37t4 40q6 43 25.5 79t66.5 36h21q4 20 5 35.5t5 27.5q2 12 6 25q10 57 43 102t80 78t104.5 50.5t116.5 17.5q75 0 97 -34q13 -20 13 -57q0 -26 -6 -59q-4 -27 -10 -55q-4 -27 -10 -59.5t-12 -71.5h51q39 0 46 -36 q3 -17 3 -35q0 -21 -4 -44q-8 -41 -26.5 -76.5t-59.5 -35.5h-53l-66 -379q-16 -102 -16 -154q0 -12 1 -22q5 -50 48 -52q25 0 48.5 14.5t45 53.5t39.5 106.5t37 169.5q10 61 36.5 86t53.5 22q27 -4 43 -32q11 -19 11 -46q0 -14 -3 -30q-53 -305 -174 -456.5t-338 -157.5 q-125 0 -190.5 40t-89.5 99q-20 46 -20 101q0 15 2 31z" />
<glyph unicode="u" horiz-adv-x="1181" d="M75 318q5 110 27 235l48 262q4 27 -0.5 42t-11.5 29.5t-11 30t0 41.5q10 55 70.5 100.5t171.5 45.5q135 0 184 -64q32 -41 32 -117q0 -42 -10 -94l-49 -276q-14 -78 -17 -130q-1 -22 -1 -41q0 -25 2 -43q4 -32 17.5 -45t33.5 -13q18 0 33.5 6t30.5 16q4 29 8 55.5t8 53.5 l88 503q8 43 18.5 78t33 59.5t61.5 38t102 13.5q80 0 126 -22.5t65.5 -61.5t19.5 -93.5t-12 -115.5l-56 -313q-16 -102 -16 -154q0 -12 1 -22q5 -50 48 -52q25 0 48.5 14.5t44 53.5t39 106.5t36.5 169.5q10 61 37 86t53 22q28 -4 44 -32q11 -19 11 -47q0 -14 -3 -29 q-53 -305 -173 -456.5t-337 -157.5q-125 0 -190.5 40t-90.5 99q-59 -78 -136 -132t-157 -54q-109 0 -169 47q-59 47 -83 128q-19 67 -20 153q0 18 1 37z" />
<glyph unicode="v" horiz-adv-x="1093" d="M100 389q-1 26 -1 54q0 154 40 372q4 27 0 42t-11 29.5t-11 30t0 41.5q10 55 70.5 100.5t170.5 45.5q134 0 184 -64q32 -41 33 -117q0 -42 -10 -94l-49 -276q-14 -78 -22.5 -141.5t-8.5 -108.5t12.5 -68.5t41.5 -23.5q33 0 58.5 45t42.5 115.5t27.5 156.5t14.5 169 q2 47 2 90q0 33 -1 63q-3 70 -13 108q-4 16 -4 30q0 36 24 64q34 40 88 55q29 8 60 8q28 0 60 -7q64 -14 116 -70q50 -56 74 -158q11 -46 11 -102q0 -70 -16 -157q-4 -25 -10 -50.5t-12 -50.5q20 -8 43.5 -4t43 16.5t35 34t19.5 47.5q10 61 37 86t53 22q28 -4 44 -32 q11 -18 10 -45q0 -15 -3 -31q-12 -68 -46.5 -121t-84 -89.5t-106.5 -55t-115 -18.5q-37 -80 -87 -148.5t-112.5 -119t-139.5 -80t-165 -29.5q-109 0 -194.5 38t-135 134t-57.5 264z" />
<glyph unicode="w" horiz-adv-x="1585" d="M100 389q-1 26 -1 54q0 154 40 372q4 27 0 42t-11 29.5t-11 30t0 41.5q10 55 70.5 100.5t170.5 45.5q134 0 184 -64q32 -41 33 -117q0 -42 -10 -94l-49 -276q-14 -78 -22.5 -141.5t-8.5 -108.5t12.5 -68.5t41.5 -23.5q33 0 55 45t35.5 115.5t18.5 156.5q4 72 4 141v28 q-1 83 -7 153t-16 108q-4 16 -4 30q-1 36 23 64q34 40 90 55q29 8 59 8q29 0 61 -7q64 -14 115 -70t75 -158q11 -46 10 -102q0 -70 -16 -157q-6 -37 -14 -74t-18 -72q-10 -57 -17.5 -105t-7.5 -84t10.5 -55.5t32.5 -19.5q33 0 55.5 45t37 115.5t20.5 156.5t6 169t-5.5 152.5 t-15.5 108.5q-4 15 -4 30q0 36 24 64q34 40 89 55q28 8 59 8q28 0 60 -7q64 -14 116 -70t76 -158q11 -46 10 -102q0 -70 -16 -157l-16 -82q20 -18 46.5 -21.5t52.5 8t44.5 34t24.5 54.5q10 61 36.5 86t53.5 22q26 -4 42 -32q11 -19 12 -47q0 -14 -3 -29q-12 -72 -50 -127 t-90.5 -92t-113.5 -54q-45 -13 -91 -13q-16 0 -32 2q-35 -80 -80 -148.5t-104.5 -119t-133 -80t-161.5 -29.5q-72 0 -116 33.5t-66 87.5q-59 -55 -136 -88t-172 -33q-109 0 -194.5 38t-135 134t-57.5 264z" />
<glyph unicode="x" horiz-adv-x="991" d="M5 45q5 25 35 62.5t73 93.5q18 20 54 65t82 101.5t96 117t95 115.5q-16 92 -41.5 146.5t-52.5 61.5q-4 1 -7 1q-23 0 -47 -40q-26 -46 -44 -155q-6 -43 -33 -65.5t-53 -23.5q-28 -1 -46 21q-13 15 -12 42q0 12 2 26q14 80 29 166t48.5 158t97 119t176.5 47q55 0 94 -14.5 t67.5 -41t49 -62.5t37.5 -79q25 45 48 81t58 61.5t83 40t122 14.5q63 0 93 -9.5t30 -34t-28 -68.5t-79 -113q-51 -68 -115.5 -138.5t-128.5 -136.5q8 -66 13.5 -126t13.5 -106t24.5 -73t51.5 -27q25 0 53.5 14.5t57 53.5t53 105.5t43.5 168.5q10 61 36.5 86t53.5 22 q26 -4 42 -32q11 -19 12 -47q0 -14 -3 -29q-53 -311 -176 -462.5t-307 -151.5q-51 0 -90 11.5t-70 41t-54.5 79.5t-41.5 130q-43 -59 -75 -107.5t-70 -82t-92 -53t-140 -19.5q-71 0 -97 10q-22 8 -22 27q0 4 1 8z" />
<glyph unicode="y" horiz-adv-x="1136" d="M12 -59q16 80 69.5 135t111.5 69q-39 23 -65 57t-37 86q-9 44 -9 103v23q2 73 20 176l45 225q4 27 -1 42t-12 29.5t-12 30t-1 41.5q10 55 72.5 100.5t171.5 45.5q135 0 185 -64q32 -41 32 -118q0 -41 -9 -93l-43 -239q-14 -81 -14 -135q0 -24 3 -43q9 -60 50 -60 q31 0 50.5 19.5t36 67.5t31.5 130t38 205l10 57q12 74 24.5 126.5t36 84t63.5 47t108 15.5q45 0 87 -16.5t70.5 -55.5t38.5 -102q4 -24 4 -52q0 -46 -10 -104q-14 -78 -27 -151q-10 -63 -22 -134t-23 -124q55 25 97.5 84t60.5 165q10 61 37 86t53.5 22t42.5 -32 q11 -18 11 -45q0 -14 -3 -31q-35 -197 -128 -306t-222 -163q-35 -109 -89 -204t-134 -166.5t-186.5 -113.5t-243.5 -42q-111 0 -185.5 27.5t-118.5 74t-59 103.5q-10 35 -10 70q0 23 4 47zM385 -8q17 -39 72 -39h10q31 2 56.5 15.5t46 34t32.5 44t12 43.5q-23 0 -52.5 8 t-57.5 12q-13 3 -26 3q-15 0 -30 -3q-28 -6 -49 -30q-21 -29 -21 -56q0 -16 7 -32z" />
<glyph unicode="z" horiz-adv-x="1058" d="M106 614q14 78 32 157t45.5 146.5t67.5 116.5t99 70q42 15 75 16q17 0 31 -4q42 -12 75.5 -35.5t68.5 -49t82 -33.5q12 -2 26 -1q38 -1 88 15q68 22 171 92q61 43 105 45h6q40 -1 62 -27q24 -28 27 -80q1 -9 1 -18q0 -44 -16 -96q-19 -62 -60 -130.5t-105 -129.5 q-31 -29 -79 -57.5t-103 -57.5t-110.5 -58.5t-98.5 -58.5q-44 -30 -68 -60q-18 -23 -18 -46q0 -8 2 -15q82 82 144.5 114t109.5 33h5q44 0 78 -18q36 -18 65.5 -38.5t56 -33t55.5 4.5q47 27 85 86t54 151q10 61 37 86t54 22q26 -4 42 -32q11 -19 12 -47q0 -14 -3 -29 q-16 -92 -54.5 -195.5t-88.5 -192.5t-109.5 -152.5t-120.5 -73.5q-24 -5 -45 -5q-25 0 -47 7q-39 12 -70 33.5t-54.5 50.5t-46 52.5t-47 37.5t-57.5 10t-66.5 -33.5t-70.5 -63.5t-80 -61.5t-94 -27.5q-84 0 -116 47q-25 37 -25 90q0 13 2 28q8 71 51 153.5t111 152.5 q51 53 119.5 102.5t132 93.5t109.5 80.5t50 65.5q-78 -59 -138 -80.5t-106 -23.5h-20q-34 0 -58 5q-32 7 -55.5 5t-39 -23.5t-25.5 -81.5q-8 -49 -34 -69.5t-52 -18.5t-44 26q-13 18 -14 43q0 9 2 19z" />
<glyph unicode="{" horiz-adv-x="686" d="M98 557q6 37 34 69.5t75 49.5q43 12 62.5 48t30.5 86t22.5 110.5t37 124t73.5 125t134 114.5q94 57 155.5 59.5t85 -31.5t6.5 -92.5t-81 -117.5q-49 -45 -68.5 -93t-24.5 -97.5t-2 -97.5t-1 -93t-19.5 -85t-58.5 -73q33 -35 36 -82t-10.5 -99t-34 -107.5t-33.5 -107.5 t-10 -99.5t38 -81.5q41 -43 35.5 -89.5t-39 -78t-86 -38.5t-107.5 30q-82 57 -116.5 121.5t-41 129t4 127t16.5 113.5t-2 88t-51 53q-35 14 -50.5 46t-9.5 69z" />
<glyph unicode="|" horiz-adv-x="454" d="M-1 -32q3 48 13 106l199 1128q12 72 29.5 125t45 88t69.5 52.5t106 17.5q63 0 95 -18.5t42 -55.5t4 -89t-18 -120q-8 -43 -22.5 -126t-33 -186.5t-39 -219t-40 -225t-36 -202.5t-26.5 -153q-10 -59 -23.5 -110.5t-39 -90.5t-66.5 -60.5t-108 -21.5q-66 0 -99 20.5 t-44 56.5t-8 84z" />
<glyph unicode="}" horiz-adv-x="686" d="M-12.5 -103.5q10.5 46.5 63.5 89.5q47 35 66.5 82t24.5 99t4 107.5t5.5 107.5t25 98t65.5 83q-31 33 -33 73t10 85t31.5 93t32 97.5t9.5 97.5t-36 93q-41 59 -38 117.5t38 92.5t96.5 31.5t134.5 -59.5q68 -53 93.5 -114.5t29.5 -125t-6 -124t-16 -110.5t1 -86t46 -48 q41 -16 56.5 -49t9 -70t-33 -68.5t-65.5 -46.5q-49 -16 -70.5 -53t-33 -88t-23.5 -113.5t-42 -127t-87.5 -129t-159.5 -121.5q-68 -37 -117 -30t-70.5 38.5t-11 78z" />
<glyph unicode="~" horiz-adv-x="716" d="M87 481.5q7 75.5 69 157.5q72 94 144.5 97t125.5 -77q23 -35 42 -32.5t50 39.5q53 68 108.5 75t86 -31t24.5 -114t-75 -170q-37 -49 -80 -74.5t-84 -31t-75 11t-52 51.5q-12 23 -19.5 36t-15.5 15t-20.5 -9t-30.5 -36q-53 -70 -103.5 -70t-76 43.5t-18.5 119z" />
<glyph unicode="&#xa1;" horiz-adv-x="514" d="M-350 125q10 57 32.5 138t52 163t60.5 156.5t58 119.5q29 49 63.5 75t67 26t57.5 -26.5t33 -80.5q4 -35 10 -104.5t7 -160.5t-3 -195.5t-22 -204.5q-16 -98 -65.5 -127t-129.5 -29q-141 -2 -192.5 64.5t-28.5 185.5zM-176 1112q16 84 76.5 143.5t171.5 59.5 q109 0 153.5 -59.5t28.5 -143.5q-16 -86 -78.5 -144.5t-171.5 -58.5t-152.5 59.5t-27.5 143.5z" />
<glyph unicode="&#xa2;" horiz-adv-x="1044" d="M79 333q-5 95 17 218q43 244 149.5 380t252.5 187q0 10 1 21.5t3 21.5q14 78 76.5 132.5t169.5 54.5q109 0 149.5 -54.5t26.5 -132.5q-4 -12 -7.5 -24.5t-7.5 -24.5q98 -41 155.5 -122t37.5 -191q-12 -72 -50 -119t-86 -73.5t-100.5 -35t-94.5 0t-67.5 31t-19.5 56.5 q16 92 8 128t-41 36q-41 0 -70.5 -61.5t-56.5 -210.5q-27 -150 -17.5 -210t50.5 -60q33 0 51.5 25.5t30.5 90.5q6 35 40 59.5t79 37t96 9.5t90 -26.5t60.5 -69t9.5 -116.5q-23 -127 -107 -202t-196 -107v-21.5t-2 -23.5q-14 -76 -75 -130.5t-169 -54.5q-106 0 -149.5 54.5 t-28.5 130.5q4 27 12 47q-63 25 -111.5 70.5t-76 114.5t-32.5 164z" />
<glyph unicode="&#xa3;" horiz-adv-x="1181" d="M109 623q10 57 43.5 102t111.5 57q41 164 101.5 279t139.5 187.5t176 105t212 32.5q90 0 165 -19t126 -62t75.5 -111t18.5 -164q-4 -76 -40 -124t-85 -72.5t-104.5 -28.5t-99.5 9t-68.5 42t-12.5 70q6 27 13.5 49t7.5 38.5t-12.5 26t-42.5 9.5q-51 0 -81 -60.5 t-59 -195.5q70 -4 112 -17.5t64.5 -36t27.5 -50t-1 -58.5q-6 -33 -21.5 -61.5t-46 -51t-80 -37t-120.5 -16.5q-16 -47 -40 -91t-61 -102q70 14 137.5 34t128 35t115 23.5t97.5 0.5q55 -8 79.5 -61.5t10.5 -131.5q-6 -31 -15.5 -61.5t-26 -55t-40 -40t-58.5 -15.5h-716 q-76 0 -86.5 52t12.5 181l37 228q-72 14 -88.5 58t-5.5 104z" />
<glyph unicode="&#xa4;" horiz-adv-x="1062" d="M41 222.5q-2 58.5 53 103.5q25 20 71 44.5t103 47.5q-6 33 -7 67.5t7 71.5q10 55 31 100q-47 23 -81 46.5t-50 44.5q-39 45 -16.5 103.5t90.5 111.5q35 27 72.5 45t71.5 24t62.5 0t47.5 -28q16 -18 29.5 -58.5t21.5 -87.5q47 10 94 10t94 -10q25 47 51.5 87t51.5 59 q27 23 57.5 28.5t62 -0.5t62.5 -24.5t55 -44.5q49 -53 51 -111.5t-51 -103.5q-25 -20 -68.5 -44t-99.5 -47q6 -45 -4 -100q-12 -76 -49 -137q51 -23 90 -48.5t57 -45.5q37 -45 14.5 -103.5t-89.5 -111.5q-35 -27 -72 -45.5t-71.5 -24.5t-63.5 0t-47 29q-20 20 -33.5 69 t-22.5 109q-35 -8 -86 -8q-45 0 -81 6q-27 -59 -59 -107.5t-60 -68.5q-53 -45 -120 -29t-118 70q-49 53 -51 111.5zM539 557q-4 -31 2.5 -53.5t31.5 -22.5t40.5 22.5t19.5 53.5q4 27 -2 49.5t-31 22.5t-41 -22.5t-20 -49.5z" />
<glyph unicode="&#xa5;" horiz-adv-x="935" d="M99 347q-3 30 3 65q6 33 20.5 62.5t40 52t66.5 35.5t103 13h18l8 48q-20 45 -38.5 103t-34 119.5t-28.5 123t-26 116.5q-23 106 -28.5 175t4.5 108t37.5 54.5t72.5 15.5q53 0 85 -6.5t53.5 -32t40 -79.5t47.5 -151q23 -76 17.5 -153.5t-46.5 -175.5q57 100 78.5 172.5 t36.5 97.5q66 117 107.5 182.5t85.5 98t101.5 40t153.5 7.5q66 0 96.5 -17.5t28.5 -58.5t-33.5 -108.5t-89.5 -168.5q-49 -86 -96 -150.5t-87 -117.5t-67.5 -101t-37.5 -102l-7 -39q55 -2 88 -16t50.5 -36.5t20.5 -51t-3 -59.5q-6 -33 -19.5 -63t-39 -52.5t-64.5 -36.5 t-96 -14q-23 -88 -68 -144q-47 -55 -105.5 -78.5t-129.5 -23.5q-109 0 -147 34t-29 81q6 31 19 53t28 78h-15q-61 0 -98 13t-55.5 35.5t-21.5 52.5z" />
<glyph unicode="&#xa6;" horiz-adv-x="454" d="M-1 -32q3 48 13 106l37 207q12 72 29.5 125t45.5 87.5t70 52t105 17.5t94 -18.5t41 -55t5 -89t-17 -119.5l-35 -191q-10 -59 -23.5 -110.5t-39 -90.5t-66.5 -60.5t-108 -21.5q-66 0 -99 20.5t-44 56.5t-8 84zM145.5 806q4.5 48 14.5 105l37 207q12 72 29.5 125t45 88 t69.5 52.5t105 17.5t94 -18.5t41.5 -55.5t5.5 -89t-18 -120l-34 -190q-10 -59 -23.5 -110.5t-39.5 -90.5t-66.5 -60.5t-108.5 -21.5q-66 0 -98.5 20.5t-45 56.5t-8 84z" />
<glyph unicode="&#xa7;" horiz-adv-x="1017" d="M33 178q12 72 52 116t90 66.5t104.5 23.5t95.5 -14.5t61.5 -44t5.5 -67.5q-10 -20 6.5 -36.5t47.5 -18.5t49 17.5t24 53.5q4 20 -1 39t-24.5 36.5t-57 32.5t-99.5 32q-61 16 -112.5 45.5t-87 71.5t-52 94.5t-6.5 113.5q10 53 33.5 99.5t58.5 85.5q-23 37 -31 80t3 90 q14 82 62 146.5t118.5 108.5t160 66.5t185.5 22.5t176 -17.5t135 -53.5t81 -91t13 -129q-12 -74 -49 -118t-84 -63.5t-97 -19.5t-92 14.5t-68.5 39t-24.5 53.5q4 23 -7.5 43t-44.5 20q-27 0 -50 -22.5t-19 -59.5q2 -47 50 -66.5t146 -41.5q158 -35 217.5 -123t36.5 -211 q-18 -111 -77 -182q33 -74 16 -172q-18 -98 -66.5 -166t-120 -109t-161.5 -59.5t-191 -18.5q-102 0 -182 19.5t-134 56.5t-78 91t-11 126zM524 680q2 -33 25.5 -51.5t73.5 -32.5q4 8 6 15t4 18q6 31 -12.5 57.5t-77.5 50.5q-21 -24 -19 -57z" />
<glyph unicode="&#xa8;" horiz-adv-x="905" d="M236 1343q14 78 73.5 131.5t159.5 53.5q98 0 138 -53.5t26 -131.5t-72.5 -133t-157.5 -55q-100 0 -141 55.5t-26 132.5zM662 1343q14 78 73.5 131.5t157.5 53.5q100 0 140 -53.5t26 -131.5t-72.5 -133t-159.5 -55q-98 0 -139 55.5t-26 132.5z" />
<glyph unicode="&#xa9;" horiz-adv-x="1890" d="M88 191.5q-27 168.5 8 359.5q33 190 119 358t221 294t316.5 199t408.5 73t385 -73t248 -199t116.5 -294t-5.5 -358q-35 -190 -121 -359t-221.5 -294t-317.5 -198t-409 -73t-383 73t-247 198t-118 293.5zM404.5 273q9.5 -126 61.5 -216t153.5 -140t259.5 -50t276.5 50 t204.5 140t140 216t81 278t17.5 276.5t-63.5 215t-155.5 140.5t-259.5 50t-276.5 -50t-203.5 -140.5t-138 -215.5t-80 -276q-27 -152 -17.5 -278zM484.5 273.5q-17.5 113.5 11.5 277.5t88 278.5t139 186t179 103.5t208 32q86 0 164 -24.5t133 -70.5t82 -111.5t12 -145.5 q-12 -72 -50 -119t-86 -73.5t-100.5 -35t-94.5 0t-67.5 31t-19.5 56.5q16 92 8 128t-40 36q-41 0 -70.5 -61t-56.5 -211t-18 -210t50 -60q33 0 51.5 25.5t30.5 90.5q6 35 40 59.5t79 37t96.5 9.5t90 -26.5t60 -69t9.5 -116.5q-16 -92 -67.5 -156.5t-122 -105.5t-155.5 -59.5 t-171 -18.5q-109 0 -197 32.5t-143 104.5t-72.5 185.5z" />
<glyph unicode="&#xaa;" horiz-adv-x="841" d="M197.5 877q-11.5 84 5 182t58.5 182t104.5 140.5t142.5 56.5q51 0 85 -35t50 -86q29 41 70 65.5t82 24.5q43 0 65.5 -9t29.5 -30.5t3 -54.5t-12 -78l-27 -162q-20 -111 -22.5 -151.5t26.5 -40.5q35 0 59.5 44t47.5 173q6 39 23.5 54t32.5 13t26.5 -19.5t5.5 -47.5 q-35 -197 -108 -292t-218 -95q-47 0 -91 15t-69 56q-35 -47 -84 -74.5t-108 -27.5q-80 0 -123 56.5t-54.5 140.5zM465 925q6 -36 33 -36q37 0 56 71.5t48 237.5q-6 12 -17.5 22.5t-27.5 10.5q-27 0 -45 -37t-35 -135q-18 -98 -12 -134z" />
<glyph unicode="&#xab;" horiz-adv-x="837" d="M94 543q8 51 50 104t96.5 100.5t112 87t100.5 66.5q33 20 59.5 21.5t46 -10t33.5 -33t20 -48.5q29 20 56.5 38t50.5 32q55 35 94 17.5t57.5 -60.5t16.5 -97t-27 -93q-25 -37 -78 -57.5t-111.5 -37t-105.5 -33.5t-59 -48q20 12 61 14t84 -5t82 -22.5t55 -38.5 q25 -31 21 -87t-26.5 -106t-56.5 -77t-69 0q-66 49 -131 106q-10 -31 -24.5 -57t-32.5 -41.5t-37.5 -19.5t-40.5 12q-59 45 -114.5 93t-98.5 97.5t-66.5 95.5t-17.5 87zM301 508q2 -35 23.5 -44t52.5 -7q-23 47 -17 86q2 23 17 49q-35 -8 -57.5 -26.5t-18.5 -57.5z" />
<glyph unicode="&#xac;" horiz-adv-x="868" d="M96 551q6 33 28.5 62.5t71 52t126 36t196.5 13.5q143 0 221 -15.5t112 -47t35 -80t-12 -111.5q-10 -63 -30.5 -104.5t-47 -65t-58 -32.5t-64.5 -9q-53 0 -93 27.5t-40 109.5q-18 -2 -38 -2h-42q-119 0 -192.5 13.5t-113.5 36t-52.5 52t-6.5 64.5z" />
<glyph unicode="&#xad;" horiz-adv-x="624" d="M96 486.5q-6 29.5 0 64.5q6 33 23.5 62.5t51.5 52t89 36t137 13.5t132.5 -13.5t77 -36t32.5 -52t0 -62.5q-6 -35 -22.5 -64.5t-50.5 -52t-89 -36t-137 -13.5t-133 13.5t-78 36t-33 52z" />
<glyph unicode="&#xae;" horiz-adv-x="1890" d="M88 191.5q-27 168.5 8 359.5q33 190 119 358t221 294t316.5 199t408.5 73t385 -73t248 -199t116.5 -294t-5.5 -358q-35 -190 -121 -359t-221.5 -294t-317.5 -198t-409 -73t-383 73t-247 198t-118 293.5zM404.5 273q9.5 -126 61.5 -216t153.5 -140t259.5 -50t276.5 50 t204.5 140t140 216t81 278t17.5 276.5t-63.5 215t-155.5 140.5t-259.5 50t-276.5 -50t-203.5 -140.5t-138 -215.5t-80 -276q-27 -152 -17.5 -278zM537 197l133 751q8 49 25.5 79t43 46.5t58 23.5t73.5 7q70 0 114 -31t67 -78q45 47 101 75t126 28q72 0 124 -27t83 -73 t39 -110.5t-4 -139.5q-12 -70 -50 -117t-87.5 -76t-102.5 -38t-96 -1t-67.5 31.5t-18.5 62.5q8 49 11 81t0 48.5t-13.5 22.5t-26.5 6h-2q-10 -55 -15 -88t-10.5 -63.5t-13.5 -73.5t-20 -121q-18 -100 -37 -181t-66 -137q-47 -57 -105.5 -80.5t-129.5 -23.5q-72 0 -112 44 t-21 153z" />
<glyph unicode="&#xaf;" horiz-adv-x="833" d="M244 1391q6 33 27.5 62.5t67.5 52t121 34.5t187 12q113 0 184.5 -12t109.5 -34.5t49 -52t5 -62.5q-6 -35 -27.5 -65t-67.5 -52.5t-122 -34.5t-188 -12q-113 0 -183.5 12t-108.5 34.5t-49 52.5t-5 65z" />
<glyph unicode="&#xb0;" horiz-adv-x="608" d="M207 1086.5q-8 46.5 2 99.5q18 104 95 178t210 74t186.5 -74t34.5 -178q-10 -53 -33.5 -99.5t-62.5 -81t-92 -55t-121 -20.5q-66 0 -112 20.5t-72.5 55t-34.5 81zM406 1186q-6 -29 6 -48.5t47 -19.5t54 19.5t26 48.5q4 25 -9.5 44t-48.5 19t-53 -19.5t-22 -43.5z" />
<glyph unicode="&#xb1;" horiz-adv-x="722" d="M27 154q6 31 24.5 58.5t58.5 48t104.5 32.5t160.5 12t156.5 -12t92 -32.5t41 -48t3.5 -58.5t-24.5 -59.5t-57.5 -49t-102.5 -33t-159.5 -12.5t-158 12.5t-94.5 33t-42 49t-2.5 59.5zM123 707q8 47 51 85.5t150 55.5q35 104 80 141t94 37t81.5 -37t30.5 -141 q102 -16 132 -55t22 -86q-4 -25 -16.5 -47.5t-36 -42t-60.5 -34t-92 -22.5q-35 -102 -80 -139t-94 -37q-47 0 -81 37t-32 141q-100 16 -129.5 55t-19.5 89z" />
<glyph unicode="&#xb2;" horiz-adv-x="651" d="M139 693q2 46 67.5 127t219.5 208q63 51 94 92t39 69t-2 42t-27 14q-35 0 -58 -31.5t-17 -97.5q2 -35 -36 -54.5t-82 -15t-77 38t-20 105.5q20 115 106 181.5t205 66.5q76 0 135 -36t82 -96.5t-1 -139.5t-116 -167q-53 -49 -95 -80.5t-72.5 -54t-50 -42t-23.5 -42.5 q59 -8 78.5 2.5t15.5 40.5q-4 23 12 42.5t43 29.5t58.5 10t56 -15.5t38 -47t5.5 -82.5q-12 -66 -62.5 -106t-132.5 -40q-45 -2 -84 -2h-121q-78 0 -129 17.5t-49 63.5z" />
<glyph unicode="&#xb3;" horiz-adv-x="626" d="M160 817q12 66 53 93.5t84 26.5t76 -25.5t26 -63.5q-2 -16 4.5 -30.5t24.5 -14.5q16 0 31.5 15.5t11.5 41.5q-2 29 -19.5 57.5t-56.5 32.5q-41 4 -57 25.5t-11 48.5t29.5 50.5t67.5 31.5q39 8 68.5 33.5t39.5 54.5q10 25 5 42t-27 17q-23 0 -33 -14t-14 -31 q-10 -43 -51 -65.5t-84 -21.5t-74 30t-21 88q18 102 104.5 150.5t199.5 48.5q57 0 104 -15.5t80 -45t47 -73.5t4 -102q-12 -66 -60 -114t-118 -52q72 -18 99.5 -73.5t17.5 -110.5t-40 -99t-73 -75t-96 -46.5t-109 -15.5q-57 0 -104 12.5t-79 37t-46 62.5t-4 89z" />
<glyph unicode="&#xb4;" horiz-adv-x="692" d="M226 1257.5q-3 24.5 5.5 49t28.5 39.5q45 31 102.5 63.5t113.5 60t106.5 47t79.5 27.5q86 27 135 -8.5t57 -101.5q6 -66 -31 -125.5t-123 -83.5q-29 -8 -81 -16.5t-111 -14.5t-120.5 -7t-111.5 5q-23 2 -35 21.5t-15 44z" />
<glyph unicode="&#xb5;" horiz-adv-x="1181" d="M-32 -220q3 48 14 105q16 100 32.5 188.5t35 191t42 233.5t58.5 317q4 27 -0.5 42t-11.5 29.5t-11 30t0 41.5q10 55 70.5 100.5t171.5 45.5q135 0 184 -63.5t22 -211.5l-49 -276q-14 -78 -17 -130t1 -84t17.5 -45t33.5 -13q18 0 33.5 6t30.5 16l104 602q12 61 28.5 100 t43 60.5t62.5 30t87 8.5q127 0 175.5 -62.5t21.5 -210.5l-45 -256q-20 -121 -30.5 -184t-10.5 -91t12 -32t35 -4q53 0 64.5 -41t-16.5 -91t-92.5 -91t-160.5 -41q-113 0 -175 40t-89 99q-57 -78 -135 -132t-158 -54q-37 0 -66.5 6t-56.5 16q33 -63 61.5 -126.5t26.5 -114.5 t-44 -83t-150 -32q-63 0 -96 20.5t-44.5 56.5t-8.5 84z" />
<glyph unicode="&#xb6;" horiz-adv-x="1009" d="M185.5 948.5q-11.5 67.5 9 142t71.5 138t131 105.5t189 42l434 -2q53 0 73.5 -46t13.5 -102.5t-39 -102.5t-81 -46q-16 0 -57 10q-8 -47 -22.5 -125.5t-31 -174t-35 -200t-34.5 -201.5t-31.5 -179t-23.5 -135q-10 -55 -21.5 -103.5t-29 -84.5t-44 -56.5t-65.5 -20.5 t-57.5 18.5t-23.5 52.5t0 79t15 98l195 1102l-66 25q-12 -66 -28.5 -161t-35 -201.5t-39 -219.5t-38.5 -214t-32.5 -184t-22.5 -130q-10 -55 -21.5 -103.5t-29 -84.5t-44 -56.5t-65.5 -20.5t-57.5 18.5t-23.5 52.5t0 79t15 98q12 72 27.5 158t32 178t34 188.5t33.5 188.5 q-76 12 -119.5 62.5t-55 118z" />
<glyph unicode="&#xb7;" horiz-adv-x="477" d="M98 565q14 78 72.5 133.5t159.5 55.5q100 0 139 -55.5t25 -133.5t-71.5 -132t-158.5 -54q-100 0 -140 54t-26 132z" />
<glyph unicode="&#xb8;" horiz-adv-x="768" d="M-47 -285q12 78 56 111t93.5 35t92.5 -22.5t53 -61.5q6 -23 8 -43.5t4 -35.5t9 -23.5t26 -8.5q18 0 34.5 11.5t21.5 31t-3 44t-35 50.5q-12 12 -29.5 24.5t-28.5 31t-12 47t15 76.5q12 31 38 56t48.5 28.5t36.5 -24.5t4 -105q-2 -14 18.5 -23.5t51 -19t65.5 -21.5 t62.5 -33.5t43 -53.5t7.5 -81q-8 -47 -41 -87t-83 -68.5t-114.5 -45t-134.5 -16.5q-156 0 -241 61.5t-66 165.5z" />
<glyph unicode="&#xb9;" horiz-adv-x="372" d="M197 770l63 367q12 68 17.5 104.5t6.5 53t-2 18.5t-8 2q-18 0 -21 19.5t8 42t39 42t71 19.5q63 0 100 -8.5t53 -43.5q12 -35 6 -90t-18 -122q-6 -35 -17.5 -99.5t-23.5 -136.5t-23.5 -136.5t-17.5 -96.5q-8 -47 -30.5 -68t-80.5 -21q-78 0 -108.5 36t-13.5 118z" />
<glyph unicode="&#xba;" horiz-adv-x="657" d="M166 829.5q-6 79.5 14 196.5q20 119 54 198t80 126t102.5 67.5t122.5 20.5q68 0 117 -20.5t78.5 -67.5t35.5 -126t-14 -198q-20 -117 -55 -196.5t-81.5 -127t-102.5 -68t-124 -20.5q-66 0 -115 20.5t-77.5 68t-34.5 127zM396 832.5q3 -19.5 10.5 -25.5t19.5 -6 q16 0 28.5 11t24.5 52q-18 18 -36.5 51t-30.5 76q-10 -63 -14.5 -101t-1.5 -57.5zM453 1188q41 -37 69 -123q10 61 13.5 97t1.5 56.5t-10.5 26.5t-20.5 6q-16 0 -28.5 -11t-24.5 -52z" />
<glyph unicode="&#xbb;" horiz-adv-x="837" d="M58 247q-5 50 10.5 106.5t50.5 86.5q27 23 70.5 38.5t90 22.5t86.5 5t56 -14q0 20 -20.5 34.5t-50 25.5t-66.5 21.5t-69 22.5t-56.5 29.5t-30.5 42.5q-10 39 6.5 93t50 97t78.5 60.5t88 -17.5q16 -14 37 -31.5t43 -40.5q16 27 38 49.5t46.5 34t51 10.5t50.5 -22 q33 -27 77 -66.5t81 -87t59.5 -100.5t14.5 -104q-6 -41 -47 -87t-100.5 -95.5t-133 -97.5t-147.5 -93q-51 -31 -75.5 7t-22.5 99q-41 -29 -84 -55t-84 -51q-43 -27 -68 0t-30 77zM537 457q31 -2 55.5 7t38.5 44q16 39 0.5 57.5t-47.5 26.5q2 -25 0 -49q-6 -39 -47 -86z" />
<glyph unicode="&#xbc;" horiz-adv-x="1351" d="M156 766q10 59 17 101t14.5 82t15.5 83t18 103q12 70 17.5 106.5t5.5 53t-3 18.5t-8 2q-18 0 -21 19.5t8 42t39 42t71 19.5q66 0 102.5 -8.5t52.5 -43.5q14 -35 7 -90t-19 -122l-82 -474q-8 -47 -30.5 -68.5t-79.5 -21.5q-80 0 -110.5 36t-14.5 120zM178 54.5 q-6 31.5 15.5 89t78.5 149.5q10 16 49 80.5t92.5 151.5t114 185.5t115.5 186.5t95 153.5t55 86.5q74 111 121 171t82.5 88.5t66.5 34t72 5.5t66.5 -12.5t26.5 -46.5t-23.5 -94t-84.5 -157q-14 -23 -56 -93t-98.5 -164.5t-120 -200t-118.5 -196.5t-95 -155.5t-48 -76.5 q-47 -72 -84 -119t-71 -74t-67.5 -37t-72.5 -10q-45 0 -75 11.5t-36 43zM696.5 208.5q-8.5 24.5 1 57.5t25.5 68q18 35 44 73.5t60.5 90t84 120t114.5 160.5q14 20 39 34.5t63 14.5q66 0 103 -8t51 -43t7 -90t-17 -123q-6 -35 -18.5 -100.5t-24.5 -136.5q10 2 17 2h18 q20 0 26 -27t0 -59.5t-21.5 -59t-35.5 -26.5h-35l-10 -66q-8 -47 -31 -68.5t-80 -21.5q-78 0 -108.5 36t-16.5 120h-129q-59 0 -88.5 14t-38 38.5zM915 338q-12 -41 27 -41h35l41 227q10 55 -4.5 56.5t-30.5 -45.5q-6 -18 -16.5 -45t-19.5 -57t-18 -55.5t-14 -39.5z" />
<glyph unicode="&#xbd;" horiz-adv-x="1394" d="M156 766q10 59 17 101t14.5 82t15.5 83t18 103q12 70 17.5 106.5t5.5 53t-3 18.5t-8 2q-18 0 -21 19.5t8 42t39 42t71 19.5q66 0 102.5 -8.5t52.5 -43.5q14 -35 7 -90t-19 -122l-82 -474q-8 -47 -30.5 -68.5t-79.5 -21.5q-80 0 -110.5 36t-14.5 120zM178 54.5 q-6 31.5 15.5 89t78.5 149.5q10 16 49 80.5t92.5 151.5t114 185.5t115.5 186.5t95 153.5t55 86.5q74 111 121 171t82.5 88.5t66.5 34t72 5.5t66.5 -12.5t26.5 -46.5t-23.5 -94t-84.5 -157q-14 -23 -56 -93t-98.5 -164.5t-120 -200t-118.5 -196.5t-95 -155.5t-48 -76.5 q-47 -72 -84 -119t-71 -74t-67.5 -37t-72.5 -10q-45 0 -75 11.5t-36 43zM758 79q2 46 68.5 127t220.5 208q63 51 93.5 92t39 68.5t-2 42t-26.5 14.5q-35 0 -58.5 -32t-17.5 -97q2 -35 -36 -54.5t-82 -15.5t-76.5 38t-20.5 105q20 115 106.5 181.5t204.5 66.5 q76 0 135.5 -35.5t83 -96t-1 -139.5t-116.5 -167q-53 -49 -95 -81t-73 -54.5t-49.5 -42t-22.5 -41.5q57 -8 76.5 2t13.5 41q-4 23 12.5 42t43 29.5t58.5 10.5t57.5 -15.5t39 -47t4.5 -83.5q-12 -66 -61 -105.5t-131 -39.5q-45 -2 -86 -2h-125q-78 0 -128 17.5t-48 63.5z" />
<glyph unicode="&#xbe;" horiz-adv-x="1509" d="M143 817q12 66 53.5 93.5t84.5 26.5t75.5 -25.5t26.5 -63.5q-2 -16 5 -30.5t26 -14.5q16 0 31.5 15.5t11.5 41.5q-2 29 -20.5 57.5t-57.5 32.5q-41 4 -56.5 25.5t-11.5 48.5t29 50.5t68 31.5q41 8 69.5 33.5t38.5 54.5q12 25 6 42t-28 17q-23 0 -33 -14t-12 -31 q-10 -43 -52.5 -65.5t-85.5 -21.5t-73.5 30t-20.5 88q18 102 104.5 150.5t198.5 48.5q57 0 104.5 -15.5t80 -45t47 -73.5t4.5 -102q-10 -66 -59 -114t-119 -52q72 -18 99.5 -73.5t16.5 -110.5q-10 -55 -39.5 -99t-72.5 -75t-95.5 -46.5t-109.5 -15.5q-55 0 -102.5 12.5 t-80 37t-47 62.5t-4.5 89zM336 54.5q-6 31.5 15.5 89t78.5 149.5q10 16 49 80.5t92.5 151.5t113.5 185.5t115.5 186.5t95.5 153.5t54 86.5q74 111 121 171t83 88.5t66.5 34t71.5 5.5t66.5 -12.5t26.5 -46.5t-23.5 -94t-83.5 -157q-12 -23 -55 -93t-99.5 -164.5t-120 -200 t-119 -196.5t-95.5 -155.5t-48 -76.5q-47 -72 -83.5 -119t-70.5 -74t-68 -37t-73 -10q-45 0 -74.5 11.5t-35.5 43zM854 208.5q-8 24.5 1 57.5t26 68q18 35 43.5 73.5t60.5 90t84 120t115 160.5q14 20 38.5 34.5t63.5 14.5q66 0 102.5 -8t51.5 -43q14 -35 7 -90t-17 -123 q-6 -35 -18.5 -100.5t-25.5 -136.5q10 2 17.5 2h17.5q20 0 26.5 -27t0.5 -59.5t-21.5 -59t-35.5 -26.5h-35l-10 -66q-8 -47 -31 -68.5t-80 -21.5q-78 0 -108.5 36t-16.5 120h-129q-59 0 -89 14t-38 38.5zM1073 338q-12 -41 27 -41h35l41 227q10 55 -4.5 56.5t-30.5 -45.5 q-6 -18 -16.5 -45t-19.5 -57t-18.5 -55.5t-13.5 -39.5z" />
<glyph unicode="&#xbf;" horiz-adv-x="1013" d="M90 293q14 76 50 131t84 96t101.5 69.5t101.5 52.5t84 44.5t50 44.5q23 41 58.5 60.5t68.5 14.5t56.5 -34t23.5 -86q0 -45 -17.5 -73.5t-42 -50t-55 -39t-59.5 -42.5q-61 -51 -89 -99t-31 -85t15.5 -58.5t49.5 -21.5q57 0 86.5 49t19.5 135q-4 39 26.5 72t79 51.5 t102.5 19.5t97 -21.5t66.5 -72t9.5 -133.5q-18 -100 -65.5 -181t-119 -137t-161.5 -87t-195 -31q-92 0 -170.5 31t-134 85t-81 130t-9.5 166zM526 1118q16 84 78 143.5t170 59.5q55 0 93 -16.5t61.5 -44t31 -64.5t-1.5 -78q-16 -86 -78.5 -144.5t-172.5 -58.5 q-109 0 -153 58.5t-28 144.5z" />
<glyph unicode="&#xc0;" horiz-adv-x="1370" d="M-22.5 101.5q6.5 35.5 30.5 88.5q35 66 83 155t101.5 189.5t109.5 207t109.5 206t100.5 188.5t82 154q25 47 52.5 76t61 45t77.5 21.5t100 5.5q129 -4 199.5 -63.5t89.5 -198.5q31 -223 47 -393.5t28.5 -285t27.5 -175t46 -62.5q25 0 45.5 16.5t38.5 57.5t34.5 109.5 t35.5 170.5q10 61 36.5 86t53 22t43 -31.5t8.5 -76.5q-27 -152 -63.5 -262t-89 -186t-122 -117t-163.5 -49q-80 -8 -136.5 10.5t-95.5 57t-63.5 97t-38.5 130.5l-252 -35q-35 -4 -60.5 5t-35.5 34q-16 -27 -35 -51.5t-35 -46.5q-53 -66 -101 -105t-92.5 -60.5t-83 -28.5 t-75.5 -7q-35 0 -59.5 10t-35 33t-4 58.5zM608 1642.5q-16 58.5 15 124.5q33 66 92 102t137 9q27 -8 71 -27.5t91 -47t92 -60.5t78 -64q14 -14 14 -38.5t-10 -49t-29.5 -44t-44.5 -21.5q-49 -6 -110.5 -5t-120 7t-106.5 14t-75 17q-78 25 -94 83.5zM639 582h66q88 0 122 -56 q-10 78 -19 161t-18.5 159t-17.5 140.5t-16 107.5q-6 -111 -36 -244t-81 -268z" />
<glyph unicode="&#xc1;" horiz-adv-x="1370" d="M-22.5 101.5q6.5 35.5 30.5 88.5q35 66 83 155t101.5 189.5t109.5 207t109.5 206t100.5 188.5t82 154q25 47 52.5 76t61 45t77.5 21.5t100 5.5q129 -4 199.5 -63.5t89.5 -198.5q31 -223 47 -393.5t28.5 -285t27.5 -175t46 -62.5q25 0 45.5 16.5t38.5 57.5t34.5 109.5 t35.5 170.5q10 61 36.5 86t53 22t43 -31.5t8.5 -76.5q-27 -152 -63.5 -262t-89 -186t-122 -117t-163.5 -49q-80 -8 -136.5 10.5t-95.5 57t-63.5 97t-38.5 130.5l-252 -35q-35 -4 -60.5 5t-35.5 34q-16 -27 -35 -51.5t-35 -46.5q-53 -66 -101 -105t-92.5 -60.5t-83 -28.5 t-75.5 -7q-35 0 -59.5 10t-35 33t-4 58.5zM639 582h66q88 0 122 -56q-10 78 -19 161t-18.5 159t-17.5 140.5t-16 107.5q-6 -111 -36 -244t-81 -268zM667 1591.5q-3 24.5 5 49t28 38.5q45 31 102.5 64t114 60.5t106.5 47t79 27.5q86 27 135 -9t57 -102q6 -66 -30.5 -125 t-122.5 -83q-29 -8 -81 -16.5t-111.5 -14.5t-121 -7t-110.5 5q-23 2 -35 21.5t-15 44z" />
<glyph unicode="&#xc2;" horiz-adv-x="1370" d="M-22.5 101.5q6.5 35.5 30.5 88.5q35 66 83 155t101.5 189.5t109.5 207t109.5 206t100.5 188.5t82 154q25 47 52.5 76t61 45t77.5 21.5t100 5.5q129 -4 199.5 -63.5t89.5 -198.5q31 -223 47 -393.5t28.5 -285t27.5 -175t46 -62.5q25 0 45.5 16.5t38.5 57.5t34.5 109.5 t35.5 170.5q10 61 36.5 86t53 22t43 -31.5t8.5 -76.5q-27 -152 -63.5 -262t-89 -186t-122 -117t-163.5 -49q-80 -8 -136.5 10.5t-95.5 57t-63.5 97t-38.5 130.5l-252 -35q-35 -4 -60.5 5t-35.5 34q-16 -27 -35 -51.5t-35 -46.5q-53 -66 -101 -105t-92.5 -60.5t-83 -28.5 t-75.5 -7q-35 0 -59.5 10t-35 33t-4 58.5zM573.5 1514.5q-22.5 29.5 10.5 68.5q115 133 226.5 195.5t193.5 62.5q51 0 100 -15.5t92 -42t78 -61t53 -71.5q25 -49 0.5 -91t-72 -69t-102.5 -34t-92 11q-35 16 -48.5 51t-22.5 71t-21 65t-43 35q16 -37 -8.5 -92.5t-77.5 -98.5 q-37 -31 -93.5 -36t-103.5 8.5t-69.5 43zM639 582h66q88 0 122 -56q-10 78 -19 161t-18.5 159t-17.5 140.5t-16 107.5q-6 -111 -36 -244t-81 -268z" />
<glyph unicode="&#xc3;" horiz-adv-x="1370" d="M-22.5 101.5q6.5 35.5 30.5 88.5q35 66 83 155t101.5 189.5t109.5 207t109.5 206t100.5 188.5t82 154q25 47 52.5 76t61 45t77.5 21.5t100 5.5q129 -4 199.5 -63.5t89.5 -198.5q31 -223 47 -393.5t28.5 -285t27.5 -175t46 -62.5q25 0 45.5 16.5t38.5 57.5t34.5 109.5 t35.5 170.5q10 61 36.5 86t53 22t43 -31.5t8.5 -76.5q-27 -152 -63.5 -262t-89 -186t-122 -117t-163.5 -49q-80 -8 -136.5 10.5t-95.5 57t-63.5 97t-38.5 130.5l-252 -35q-35 -4 -60.5 5t-35.5 34q-16 -27 -35 -51.5t-35 -46.5q-53 -66 -101 -105t-92.5 -60.5t-83 -28.5 t-75.5 -7q-35 0 -59.5 10t-35 33t-4 58.5zM575.5 1597.5q-6.5 36.5 10 81.5t65.5 93q82 82 171 85t161 -67q33 -29 55.5 -28t55.5 34q63 57 131.5 63.5t109.5 -26.5t38 -96.5t-83 -145.5q-41 -43 -93 -65.5t-102.5 -25.5t-92 10.5t-66.5 43.5q-16 18 -27.5 29.5t-23 13.5 t-24.5 -7t-34 -29q-41 -41 -83 -54.5t-77.5 -5.5t-60 34t-31 62.5zM639 582h66q88 0 122 -56q-10 78 -19 161t-18.5 159t-17.5 140.5t-16 107.5q-6 -111 -36 -244t-81 -268z" />
<glyph unicode="&#xc4;" horiz-adv-x="1370" d="M-22.5 101.5q6.5 35.5 30.5 88.5q35 66 83 155t101.5 189.5t109.5 207t109.5 206t100.5 188.5t82 154q25 47 52.5 76t61 45t77.5 21.5t100 5.5q129 -4 199.5 -63.5t89.5 -198.5q31 -223 47 -393.5t28.5 -285t27.5 -175t46 -62.5q25 0 45.5 16.5t38.5 57.5t34.5 109.5 t35.5 170.5q10 61 36.5 86t53 22t43 -31.5t8.5 -76.5q-27 -152 -63.5 -262t-89 -186t-122 -117t-163.5 -49q-80 -8 -136.5 10.5t-95.5 57t-63.5 97t-38.5 130.5l-252 -35q-35 -4 -60.5 5t-35.5 34q-16 -27 -35 -51.5t-35 -46.5q-53 -66 -101 -105t-92.5 -60.5t-83 -28.5 t-75.5 -7q-35 0 -59.5 10t-35 33t-4 58.5zM565 1677q14 78 73.5 131.5t160.5 53.5q98 0 138 -53.5t26 -131.5t-73 -133t-157 -55q-100 0 -141 55t-27 133zM639 582h66q88 0 122 -56q-10 78 -19 161t-18.5 159t-17.5 140.5t-16 107.5q-6 -111 -36 -244t-81 -268zM991 1677 q14 78 73.5 131.5t158.5 53.5q100 0 140 -53.5t26 -131.5t-73 -133t-159 -55q-98 0 -139 55t-27 133z" />
<glyph unicode="&#xc5;" horiz-adv-x="1370" d="M-22.5 101.5q6.5 35.5 30.5 88.5q35 66 83 155t101.5 189.5t109.5 207t109.5 206t100.5 188.5t82 154q25 47 52.5 76t61 45t77.5 21.5t100 5.5q129 -4 199.5 -63.5t89.5 -198.5q31 -223 47 -393.5t28.5 -285t27.5 -175t46 -62.5q25 0 45.5 16.5t38.5 57.5t34.5 109.5 t35.5 170.5q10 61 36.5 86t53 22t43 -31.5t8.5 -76.5q-27 -152 -63.5 -262t-89 -186t-122 -117t-163.5 -49q-80 -8 -136.5 10.5t-95.5 57t-63.5 97t-38.5 130.5l-252 -35q-35 -4 -60.5 5t-35.5 34q-16 -27 -35 -51.5t-35 -46.5q-53 -66 -101 -105t-92.5 -60.5t-83 -28.5 t-75.5 -7q-35 0 -59.5 10t-35 33t-4 58.5zM639 582h66q88 0 122 -56q-10 78 -19 161t-18.5 159t-17.5 140.5t-16 107.5q-6 -111 -36 -244t-81 -268zM684 1698q16 90 91 152.5t204 62.5q131 0 183 -62.5t36 -152.5t-90 -153.5t-205 -63.5q-129 0 -182 63.5t-37 153.5z M877 1698q-4 -23 9 -40.5t46 -17.5q35 0 52 17.5t22 40.5q4 23 -8.5 39t-47.5 16q-33 0 -51 -16.5t-22 -38.5z" />
<glyph unicode="&#xc6;" horiz-adv-x="1927" d="M-42 43q-1 23 18.5 58.5t66.5 88.5q61 66 143 156t174.5 190.5t188.5 206t188 206t174 188.5t144 153q57 61 109.5 92t112.5 43.5t135 12.5h177h19q125 0 210 -27t132 -74t61 -110.5t2 -134.5q-12 -78 -50 -131.5t-86 -84t-100.5 -40t-93.5 1t-64.5 40t-14.5 74.5 q12 74 18 118t3 66.5t-14.5 30t-33.5 7.5q-12 0 -30.5 -29t-36 -71t-29 -92t-7 -93t26 -73t70.5 -32q39 -2 56.5 -29.5t15 -61.5t-25 -64.5t-65.5 -38.5q-61 -12 -105 -47t-66.5 -81t-22.5 -96.5t25.5 -92.5t77.5 -68.5t134 -26.5q63 0 133 27.5t131.5 82t108.5 136.5 t66 190q10 61 36.5 86t53 22t43 -31.5t8.5 -76.5q-25 -147 -89.5 -269t-162.5 -210t-227 -136t-285 -48q-96 0 -182 19.5t-153.5 59.5t-108.5 100t-47 144l-199 -24q-76 -10 -111 2t-37 37q-6 -20 -30.5 -43t-48.5 -45q-78 -66 -145.5 -105t-125 -60.5t-103.5 -28.5t-83 -7 q-35 0 -56.5 10t-22.5 33zM874 569l144 13h16q88 94 213 112q-55 0 -96 23.5t-66.5 63.5t-36 92.5t-4.5 111.5q-12 -41 -25 -92t-31.5 -105.5t-46.5 -110.5t-67 -108z" />
<glyph unicode="&#xc7;" horiz-adv-x="1077" d="M123 715q33 190 91 327.5t139 225.5t182.5 129t222.5 41q139 0 224 -52.5t128 -135.5t49 -186t-12 -204q-14 -78 -52 -131t-87.5 -84t-102.5 -40t-95 1t-65.5 40t-15.5 75q12 74 25.5 153.5t18.5 146t-4 110t-42 43.5q-25 0 -49.5 -38t-47 -101.5t-43 -146.5t-36.5 -173 q-27 -147 -23 -248.5t35 -166t86.5 -93.5t134.5 -29q63 0 127 27.5t118 82t95 136.5t60 190q10 61 36.5 86t53 22t43 -31.5t8.5 -76.5q-25 -145 -88 -265t-158.5 -208t-220.5 -137t-276 -53q0 -4 -1 -7t-1 -7q-2 -14 18 -23.5t51 -19t66 -21.5t62.5 -33.5t42.5 -53.5t7 -81 q-8 -47 -40.5 -87t-83 -68.5t-115 -45t-133.5 -16.5q-156 0 -241 61.5t-67 165.5q12 78 56.5 111t93.5 35t92 -22.5t53 -61.5q6 -23 8.5 -43.5t4.5 -35.5t9 -23.5t25 -8.5t35 11.5t22 31t-3 44t-35 50.5q-12 12 -27.5 23.5t-27 27t-15.5 40t6 65.5q-221 37 -301 223.5 t-20 532.5z" />
<glyph unicode="&#xc8;" horiz-adv-x="1077" d="M76 360q10 66 38.5 123.5t71.5 101.5t96.5 72.5t114.5 36.5q-61 0 -106 30t-69.5 80t-28 114.5t17.5 134.5q31 100 86 172.5t128 120t158 70t175 22.5q125 0 210 -27t132 -74t61.5 -110.5t1.5 -134.5q-12 -78 -50 -131.5t-86 -84t-100.5 -40t-93 1t-64.5 40t-15 74.5 q12 74 18 118t3 66.5t-14 30t-34 7.5q-12 0 -30.5 -29t-36 -71t-28.5 -92t-7 -93t25.5 -73t70.5 -32q39 -2 56.5 -29.5t15.5 -61.5t-25 -64.5t-66 -38.5q-61 -12 -105 -47t-66.5 -81t-22.5 -96.5t25.5 -92.5t78 -68.5t133.5 -26.5q63 0 133 27.5t131.5 82t108.5 136.5 t66 190q10 61 36.5 86t53 22t43 -31.5t8.5 -76.5q-25 -147 -89.5 -269t-162.5 -210t-227 -136t-285 -48q-106 0 -201.5 24.5t-164 74.5t-102.5 127t-17 183zM532.5 1642.5q-16.5 58.5 14.5 124.5q33 66 92 102t137 9q27 -8 71 -27.5t91 -47t92 -60.5t78 -64q14 -14 14 -38.5 t-10 -49t-29.5 -44t-44.5 -21.5q-49 -6 -110.5 -5t-119.5 7t-106.5 14t-74.5 17q-78 25 -94.5 83.5z" />
<glyph unicode="&#xc9;" horiz-adv-x="1077" d="M76 360q10 66 38.5 123.5t71.5 101.5t96.5 72.5t114.5 36.5q-61 0 -106 30t-69.5 80t-28 114.5t17.5 134.5q31 100 86 172.5t128 120t158 70t175 22.5q125 0 210 -27t132 -74t61.5 -110.5t1.5 -134.5q-12 -78 -50 -131.5t-86 -84t-100.5 -40t-93 1t-64.5 40t-15 74.5 q12 74 18 118t3 66.5t-14 30t-34 7.5q-12 0 -30.5 -29t-36 -71t-28.5 -92t-7 -93t25.5 -73t70.5 -32q39 -2 56.5 -29.5t15.5 -61.5t-25 -64.5t-66 -38.5q-61 -12 -105 -47t-66.5 -81t-22.5 -96.5t25.5 -92.5t78 -68.5t133.5 -26.5q63 0 133 27.5t131.5 82t108.5 136.5 t66 190q10 61 36.5 86t53 22t43 -31.5t8.5 -76.5q-25 -147 -89.5 -269t-162.5 -210t-227 -136t-285 -48q-106 0 -201.5 24.5t-164 74.5t-102.5 127t-17 183zM519 1591.5q-3 24.5 5 49t29 38.5q45 31 102.5 64t113.5 60.5t106.5 47t78.5 27.5q86 27 135.5 -9t57.5 -102 q6 -66 -31 -125t-123 -83q-29 -8 -81 -16.5t-111.5 -14.5t-121 -7t-110.5 5q-23 2 -35 21.5t-15 44z" />
<glyph unicode="&#xca;" horiz-adv-x="1077" d="M76 360q10 66 38.5 123.5t71.5 101.5t96.5 72.5t114.5 36.5q-61 0 -106 30t-69.5 80t-28 114.5t17.5 134.5q31 100 86 172.5t128 120t158 70t175 22.5q125 0 210 -27t132 -74t61.5 -110.5t1.5 -134.5q-12 -78 -50 -131.5t-86 -84t-100.5 -40t-93 1t-64.5 40t-15 74.5 q12 74 18 118t3 66.5t-14 30t-34 7.5q-12 0 -30.5 -29t-36 -71t-28.5 -92t-7 -93t25.5 -73t70.5 -32q39 -2 56.5 -29.5t15.5 -61.5t-25 -64.5t-66 -38.5q-61 -12 -105 -47t-66.5 -81t-22.5 -96.5t25.5 -92.5t78 -68.5t133.5 -26.5q63 0 133 27.5t131.5 82t108.5 136.5 t66 190q10 61 36.5 86t53 22t43 -31.5t8.5 -76.5q-25 -147 -89.5 -269t-162.5 -210t-227 -136t-285 -48q-106 0 -201.5 24.5t-164 74.5t-102.5 127t-17 183zM426 1514.5q-23 29.5 10 68.5q115 133 226.5 195.5t193.5 62.5q51 0 100.5 -15.5t92.5 -42t77.5 -61t53.5 -71.5 q25 -49 0 -91t-72 -69t-102.5 -34t-92.5 11q-35 16 -48 51t-22 71t-21.5 65t-43.5 35q16 -37 -8.5 -92.5t-77.5 -98.5q-37 -31 -93 -36t-103 8.5t-70 43z" />
<glyph unicode="&#xcb;" horiz-adv-x="1077" d="M76 360q10 66 38.5 123.5t71.5 101.5t96.5 72.5t114.5 36.5q-61 0 -106 30t-69.5 80t-28 114.5t17.5 134.5q31 100 86 172.5t128 120t158 70t175 22.5q125 0 210 -27t132 -74t61.5 -110.5t1.5 -134.5q-12 -78 -50 -131.5t-86 -84t-100.5 -40t-93 1t-64.5 40t-15 74.5 q12 74 18 118t3 66.5t-14 30t-34 7.5q-12 0 -30.5 -29t-36 -71t-28.5 -92t-7 -93t25.5 -73t70.5 -32q39 -2 56.5 -29.5t15.5 -61.5t-25 -64.5t-66 -38.5q-61 -12 -105 -47t-66.5 -81t-22.5 -96.5t25.5 -92.5t78 -68.5t133.5 -26.5q63 0 133 27.5t131.5 82t108.5 136.5 t66 190q10 61 36.5 86t53 22t43 -31.5t8.5 -76.5q-25 -147 -89.5 -269t-162.5 -210t-227 -136t-285 -48q-106 0 -201.5 24.5t-164 74.5t-102.5 127t-17 183zM420 1677q14 78 73.5 131.5t159.5 53.5q98 0 138 -53.5t26 -131.5t-72.5 -133t-156.5 -55q-100 0 -141 55t-27 133z M846 1677q14 78 73.5 131.5t157.5 53.5q100 0 140 -53.5t26 -131.5t-72.5 -133t-158.5 -55q-98 0 -139.5 55t-26.5 133z" />
<glyph unicode="&#xcc;" horiz-adv-x="569" d="M52 271q7 73 20 141l153 874q4 23 11.5 49.5t27 49t57 38t101.5 15.5q125 0 181 -69t34 -202l-119 -669q-10 -63 -17 -106.5t-8 -70t6.5 -39t30.5 -12.5q25 0 44.5 14.5t36 53.5t31.5 106.5t34 169.5q10 61 36.5 86t53.5 22t43 -31.5t8 -76.5q-27 -152 -65.5 -265 t-96 -190t-137.5 -117t-188 -42q-61 0 -105.5 10t-75 28.5t-49 44.5t-30.5 56q-25 59 -18 132zM198.5 1610q-16.5 59 14.5 125q33 66 92.5 101.5t136.5 8.5q27 -8 71 -27.5t91 -47t92 -60.5t78 -63q14 -14 14 -39t-10 -49.5t-29.5 -44t-43.5 -21.5q-49 -6 -111 -5t-120 7 t-106.5 14.5t-74.5 16.5q-78 25 -94.5 84z" />
<glyph unicode="&#xcd;" horiz-adv-x="569" d="M52 271q7 73 20 141l153 874q4 23 11.5 49.5t27 49t57 38t101.5 15.5q125 0 181 -69t34 -202l-119 -669q-10 -63 -17 -106.5t-8 -70t6.5 -39t30.5 -12.5q25 0 44.5 14.5t36 53.5t31.5 106.5t34 169.5q10 61 36.5 86t53.5 22t43 -31.5t8 -76.5q-27 -152 -65.5 -265 t-96 -190t-137.5 -117t-188 -42q-61 0 -105.5 10t-75 28.5t-49 44.5t-30.5 56q-25 59 -18 132zM243 1570.5q-3 24.5 5 49.5t28 39q45 31 102.5 63.5t114 60t106.5 47t79 28.5q86 27 135 -9t57 -102q6 -66 -30.5 -125t-122.5 -84q-29 -8 -81 -16.5t-111.5 -14.5t-121 -7 t-110.5 5q-23 2 -35 21.5t-15 44z" />
<glyph unicode="&#xce;" horiz-adv-x="569" d="M52 271q7 73 20 141l153 874q4 23 11.5 49.5t27 49t57 38t101.5 15.5q125 0 181 -69t34 -202l-119 -669q-10 -63 -17 -106.5t-8 -70t6.5 -39t30.5 -12.5q25 0 44.5 14.5t36 53.5t31.5 106.5t34 169.5q10 61 36.5 86t53.5 22t43 -31.5t8 -76.5q-27 -152 -65.5 -265 t-96 -190t-137.5 -117t-188 -42q-61 0 -105.5 10t-75 28.5t-49 44.5t-30.5 56q-25 59 -18 132zM118.5 1531q-22.5 30 10.5 68q115 133 226.5 196t193.5 63q51 0 100 -15.5t92 -42t78 -61.5t53 -72q25 -49 0.5 -91t-71.5 -68.5t-102.5 -34t-92.5 11.5q-35 16 -48 51 t-22.5 70.5t-21.5 64.5t-43 35q16 -37 -8.5 -92t-77.5 -98q-37 -31 -93 -36t-103.5 8t-70 43z" />
<glyph unicode="&#xcf;" horiz-adv-x="569" d="M52 271q7 73 20 141l153 874q4 23 11.5 49.5t27 49t57 38t101.5 15.5q125 0 181 -69t34 -202l-119 -669q-10 -63 -17 -106.5t-8 -70t6.5 -39t30.5 -12.5q25 0 44.5 14.5t36 53.5t31.5 106.5t34 169.5q10 61 36.5 86t53.5 22t43 -31.5t8 -76.5q-27 -152 -65.5 -265 t-96 -190t-137.5 -117t-188 -42q-61 0 -105.5 10t-75 28.5t-49 44.5t-30.5 56q-25 59 -18 132zM96 1677q14 78 73.5 131.5t160.5 53.5q98 0 138 -53.5t26 -131.5t-73 -133t-157 -55q-100 0 -141 55t-27 133zM522 1677q14 78 73.5 131.5t158.5 53.5q100 0 140 -53.5 t26 -131.5t-73 -133t-159 -55q-98 0 -139 55t-27 133z" />
<glyph unicode="&#xd0;" horiz-adv-x="1124" d="M33 190l69 402q-20 23 -24 50.5t2 57.5q4 29 18.5 56.5t42.5 50.5l86 483q8 47 24.5 77t42 45t58.5 20.5t76 5.5h277q172 0 277 -45t157.5 -134.5t56.5 -224.5t-29 -315q-31 -180 -77 -315.5t-120.5 -224.5t-185 -134t-272.5 -45h-336q-74 0 -118 42t-25 148z M476.5 350.5q0.5 -28.5 35.5 -28.5q47 0 83 28.5t62.5 80.5t46 125t35.5 163q16 88 21.5 159.5t-3.5 121t-35 76t-73 26.5q-18 0 -28.5 -4t-16.5 -18.5t-11 -40t-13 -70.5q-4 -25 -11.5 -58.5t-13.5 -74.5q47 -23 60.5 -59t7.5 -77q-8 -43 -34 -79.5t-81 -59.5l-16 -92 q-16 -90 -15.5 -118.5z" />
<glyph unicode="&#xd1;" horiz-adv-x="1234" d="M35 190q10 66 25.5 155t34 189.5t37 207t36.5 206t33.5 188.5t27.5 154q6 47 20.5 76t37 45t53.5 21.5t72 5.5h39q66 -2 113.5 -15.5t84.5 -43t65.5 -79t53.5 -124.5q49 -152 77.5 -277t45 -226.5t24 -177t13.5 -128.5q8 166 -2.5 289.5t-18.5 224t-5 185.5t40 169 q29 68 63.5 107.5t71.5 61t74 28t74 6.5q70 0 115.5 -42t29.5 -149q-16 -100 -43 -246.5t-54.5 -303t-54 -303t-42.5 -244.5q-8 -47 -18.5 -77t-28 -46.5t-45 -21.5t-66.5 -5q-76 0 -127 3t-91 18.5t-77 49t-84 97.5q-12 16 -24.5 67.5t-24.5 126t-25.5 163.5t-29 178.5 t-35 173.5t-41.5 147q2 -84 13 -187.5t17.5 -213t0 -218t-40.5 -204.5q-25 -68 -59 -107t-70.5 -60.5t-75.5 -27.5t-74 -6q-72 0 -113 42t-22 148zM483 1577q-6 37 10.5 82t65.5 92q82 82 171 85t161 -67q33 -29 55 -27.5t55 34.5q63 57 132 63t110 -26.5t38 -96t-83 -145.5 q-41 -43 -93 -65.5t-102.5 -25.5t-92.5 10t-66 44q-16 18 -27.5 29.5t-23 13.5t-24.5 -7t-34 -30q-41 -41 -83 -54t-77.5 -5t-60.5 33.5t-31 62.5z" />
<glyph unicode="&#xd2;" horiz-adv-x="1122" d="M94 340q-10 143 27 356t98.5 355.5t144 228.5t184 122t222.5 36t212 -36t143.5 -122t62.5 -228.5t-27 -355.5t-98.5 -356t-144 -229t-186 -123t-224.5 -37t-210 37t-141.5 123t-62.5 229zM509.5 1622q-16.5 59 14.5 125q33 66 92.5 101.5t137.5 9.5q27 -8 70.5 -28 t91 -47.5t92.5 -60t77 -63.5q14 -14 14.5 -39t-10 -49.5t-30 -44t-43.5 -21.5q-49 -6 -110.5 -5t-120 7t-106.5 14.5t-75 16.5q-78 25 -94.5 84zM513 356q3 -43 17 -56t37 -13q25 0 43.5 13t37 56t38 124t43.5 216q25 135 33 215t5 122t-17.5 55.5t-38.5 13.5 q-23 0 -41.5 -13.5t-37 -55.5t-38 -122t-43.5 -215q-25 -135 -33 -216t-5 -124z" />
<glyph unicode="&#xd3;" horiz-adv-x="1122" d="M94 340q-10 143 27 356t98.5 355.5t144 228.5t184 122t222.5 36t212 -36t143.5 -122t62.5 -228.5t-27 -355.5t-98.5 -356t-144 -229t-186 -123t-224.5 -37t-210 37t-141.5 123t-62.5 229zM513 356q3 -43 17 -56t37 -13q25 0 43.5 13t37 56t38 124t43.5 216q25 135 33 215 t5 122t-17.5 55.5t-38.5 13.5q-23 0 -41.5 -13.5t-37 -55.5t-38 -122t-43.5 -215q-25 -135 -33 -216t-5 -124zM538 1570.5q-3 24.5 5 49.5t28 39q45 31 102.5 63.5t114 60t106.5 47t79 28.5q86 27 135 -9t57 -102q6 -66 -30.5 -125t-122.5 -84q-29 -8 -81 -16.5 t-111.5 -14.5t-121 -7t-110.5 5q-23 2 -35 21.5t-15 44z" />
<glyph unicode="&#xd4;" horiz-adv-x="1122" d="M94 340q-10 143 27 356t98.5 355.5t144 228.5t184 122t222.5 36t212 -36t143.5 -122t62.5 -228.5t-27 -355.5t-98.5 -356t-144 -229t-186 -123t-224.5 -37t-210 37t-141.5 123t-62.5 229zM432.5 1535q-22.5 30 9.5 69q115 133 226.5 195.5t193.5 62.5q51 0 100.5 -15.5 t92.5 -42t77.5 -61.5t53.5 -72q25 -49 0 -91t-72 -68.5t-102.5 -34t-91.5 11.5q-35 16 -48.5 51t-22.5 71t-21.5 64.5t-43.5 34.5q16 -37 -8 -92t-78 -98q-37 -31 -93 -36t-103 8t-69.5 43zM513 356q3 -43 17 -56t37 -13q25 0 43.5 13t37 56t38 124t43.5 216q25 135 33 215 t5 122t-17.5 55.5t-38.5 13.5q-23 0 -41.5 -13.5t-37 -55.5t-38 -122t-43.5 -215q-25 -135 -33 -216t-5 -124z" />
<glyph unicode="&#xd5;" horiz-adv-x="1122" d="M94 340q-10 143 27 356t98.5 355.5t144 228.5t184 122t222.5 36t212 -36t143.5 -122t62.5 -228.5t-27 -355.5t-98.5 -356t-144 -229t-186 -123t-224.5 -37t-210 37t-141.5 123t-62.5 229zM450.5 1581q-6.5 37 10 82t65.5 92q82 82 171 85t161 -66q33 -29 55.5 -28 t55.5 34q63 57 131.5 63t109.5 -26.5t38 -96t-83 -145.5q-41 -43 -93 -65.5t-102 -25.5t-92 10t-67 44q-16 18 -27.5 29.5t-22.5 13.5t-24.5 -7t-34.5 -30q-41 -41 -82.5 -54t-77.5 -5t-60.5 33.5t-31 62.5zM513 356q3 -43 17 -56t37 -13q25 0 43.5 13t37 56t38 124 t43.5 216q25 135 33 215t5 122t-17.5 55.5t-38.5 13.5q-23 0 -41.5 -13.5t-37 -55.5t-38 -122t-43.5 -215q-25 -135 -33 -216t-5 -124z" />
<glyph unicode="&#xd6;" horiz-adv-x="1122" d="M94 340q-10 143 27 356t98.5 355.5t144 228.5t184 122t222.5 36t212 -36t143.5 -122t62.5 -228.5t-27 -355.5t-98.5 -356t-144 -229t-186 -123t-224.5 -37t-210 37t-141.5 123t-62.5 229zM416 1677q14 78 73.5 131.5t159.5 53.5q98 0 138 -53.5t26 -131.5t-72.5 -133 t-156.5 -55q-100 0 -141.5 55t-26.5 133zM513 356q3 -43 17 -56t37 -13q25 0 43.5 13t37 56t38 124t43.5 216q25 135 33 215t5 122t-17.5 55.5t-38.5 13.5q-23 0 -41.5 -13.5t-37 -55.5t-38 -122t-43.5 -215q-25 -135 -33 -216t-5 -124zM842 1677q14 78 73.5 131.5 t157.5 53.5q100 0 140 -53.5t26 -131.5t-72.5 -133t-158.5 -55q-98 0 -139.5 55t-26.5 133z" />
<glyph unicode="&#xd7;" horiz-adv-x="722" d="M126.5 411q8.5 52 84.5 136q-49 86 -38 139t52 88t95.5 37t128.5 -59q98 63 151 61t82 -35q14 -18 19.5 -39.5t-1 -49t-26 -62.5t-58.5 -78q47 -86 36 -139.5t-52 -87.5q-41 -35 -94 -36t-127 60q-96 -59 -149.5 -58t-82.5 36t-20.5 87z" />
<glyph unicode="&#xd8;" horiz-adv-x="1122" d="M-4.5 142.5q16.5 74.5 102.5 140.5q-10 80 -5 182t28 231q37 213 98.5 355.5t144 228.5t184 122t222.5 36q123 0 213 -37l27 18q98 66 173.5 50.5t114.5 -83.5q37 -66 16.5 -145.5t-116.5 -144.5q-4 -4 -7 -5t-7 -4q10 -78 5 -174t-28 -217q-37 -213 -98.5 -356 t-144 -229t-186 -123t-224.5 -37q-104 0 -191 29l-14 -11q-98 -66 -174 -49t-115 82q-35 66 -18.5 140.5zM513 356q3 -43 17 -56t37 -13q25 0 43.5 13t37 56t38 124t43.5 216q25 135 33 215t5 122t-17.5 55.5t-38.5 13.5q-23 0 -41.5 -13.5t-37 -55.5t-38 -122t-43.5 -215 q-25 -135 -33 -216t-5 -124z" />
<glyph unicode="&#xd9;" horiz-adv-x="1257" d="M107.5 235.5q3.5 94.5 25.5 219.5l121 694q6 27 1 43t-13.5 30.5t-13.5 30t-1 41.5q10 57 71.5 100.5t172.5 43.5q135 0 186.5 -61.5t24.5 -209.5l-109 -616q-14 -78 -18 -130t1 -83t18.5 -44t33.5 -13q29 0 55.5 17t47.5 46q29 35 49 109.5t37 167.5l2 20l114 645 q4 23 11.5 49.5t27 49t57.5 38t101 15.5q125 0 181.5 -69t33.5 -202l-119 -669q-10 -63 -17 -106.5t-8 -70t7 -39t31 -12.5q25 0 44 14.5t35.5 53.5t32 106.5t33.5 169.5q10 61 36.5 86t53.5 22t43 -31.5t8 -76.5q-27 -152 -65.5 -265t-96 -190t-137.5 -117t-188 -42 q-61 0 -105.5 10t-75 28.5t-49 44.5t-30.5 56q-18 39 -19 90q-27 -55 -65.5 -104t-83.5 -88t-96.5 -61.5t-102.5 -22.5q-109 0 -171 31.5t-89 94t-23.5 157zM542.5 1622q-16.5 59 14.5 125q33 66 92.5 101.5t136.5 9.5q27 -8 71 -28t91 -47.5t92 -60t78 -63.5 q14 -14 14.5 -39t-10 -49.5t-30 -44t-43.5 -21.5q-49 -6 -110.5 -5t-120 7t-106.5 14.5t-75 16.5q-78 25 -94.5 84z" />
<glyph unicode="&#xda;" horiz-adv-x="1257" d="M107.5 235.5q3.5 94.5 25.5 219.5l121 694q6 27 1 43t-13.5 30.5t-13.5 30t-1 41.5q10 57 71.5 100.5t172.5 43.5q135 0 186.5 -61.5t24.5 -209.5l-109 -616q-14 -78 -18 -130t1 -83t18.5 -44t33.5 -13q29 0 55.5 17t47.5 46q29 35 49 109.5t37 167.5l2 20l114 645 q4 23 11.5 49.5t27 49t57.5 38t101 15.5q125 0 181.5 -69t33.5 -202l-119 -669q-10 -63 -17 -106.5t-8 -70t7 -39t31 -12.5q25 0 44 14.5t35.5 53.5t32 106.5t33.5 169.5q10 61 36.5 86t53.5 22t43 -31.5t8 -76.5q-27 -152 -65.5 -265t-96 -190t-137.5 -117t-188 -42 q-61 0 -105.5 10t-75 28.5t-49 44.5t-30.5 56q-18 39 -19 90q-27 -55 -65.5 -104t-83.5 -88t-96.5 -61.5t-102.5 -22.5q-109 0 -171 31.5t-89 94t-23.5 157zM564 1570.5q-3 24.5 5.5 49.5t28.5 39q45 31 102.5 63.5t113.5 60t106.5 47t78.5 28.5q86 27 135.5 -9t57.5 -102 q6 -66 -31 -125t-123 -84q-29 -8 -81 -16.5t-111.5 -14.5t-120.5 -7t-111 5q-23 2 -35 21.5t-15 44z" />
<glyph unicode="&#xdb;" horiz-adv-x="1257" d="M107.5 235.5q3.5 94.5 25.5 219.5l121 694q6 27 1 43t-13.5 30.5t-13.5 30t-1 41.5q10 57 71.5 100.5t172.5 43.5q135 0 186.5 -61.5t24.5 -209.5l-109 -616q-14 -78 -18 -130t1 -83t18.5 -44t33.5 -13q29 0 55.5 17t47.5 46q29 35 49 109.5t37 167.5l2 20l114 645 q4 23 11.5 49.5t27 49t57.5 38t101 15.5q125 0 181.5 -69t33.5 -202l-119 -669q-10 -63 -17 -106.5t-8 -70t7 -39t31 -12.5q25 0 44 14.5t35.5 53.5t32 106.5t33.5 169.5q10 61 36.5 86t53.5 22t43 -31.5t8 -76.5q-27 -152 -65.5 -265t-96 -190t-137.5 -117t-188 -42 q-61 0 -105.5 10t-75 28.5t-49 44.5t-30.5 56q-18 39 -19 90q-27 -55 -65.5 -104t-83.5 -88t-96.5 -61.5t-102.5 -22.5q-109 0 -171 31.5t-89 94t-23.5 157zM444.5 1535q-22.5 30 10.5 69q115 133 226.5 195.5t192.5 62.5q51 0 100.5 -15.5t92.5 -42t78 -61.5t53 -72 q25 -49 0.5 -91t-72 -68.5t-102.5 -34t-92 11.5q-35 16 -48.5 51t-22.5 71t-21 64.5t-43 34.5q16 -37 -8.5 -92t-77.5 -98q-37 -31 -93.5 -36t-103.5 8t-69.5 43z" />
<glyph unicode="&#xdc;" horiz-adv-x="1257" d="M107.5 235.5q3.5 94.5 25.5 219.5l121 694q6 27 1 43t-13.5 30.5t-13.5 30t-1 41.5q10 57 71.5 100.5t172.5 43.5q135 0 186.5 -61.5t24.5 -209.5l-109 -616q-14 -78 -18 -130t1 -83t18.5 -44t33.5 -13q29 0 55.5 17t47.5 46q29 35 49 109.5t37 167.5l2 20l114 645 q4 23 11.5 49.5t27 49t57.5 38t101 15.5q125 0 181.5 -69t33.5 -202l-119 -669q-10 -63 -17 -106.5t-8 -70t7 -39t31 -12.5q25 0 44 14.5t35.5 53.5t32 106.5t33.5 169.5q10 61 36.5 86t53.5 22t43 -31.5t8 -76.5q-27 -152 -65.5 -265t-96 -190t-137.5 -117t-188 -42 q-61 0 -105.5 10t-75 28.5t-49 44.5t-30.5 56q-18 39 -19 90q-27 -55 -65.5 -104t-83.5 -88t-96.5 -61.5t-102.5 -22.5q-109 0 -171 31.5t-89 94t-23.5 157zM432 1661q14 78 73.5 131t160.5 53q98 0 137.5 -53t25.5 -131t-72.5 -133t-156.5 -55q-100 0 -141 55t-27 133z M858 1661q14 78 73.5 131t158.5 53q100 0 139.5 -53t25.5 -131t-72.5 -133t-158.5 -55q-98 0 -139 55t-27 133z" />
<glyph unicode="&#xdd;" horiz-adv-x="966" d="M202.5 1260q-5.5 69 4.5 108t37.5 54.5t72.5 15.5q53 0 85 -6.5t53.5 -32t40 -79.5t47.5 -151q23 -76 17.5 -153.5t-46.5 -175.5q57 100 78.5 172.5t36.5 97.5q66 117 107.5 182.5t85.5 98t101.5 40t153.5 7.5q66 0 96.5 -17.5t28.5 -58.5t-34 -109t-89 -168 q-49 -86 -96 -150.5t-87 -117.5t-67.5 -101t-37.5 -102l-35 -204q-16 -98 -37 -177t-66 -131q-47 -55 -105.5 -78.5t-129.5 -23.5q-109 0 -147 34t-29 81q4 18 11 33.5t15 35t17.5 48t17.5 75.5l55 316q-20 45 -38.5 103t-34 119.5t-28.5 123t-26 116.5q-23 106 -28.5 175z M439 1570.5q-3 24.5 5.5 49.5t28.5 39q45 31 102.5 63.5t113.5 60t106.5 47t78.5 28.5q86 27 135.5 -9t57.5 -102q6 -66 -31 -125t-123 -84q-29 -8 -81 -16.5t-111 -14.5t-120.5 -7t-111.5 5q-23 2 -35 21.5t-15 44z" />
<glyph unicode="&#xde;" horiz-adv-x="1071" d="M45.5 232q9.5 79 26.5 176l155 882q8 47 24.5 77t40 45t54.5 20.5t72 5.5q139 2 191.5 -60.5t31.5 -177.5l-2 -8q162 0 267.5 -34t161.5 -97.5t68.5 -154.5t-14.5 -206q-29 -131 -98.5 -226t-159.5 -152.5t-192.5 -74t-196.5 10.5l-2 2l-4 -29q-10 -59 -16.5 -102 t-23.5 -71.5t-54 -43t-107 -14.5q-72 0 -125 23.5t-82 78.5q-25 51 -15.5 130zM508 451q41 0 80 20.5t70.5 53t54 72.5t28.5 81q12 68 -5 123t-77 55q-20 0 -35.5 -3t-27.5 -15.5t-21.5 -37t-15.5 -67.5q-4 -18 -11 -64t-18 -96q-10 -56 -22 -122z" />
<glyph unicode="&#xdf;" horiz-adv-x="1124" d="M8 51l168 957q25 139 71 231t116.5 146.5t165.5 77t216 22.5q188 0 291 -64.5t130.5 -162t-12.5 -213t-132 -218.5q-29 -31 -54.5 -56.5t-40 -42.5t-13.5 -27.5t26 -10.5q39 0 75 -20.5t60.5 -63.5t32.5 -108.5t-8 -153.5q53 49 86 124t45 146q10 61 36.5 86t53.5 22 t43 -31.5t8 -76.5q-23 -131 -80 -250.5t-141 -212t-192.5 -146.5t-235.5 -54q-74 0 -118 26.5t-65.5 67.5t-22.5 87t12.5 87t37 67.5t51.5 26.5q29 0 50.5 27t27.5 61q6 39 -11 70t-38.5 59.5t-39 62.5t-9.5 79q8 41 19.5 69.5t26.5 57t32.5 64.5t36.5 91q31 86 22.5 144.5 t-61.5 58.5q-20 0 -31.5 -12t-19 -41t-14.5 -79t-19 -124l-141 -799q-20 -115 -98.5 -181t-198.5 -66q-31 0 -60 10t-50.5 33.5t-31.5 61.5t-2 91z" />
<glyph unicode="&#xe0;" horiz-adv-x="1196" d="M79 330.5q-5 107.5 14.5 220.5t62.5 220.5t105.5 192.5t142 136t176.5 51q82 0 136 -55.5t79 -134.5q45 61 109.5 101t129.5 40q70 0 105 -15.5t46 -47t5 -84t-19 -126.5l-45 -254q-16 -88 -25 -146t-9 -94t10 -50.5t33 -14.5q27 0 50 15.5t42.5 54.5t38 105.5 t37.5 168.5q10 61 36.5 86t53 22t43 -31.5t8.5 -76.5q-27 -156 -69 -270.5t-103.5 -191t-146.5 -114.5t-197 -38q-76 0 -145.5 25.5t-106.5 89.5q-59 -72 -135 -118t-172 -46q-94 0 -156.5 51t-95.5 136t-38 192.5zM479 1329q-16 59 15 125q33 66 92 101.5t137 9.5 q27 -8 71 -27.5t91 -47.5t92 -60.5t78 -63.5q14 -14 14 -38.5t-10 -49.5t-29.5 -44.5t-44.5 -21.5q-49 -6 -110.5 -5t-120 7.5t-106.5 14.5t-75 16q-78 25 -94 84zM510 421q-4 -52 1 -83t17.5 -44t32.5 -13q29 0 50.5 27.5t39 87t36 152.5t40.5 224q-10 18 -26.5 34.5 t-45.5 16.5q-41 0 -70.5 -58t-56.5 -214q-14 -78 -18 -130z" />
<glyph unicode="&#xe1;" horiz-adv-x="1196" d="M79 330.5q-5 107.5 14.5 220.5t62.5 220.5t105.5 192.5t142 136t176.5 51q82 0 136 -55.5t79 -134.5q45 61 109.5 101t129.5 40q70 0 105 -15.5t46 -47t5 -84t-19 -126.5l-45 -254q-16 -88 -25 -146t-9 -94t10 -50.5t33 -14.5q27 0 50 15.5t42.5 54.5t38 105.5 t37.5 168.5q10 61 36.5 86t53 22t43 -31.5t8.5 -76.5q-27 -156 -69 -270.5t-103.5 -191t-146.5 -114.5t-197 -38q-76 0 -145.5 25.5t-106.5 89.5q-59 -72 -135 -118t-172 -46q-94 0 -156.5 51t-95.5 136t-38 192.5zM510 421q-4 -52 1 -83t17.5 -44t32.5 -13q29 0 50.5 27.5 t39 87t36 152.5t40.5 224q-10 18 -26.5 34.5t-45.5 16.5q-41 0 -70.5 -58t-56.5 -214q-14 -78 -18 -130zM523 1278q-3 25 5.5 49.5t28.5 38.5q45 31 102.5 63.5t113.5 60.5t106.5 47t78.5 28q86 27 135.5 -9t57.5 -102q6 -66 -31 -125t-123 -84q-29 -8 -81 -16t-111.5 -14.5 t-120.5 -7.5t-111 5q-23 2 -35 21.5t-15 44.5z" />
<glyph unicode="&#xe2;" horiz-adv-x="1196" d="M79 330.5q-5 107.5 14.5 220.5t62.5 220.5t105.5 192.5t142 136t176.5 51q82 0 136 -55.5t79 -134.5q45 61 109.5 101t129.5 40q70 0 105 -15.5t46 -47t5 -84t-19 -126.5l-45 -254q-16 -88 -25 -146t-9 -94t10 -50.5t33 -14.5q27 0 50 15.5t42.5 54.5t38 105.5 t37.5 168.5q10 61 36.5 86t53 22t43 -31.5t8.5 -76.5q-27 -156 -69 -270.5t-103.5 -191t-146.5 -114.5t-197 -38q-76 0 -145.5 25.5t-106.5 89.5q-59 -72 -135 -118t-172 -46q-94 0 -156.5 51t-95.5 136t-38 192.5zM442.5 1262.5q-22.5 29.5 10.5 68.5q115 133 226.5 195.5 t192.5 62.5q51 0 100.5 -15t92.5 -42t78 -61.5t53 -71.5q25 -49 0 -91t-72 -69t-102 -34t-92 12q-35 16 -48.5 51t-22.5 70.5t-21 64.5t-43 35q16 -37 -8.5 -92.5t-77.5 -98.5q-37 -31 -93.5 -36t-103.5 8.5t-69.5 43zM510 421q-4 -52 1 -83t17.5 -44t32.5 -13 q29 0 50.5 27.5t39 87t36 152.5t40.5 224q-10 18 -26.5 34.5t-45.5 16.5q-41 0 -70.5 -58t-56.5 -214q-14 -78 -18 -130z" />
<glyph unicode="&#xe3;" horiz-adv-x="1196" d="M79 330.5q-5 107.5 14.5 220.5t62.5 220.5t105.5 192.5t142 136t176.5 51q82 0 136 -55.5t79 -134.5q45 61 109.5 101t129.5 40q70 0 105 -15.5t46 -47t5 -84t-19 -126.5l-45 -254q-16 -88 -25 -146t-9 -94t10 -50.5t33 -14.5q27 0 50 15.5t42.5 54.5t38 105.5 t37.5 168.5q10 61 36.5 86t53 22t43 -31.5t8.5 -76.5q-27 -156 -69 -270.5t-103.5 -191t-146.5 -114.5t-197 -38q-76 0 -145.5 25.5t-106.5 89.5q-59 -72 -135 -118t-172 -46q-94 0 -156.5 51t-95.5 136t-38 192.5zM434 1284q-6 37 10.5 82t65.5 92q82 82 171 85t161 -66 q33 -29 55 -28t55 34q63 57 132 63t110 -26.5t38 -96t-83 -145.5q-41 -43 -93 -65.5t-102.5 -25.5t-92.5 10t-66 44q-16 18 -27.5 29.5t-23 13.5t-24.5 -7t-34 -30q-41 -41 -83 -54t-78 -5t-60.5 33.5t-30.5 62.5zM510 421q-4 -52 1 -83t17.5 -44t32.5 -13q29 0 50.5 27.5 t39 87t36 152.5t40.5 224q-10 18 -26.5 34.5t-45.5 16.5q-41 0 -70.5 -58t-56.5 -214q-14 -78 -18 -130z" />
<glyph unicode="&#xe4;" horiz-adv-x="1196" d="M79 330.5q-5 107.5 14.5 220.5t62.5 220.5t105.5 192.5t142 136t176.5 51q82 0 136 -55.5t79 -134.5q45 61 109.5 101t129.5 40q70 0 105 -15.5t46 -47t5 -84t-19 -126.5l-45 -254q-16 -88 -25 -146t-9 -94t10 -50.5t33 -14.5q27 0 50 15.5t42.5 54.5t38 105.5 t37.5 168.5q10 61 36.5 86t53 22t43 -31.5t8.5 -76.5q-27 -156 -69 -270.5t-103.5 -191t-146.5 -114.5t-197 -38q-76 0 -145.5 25.5t-106.5 89.5q-59 -72 -135 -118t-172 -46q-94 0 -156.5 51t-95.5 136t-38 192.5zM408 1384q14 78 73.5 131.5t159.5 53.5q98 0 138 -53.5 t26 -131.5t-72.5 -133t-157.5 -55q-100 0 -141 55.5t-26 132.5zM510 421q-4 -52 1 -83t17.5 -44t32.5 -13q29 0 50.5 27.5t39 87t36 152.5t40.5 224q-10 18 -26.5 34.5t-45.5 16.5q-41 0 -70.5 -58t-56.5 -214q-14 -78 -18 -130zM834 1384q14 78 73.5 131.5t157.5 53.5 q100 0 140 -53.5t26 -131.5t-72.5 -133t-159.5 -55q-98 0 -139 55.5t-26 132.5z" />
<glyph unicode="&#xe5;" horiz-adv-x="1196" d="M79 330.5q-5 107.5 14.5 220.5t62.5 220.5t105.5 192.5t142 136t176.5 51q82 0 136 -55.5t79 -134.5q45 61 109.5 101t129.5 40q70 0 105 -15.5t46 -47t5 -84t-19 -126.5l-45 -254q-16 -88 -25 -146t-9 -94t10 -50.5t33 -14.5q27 0 50 15.5t42.5 54.5t38 105.5 t37.5 168.5q10 61 36.5 86t53 22t43 -31.5t8.5 -76.5q-27 -156 -69 -270.5t-103.5 -191t-146.5 -114.5t-197 -38q-76 0 -145.5 25.5t-106.5 89.5q-59 -72 -135 -118t-172 -46q-94 0 -156.5 51t-95.5 136t-38 192.5zM510 421q-4 -52 1 -83t17.5 -44t32.5 -13q29 0 50.5 27.5 t39 87t36 152.5t40.5 224q-10 18 -26.5 34.5t-45.5 16.5q-41 0 -70.5 -58t-56.5 -214q-14 -78 -18 -130zM545 1405q16 90 91 152.5t204 62.5q131 0 183 -62.5t36 -152.5t-90 -153.5t-205 -63.5q-129 0 -182.5 63.5t-36.5 153.5zM737 1405q-4 -23 9.5 -40t46.5 -17 q35 0 52 17t21 40t-8 39t-47 16q-33 0 -51.5 -16.5t-22.5 -38.5z" />
<glyph unicode="&#xe6;" horiz-adv-x="1654" d="M79 330.5q-5 107.5 14.5 220.5t62.5 220.5t105.5 192.5t142 136t176.5 51q53 0 95 -24.5t70.5 -64.5t46 -92t21.5 -108q90 156 222 222.5t288 66.5q84 0 160 -24.5t130 -70.5t82.5 -111.5t18.5 -145.5q-12 -104 -64.5 -190.5t-134 -142.5t-186 -75.5t-221.5 8.5 q-6 -98 35 -154.5t105.5 -72.5t145.5 4.5t155.5 77.5t132 147.5t79.5 212.5q10 61 37 86t53.5 22t43 -31.5t8.5 -76.5q-31 -174 -115 -304t-197.5 -213t-241.5 -118.5t-248 -22.5t-216.5 76.5t-145.5 178.5q-31 -55 -68.5 -102.5t-83.5 -82t-101.5 -55t-116.5 -20.5 q-94 0 -156.5 51t-95.5 136t-38 192.5zM510 421q-4 -52 1 -83t17.5 -44t32.5 -13q29 0 50.5 27.5t39 87t36 152.5t40.5 224q-10 18 -26.5 34.5t-45.5 16.5q-41 0 -70.5 -58t-56.5 -214q-14 -78 -18 -130zM1130 543q45 -16 82 3t62.5 57t40 87t15.5 92t-13 73t-45 30 t-52.5 -35t-39 -87t-29.5 -111.5t-21 -108.5z" />
<glyph unicode="&#xe7;" horiz-adv-x="1042" d="M87 322.5q-15 101.5 7 228.5q29 164 88.5 278.5t139 186t179 103.5t208.5 32q113 0 192.5 -33t125.5 -93t59.5 -144t-5.5 -185q-14 -78 -52 -131t-87 -83.5t-101.5 -40t-94 1t-66.5 40t-16 74.5q8 45 17 102.5t11 107.5t-6 84t-33 34q-47 0 -75.5 -92.5t-55.5 -241.5 q-27 -145 4 -232.5t93.5 -121t144.5 -20.5t161 69.5t140 149.5t84 218q10 61 36.5 86t53.5 22t43 -31.5t8 -76.5q-25 -147 -92.5 -269t-164.5 -209t-217 -136t-251 -49q0 -4 -1 -7t-1 -7q-2 -14 18.5 -23.5t51.5 -19t65.5 -21.5t62 -33.5t43 -53.5t7.5 -81q-8 -47 -41 -87 t-83 -68.5t-114.5 -45t-134.5 -16.5q-156 0 -240.5 61.5t-66.5 165.5q12 78 56 111t93.5 35t92.5 -22.5t53 -61.5q6 -23 8 -43.5t4 -35.5t9.5 -23.5t25.5 -8.5t34.5 11.5t22 31t-3 44t-34.5 50.5q-12 12 -27.5 23.5t-28 28t-15.5 42t9 66.5q-92 18 -163.5 64.5t-118 120 t-61.5 175z" />
<glyph unicode="&#xe8;" horiz-adv-x="1042" d="M98 575q31 158 90.5 267.5t139.5 178.5t177 99.5t204 30.5q84 0 159.5 -24.5t130 -70.5t83 -111.5t18.5 -145.5q-12 -104 -64.5 -190.5t-134.5 -142.5t-186.5 -75.5t-220.5 8.5q-6 -98 34.5 -154.5t105 -72.5t145.5 4.5t156 77.5t132 147.5t80 212.5q10 61 36.5 86 t53.5 22t43 -31.5t8 -76.5q-29 -158 -100.5 -279.5t-168.5 -204.5t-212 -128t-226.5 -49t-212 30.5t-170 112.5t-99 197t-1.5 282zM454.5 1321q-16.5 59 14.5 125q33 66 92.5 101.5t136.5 8.5q27 -8 71 -27.5t91 -47t92 -60t78 -63.5q14 -14 14 -39t-10 -49.5t-29.5 -44 t-43.5 -21.5q-49 -6 -111 -5t-120 7t-106.5 14.5t-74.5 16.5q-78 25 -94.5 84zM516 543q45 -16 82 3t62.5 57t40 87t15.5 92t-13.5 73t-45.5 30t-52 -35t-38.5 -87t-30 -111.5t-20.5 -108.5z" />
<glyph unicode="&#xe9;" horiz-adv-x="1042" d="M98 575q31 158 90.5 267.5t139.5 178.5t177 99.5t204 30.5q84 0 159.5 -24.5t130 -70.5t83 -111.5t18.5 -145.5q-12 -104 -64.5 -190.5t-134.5 -142.5t-186.5 -75.5t-220.5 8.5q-6 -98 34.5 -154.5t105 -72.5t145.5 4.5t156 77.5t132 147.5t80 212.5q10 61 36.5 86 t53.5 22t43 -31.5t8 -76.5q-29 -158 -100.5 -279.5t-168.5 -204.5t-212 -128t-226.5 -49t-212 30.5t-170 112.5t-99 197t-1.5 282zM468 1278q-3 25 5 49.5t29 38.5q45 31 102.5 63.5t113.5 60.5t106 47t79 28q86 27 135.5 -9t57.5 -102q6 -66 -31 -125t-123 -84 q-29 -8 -81 -16t-111.5 -14.5t-121 -7.5t-110.5 5q-23 2 -35 21.5t-15 44.5zM516 543q45 -16 82 3t62.5 57t40 87t15.5 92t-13.5 73t-45.5 30t-52 -35t-38.5 -87t-30 -111.5t-20.5 -108.5z" />
<glyph unicode="&#xea;" horiz-adv-x="1042" d="M98 575q31 158 90.5 267.5t139.5 178.5t177 99.5t204 30.5q84 0 159.5 -24.5t130 -70.5t83 -111.5t18.5 -145.5q-12 -104 -64.5 -190.5t-134.5 -142.5t-186.5 -75.5t-220.5 8.5q-6 -98 34.5 -154.5t105 -72.5t145.5 4.5t156 77.5t132 147.5t80 212.5q10 61 36.5 86 t53.5 22t43 -31.5t8 -76.5q-29 -158 -100.5 -279.5t-168.5 -204.5t-212 -128t-226.5 -49t-212 30.5t-170 112.5t-99 197t-1.5 282zM383 1242q-23 30 10 69q115 133 226.5 195.5t193.5 62.5q51 0 100.5 -15.5t92.5 -42t77.5 -61.5t53.5 -72q25 -49 0 -91t-72 -68.5 t-102.5 -33.5t-92.5 11q-35 16 -48 51t-22 71t-21.5 64.5t-43.5 34.5q16 -37 -8.5 -92t-77.5 -98q-37 -31 -93 -36t-103 8t-70 43zM516 543q45 -16 82 3t62.5 57t40 87t15.5 92t-13.5 73t-45.5 30t-52 -35t-38.5 -87t-30 -111.5t-20.5 -108.5z" />
<glyph unicode="&#xeb;" horiz-adv-x="1042" d="M98 575q31 158 90.5 267.5t139.5 178.5t177 99.5t204 30.5q84 0 159.5 -24.5t130 -70.5t83 -111.5t18.5 -145.5q-12 -104 -64.5 -190.5t-134.5 -142.5t-186.5 -75.5t-220.5 8.5q-6 -98 34.5 -154.5t105 -72.5t145.5 4.5t156 77.5t132 147.5t80 212.5q10 61 36.5 86 t53.5 22t43 -31.5t8 -76.5q-29 -158 -100.5 -279.5t-168.5 -204.5t-212 -128t-226.5 -49t-212 30.5t-170 112.5t-99 197t-1.5 282zM348 1382q14 78 73.5 131.5t160.5 53.5q98 0 137.5 -53.5t25.5 -131.5t-72.5 -133t-156.5 -55q-100 0 -141 55.5t-27 132.5zM516 543 q45 -16 82 3t62.5 57t40 87t15.5 92t-13.5 73t-45.5 30t-52 -35t-38.5 -87t-30 -111.5t-20.5 -108.5zM774 1382q14 78 73.5 131.5t158.5 53.5q100 0 139.5 -53.5t25.5 -131.5t-72.5 -133t-158.5 -55q-98 0 -139 55.5t-27 132.5z" />
<glyph unicode="&#xec;" horiz-adv-x="612" d="M52 271q7 73 20 141l57 323q27 147 96.5 210t198.5 63q49 0 83 -7.5t52.5 -29t22.5 -60.5t-9 -100l-55 -313q-20 -127 -15 -176.5t48 -51.5q25 0 48.5 14.5t44 53.5t38.5 106.5t37 169.5q10 61 36.5 86t53.5 22t43 -31.5t8 -76.5q-53 -305 -173 -456.5t-337 -157.5 q-125 0 -190.5 40t-89.5 99q-25 59 -18 132zM126.5 1227q-16.5 59 14.5 125q33 66 92.5 101.5t137.5 8.5q27 -8 70.5 -27.5t91 -47t92.5 -60.5t77 -63q14 -14 14.5 -39t-10 -49.5t-30 -44t-43.5 -21.5q-49 -6 -110.5 -5t-120 7t-106.5 14.5t-75 16.5q-78 25 -94.5 84z" />
<glyph unicode="&#xed;" horiz-adv-x="612" d="M52 271q7 73 20 141l57 323q27 147 96.5 210t198.5 63q49 0 83 -7.5t52.5 -29t22.5 -60.5t-9 -100l-55 -313q-20 -127 -15 -176.5t48 -51.5q25 0 48.5 14.5t44 53.5t38.5 106.5t37 169.5q10 61 36.5 86t53.5 22t43 -31.5t8 -76.5q-53 -305 -173 -456.5t-337 -157.5 q-125 0 -190.5 40t-89.5 99q-25 59 -18 132zM200 1196q-3 25 5 49.5t28 38.5q45 31 102.5 63.5t114 60.5t106.5 47.5t79 27.5q86 27 135 -9t57 -102q6 -66 -30.5 -125t-122.5 -84q-29 -8 -81 -16t-111.5 -14.5t-121 -7.5t-110.5 5q-23 2 -35 21.5t-15 44.5z" />
<glyph unicode="&#xee;" horiz-adv-x="612" d="M52 271q7 73 20 141l57 323q27 147 96.5 210t198.5 63q49 0 83 -7.5t52.5 -29t22.5 -60.5t-9 -100l-55 -313q-20 -127 -15 -176.5t48 -51.5q25 0 48.5 14.5t44 53.5t38.5 106.5t37 169.5q10 61 36.5 86t53.5 22t43 -31.5t8 -76.5q-53 -305 -173 -456.5t-337 -157.5 q-125 0 -190.5 40t-89.5 99q-25 59 -18 132zM86 1162.5q-23 29.5 10 68.5q115 133 226.5 195.5t193.5 62.5q51 0 100.5 -15.5t92.5 -42t77.5 -61.5t53.5 -72q25 -49 0 -91t-72 -68.5t-102.5 -33.5t-92.5 11q-35 16 -48 51t-22 71t-21.5 64.5t-43.5 34.5q16 -37 -8 -92 t-78 -98q-37 -31 -93 -36t-103 8.5t-70 43z" />
<glyph unicode="&#xef;" horiz-adv-x="612" d="M47 1323q14 78 73.5 131t160.5 53q98 0 137.5 -53t25.5 -131t-72.5 -133t-156.5 -55q-100 0 -141 55t-27 133zM52 271q7 73 20 141l57 323q27 147 96.5 210t198.5 63q49 0 83 -7.5t52.5 -29t22.5 -60.5t-9 -100l-55 -313q-20 -127 -15 -176.5t48 -51.5q25 0 48.5 14.5 t44 53.5t38.5 106.5t37 169.5q10 61 36.5 86t53.5 22t43 -31.5t8 -76.5q-53 -305 -173 -456.5t-337 -157.5q-125 0 -190.5 40t-89.5 99q-25 59 -18 132zM473 1323q14 78 73.5 131t158.5 53q100 0 139.5 -53t25.5 -131t-72.5 -133t-158.5 -55q-98 0 -139 55t-27 133z" />
</font>
</defs>
</svg>
